<?xml version="1.0" encoding="utf-8" standalone="no"?>
<!DOCTYPE svg PUBLIC "-//W3C//DTD SVG 1.1//EN"
  "http://www.w3.org/Graphics/SVG/1.1/DTD/svg11.dtd">
<svg xmlns:xlink="http://www.w3.org/1999/xlink" width="720pt" height="432pt" viewBox="0 0 720 432" xmlns="http://www.w3.org/2000/svg" version="1.1">
 <metadata>
  <rdf:RDF xmlns:dc="http://purl.org/dc/elements/1.1/" xmlns:cc="http://creativecommons.org/ns#" xmlns:rdf="http://www.w3.org/1999/02/22-rdf-syntax-ns#">
   <cc:Work>
    <dc:type rdf:resource="http://purl.org/dc/dcmitype/StillImage"/>
    <dc:date>2025-08-21T13:13:21.781474</dc:date>
    <dc:format>image/svg+xml</dc:format>
    <dc:creator>
     <cc:Agent>
      <dc:title>Matplotlib v3.10.3, https://matplotlib.org/</dc:title>
     </cc:Agent>
    </dc:creator>
   </cc:Work>
  </rdf:RDF>
 </metadata>
 <defs>
  <style type="text/css">*{stroke-linejoin: round; stroke-linecap: butt}</style>
 </defs>
 <g id="figure_1">
  <g id="patch_1">
   <path d="M 0 432 
L 720 432 
L 720 0 
L 0 0 
z
" style="fill: #ffffff"/>
  </g>
  <g id="axes_1">
   <g id="patch_2">
    <path d="M 47.72 390.04 
L 709.2 390.04 
L 709.2 26.88 
L 47.72 26.88 
z
" style="fill: #ffffff"/>
   </g>
   <g id="matplotlib.axis_1">
    <g id="xtick_1">
     <g id="line2d_1">
      <path d="M 77.787273 390.04 
L 77.787273 26.88 
" clip-path="url(#p3b1579d2c9)" style="fill: none; stroke: #b0b0b0; stroke-width: 0.8; stroke-linecap: square"/>
     </g>
     <g id="line2d_2">
      <defs>
       <path id="mab5cd08795" d="M 0 0 
L 0 3.5 
" style="stroke: #000000; stroke-width: 0.8"/>
      </defs>
      <g>
       <use xlink:href="#mab5cd08795" x="77.787273" y="390.04" style="stroke: #000000; stroke-width: 0.8"/>
      </g>
     </g>
     <g id="text_1">
      <!-- 0 -->
      <g transform="translate(74.606023 404.638438) scale(0.1 -0.1)">
       <defs>
        <path id="DejaVuSans-30" d="M 2034 4250 
Q 1547 4250 1301 3770 
Q 1056 3291 1056 2328 
Q 1056 1369 1301 889 
Q 1547 409 2034 409 
Q 2525 409 2770 889 
Q 3016 1369 3016 2328 
Q 3016 3291 2770 3770 
Q 2525 4250 2034 4250 
z
M 2034 4750 
Q 2819 4750 3233 4129 
Q 3647 3509 3647 2328 
Q 3647 1150 3233 529 
Q 2819 -91 2034 -91 
Q 1250 -91 836 529 
Q 422 1150 422 2328 
Q 422 3509 836 4129 
Q 1250 4750 2034 4750 
z
" transform="scale(0.015625)"/>
       </defs>
       <use xlink:href="#DejaVuSans-30"/>
      </g>
     </g>
    </g>
    <g id="xtick_2">
     <g id="line2d_3">
      <path d="M 181.467524 390.04 
L 181.467524 26.88 
" clip-path="url(#p3b1579d2c9)" style="fill: none; stroke: #b0b0b0; stroke-width: 0.8; stroke-linecap: square"/>
     </g>
     <g id="line2d_4">
      <g>
       <use xlink:href="#mab5cd08795" x="181.467524" y="390.04" style="stroke: #000000; stroke-width: 0.8"/>
      </g>
     </g>
     <g id="text_2">
      <!-- 10 -->
      <g transform="translate(175.105024 404.638438) scale(0.1 -0.1)">
       <defs>
        <path id="DejaVuSans-31" d="M 794 531 
L 1825 531 
L 1825 4091 
L 703 3866 
L 703 4441 
L 1819 4666 
L 2450 4666 
L 2450 531 
L 3481 531 
L 3481 0 
L 794 0 
L 794 531 
z
" transform="scale(0.015625)"/>
       </defs>
       <use xlink:href="#DejaVuSans-31"/>
       <use xlink:href="#DejaVuSans-30" transform="translate(63.623047 0)"/>
      </g>
     </g>
    </g>
    <g id="xtick_3">
     <g id="line2d_5">
      <path d="M 285.147774 390.04 
L 285.147774 26.88 
" clip-path="url(#p3b1579d2c9)" style="fill: none; stroke: #b0b0b0; stroke-width: 0.8; stroke-linecap: square"/>
     </g>
     <g id="line2d_6">
      <g>
       <use xlink:href="#mab5cd08795" x="285.147774" y="390.04" style="stroke: #000000; stroke-width: 0.8"/>
      </g>
     </g>
     <g id="text_3">
      <!-- 20 -->
      <g transform="translate(278.785274 404.638438) scale(0.1 -0.1)">
       <defs>
        <path id="DejaVuSans-32" d="M 1228 531 
L 3431 531 
L 3431 0 
L 469 0 
L 469 531 
Q 828 903 1448 1529 
Q 2069 2156 2228 2338 
Q 2531 2678 2651 2914 
Q 2772 3150 2772 3378 
Q 2772 3750 2511 3984 
Q 2250 4219 1831 4219 
Q 1534 4219 1204 4116 
Q 875 4013 500 3803 
L 500 4441 
Q 881 4594 1212 4672 
Q 1544 4750 1819 4750 
Q 2544 4750 2975 4387 
Q 3406 4025 3406 3419 
Q 3406 3131 3298 2873 
Q 3191 2616 2906 2266 
Q 2828 2175 2409 1742 
Q 1991 1309 1228 531 
z
" transform="scale(0.015625)"/>
       </defs>
       <use xlink:href="#DejaVuSans-32"/>
       <use xlink:href="#DejaVuSans-30" transform="translate(63.623047 0)"/>
      </g>
     </g>
    </g>
    <g id="xtick_4">
     <g id="line2d_7">
      <path d="M 388.828025 390.04 
L 388.828025 26.88 
" clip-path="url(#p3b1579d2c9)" style="fill: none; stroke: #b0b0b0; stroke-width: 0.8; stroke-linecap: square"/>
     </g>
     <g id="line2d_8">
      <g>
       <use xlink:href="#mab5cd08795" x="388.828025" y="390.04" style="stroke: #000000; stroke-width: 0.8"/>
      </g>
     </g>
     <g id="text_4">
      <!-- 30 -->
      <g transform="translate(382.465525 404.638438) scale(0.1 -0.1)">
       <defs>
        <path id="DejaVuSans-33" d="M 2597 2516 
Q 3050 2419 3304 2112 
Q 3559 1806 3559 1356 
Q 3559 666 3084 287 
Q 2609 -91 1734 -91 
Q 1441 -91 1130 -33 
Q 819 25 488 141 
L 488 750 
Q 750 597 1062 519 
Q 1375 441 1716 441 
Q 2309 441 2620 675 
Q 2931 909 2931 1356 
Q 2931 1769 2642 2001 
Q 2353 2234 1838 2234 
L 1294 2234 
L 1294 2753 
L 1863 2753 
Q 2328 2753 2575 2939 
Q 2822 3125 2822 3475 
Q 2822 3834 2567 4026 
Q 2313 4219 1838 4219 
Q 1578 4219 1281 4162 
Q 984 4106 628 3988 
L 628 4550 
Q 988 4650 1302 4700 
Q 1616 4750 1894 4750 
Q 2613 4750 3031 4423 
Q 3450 4097 3450 3541 
Q 3450 3153 3228 2886 
Q 3006 2619 2597 2516 
z
" transform="scale(0.015625)"/>
       </defs>
       <use xlink:href="#DejaVuSans-33"/>
       <use xlink:href="#DejaVuSans-30" transform="translate(63.623047 0)"/>
      </g>
     </g>
    </g>
    <g id="xtick_5">
     <g id="line2d_9">
      <path d="M 492.508276 390.04 
L 492.508276 26.88 
" clip-path="url(#p3b1579d2c9)" style="fill: none; stroke: #b0b0b0; stroke-width: 0.8; stroke-linecap: square"/>
     </g>
     <g id="line2d_10">
      <g>
       <use xlink:href="#mab5cd08795" x="492.508276" y="390.04" style="stroke: #000000; stroke-width: 0.8"/>
      </g>
     </g>
     <g id="text_5">
      <!-- 40 -->
      <g transform="translate(486.145776 404.638438) scale(0.1 -0.1)">
       <defs>
        <path id="DejaVuSans-34" d="M 2419 4116 
L 825 1625 
L 2419 1625 
L 2419 4116 
z
M 2253 4666 
L 3047 4666 
L 3047 1625 
L 3713 1625 
L 3713 1100 
L 3047 1100 
L 3047 0 
L 2419 0 
L 2419 1100 
L 313 1100 
L 313 1709 
L 2253 4666 
z
" transform="scale(0.015625)"/>
       </defs>
       <use xlink:href="#DejaVuSans-34"/>
       <use xlink:href="#DejaVuSans-30" transform="translate(63.623047 0)"/>
      </g>
     </g>
    </g>
    <g id="xtick_6">
     <g id="line2d_11">
      <path d="M 596.188527 390.04 
L 596.188527 26.88 
" clip-path="url(#p3b1579d2c9)" style="fill: none; stroke: #b0b0b0; stroke-width: 0.8; stroke-linecap: square"/>
     </g>
     <g id="line2d_12">
      <g>
       <use xlink:href="#mab5cd08795" x="596.188527" y="390.04" style="stroke: #000000; stroke-width: 0.8"/>
      </g>
     </g>
     <g id="text_6">
      <!-- 50 -->
      <g transform="translate(589.826027 404.638438) scale(0.1 -0.1)">
       <defs>
        <path id="DejaVuSans-35" d="M 691 4666 
L 3169 4666 
L 3169 4134 
L 1269 4134 
L 1269 2991 
Q 1406 3038 1543 3061 
Q 1681 3084 1819 3084 
Q 2600 3084 3056 2656 
Q 3513 2228 3513 1497 
Q 3513 744 3044 326 
Q 2575 -91 1722 -91 
Q 1428 -91 1123 -41 
Q 819 9 494 109 
L 494 744 
Q 775 591 1075 516 
Q 1375 441 1709 441 
Q 2250 441 2565 725 
Q 2881 1009 2881 1497 
Q 2881 1984 2565 2268 
Q 2250 2553 1709 2553 
Q 1456 2553 1204 2497 
Q 953 2441 691 2322 
L 691 4666 
z
" transform="scale(0.015625)"/>
       </defs>
       <use xlink:href="#DejaVuSans-35"/>
       <use xlink:href="#DejaVuSans-30" transform="translate(63.623047 0)"/>
      </g>
     </g>
    </g>
    <g id="xtick_7">
     <g id="line2d_13">
      <path d="M 699.868777 390.04 
L 699.868777 26.88 
" clip-path="url(#p3b1579d2c9)" style="fill: none; stroke: #b0b0b0; stroke-width: 0.8; stroke-linecap: square"/>
     </g>
     <g id="line2d_14">
      <g>
       <use xlink:href="#mab5cd08795" x="699.868777" y="390.04" style="stroke: #000000; stroke-width: 0.8"/>
      </g>
     </g>
     <g id="text_7">
      <!-- 60 -->
      <g transform="translate(693.506277 404.638438) scale(0.1 -0.1)">
       <defs>
        <path id="DejaVuSans-36" d="M 2113 2584 
Q 1688 2584 1439 2293 
Q 1191 2003 1191 1497 
Q 1191 994 1439 701 
Q 1688 409 2113 409 
Q 2538 409 2786 701 
Q 3034 994 3034 1497 
Q 3034 2003 2786 2293 
Q 2538 2584 2113 2584 
z
M 3366 4563 
L 3366 3988 
Q 3128 4100 2886 4159 
Q 2644 4219 2406 4219 
Q 1781 4219 1451 3797 
Q 1122 3375 1075 2522 
Q 1259 2794 1537 2939 
Q 1816 3084 2150 3084 
Q 2853 3084 3261 2657 
Q 3669 2231 3669 1497 
Q 3669 778 3244 343 
Q 2819 -91 2113 -91 
Q 1303 -91 875 529 
Q 447 1150 447 2328 
Q 447 3434 972 4092 
Q 1497 4750 2381 4750 
Q 2619 4750 2861 4703 
Q 3103 4656 3366 4563 
z
" transform="scale(0.015625)"/>
       </defs>
       <use xlink:href="#DejaVuSans-36"/>
       <use xlink:href="#DejaVuSans-30" transform="translate(63.623047 0)"/>
      </g>
     </g>
    </g>
    <g id="text_8">
     <!-- Time -->
     <g transform="translate(366.226406 418.316562) scale(0.1 -0.1)">
      <defs>
       <path id="DejaVuSans-54" d="M -19 4666 
L 3928 4666 
L 3928 4134 
L 2272 4134 
L 2272 0 
L 1638 0 
L 1638 4134 
L -19 4134 
L -19 4666 
z
" transform="scale(0.015625)"/>
       <path id="DejaVuSans-69" d="M 603 3500 
L 1178 3500 
L 1178 0 
L 603 0 
L 603 3500 
z
M 603 4863 
L 1178 4863 
L 1178 4134 
L 603 4134 
L 603 4863 
z
" transform="scale(0.015625)"/>
       <path id="DejaVuSans-6d" d="M 3328 2828 
Q 3544 3216 3844 3400 
Q 4144 3584 4550 3584 
Q 5097 3584 5394 3201 
Q 5691 2819 5691 2113 
L 5691 0 
L 5113 0 
L 5113 2094 
Q 5113 2597 4934 2840 
Q 4756 3084 4391 3084 
Q 3944 3084 3684 2787 
Q 3425 2491 3425 1978 
L 3425 0 
L 2847 0 
L 2847 2094 
Q 2847 2600 2669 2842 
Q 2491 3084 2119 3084 
Q 1678 3084 1418 2786 
Q 1159 2488 1159 1978 
L 1159 0 
L 581 0 
L 581 3500 
L 1159 3500 
L 1159 2956 
Q 1356 3278 1631 3431 
Q 1906 3584 2284 3584 
Q 2666 3584 2933 3390 
Q 3200 3197 3328 2828 
z
" transform="scale(0.015625)"/>
       <path id="DejaVuSans-65" d="M 3597 1894 
L 3597 1613 
L 953 1613 
Q 991 1019 1311 708 
Q 1631 397 2203 397 
Q 2534 397 2845 478 
Q 3156 559 3463 722 
L 3463 178 
Q 3153 47 2828 -22 
Q 2503 -91 2169 -91 
Q 1331 -91 842 396 
Q 353 884 353 1716 
Q 353 2575 817 3079 
Q 1281 3584 2069 3584 
Q 2775 3584 3186 3129 
Q 3597 2675 3597 1894 
z
M 3022 2063 
Q 3016 2534 2758 2815 
Q 2500 3097 2075 3097 
Q 1594 3097 1305 2825 
Q 1016 2553 972 2059 
L 3022 2063 
z
" transform="scale(0.015625)"/>
      </defs>
      <use xlink:href="#DejaVuSans-54"/>
      <use xlink:href="#DejaVuSans-69" transform="translate(57.958984 0)"/>
      <use xlink:href="#DejaVuSans-6d" transform="translate(85.742188 0)"/>
      <use xlink:href="#DejaVuSans-65" transform="translate(183.154297 0)"/>
     </g>
    </g>
   </g>
   <g id="matplotlib.axis_2">
    <g id="ytick_1">
     <g id="line2d_15">
      <path d="M 47.72 373.532727 
L 709.2 373.532727 
" clip-path="url(#p3b1579d2c9)" style="fill: none; stroke: #b0b0b0; stroke-width: 0.8; stroke-linecap: square"/>
     </g>
     <g id="line2d_16">
      <defs>
       <path id="md7113841fc" d="M 0 0 
L -3.5 0 
" style="stroke: #000000; stroke-width: 0.8"/>
      </defs>
      <g>
       <use xlink:href="#md7113841fc" x="47.72" y="373.532727" style="stroke: #000000; stroke-width: 0.8"/>
      </g>
     </g>
     <g id="text_9">
      <!-- 0.0 -->
      <g transform="translate(24.816875 377.331946) scale(0.1 -0.1)">
       <defs>
        <path id="DejaVuSans-2e" d="M 684 794 
L 1344 794 
L 1344 0 
L 684 0 
L 684 794 
z
" transform="scale(0.015625)"/>
       </defs>
       <use xlink:href="#DejaVuSans-30"/>
       <use xlink:href="#DejaVuSans-2e" transform="translate(63.623047 0)"/>
       <use xlink:href="#DejaVuSans-30" transform="translate(95.410156 0)"/>
      </g>
     </g>
    </g>
    <g id="ytick_2">
     <g id="line2d_17">
      <path d="M 47.72 312.898517 
L 709.2 312.898517 
" clip-path="url(#p3b1579d2c9)" style="fill: none; stroke: #b0b0b0; stroke-width: 0.8; stroke-linecap: square"/>
     </g>
     <g id="line2d_18">
      <g>
       <use xlink:href="#md7113841fc" x="47.72" y="312.898517" style="stroke: #000000; stroke-width: 0.8"/>
      </g>
     </g>
     <g id="text_10">
      <!-- 0.2 -->
      <g transform="translate(24.816875 316.697736) scale(0.1 -0.1)">
       <use xlink:href="#DejaVuSans-30"/>
       <use xlink:href="#DejaVuSans-2e" transform="translate(63.623047 0)"/>
       <use xlink:href="#DejaVuSans-32" transform="translate(95.410156 0)"/>
      </g>
     </g>
    </g>
    <g id="ytick_3">
     <g id="line2d_19">
      <path d="M 47.72 252.264308 
L 709.2 252.264308 
" clip-path="url(#p3b1579d2c9)" style="fill: none; stroke: #b0b0b0; stroke-width: 0.8; stroke-linecap: square"/>
     </g>
     <g id="line2d_20">
      <g>
       <use xlink:href="#md7113841fc" x="47.72" y="252.264308" style="stroke: #000000; stroke-width: 0.8"/>
      </g>
     </g>
     <g id="text_11">
      <!-- 0.4 -->
      <g transform="translate(24.816875 256.063526) scale(0.1 -0.1)">
       <use xlink:href="#DejaVuSans-30"/>
       <use xlink:href="#DejaVuSans-2e" transform="translate(63.623047 0)"/>
       <use xlink:href="#DejaVuSans-34" transform="translate(95.410156 0)"/>
      </g>
     </g>
    </g>
    <g id="ytick_4">
     <g id="line2d_21">
      <path d="M 47.72 191.630098 
L 709.2 191.630098 
" clip-path="url(#p3b1579d2c9)" style="fill: none; stroke: #b0b0b0; stroke-width: 0.8; stroke-linecap: square"/>
     </g>
     <g id="line2d_22">
      <g>
       <use xlink:href="#md7113841fc" x="47.72" y="191.630098" style="stroke: #000000; stroke-width: 0.8"/>
      </g>
     </g>
     <g id="text_12">
      <!-- 0.6 -->
      <g transform="translate(24.816875 195.429316) scale(0.1 -0.1)">
       <use xlink:href="#DejaVuSans-30"/>
       <use xlink:href="#DejaVuSans-2e" transform="translate(63.623047 0)"/>
       <use xlink:href="#DejaVuSans-36" transform="translate(95.410156 0)"/>
      </g>
     </g>
    </g>
    <g id="ytick_5">
     <g id="line2d_23">
      <path d="M 47.72 130.995888 
L 709.2 130.995888 
" clip-path="url(#p3b1579d2c9)" style="fill: none; stroke: #b0b0b0; stroke-width: 0.8; stroke-linecap: square"/>
     </g>
     <g id="line2d_24">
      <g>
       <use xlink:href="#md7113841fc" x="47.72" y="130.995888" style="stroke: #000000; stroke-width: 0.8"/>
      </g>
     </g>
     <g id="text_13">
      <!-- 0.8 -->
      <g transform="translate(24.816875 134.795107) scale(0.1 -0.1)">
       <defs>
        <path id="DejaVuSans-38" d="M 2034 2216 
Q 1584 2216 1326 1975 
Q 1069 1734 1069 1313 
Q 1069 891 1326 650 
Q 1584 409 2034 409 
Q 2484 409 2743 651 
Q 3003 894 3003 1313 
Q 3003 1734 2745 1975 
Q 2488 2216 2034 2216 
z
M 1403 2484 
Q 997 2584 770 2862 
Q 544 3141 544 3541 
Q 544 4100 942 4425 
Q 1341 4750 2034 4750 
Q 2731 4750 3128 4425 
Q 3525 4100 3525 3541 
Q 3525 3141 3298 2862 
Q 3072 2584 2669 2484 
Q 3125 2378 3379 2068 
Q 3634 1759 3634 1313 
Q 3634 634 3220 271 
Q 2806 -91 2034 -91 
Q 1263 -91 848 271 
Q 434 634 434 1313 
Q 434 1759 690 2068 
Q 947 2378 1403 2484 
z
M 1172 3481 
Q 1172 3119 1398 2916 
Q 1625 2713 2034 2713 
Q 2441 2713 2670 2916 
Q 2900 3119 2900 3481 
Q 2900 3844 2670 4047 
Q 2441 4250 2034 4250 
Q 1625 4250 1398 4047 
Q 1172 3844 1172 3481 
z
" transform="scale(0.015625)"/>
       </defs>
       <use xlink:href="#DejaVuSans-30"/>
       <use xlink:href="#DejaVuSans-2e" transform="translate(63.623047 0)"/>
       <use xlink:href="#DejaVuSans-38" transform="translate(95.410156 0)"/>
      </g>
     </g>
    </g>
    <g id="ytick_6">
     <g id="line2d_25">
      <path d="M 47.72 70.361678 
L 709.2 70.361678 
" clip-path="url(#p3b1579d2c9)" style="fill: none; stroke: #b0b0b0; stroke-width: 0.8; stroke-linecap: square"/>
     </g>
     <g id="line2d_26">
      <g>
       <use xlink:href="#md7113841fc" x="47.72" y="70.361678" style="stroke: #000000; stroke-width: 0.8"/>
      </g>
     </g>
     <g id="text_14">
      <!-- 1.0 -->
      <g transform="translate(24.816875 74.160897) scale(0.1 -0.1)">
       <use xlink:href="#DejaVuSans-31"/>
       <use xlink:href="#DejaVuSans-2e" transform="translate(63.623047 0)"/>
       <use xlink:href="#DejaVuSans-30" transform="translate(95.410156 0)"/>
      </g>
     </g>
    </g>
    <g id="text_15">
     <!-- S_anc -->
     <g transform="translate(18.459063 223.11625) rotate(-90) scale(0.1 -0.1)">
      <defs>
       <path id="DejaVuSans-53" d="M 3425 4513 
L 3425 3897 
Q 3066 4069 2747 4153 
Q 2428 4238 2131 4238 
Q 1616 4238 1336 4038 
Q 1056 3838 1056 3469 
Q 1056 3159 1242 3001 
Q 1428 2844 1947 2747 
L 2328 2669 
Q 3034 2534 3370 2195 
Q 3706 1856 3706 1288 
Q 3706 609 3251 259 
Q 2797 -91 1919 -91 
Q 1588 -91 1214 -16 
Q 841 59 441 206 
L 441 856 
Q 825 641 1194 531 
Q 1563 422 1919 422 
Q 2459 422 2753 634 
Q 3047 847 3047 1241 
Q 3047 1584 2836 1778 
Q 2625 1972 2144 2069 
L 1759 2144 
Q 1053 2284 737 2584 
Q 422 2884 422 3419 
Q 422 4038 858 4394 
Q 1294 4750 2059 4750 
Q 2388 4750 2728 4690 
Q 3069 4631 3425 4513 
z
" transform="scale(0.015625)"/>
       <path id="DejaVuSans-5f" d="M 3263 -1063 
L 3263 -1509 
L -63 -1509 
L -63 -1063 
L 3263 -1063 
z
" transform="scale(0.015625)"/>
       <path id="DejaVuSans-61" d="M 2194 1759 
Q 1497 1759 1228 1600 
Q 959 1441 959 1056 
Q 959 750 1161 570 
Q 1363 391 1709 391 
Q 2188 391 2477 730 
Q 2766 1069 2766 1631 
L 2766 1759 
L 2194 1759 
z
M 3341 1997 
L 3341 0 
L 2766 0 
L 2766 531 
Q 2569 213 2275 61 
Q 1981 -91 1556 -91 
Q 1019 -91 701 211 
Q 384 513 384 1019 
Q 384 1609 779 1909 
Q 1175 2209 1959 2209 
L 2766 2209 
L 2766 2266 
Q 2766 2663 2505 2880 
Q 2244 3097 1772 3097 
Q 1472 3097 1187 3025 
Q 903 2953 641 2809 
L 641 3341 
Q 956 3463 1253 3523 
Q 1550 3584 1831 3584 
Q 2591 3584 2966 3190 
Q 3341 2797 3341 1997 
z
" transform="scale(0.015625)"/>
       <path id="DejaVuSans-6e" d="M 3513 2113 
L 3513 0 
L 2938 0 
L 2938 2094 
Q 2938 2591 2744 2837 
Q 2550 3084 2163 3084 
Q 1697 3084 1428 2787 
Q 1159 2491 1159 1978 
L 1159 0 
L 581 0 
L 581 3500 
L 1159 3500 
L 1159 2956 
Q 1366 3272 1645 3428 
Q 1925 3584 2291 3584 
Q 2894 3584 3203 3211 
Q 3513 2838 3513 2113 
z
" transform="scale(0.015625)"/>
       <path id="DejaVuSans-63" d="M 3122 3366 
L 3122 2828 
Q 2878 2963 2633 3030 
Q 2388 3097 2138 3097 
Q 1578 3097 1268 2742 
Q 959 2388 959 1747 
Q 959 1106 1268 751 
Q 1578 397 2138 397 
Q 2388 397 2633 464 
Q 2878 531 3122 666 
L 3122 134 
Q 2881 22 2623 -34 
Q 2366 -91 2075 -91 
Q 1284 -91 818 406 
Q 353 903 353 1747 
Q 353 2603 823 3093 
Q 1294 3584 2113 3584 
Q 2378 3584 2631 3529 
Q 2884 3475 3122 3366 
z
" transform="scale(0.015625)"/>
      </defs>
      <use xlink:href="#DejaVuSans-53"/>
      <use xlink:href="#DejaVuSans-5f" transform="translate(63.476562 0)"/>
      <use xlink:href="#DejaVuSans-61" transform="translate(113.476562 0)"/>
      <use xlink:href="#DejaVuSans-6e" transform="translate(174.755859 0)"/>
      <use xlink:href="#DejaVuSans-63" transform="translate(238.134766 0)"/>
     </g>
    </g>
   </g>
   <g id="line2d_27">
    <path d="M 77.787273 43.387273 
L 88.155298 44.369774 
L 98.523323 43.906943 
L 108.891348 43.81516 
L 119.259373 43.642517 
L 129.627398 44.075679 
L 139.995423 44.039703 
L 150.363448 43.807514 
L 160.731473 43.941001 
L 171.099498 43.922799 
L 181.467524 43.842182 
L 191.835549 43.923352 
L 202.203574 90.429146 
L 212.571599 91.958699 
L 222.939624 92.994395 
L 233.307649 94.498038 
L 243.675674 94.368851 
L 254.043699 95.147162 
L 264.411724 96.589494 
L 274.779749 98.675463 
L 285.147774 99.127374 
L 295.515799 100.01521 
L 305.883824 102.263122 
L 316.25185 104.305192 
L 326.619875 104.758124 
L 336.9879 106.454188 
L 347.355925 107.525206 
L 357.72395 108.277965 
L 368.091975 109.729648 
L 378.46 111.191238 
L 388.828025 110.506968 
L 399.19605 112.132286 
L 409.564075 113.286487 
L 419.9321 113.310317 
L 430.300125 113.790082 
L 440.66815 115.290789 
L 451.036176 114.874764 
L 461.404201 116.029087 
L 471.772226 116.06886 
L 482.140251 116.322689 
L 492.508276 117.280167 
L 502.876301 117.538755 
L 513.244326 117.213632 
L 523.612351 117.824134 
L 533.980376 118.210305 
L 544.348401 118.345897 
L 554.716426 119.034266 
L 565.084451 119.303396 
L 575.452476 119.437729 
L 585.820502 119.973948 
L 596.188527 120.545425 
L 606.556552 120.204601 
L 616.924577 120.379091 
L 627.292602 121.047934 
L 637.660627 120.629373 
L 648.028652 120.822468 
L 658.396677 121.514794 
L 668.764702 121.134638 
L 679.132727 121.020254 
" clip-path="url(#p3b1579d2c9)" style="fill: none; stroke: #1f77b4; stroke-width: 1.5; stroke-linecap: square"/>
   </g>
   <g id="line2d_28">
    <path d="M 77.787273 43.387273 
L 88.155298 44.369774 
L 98.523323 43.906943 
L 108.891348 43.81516 
L 119.259373 43.642517 
L 129.627398 44.075679 
L 139.995423 44.039703 
L 150.363448 43.807514 
L 160.731473 43.941001 
L 171.099498 43.922799 
L 181.467524 43.842182 
L 191.835549 43.923352 
L 202.203574 121.783823 
L 212.571599 125.277824 
L 222.939624 128.309822 
L 233.307649 131.710648 
L 243.675674 133.443323 
L 254.043699 135.306554 
L 264.411724 137.339096 
L 274.779749 141.014591 
L 285.147774 142.101266 
L 295.515799 144.069976 
L 305.883824 147.115387 
L 316.25185 149.204331 
L 326.619875 150.157471 
L 336.9879 152.891416 
L 347.355925 154.95827 
L 357.72395 155.986286 
L 368.091975 158.146833 
L 378.46 159.297829 
L 388.828025 159.142426 
L 399.19605 161.077881 
L 409.564075 163.111187 
L 419.9321 163.254555 
L 430.300125 163.548872 
L 440.66815 165.586626 
L 451.036176 165.77846 
L 461.404201 167.253714 
L 471.772226 167.659473 
L 482.140251 168.477118 
L 492.508276 169.454193 
L 502.876301 169.455088 
L 513.244326 169.802878 
L 523.612351 170.545655 
L 533.980376 171.244153 
L 544.348401 171.20262 
L 554.716426 172.32745 
L 565.084451 172.680901 
L 575.452476 172.71284 
L 585.820502 173.367866 
L 596.188527 173.899257 
L 606.556552 173.910709 
L 616.924577 174.315934 
L 627.292602 175.172403 
L 637.660627 174.699295 
L 648.028652 174.699254 
L 658.396677 174.996396 
L 668.764702 174.907749 
L 679.132727 174.826068 
" clip-path="url(#p3b1579d2c9)" style="fill: none; stroke: #ff7f0e; stroke-width: 1.5; stroke-linecap: square"/>
   </g>
   <g id="line2d_29">
    <path d="M 77.787273 43.387273 
L 88.155298 44.369774 
L 98.523323 43.906943 
L 108.891348 43.81516 
L 119.259373 43.642517 
L 129.627398 44.075679 
L 139.995423 44.039703 
L 150.363448 43.807514 
L 160.731473 43.941001 
L 171.099498 43.922799 
L 181.467524 43.842182 
L 191.835549 43.923352 
L 202.203574 152.844466 
L 212.571599 157.412535 
L 222.939624 161.233105 
L 233.307649 164.637801 
L 243.675674 168.02824 
L 254.043699 170.783947 
L 264.411724 173.600099 
L 274.779749 176.775265 
L 285.147774 177.853942 
L 295.515799 180.541559 
L 305.883824 183.147194 
L 316.25185 186.319611 
L 326.619875 186.868781 
L 336.9879 189.887529 
L 347.355925 191.416187 
L 357.72395 193.448446 
L 368.091975 194.950715 
L 378.46 197.066102 
L 388.828025 196.637745 
L 399.19605 198.261333 
L 409.564075 199.990878 
L 419.9321 200.578566 
L 430.300125 201.229047 
L 440.66815 202.737606 
L 451.036176 203.273414 
L 461.404201 204.254197 
L 471.772226 204.946424 
L 482.140251 205.326633 
L 492.508276 206.725124 
L 502.876301 206.920657 
L 513.244326 207.226687 
L 523.612351 207.117784 
L 533.980376 208.344151 
L 544.348401 208.287179 
L 554.716426 209.137765 
L 565.084451 209.358421 
L 575.452476 209.626062 
L 585.820502 209.862779 
L 596.188527 210.199002 
L 606.556552 210.215564 
L 616.924577 210.7696 
L 627.292602 211.387761 
L 637.660627 211.107912 
L 648.028652 210.786903 
L 658.396677 211.384026 
L 668.764702 211.499653 
L 679.132727 211.52398 
" clip-path="url(#p3b1579d2c9)" style="fill: none; stroke: #2ca02c; stroke-width: 1.5; stroke-linecap: square"/>
   </g>
   <g id="line2d_30">
    <path d="M 77.787273 43.387273 
L 88.155298 44.369774 
L 98.523323 43.906943 
L 108.891348 43.81516 
L 119.259373 43.642517 
L 129.627398 44.075679 
L 139.995423 44.039703 
L 150.363448 43.807514 
L 160.731473 43.941001 
L 171.099498 43.922799 
L 181.467524 43.842182 
L 191.835549 43.923352 
L 202.203574 189.122268 
L 212.571599 191.584734 
L 222.939624 196.9856 
L 233.307649 201.530218 
L 243.675674 208.445217 
L 254.043699 211.242107 
L 264.411724 215.50774 
L 274.779749 218.132156 
L 285.147774 221.396689 
L 295.515799 222.730883 
L 305.883824 225.550709 
L 316.25185 228.041266 
L 326.619875 228.024146 
L 336.9879 231.369413 
L 347.355925 232.277716 
L 357.72395 234.015796 
L 368.091975 234.866323 
L 378.46 236.085259 
L 388.828025 237.223003 
L 399.19605 238.346253 
L 409.564075 239.878698 
L 419.9321 240.417229 
L 430.300125 241.640989 
L 440.66815 242.548417 
L 451.036176 243.0896 
L 461.404201 243.973399 
L 471.772226 244.489781 
L 482.140251 244.969238 
L 492.508276 246.054792 
L 502.876301 246.374585 
L 513.244326 246.142805 
L 523.612351 246.545546 
L 533.980376 248.475852 
L 544.348401 247.738263 
L 554.716426 248.595408 
L 565.084451 249.280727 
L 575.452476 249.373812 
L 585.820502 249.9015 
L 596.188527 249.984694 
L 606.556552 249.970659 
L 616.924577 250.214522 
L 627.292602 250.893944 
L 637.660627 250.443373 
L 648.028652 251.311927 
L 658.396677 251.332756 
L 668.764702 251.460606 
L 679.132727 252.012981 
" clip-path="url(#p3b1579d2c9)" style="fill: none; stroke: #d62728; stroke-width: 1.5; stroke-linecap: square"/>
   </g>
   <g id="line2d_31">
    <path d="M 77.787273 43.387273 
L 88.155298 44.369774 
L 98.523323 43.906943 
L 108.891348 43.81516 
L 119.259373 43.642517 
L 129.627398 44.075679 
L 139.995423 44.039703 
L 150.363448 43.807514 
L 160.731473 43.941001 
L 171.099498 43.922799 
L 181.467524 43.842182 
L 191.835549 43.923352 
L 202.203574 230.758538 
L 212.571599 235.518801 
L 222.939624 240.187152 
L 233.307649 244.062609 
L 243.675674 249.774551 
L 254.043699 252.23478 
L 264.411724 256.5628 
L 274.779749 259.960169 
L 285.147774 263.093723 
L 295.515799 264.710353 
L 305.883824 266.841339 
L 316.25185 269.468784 
L 326.619875 269.866089 
L 336.9879 271.797854 
L 347.355925 272.226716 
L 357.72395 273.812077 
L 368.091975 274.915843 
L 378.46 275.18596 
L 388.828025 276.042153 
L 399.19605 276.551841 
L 409.564075 277.721149 
L 419.9321 277.92723 
L 430.300125 278.724782 
L 440.66815 279.615297 
L 451.036176 279.875937 
L 461.404201 279.675891 
L 471.772226 279.760445 
L 482.140251 280.505861 
L 492.508276 281.631254 
L 502.876301 281.158064 
L 513.244326 281.747145 
L 523.612351 281.370913 
L 533.980376 282.952473 
L 544.348401 281.907753 
L 554.716426 282.715482 
L 565.084451 282.901678 
L 575.452476 283.87927 
L 585.820502 283.728741 
L 596.188527 283.314263 
L 606.556552 283.861533 
L 616.924577 283.930347 
L 627.292602 283.951159 
L 637.660627 284.054174 
L 648.028652 284.909326 
L 658.396677 285.123104 
L 668.764702 284.613976 
L 679.132727 285.829644 
" clip-path="url(#p3b1579d2c9)" style="fill: none; stroke: #9467bd; stroke-width: 1.5; stroke-linecap: square"/>
   </g>
   <g id="line2d_32">
    <path d="M 77.787273 43.387273 
L 88.155298 44.369774 
L 98.523323 43.906943 
L 108.891348 43.81516 
L 119.259373 43.642517 
L 129.627398 44.075679 
L 139.995423 44.039703 
L 150.363448 43.807514 
L 160.731473 43.941001 
L 171.099498 43.922799 
L 181.467524 43.842182 
L 191.835549 43.923352 
L 202.203574 261.979197 
L 212.571599 267.268261 
L 222.939624 272.667966 
L 233.307649 275.251949 
L 243.675674 281.398487 
L 254.043699 284.253302 
L 264.411724 288.620328 
L 274.779749 290.996861 
L 285.147774 294.888826 
L 295.515799 295.66889 
L 305.883824 299.571949 
L 316.25185 300.441524 
L 326.619875 301.484109 
L 336.9879 301.981842 
L 347.355925 303.336322 
L 357.72395 303.73779 
L 368.091975 305.602358 
L 378.46 305.684754 
L 388.828025 307.012681 
L 399.19605 307.41358 
L 409.564075 308.853028 
L 419.9321 308.261914 
L 430.300125 309.320536 
L 440.66815 309.630111 
L 451.036176 310.331907 
L 461.404201 309.709896 
L 471.772226 310.451618 
L 482.140251 310.064797 
L 492.508276 311.974504 
L 502.876301 310.446903 
L 513.244326 311.957314 
L 523.612351 310.483222 
L 533.980376 312.555906 
L 544.348401 311.199322 
L 554.716426 312.50281 
L 565.084451 311.698679 
L 575.452476 312.644651 
L 585.820502 312.184825 
L 596.188527 312.411286 
L 606.556552 312.861687 
L 616.924577 312.652318 
L 627.292602 312.522804 
L 637.660627 312.775596 
L 648.028652 312.991236 
L 658.396677 313.43302 
L 668.764702 312.200623 
L 679.132727 314.106112 
" clip-path="url(#p3b1579d2c9)" style="fill: none; stroke: #8c564b; stroke-width: 1.5; stroke-linecap: square"/>
   </g>
   <g id="line2d_33">
    <path d="M 77.787273 43.387273 
L 88.155298 44.369774 
L 98.523323 43.906943 
L 108.891348 43.81516 
L 119.259373 43.642517 
L 129.627398 44.075679 
L 139.995423 44.039703 
L 150.363448 43.807514 
L 160.731473 43.941001 
L 171.099498 43.922799 
L 181.467524 43.842182 
L 191.835549 43.923352 
L 202.203574 292.950446 
L 212.571599 300.395544 
L 222.939624 305.492319 
L 233.307649 307.950241 
L 243.675674 311.75776 
L 254.043699 313.3075 
L 264.411724 316.941359 
L 274.779749 318.422473 
L 285.147774 320.619458 
L 295.515799 320.938609 
L 305.883824 324.317463 
L 316.25185 324.513215 
L 326.619875 325.740842 
L 336.9879 325.691931 
L 347.355925 327.170865 
L 357.72395 326.994993 
L 368.091975 327.802173 
L 378.46 328.111686 
L 388.828025 329.754848 
L 399.19605 329.375543 
L 409.564075 330.198162 
L 419.9321 330.038052 
L 430.300125 331.229224 
L 440.66815 330.998284 
L 451.036176 331.819468 
L 461.404201 331.470462 
L 471.772226 332.859886 
L 482.140251 331.702925 
L 492.508276 333.644094 
L 502.876301 332.050761 
L 513.244326 333.635607 
L 523.612351 332.24813 
L 533.980376 334.302942 
L 544.348401 332.740996 
L 554.716426 334.313113 
L 565.084451 333.435588 
L 575.452476 334.228742 
L 585.820502 333.770225 
L 596.188527 334.405676 
L 606.556552 334.229898 
L 616.924577 334.290444 
L 627.292602 334.144195 
L 637.660627 334.688631 
L 648.028652 334.370042 
L 658.396677 334.855129 
L 668.764702 333.700211 
L 679.132727 336.327493 
" clip-path="url(#p3b1579d2c9)" style="fill: none; stroke: #e377c2; stroke-width: 1.5; stroke-linecap: square"/>
   </g>
   <g id="line2d_34">
    <path d="M 77.787273 43.387273 
L 88.155298 44.369774 
L 98.523323 43.906943 
L 108.891348 43.81516 
L 119.259373 43.642517 
L 129.627398 44.075679 
L 139.995423 44.039703 
L 150.363448 43.807514 
L 160.731473 43.941001 
L 171.099498 43.922799 
L 181.467524 43.842182 
L 191.835549 43.923352 
L 202.203574 333.021138 
L 212.571599 338.126102 
L 222.939624 342.228046 
L 233.307649 344.74961 
L 243.675674 347.236901 
L 254.043699 348.464016 
L 264.411724 349.965341 
L 274.779749 351.41163 
L 285.147774 352.353329 
L 295.515799 352.948949 
L 305.883824 354.468534 
L 316.25185 355.00091 
L 326.619875 355.201112 
L 336.9879 356.788517 
L 347.355925 356.684179 
L 357.72395 357.224181 
L 368.091975 358.0211 
L 378.46 358.009854 
L 388.828025 358.800635 
L 399.19605 359.101631 
L 409.564075 359.482455 
L 419.9321 359.343435 
L 430.300125 360.40003 
L 440.66815 360.167901 
L 451.036176 360.100407 
L 461.404201 361.109865 
L 471.772226 360.508547 
L 482.140251 360.533927 
L 492.508276 361.089409 
L 502.876301 360.862987 
L 513.244326 360.537367 
L 523.612351 361.106343 
L 533.980376 361.166451 
L 544.348401 360.75411 
L 554.716426 361.718273 
L 565.084451 361.040208 
L 575.452476 361.360562 
L 585.820502 361.520141 
L 596.188527 361.286196 
L 606.556552 361.38913 
L 616.924577 361.756928 
L 627.292602 361.74958 
L 637.660627 361.311944 
L 648.028652 362.27907 
L 658.396677 361.500767 
L 668.764702 361.482081 
L 679.132727 362.698778 
" clip-path="url(#p3b1579d2c9)" style="fill: none; stroke: #7f7f7f; stroke-width: 1.5; stroke-linecap: square"/>
   </g>
   <g id="line2d_35">
    <path d="M 77.787273 43.387273 
L 88.155298 44.369774 
L 98.523323 43.906943 
L 108.891348 43.81516 
L 119.259373 43.642517 
L 129.627398 44.075679 
L 139.995423 44.039703 
L 150.363448 43.807514 
L 160.731473 43.941001 
L 171.099498 43.922799 
L 181.467524 43.842182 
L 191.835549 43.923352 
L 202.203574 355.577506 
L 212.571599 360.116217 
L 222.939624 361.671506 
L 233.307649 363.196462 
L 243.675674 364.335424 
L 254.043699 364.143554 
L 264.411724 364.598696 
L 274.779749 365.448085 
L 285.147774 366.038149 
L 295.515799 366.794168 
L 305.883824 367.116625 
L 316.25185 367.268623 
L 326.619875 367.492982 
L 336.9879 367.634472 
L 347.355925 367.756709 
L 357.72395 367.952165 
L 368.091975 368.10919 
L 378.46 368.26863 
L 388.828025 368.438519 
L 399.19605 368.839593 
L 409.564075 369.031833 
L 419.9321 369.193229 
L 430.300125 369.327141 
L 440.66815 369.645627 
L 451.036176 369.821946 
L 461.404201 369.911447 
L 471.772226 369.966192 
L 482.140251 370.011679 
L 492.508276 370.034502 
L 502.876301 370.058804 
L 513.244326 370.078523 
L 523.612351 370.091554 
L 533.980376 370.106816 
L 544.348401 370.120906 
L 554.716426 370.130715 
L 565.084451 370.143244 
L 575.452476 370.153372 
L 585.820502 370.162066 
L 596.188527 370.172217 
L 606.556552 370.182179 
L 616.924577 370.190815 
L 627.292602 370.3105 
L 637.660627 370.128446 
L 648.028652 370.113809 
L 658.396677 370.300266 
L 668.764702 370.43872 
L 679.132727 370.496908 
" clip-path="url(#p3b1579d2c9)" style="fill: none; stroke: #bcbd22; stroke-width: 1.5; stroke-linecap: square"/>
   </g>
   <g id="line2d_36">
    <path d="M 77.787273 43.387273 
L 88.155298 44.369774 
L 98.523323 43.906943 
L 108.891348 43.81516 
L 119.259373 43.642517 
L 129.627398 44.075679 
L 139.995423 44.039703 
L 150.363448 43.807514 
L 160.731473 43.941001 
L 171.099498 43.922799 
L 181.467524 43.842182 
L 191.835549 43.923352 
L 202.203574 373.532727 
L 212.571599 373.532727 
L 222.939624 373.532727 
L 233.307649 373.532727 
L 243.675674 373.532727 
L 254.043699 373.532727 
L 264.411724 373.532727 
L 274.779749 373.532727 
L 285.147774 373.532727 
L 295.515799 373.532727 
L 305.883824 373.532727 
L 316.25185 373.532727 
L 326.619875 373.532727 
L 336.9879 373.532727 
L 347.355925 373.532727 
L 357.72395 373.532727 
L 368.091975 373.532727 
L 378.46 373.532727 
L 388.828025 373.532727 
L 399.19605 373.532727 
L 409.564075 373.532727 
L 419.9321 373.532727 
L 430.300125 373.532727 
L 440.66815 373.532727 
L 451.036176 373.532727 
L 461.404201 373.532727 
L 471.772226 373.532727 
L 482.140251 373.532727 
L 492.508276 373.532727 
L 502.876301 373.532727 
L 513.244326 373.532727 
L 523.612351 373.532727 
L 533.980376 373.532727 
L 544.348401 373.532727 
L 554.716426 373.532727 
L 565.084451 373.532727 
L 575.452476 373.532727 
L 585.820502 373.532727 
L 596.188527 373.532727 
L 606.556552 373.532727 
L 616.924577 373.532727 
L 627.292602 373.532727 
L 637.660627 373.532727 
L 648.028652 373.532727 
L 658.396677 373.532727 
L 668.764702 373.532727 
L 679.132727 373.532727 
" clip-path="url(#p3b1579d2c9)" style="fill: none; stroke: #17becf; stroke-width: 1.5; stroke-linecap: square"/>
   </g>
   <g id="patch_3">
    <path d="M 47.72 390.04 
L 47.72 26.88 
" style="fill: none; stroke: #000000; stroke-width: 0.8; stroke-linejoin: miter; stroke-linecap: square"/>
   </g>
   <g id="patch_4">
    <path d="M 709.2 390.04 
L 709.2 26.88 
" style="fill: none; stroke: #000000; stroke-width: 0.8; stroke-linejoin: miter; stroke-linecap: square"/>
   </g>
   <g id="patch_5">
    <path d="M 47.72 390.04 
L 709.2 390.04 
" style="fill: none; stroke: #000000; stroke-width: 0.8; stroke-linejoin: miter; stroke-linecap: square"/>
   </g>
   <g id="patch_6">
    <path d="M 47.72 26.88 
L 709.2 26.88 
" style="fill: none; stroke: #000000; stroke-width: 0.8; stroke-linejoin: miter; stroke-linecap: square"/>
   </g>
   <g id="text_16">
    <!-- S_anc evolution for different p values (L=6, dt=1.0, Measurement direction: Z, T = 10*L) -->
    <g transform="translate(111.459063 20.88) scale(0.12 -0.12)">
     <defs>
      <path id="DejaVuSans-20" transform="scale(0.015625)"/>
      <path id="DejaVuSans-76" d="M 191 3500 
L 800 3500 
L 1894 563 
L 2988 3500 
L 3597 3500 
L 2284 0 
L 1503 0 
L 191 3500 
z
" transform="scale(0.015625)"/>
      <path id="DejaVuSans-6f" d="M 1959 3097 
Q 1497 3097 1228 2736 
Q 959 2375 959 1747 
Q 959 1119 1226 758 
Q 1494 397 1959 397 
Q 2419 397 2687 759 
Q 2956 1122 2956 1747 
Q 2956 2369 2687 2733 
Q 2419 3097 1959 3097 
z
M 1959 3584 
Q 2709 3584 3137 3096 
Q 3566 2609 3566 1747 
Q 3566 888 3137 398 
Q 2709 -91 1959 -91 
Q 1206 -91 779 398 
Q 353 888 353 1747 
Q 353 2609 779 3096 
Q 1206 3584 1959 3584 
z
" transform="scale(0.015625)"/>
      <path id="DejaVuSans-6c" d="M 603 4863 
L 1178 4863 
L 1178 0 
L 603 0 
L 603 4863 
z
" transform="scale(0.015625)"/>
      <path id="DejaVuSans-75" d="M 544 1381 
L 544 3500 
L 1119 3500 
L 1119 1403 
Q 1119 906 1312 657 
Q 1506 409 1894 409 
Q 2359 409 2629 706 
Q 2900 1003 2900 1516 
L 2900 3500 
L 3475 3500 
L 3475 0 
L 2900 0 
L 2900 538 
Q 2691 219 2414 64 
Q 2138 -91 1772 -91 
Q 1169 -91 856 284 
Q 544 659 544 1381 
z
M 1991 3584 
L 1991 3584 
z
" transform="scale(0.015625)"/>
      <path id="DejaVuSans-74" d="M 1172 4494 
L 1172 3500 
L 2356 3500 
L 2356 3053 
L 1172 3053 
L 1172 1153 
Q 1172 725 1289 603 
Q 1406 481 1766 481 
L 2356 481 
L 2356 0 
L 1766 0 
Q 1100 0 847 248 
Q 594 497 594 1153 
L 594 3053 
L 172 3053 
L 172 3500 
L 594 3500 
L 594 4494 
L 1172 4494 
z
" transform="scale(0.015625)"/>
      <path id="DejaVuSans-66" d="M 2375 4863 
L 2375 4384 
L 1825 4384 
Q 1516 4384 1395 4259 
Q 1275 4134 1275 3809 
L 1275 3500 
L 2222 3500 
L 2222 3053 
L 1275 3053 
L 1275 0 
L 697 0 
L 697 3053 
L 147 3053 
L 147 3500 
L 697 3500 
L 697 3744 
Q 697 4328 969 4595 
Q 1241 4863 1831 4863 
L 2375 4863 
z
" transform="scale(0.015625)"/>
      <path id="DejaVuSans-72" d="M 2631 2963 
Q 2534 3019 2420 3045 
Q 2306 3072 2169 3072 
Q 1681 3072 1420 2755 
Q 1159 2438 1159 1844 
L 1159 0 
L 581 0 
L 581 3500 
L 1159 3500 
L 1159 2956 
Q 1341 3275 1631 3429 
Q 1922 3584 2338 3584 
Q 2397 3584 2469 3576 
Q 2541 3569 2628 3553 
L 2631 2963 
z
" transform="scale(0.015625)"/>
      <path id="DejaVuSans-64" d="M 2906 2969 
L 2906 4863 
L 3481 4863 
L 3481 0 
L 2906 0 
L 2906 525 
Q 2725 213 2448 61 
Q 2172 -91 1784 -91 
Q 1150 -91 751 415 
Q 353 922 353 1747 
Q 353 2572 751 3078 
Q 1150 3584 1784 3584 
Q 2172 3584 2448 3432 
Q 2725 3281 2906 2969 
z
M 947 1747 
Q 947 1113 1208 752 
Q 1469 391 1925 391 
Q 2381 391 2643 752 
Q 2906 1113 2906 1747 
Q 2906 2381 2643 2742 
Q 2381 3103 1925 3103 
Q 1469 3103 1208 2742 
Q 947 2381 947 1747 
z
" transform="scale(0.015625)"/>
      <path id="DejaVuSans-70" d="M 1159 525 
L 1159 -1331 
L 581 -1331 
L 581 3500 
L 1159 3500 
L 1159 2969 
Q 1341 3281 1617 3432 
Q 1894 3584 2278 3584 
Q 2916 3584 3314 3078 
Q 3713 2572 3713 1747 
Q 3713 922 3314 415 
Q 2916 -91 2278 -91 
Q 1894 -91 1617 61 
Q 1341 213 1159 525 
z
M 3116 1747 
Q 3116 2381 2855 2742 
Q 2594 3103 2138 3103 
Q 1681 3103 1420 2742 
Q 1159 2381 1159 1747 
Q 1159 1113 1420 752 
Q 1681 391 2138 391 
Q 2594 391 2855 752 
Q 3116 1113 3116 1747 
z
" transform="scale(0.015625)"/>
      <path id="DejaVuSans-73" d="M 2834 3397 
L 2834 2853 
Q 2591 2978 2328 3040 
Q 2066 3103 1784 3103 
Q 1356 3103 1142 2972 
Q 928 2841 928 2578 
Q 928 2378 1081 2264 
Q 1234 2150 1697 2047 
L 1894 2003 
Q 2506 1872 2764 1633 
Q 3022 1394 3022 966 
Q 3022 478 2636 193 
Q 2250 -91 1575 -91 
Q 1294 -91 989 -36 
Q 684 19 347 128 
L 347 722 
Q 666 556 975 473 
Q 1284 391 1588 391 
Q 1994 391 2212 530 
Q 2431 669 2431 922 
Q 2431 1156 2273 1281 
Q 2116 1406 1581 1522 
L 1381 1569 
Q 847 1681 609 1914 
Q 372 2147 372 2553 
Q 372 3047 722 3315 
Q 1072 3584 1716 3584 
Q 2034 3584 2315 3537 
Q 2597 3491 2834 3397 
z
" transform="scale(0.015625)"/>
      <path id="DejaVuSans-28" d="M 1984 4856 
Q 1566 4138 1362 3434 
Q 1159 2731 1159 2009 
Q 1159 1288 1364 580 
Q 1569 -128 1984 -844 
L 1484 -844 
Q 1016 -109 783 600 
Q 550 1309 550 2009 
Q 550 2706 781 3412 
Q 1013 4119 1484 4856 
L 1984 4856 
z
" transform="scale(0.015625)"/>
      <path id="DejaVuSans-4c" d="M 628 4666 
L 1259 4666 
L 1259 531 
L 3531 531 
L 3531 0 
L 628 0 
L 628 4666 
z
" transform="scale(0.015625)"/>
      <path id="DejaVuSans-3d" d="M 678 2906 
L 4684 2906 
L 4684 2381 
L 678 2381 
L 678 2906 
z
M 678 1631 
L 4684 1631 
L 4684 1100 
L 678 1100 
L 678 1631 
z
" transform="scale(0.015625)"/>
      <path id="DejaVuSans-2c" d="M 750 794 
L 1409 794 
L 1409 256 
L 897 -744 
L 494 -744 
L 750 256 
L 750 794 
z
" transform="scale(0.015625)"/>
      <path id="DejaVuSans-4d" d="M 628 4666 
L 1569 4666 
L 2759 1491 
L 3956 4666 
L 4897 4666 
L 4897 0 
L 4281 0 
L 4281 4097 
L 3078 897 
L 2444 897 
L 1241 4097 
L 1241 0 
L 628 0 
L 628 4666 
z
" transform="scale(0.015625)"/>
      <path id="DejaVuSans-3a" d="M 750 794 
L 1409 794 
L 1409 0 
L 750 0 
L 750 794 
z
M 750 3309 
L 1409 3309 
L 1409 2516 
L 750 2516 
L 750 3309 
z
" transform="scale(0.015625)"/>
      <path id="DejaVuSans-5a" d="M 359 4666 
L 4025 4666 
L 4025 4184 
L 1075 531 
L 4097 531 
L 4097 0 
L 288 0 
L 288 481 
L 3238 4134 
L 359 4134 
L 359 4666 
z
" transform="scale(0.015625)"/>
      <path id="DejaVuSans-2a" d="M 3009 3897 
L 1888 3291 
L 3009 2681 
L 2828 2375 
L 1778 3009 
L 1778 1831 
L 1422 1831 
L 1422 3009 
L 372 2375 
L 191 2681 
L 1313 3291 
L 191 3897 
L 372 4206 
L 1422 3572 
L 1422 4750 
L 1778 4750 
L 1778 3572 
L 2828 4206 
L 3009 3897 
z
" transform="scale(0.015625)"/>
      <path id="DejaVuSans-29" d="M 513 4856 
L 1013 4856 
Q 1481 4119 1714 3412 
Q 1947 2706 1947 2009 
Q 1947 1309 1714 600 
Q 1481 -109 1013 -844 
L 513 -844 
Q 928 -128 1133 580 
Q 1338 1288 1338 2009 
Q 1338 2731 1133 3434 
Q 928 4138 513 4856 
z
" transform="scale(0.015625)"/>
     </defs>
     <use xlink:href="#DejaVuSans-53"/>
     <use xlink:href="#DejaVuSans-5f" transform="translate(63.476562 0)"/>
     <use xlink:href="#DejaVuSans-61" transform="translate(113.476562 0)"/>
     <use xlink:href="#DejaVuSans-6e" transform="translate(174.755859 0)"/>
     <use xlink:href="#DejaVuSans-63" transform="translate(238.134766 0)"/>
     <use xlink:href="#DejaVuSans-20" transform="translate(293.115234 0)"/>
     <use xlink:href="#DejaVuSans-65" transform="translate(324.902344 0)"/>
     <use xlink:href="#DejaVuSans-76" transform="translate(386.425781 0)"/>
     <use xlink:href="#DejaVuSans-6f" transform="translate(445.605469 0)"/>
     <use xlink:href="#DejaVuSans-6c" transform="translate(506.787109 0)"/>
     <use xlink:href="#DejaVuSans-75" transform="translate(534.570312 0)"/>
     <use xlink:href="#DejaVuSans-74" transform="translate(597.949219 0)"/>
     <use xlink:href="#DejaVuSans-69" transform="translate(637.158203 0)"/>
     <use xlink:href="#DejaVuSans-6f" transform="translate(664.941406 0)"/>
     <use xlink:href="#DejaVuSans-6e" transform="translate(726.123047 0)"/>
     <use xlink:href="#DejaVuSans-20" transform="translate(789.501953 0)"/>
     <use xlink:href="#DejaVuSans-66" transform="translate(821.289062 0)"/>
     <use xlink:href="#DejaVuSans-6f" transform="translate(856.494141 0)"/>
     <use xlink:href="#DejaVuSans-72" transform="translate(917.675781 0)"/>
     <use xlink:href="#DejaVuSans-20" transform="translate(958.789062 0)"/>
     <use xlink:href="#DejaVuSans-64" transform="translate(990.576172 0)"/>
     <use xlink:href="#DejaVuSans-69" transform="translate(1054.052734 0)"/>
     <use xlink:href="#DejaVuSans-66" transform="translate(1081.835938 0)"/>
     <use xlink:href="#DejaVuSans-66" transform="translate(1117.041016 0)"/>
     <use xlink:href="#DejaVuSans-65" transform="translate(1152.246094 0)"/>
     <use xlink:href="#DejaVuSans-72" transform="translate(1213.769531 0)"/>
     <use xlink:href="#DejaVuSans-65" transform="translate(1252.632812 0)"/>
     <use xlink:href="#DejaVuSans-6e" transform="translate(1314.15625 0)"/>
     <use xlink:href="#DejaVuSans-74" transform="translate(1377.535156 0)"/>
     <use xlink:href="#DejaVuSans-20" transform="translate(1416.744141 0)"/>
     <use xlink:href="#DejaVuSans-70" transform="translate(1448.53125 0)"/>
     <use xlink:href="#DejaVuSans-20" transform="translate(1512.007812 0)"/>
     <use xlink:href="#DejaVuSans-76" transform="translate(1543.794922 0)"/>
     <use xlink:href="#DejaVuSans-61" transform="translate(1602.974609 0)"/>
     <use xlink:href="#DejaVuSans-6c" transform="translate(1664.253906 0)"/>
     <use xlink:href="#DejaVuSans-75" transform="translate(1692.037109 0)"/>
     <use xlink:href="#DejaVuSans-65" transform="translate(1755.416016 0)"/>
     <use xlink:href="#DejaVuSans-73" transform="translate(1816.939453 0)"/>
     <use xlink:href="#DejaVuSans-20" transform="translate(1869.039062 0)"/>
     <use xlink:href="#DejaVuSans-28" transform="translate(1900.826172 0)"/>
     <use xlink:href="#DejaVuSans-4c" transform="translate(1939.839844 0)"/>
     <use xlink:href="#DejaVuSans-3d" transform="translate(1995.552734 0)"/>
     <use xlink:href="#DejaVuSans-36" transform="translate(2079.341797 0)"/>
     <use xlink:href="#DejaVuSans-2c" transform="translate(2142.964844 0)"/>
     <use xlink:href="#DejaVuSans-20" transform="translate(2174.751953 0)"/>
     <use xlink:href="#DejaVuSans-64" transform="translate(2206.539062 0)"/>
     <use xlink:href="#DejaVuSans-74" transform="translate(2270.015625 0)"/>
     <use xlink:href="#DejaVuSans-3d" transform="translate(2309.224609 0)"/>
     <use xlink:href="#DejaVuSans-31" transform="translate(2393.013672 0)"/>
     <use xlink:href="#DejaVuSans-2e" transform="translate(2456.636719 0)"/>
     <use xlink:href="#DejaVuSans-30" transform="translate(2488.423828 0)"/>
     <use xlink:href="#DejaVuSans-2c" transform="translate(2552.046875 0)"/>
     <use xlink:href="#DejaVuSans-20" transform="translate(2583.833984 0)"/>
     <use xlink:href="#DejaVuSans-4d" transform="translate(2615.621094 0)"/>
     <use xlink:href="#DejaVuSans-65" transform="translate(2701.900391 0)"/>
     <use xlink:href="#DejaVuSans-61" transform="translate(2763.423828 0)"/>
     <use xlink:href="#DejaVuSans-73" transform="translate(2824.703125 0)"/>
     <use xlink:href="#DejaVuSans-75" transform="translate(2876.802734 0)"/>
     <use xlink:href="#DejaVuSans-72" transform="translate(2940.181641 0)"/>
     <use xlink:href="#DejaVuSans-65" transform="translate(2979.044922 0)"/>
     <use xlink:href="#DejaVuSans-6d" transform="translate(3040.568359 0)"/>
     <use xlink:href="#DejaVuSans-65" transform="translate(3137.980469 0)"/>
     <use xlink:href="#DejaVuSans-6e" transform="translate(3199.503906 0)"/>
     <use xlink:href="#DejaVuSans-74" transform="translate(3262.882812 0)"/>
     <use xlink:href="#DejaVuSans-20" transform="translate(3302.091797 0)"/>
     <use xlink:href="#DejaVuSans-64" transform="translate(3333.878906 0)"/>
     <use xlink:href="#DejaVuSans-69" transform="translate(3397.355469 0)"/>
     <use xlink:href="#DejaVuSans-72" transform="translate(3425.138672 0)"/>
     <use xlink:href="#DejaVuSans-65" transform="translate(3464.001953 0)"/>
     <use xlink:href="#DejaVuSans-63" transform="translate(3525.525391 0)"/>
     <use xlink:href="#DejaVuSans-74" transform="translate(3580.505859 0)"/>
     <use xlink:href="#DejaVuSans-69" transform="translate(3619.714844 0)"/>
     <use xlink:href="#DejaVuSans-6f" transform="translate(3647.498047 0)"/>
     <use xlink:href="#DejaVuSans-6e" transform="translate(3708.679688 0)"/>
     <use xlink:href="#DejaVuSans-3a" transform="translate(3772.058594 0)"/>
     <use xlink:href="#DejaVuSans-20" transform="translate(3805.75 0)"/>
     <use xlink:href="#DejaVuSans-5a" transform="translate(3837.537109 0)"/>
     <use xlink:href="#DejaVuSans-2c" transform="translate(3906.042969 0)"/>
     <use xlink:href="#DejaVuSans-20" transform="translate(3937.830078 0)"/>
     <use xlink:href="#DejaVuSans-54" transform="translate(3969.617188 0)"/>
     <use xlink:href="#DejaVuSans-20" transform="translate(4030.701172 0)"/>
     <use xlink:href="#DejaVuSans-3d" transform="translate(4062.488281 0)"/>
     <use xlink:href="#DejaVuSans-20" transform="translate(4146.277344 0)"/>
     <use xlink:href="#DejaVuSans-31" transform="translate(4178.064453 0)"/>
     <use xlink:href="#DejaVuSans-30" transform="translate(4241.6875 0)"/>
     <use xlink:href="#DejaVuSans-2a" transform="translate(4305.310547 0)"/>
     <use xlink:href="#DejaVuSans-4c" transform="translate(4355.310547 0)"/>
     <use xlink:href="#DejaVuSans-29" transform="translate(4411.023438 0)"/>
    </g>
   </g>
   <g id="legend_1">
    <g id="patch_7">
     <path d="M 54.72 385.04 
L 117.35125 385.04 
Q 119.35125 385.04 119.35125 383.04 
L 119.35125 237.25875 
Q 119.35125 235.25875 117.35125 235.25875 
L 54.72 235.25875 
Q 52.72 235.25875 52.72 237.25875 
L 52.72 383.04 
Q 52.72 385.04 54.72 385.04 
z
" style="fill: #ffffff; opacity: 0.8; stroke: #cccccc; stroke-linejoin: miter"/>
    </g>
    <g id="line2d_37">
     <path d="M 56.72 243.357188 
L 66.72 243.357188 
L 76.72 243.357188 
" style="fill: none; stroke: #1f77b4; stroke-width: 1.5; stroke-linecap: square"/>
    </g>
    <g id="text_17">
     <!-- p=0.1 -->
     <g transform="translate(84.72 246.857188) scale(0.1 -0.1)">
      <use xlink:href="#DejaVuSans-70"/>
      <use xlink:href="#DejaVuSans-3d" transform="translate(63.476562 0)"/>
      <use xlink:href="#DejaVuSans-30" transform="translate(147.265625 0)"/>
      <use xlink:href="#DejaVuSans-2e" transform="translate(210.888672 0)"/>
      <use xlink:href="#DejaVuSans-31" transform="translate(242.675781 0)"/>
     </g>
    </g>
    <g id="line2d_38">
     <path d="M 56.72 258.035313 
L 66.72 258.035313 
L 76.72 258.035313 
" style="fill: none; stroke: #ff7f0e; stroke-width: 1.5; stroke-linecap: square"/>
    </g>
    <g id="text_18">
     <!-- p=0.2 -->
     <g transform="translate(84.72 261.535313) scale(0.1 -0.1)">
      <use xlink:href="#DejaVuSans-70"/>
      <use xlink:href="#DejaVuSans-3d" transform="translate(63.476562 0)"/>
      <use xlink:href="#DejaVuSans-30" transform="translate(147.265625 0)"/>
      <use xlink:href="#DejaVuSans-2e" transform="translate(210.888672 0)"/>
      <use xlink:href="#DejaVuSans-32" transform="translate(242.675781 0)"/>
     </g>
    </g>
    <g id="line2d_39">
     <path d="M 56.72 272.713438 
L 66.72 272.713438 
L 76.72 272.713438 
" style="fill: none; stroke: #2ca02c; stroke-width: 1.5; stroke-linecap: square"/>
    </g>
    <g id="text_19">
     <!-- p=0.3 -->
     <g transform="translate(84.72 276.213438) scale(0.1 -0.1)">
      <use xlink:href="#DejaVuSans-70"/>
      <use xlink:href="#DejaVuSans-3d" transform="translate(63.476562 0)"/>
      <use xlink:href="#DejaVuSans-30" transform="translate(147.265625 0)"/>
      <use xlink:href="#DejaVuSans-2e" transform="translate(210.888672 0)"/>
      <use xlink:href="#DejaVuSans-33" transform="translate(242.675781 0)"/>
     </g>
    </g>
    <g id="line2d_40">
     <path d="M 56.72 287.391563 
L 66.72 287.391563 
L 76.72 287.391563 
" style="fill: none; stroke: #d62728; stroke-width: 1.5; stroke-linecap: square"/>
    </g>
    <g id="text_20">
     <!-- p=0.4 -->
     <g transform="translate(84.72 290.891563) scale(0.1 -0.1)">
      <use xlink:href="#DejaVuSans-70"/>
      <use xlink:href="#DejaVuSans-3d" transform="translate(63.476562 0)"/>
      <use xlink:href="#DejaVuSans-30" transform="translate(147.265625 0)"/>
      <use xlink:href="#DejaVuSans-2e" transform="translate(210.888672 0)"/>
      <use xlink:href="#DejaVuSans-34" transform="translate(242.675781 0)"/>
     </g>
    </g>
    <g id="line2d_41">
     <path d="M 56.72 302.069688 
L 66.72 302.069688 
L 76.72 302.069688 
" style="fill: none; stroke: #9467bd; stroke-width: 1.5; stroke-linecap: square"/>
    </g>
    <g id="text_21">
     <!-- p=0.5 -->
     <g transform="translate(84.72 305.569688) scale(0.1 -0.1)">
      <use xlink:href="#DejaVuSans-70"/>
      <use xlink:href="#DejaVuSans-3d" transform="translate(63.476562 0)"/>
      <use xlink:href="#DejaVuSans-30" transform="translate(147.265625 0)"/>
      <use xlink:href="#DejaVuSans-2e" transform="translate(210.888672 0)"/>
      <use xlink:href="#DejaVuSans-35" transform="translate(242.675781 0)"/>
     </g>
    </g>
    <g id="line2d_42">
     <path d="M 56.72 316.747813 
L 66.72 316.747813 
L 76.72 316.747813 
" style="fill: none; stroke: #8c564b; stroke-width: 1.5; stroke-linecap: square"/>
    </g>
    <g id="text_22">
     <!-- p=0.6 -->
     <g transform="translate(84.72 320.247813) scale(0.1 -0.1)">
      <use xlink:href="#DejaVuSans-70"/>
      <use xlink:href="#DejaVuSans-3d" transform="translate(63.476562 0)"/>
      <use xlink:href="#DejaVuSans-30" transform="translate(147.265625 0)"/>
      <use xlink:href="#DejaVuSans-2e" transform="translate(210.888672 0)"/>
      <use xlink:href="#DejaVuSans-36" transform="translate(242.675781 0)"/>
     </g>
    </g>
    <g id="line2d_43">
     <path d="M 56.72 331.425938 
L 66.72 331.425938 
L 76.72 331.425938 
" style="fill: none; stroke: #e377c2; stroke-width: 1.5; stroke-linecap: square"/>
    </g>
    <g id="text_23">
     <!-- p=0.7 -->
     <g transform="translate(84.72 334.925938) scale(0.1 -0.1)">
      <defs>
       <path id="DejaVuSans-37" d="M 525 4666 
L 3525 4666 
L 3525 4397 
L 1831 0 
L 1172 0 
L 2766 4134 
L 525 4134 
L 525 4666 
z
" transform="scale(0.015625)"/>
      </defs>
      <use xlink:href="#DejaVuSans-70"/>
      <use xlink:href="#DejaVuSans-3d" transform="translate(63.476562 0)"/>
      <use xlink:href="#DejaVuSans-30" transform="translate(147.265625 0)"/>
      <use xlink:href="#DejaVuSans-2e" transform="translate(210.888672 0)"/>
      <use xlink:href="#DejaVuSans-37" transform="translate(242.675781 0)"/>
     </g>
    </g>
    <g id="line2d_44">
     <path d="M 56.72 346.104062 
L 66.72 346.104062 
L 76.72 346.104062 
" style="fill: none; stroke: #7f7f7f; stroke-width: 1.5; stroke-linecap: square"/>
    </g>
    <g id="text_24">
     <!-- p=0.8 -->
     <g transform="translate(84.72 349.604062) scale(0.1 -0.1)">
      <use xlink:href="#DejaVuSans-70"/>
      <use xlink:href="#DejaVuSans-3d" transform="translate(63.476562 0)"/>
      <use xlink:href="#DejaVuSans-30" transform="translate(147.265625 0)"/>
      <use xlink:href="#DejaVuSans-2e" transform="translate(210.888672 0)"/>
      <use xlink:href="#DejaVuSans-38" transform="translate(242.675781 0)"/>
     </g>
    </g>
    <g id="line2d_45">
     <path d="M 56.72 360.782188 
L 66.72 360.782188 
L 76.72 360.782188 
" style="fill: none; stroke: #bcbd22; stroke-width: 1.5; stroke-linecap: square"/>
    </g>
    <g id="text_25">
     <!-- p=0.9 -->
     <g transform="translate(84.72 364.282188) scale(0.1 -0.1)">
      <defs>
       <path id="DejaVuSans-39" d="M 703 97 
L 703 672 
Q 941 559 1184 500 
Q 1428 441 1663 441 
Q 2288 441 2617 861 
Q 2947 1281 2994 2138 
Q 2813 1869 2534 1725 
Q 2256 1581 1919 1581 
Q 1219 1581 811 2004 
Q 403 2428 403 3163 
Q 403 3881 828 4315 
Q 1253 4750 1959 4750 
Q 2769 4750 3195 4129 
Q 3622 3509 3622 2328 
Q 3622 1225 3098 567 
Q 2575 -91 1691 -91 
Q 1453 -91 1209 -44 
Q 966 3 703 97 
z
M 1959 2075 
Q 2384 2075 2632 2365 
Q 2881 2656 2881 3163 
Q 2881 3666 2632 3958 
Q 2384 4250 1959 4250 
Q 1534 4250 1286 3958 
Q 1038 3666 1038 3163 
Q 1038 2656 1286 2365 
Q 1534 2075 1959 2075 
z
" transform="scale(0.015625)"/>
      </defs>
      <use xlink:href="#DejaVuSans-70"/>
      <use xlink:href="#DejaVuSans-3d" transform="translate(63.476562 0)"/>
      <use xlink:href="#DejaVuSans-30" transform="translate(147.265625 0)"/>
      <use xlink:href="#DejaVuSans-2e" transform="translate(210.888672 0)"/>
      <use xlink:href="#DejaVuSans-39" transform="translate(242.675781 0)"/>
     </g>
    </g>
    <g id="line2d_46">
     <path d="M 56.72 375.460312 
L 66.72 375.460312 
L 76.72 375.460312 
" style="fill: none; stroke: #17becf; stroke-width: 1.5; stroke-linecap: square"/>
    </g>
    <g id="text_26">
     <!-- p=1.0 -->
     <g transform="translate(84.72 378.960312) scale(0.1 -0.1)">
      <use xlink:href="#DejaVuSans-70"/>
      <use xlink:href="#DejaVuSans-3d" transform="translate(63.476562 0)"/>
      <use xlink:href="#DejaVuSans-31" transform="translate(147.265625 0)"/>
      <use xlink:href="#DejaVuSans-2e" transform="translate(210.888672 0)"/>
      <use xlink:href="#DejaVuSans-30" transform="translate(242.675781 0)"/>
     </g>
    </g>
   </g>
  </g>
 </g>
 <defs>
  <clipPath id="p3b1579d2c9">
   <rect x="47.72" y="26.88" width="661.48" height="363.16"/>
  </clipPath>
 </defs>
</svg>
