<?xml version="1.0" encoding="utf-8" standalone="no"?>
<!DOCTYPE svg PUBLIC "-//W3C//DTD SVG 1.1//EN"
  "http://www.w3.org/Graphics/SVG/1.1/DTD/svg11.dtd">
<svg xmlns:xlink="http://www.w3.org/1999/xlink" width="720pt" height="432pt" viewBox="0 0 720 432" xmlns="http://www.w3.org/2000/svg" version="1.1">
 <metadata>
  <rdf:RDF xmlns:dc="http://purl.org/dc/elements/1.1/" xmlns:cc="http://creativecommons.org/ns#" xmlns:rdf="http://www.w3.org/1999/02/22-rdf-syntax-ns#">
   <cc:Work>
    <dc:type rdf:resource="http://purl.org/dc/dcmitype/StillImage"/>
    <dc:date>2025-08-23T14:09:19.679649</dc:date>
    <dc:format>image/svg+xml</dc:format>
    <dc:creator>
     <cc:Agent>
      <dc:title>Matplotlib v3.10.3, https://matplotlib.org/</dc:title>
     </cc:Agent>
    </dc:creator>
   </cc:Work>
  </rdf:RDF>
 </metadata>
 <defs>
  <style type="text/css">*{stroke-linejoin: round; stroke-linecap: butt}</style>
 </defs>
 <g id="figure_1">
  <g id="patch_1">
   <path d="M 0 432 
L 720 432 
L 720 0 
L 0 0 
z
" style="fill: #ffffff"/>
  </g>
  <g id="axes_1">
   <g id="patch_2">
    <path d="M 47.72 390.04 
L 707.127273 390.04 
L 707.127273 26.88 
L 47.72 26.88 
z
" style="fill: #ffffff"/>
   </g>
   <g id="matplotlib.axis_1">
    <g id="xtick_1">
     <g id="line2d_1">
      <path d="M 77.693058 390.04 
L 77.693058 26.88 
" clip-path="url(#p3bf6d98d96)" style="fill: none; stroke: #b0b0b0; stroke-width: 0.8; stroke-linecap: square"/>
     </g>
     <g id="line2d_2">
      <defs>
       <path id="ma54928f739" d="M 0 0 
L 0 3.5 
" style="stroke: #000000; stroke-width: 0.8"/>
      </defs>
      <g>
       <use xlink:href="#ma54928f739" x="77.693058" y="390.04" style="stroke: #000000; stroke-width: 0.8"/>
      </g>
     </g>
     <g id="text_1">
      <!-- 0 -->
      <g transform="translate(74.511808 404.638438) scale(0.1 -0.1)">
       <defs>
        <path id="DejaVuSans-30" d="M 2034 4250 
Q 1547 4250 1301 3770 
Q 1056 3291 1056 2328 
Q 1056 1369 1301 889 
Q 1547 409 2034 409 
Q 2525 409 2770 889 
Q 3016 1369 3016 2328 
Q 3016 3291 2770 3770 
Q 2525 4250 2034 4250 
z
M 2034 4750 
Q 2819 4750 3233 4129 
Q 3647 3509 3647 2328 
Q 3647 1150 3233 529 
Q 2819 -91 2034 -91 
Q 1250 -91 836 529 
Q 422 1150 422 2328 
Q 422 3509 836 4129 
Q 1250 4750 2034 4750 
z
" transform="scale(0.015625)"/>
       </defs>
       <use xlink:href="#DejaVuSans-30"/>
      </g>
     </g>
    </g>
    <g id="xtick_2">
     <g id="line2d_3">
      <path d="M 202.580799 390.04 
L 202.580799 26.88 
" clip-path="url(#p3bf6d98d96)" style="fill: none; stroke: #b0b0b0; stroke-width: 0.8; stroke-linecap: square"/>
     </g>
     <g id="line2d_4">
      <g>
       <use xlink:href="#ma54928f739" x="202.580799" y="390.04" style="stroke: #000000; stroke-width: 0.8"/>
      </g>
     </g>
     <g id="text_2">
      <!-- 10 -->
      <g transform="translate(196.218299 404.638438) scale(0.1 -0.1)">
       <defs>
        <path id="DejaVuSans-31" d="M 794 531 
L 1825 531 
L 1825 4091 
L 703 3866 
L 703 4441 
L 1819 4666 
L 2450 4666 
L 2450 531 
L 3481 531 
L 3481 0 
L 794 0 
L 794 531 
z
" transform="scale(0.015625)"/>
       </defs>
       <use xlink:href="#DejaVuSans-31"/>
       <use xlink:href="#DejaVuSans-30" transform="translate(63.623047 0)"/>
      </g>
     </g>
    </g>
    <g id="xtick_3">
     <g id="line2d_5">
      <path d="M 327.46854 390.04 
L 327.46854 26.88 
" clip-path="url(#p3bf6d98d96)" style="fill: none; stroke: #b0b0b0; stroke-width: 0.8; stroke-linecap: square"/>
     </g>
     <g id="line2d_6">
      <g>
       <use xlink:href="#ma54928f739" x="327.46854" y="390.04" style="stroke: #000000; stroke-width: 0.8"/>
      </g>
     </g>
     <g id="text_3">
      <!-- 20 -->
      <g transform="translate(321.10604 404.638438) scale(0.1 -0.1)">
       <defs>
        <path id="DejaVuSans-32" d="M 1228 531 
L 3431 531 
L 3431 0 
L 469 0 
L 469 531 
Q 828 903 1448 1529 
Q 2069 2156 2228 2338 
Q 2531 2678 2651 2914 
Q 2772 3150 2772 3378 
Q 2772 3750 2511 3984 
Q 2250 4219 1831 4219 
Q 1534 4219 1204 4116 
Q 875 4013 500 3803 
L 500 4441 
Q 881 4594 1212 4672 
Q 1544 4750 1819 4750 
Q 2544 4750 2975 4387 
Q 3406 4025 3406 3419 
Q 3406 3131 3298 2873 
Q 3191 2616 2906 2266 
Q 2828 2175 2409 1742 
Q 1991 1309 1228 531 
z
" transform="scale(0.015625)"/>
       </defs>
       <use xlink:href="#DejaVuSans-32"/>
       <use xlink:href="#DejaVuSans-30" transform="translate(63.623047 0)"/>
      </g>
     </g>
    </g>
    <g id="xtick_4">
     <g id="line2d_7">
      <path d="M 452.356281 390.04 
L 452.356281 26.88 
" clip-path="url(#p3bf6d98d96)" style="fill: none; stroke: #b0b0b0; stroke-width: 0.8; stroke-linecap: square"/>
     </g>
     <g id="line2d_8">
      <g>
       <use xlink:href="#ma54928f739" x="452.356281" y="390.04" style="stroke: #000000; stroke-width: 0.8"/>
      </g>
     </g>
     <g id="text_4">
      <!-- 30 -->
      <g transform="translate(445.993781 404.638438) scale(0.1 -0.1)">
       <defs>
        <path id="DejaVuSans-33" d="M 2597 2516 
Q 3050 2419 3304 2112 
Q 3559 1806 3559 1356 
Q 3559 666 3084 287 
Q 2609 -91 1734 -91 
Q 1441 -91 1130 -33 
Q 819 25 488 141 
L 488 750 
Q 750 597 1062 519 
Q 1375 441 1716 441 
Q 2309 441 2620 675 
Q 2931 909 2931 1356 
Q 2931 1769 2642 2001 
Q 2353 2234 1838 2234 
L 1294 2234 
L 1294 2753 
L 1863 2753 
Q 2328 2753 2575 2939 
Q 2822 3125 2822 3475 
Q 2822 3834 2567 4026 
Q 2313 4219 1838 4219 
Q 1578 4219 1281 4162 
Q 984 4106 628 3988 
L 628 4550 
Q 988 4650 1302 4700 
Q 1616 4750 1894 4750 
Q 2613 4750 3031 4423 
Q 3450 4097 3450 3541 
Q 3450 3153 3228 2886 
Q 3006 2619 2597 2516 
z
" transform="scale(0.015625)"/>
       </defs>
       <use xlink:href="#DejaVuSans-33"/>
       <use xlink:href="#DejaVuSans-30" transform="translate(63.623047 0)"/>
      </g>
     </g>
    </g>
    <g id="xtick_5">
     <g id="line2d_9">
      <path d="M 577.244022 390.04 
L 577.244022 26.88 
" clip-path="url(#p3bf6d98d96)" style="fill: none; stroke: #b0b0b0; stroke-width: 0.8; stroke-linecap: square"/>
     </g>
     <g id="line2d_10">
      <g>
       <use xlink:href="#ma54928f739" x="577.244022" y="390.04" style="stroke: #000000; stroke-width: 0.8"/>
      </g>
     </g>
     <g id="text_5">
      <!-- 40 -->
      <g transform="translate(570.881522 404.638438) scale(0.1 -0.1)">
       <defs>
        <path id="DejaVuSans-34" d="M 2419 4116 
L 825 1625 
L 2419 1625 
L 2419 4116 
z
M 2253 4666 
L 3047 4666 
L 3047 1625 
L 3713 1625 
L 3713 1100 
L 3047 1100 
L 3047 0 
L 2419 0 
L 2419 1100 
L 313 1100 
L 313 1709 
L 2253 4666 
z
" transform="scale(0.015625)"/>
       </defs>
       <use xlink:href="#DejaVuSans-34"/>
       <use xlink:href="#DejaVuSans-30" transform="translate(63.623047 0)"/>
      </g>
     </g>
    </g>
    <g id="xtick_6">
     <g id="line2d_11">
      <path d="M 702.131763 390.04 
L 702.131763 26.88 
" clip-path="url(#p3bf6d98d96)" style="fill: none; stroke: #b0b0b0; stroke-width: 0.8; stroke-linecap: square"/>
     </g>
     <g id="line2d_12">
      <g>
       <use xlink:href="#ma54928f739" x="702.131763" y="390.04" style="stroke: #000000; stroke-width: 0.8"/>
      </g>
     </g>
     <g id="text_6">
      <!-- 50 -->
      <g transform="translate(695.769263 404.638438) scale(0.1 -0.1)">
       <defs>
        <path id="DejaVuSans-35" d="M 691 4666 
L 3169 4666 
L 3169 4134 
L 1269 4134 
L 1269 2991 
Q 1406 3038 1543 3061 
Q 1681 3084 1819 3084 
Q 2600 3084 3056 2656 
Q 3513 2228 3513 1497 
Q 3513 744 3044 326 
Q 2575 -91 1722 -91 
Q 1428 -91 1123 -41 
Q 819 9 494 109 
L 494 744 
Q 775 591 1075 516 
Q 1375 441 1709 441 
Q 2250 441 2565 725 
Q 2881 1009 2881 1497 
Q 2881 1984 2565 2268 
Q 2250 2553 1709 2553 
Q 1456 2553 1204 2497 
Q 953 2441 691 2322 
L 691 4666 
z
" transform="scale(0.015625)"/>
       </defs>
       <use xlink:href="#DejaVuSans-35"/>
       <use xlink:href="#DejaVuSans-30" transform="translate(63.623047 0)"/>
      </g>
     </g>
    </g>
    <g id="text_7">
     <!-- Time -->
     <g transform="translate(365.190043 418.316562) scale(0.1 -0.1)">
      <defs>
       <path id="DejaVuSans-54" d="M -19 4666 
L 3928 4666 
L 3928 4134 
L 2272 4134 
L 2272 0 
L 1638 0 
L 1638 4134 
L -19 4134 
L -19 4666 
z
" transform="scale(0.015625)"/>
       <path id="DejaVuSans-69" d="M 603 3500 
L 1178 3500 
L 1178 0 
L 603 0 
L 603 3500 
z
M 603 4863 
L 1178 4863 
L 1178 4134 
L 603 4134 
L 603 4863 
z
" transform="scale(0.015625)"/>
       <path id="DejaVuSans-6d" d="M 3328 2828 
Q 3544 3216 3844 3400 
Q 4144 3584 4550 3584 
Q 5097 3584 5394 3201 
Q 5691 2819 5691 2113 
L 5691 0 
L 5113 0 
L 5113 2094 
Q 5113 2597 4934 2840 
Q 4756 3084 4391 3084 
Q 3944 3084 3684 2787 
Q 3425 2491 3425 1978 
L 3425 0 
L 2847 0 
L 2847 2094 
Q 2847 2600 2669 2842 
Q 2491 3084 2119 3084 
Q 1678 3084 1418 2786 
Q 1159 2488 1159 1978 
L 1159 0 
L 581 0 
L 581 3500 
L 1159 3500 
L 1159 2956 
Q 1356 3278 1631 3431 
Q 1906 3584 2284 3584 
Q 2666 3584 2933 3390 
Q 3200 3197 3328 2828 
z
" transform="scale(0.015625)"/>
       <path id="DejaVuSans-65" d="M 3597 1894 
L 3597 1613 
L 953 1613 
Q 991 1019 1311 708 
Q 1631 397 2203 397 
Q 2534 397 2845 478 
Q 3156 559 3463 722 
L 3463 178 
Q 3153 47 2828 -22 
Q 2503 -91 2169 -91 
Q 1331 -91 842 396 
Q 353 884 353 1716 
Q 353 2575 817 3079 
Q 1281 3584 2069 3584 
Q 2775 3584 3186 3129 
Q 3597 2675 3597 1894 
z
M 3022 2063 
Q 3016 2534 2758 2815 
Q 2500 3097 2075 3097 
Q 1594 3097 1305 2825 
Q 1016 2553 972 2059 
L 3022 2063 
z
" transform="scale(0.015625)"/>
      </defs>
      <use xlink:href="#DejaVuSans-54"/>
      <use xlink:href="#DejaVuSans-69" transform="translate(57.958984 0)"/>
      <use xlink:href="#DejaVuSans-6d" transform="translate(85.742188 0)"/>
      <use xlink:href="#DejaVuSans-65" transform="translate(183.154297 0)"/>
     </g>
    </g>
   </g>
   <g id="matplotlib.axis_2">
    <g id="ytick_1">
     <g id="line2d_13">
      <path d="M 47.72 373.532727 
L 707.127273 373.532727 
" clip-path="url(#p3bf6d98d96)" style="fill: none; stroke: #b0b0b0; stroke-width: 0.8; stroke-linecap: square"/>
     </g>
     <g id="line2d_14">
      <defs>
       <path id="m54a46d6763" d="M 0 0 
L -3.5 0 
" style="stroke: #000000; stroke-width: 0.8"/>
      </defs>
      <g>
       <use xlink:href="#m54a46d6763" x="47.72" y="373.532727" style="stroke: #000000; stroke-width: 0.8"/>
      </g>
     </g>
     <g id="text_8">
      <!-- 0.0 -->
      <g transform="translate(24.816875 377.331946) scale(0.1 -0.1)">
       <defs>
        <path id="DejaVuSans-2e" d="M 684 794 
L 1344 794 
L 1344 0 
L 684 0 
L 684 794 
z
" transform="scale(0.015625)"/>
       </defs>
       <use xlink:href="#DejaVuSans-30"/>
       <use xlink:href="#DejaVuSans-2e" transform="translate(63.623047 0)"/>
       <use xlink:href="#DejaVuSans-30" transform="translate(95.410156 0)"/>
      </g>
     </g>
    </g>
    <g id="ytick_2">
     <g id="line2d_15">
      <path d="M 47.72 312.711319 
L 707.127273 312.711319 
" clip-path="url(#p3bf6d98d96)" style="fill: none; stroke: #b0b0b0; stroke-width: 0.8; stroke-linecap: square"/>
     </g>
     <g id="line2d_16">
      <g>
       <use xlink:href="#m54a46d6763" x="47.72" y="312.711319" style="stroke: #000000; stroke-width: 0.8"/>
      </g>
     </g>
     <g id="text_9">
      <!-- 0.2 -->
      <g transform="translate(24.816875 316.510538) scale(0.1 -0.1)">
       <use xlink:href="#DejaVuSans-30"/>
       <use xlink:href="#DejaVuSans-2e" transform="translate(63.623047 0)"/>
       <use xlink:href="#DejaVuSans-32" transform="translate(95.410156 0)"/>
      </g>
     </g>
    </g>
    <g id="ytick_3">
     <g id="line2d_17">
      <path d="M 47.72 251.889912 
L 707.127273 251.889912 
" clip-path="url(#p3bf6d98d96)" style="fill: none; stroke: #b0b0b0; stroke-width: 0.8; stroke-linecap: square"/>
     </g>
     <g id="line2d_18">
      <g>
       <use xlink:href="#m54a46d6763" x="47.72" y="251.889912" style="stroke: #000000; stroke-width: 0.8"/>
      </g>
     </g>
     <g id="text_10">
      <!-- 0.4 -->
      <g transform="translate(24.816875 255.68913) scale(0.1 -0.1)">
       <use xlink:href="#DejaVuSans-30"/>
       <use xlink:href="#DejaVuSans-2e" transform="translate(63.623047 0)"/>
       <use xlink:href="#DejaVuSans-34" transform="translate(95.410156 0)"/>
      </g>
     </g>
    </g>
    <g id="ytick_4">
     <g id="line2d_19">
      <path d="M 47.72 191.068504 
L 707.127273 191.068504 
" clip-path="url(#p3bf6d98d96)" style="fill: none; stroke: #b0b0b0; stroke-width: 0.8; stroke-linecap: square"/>
     </g>
     <g id="line2d_20">
      <g>
       <use xlink:href="#m54a46d6763" x="47.72" y="191.068504" style="stroke: #000000; stroke-width: 0.8"/>
      </g>
     </g>
     <g id="text_11">
      <!-- 0.6 -->
      <g transform="translate(24.816875 194.867723) scale(0.1 -0.1)">
       <defs>
        <path id="DejaVuSans-36" d="M 2113 2584 
Q 1688 2584 1439 2293 
Q 1191 2003 1191 1497 
Q 1191 994 1439 701 
Q 1688 409 2113 409 
Q 2538 409 2786 701 
Q 3034 994 3034 1497 
Q 3034 2003 2786 2293 
Q 2538 2584 2113 2584 
z
M 3366 4563 
L 3366 3988 
Q 3128 4100 2886 4159 
Q 2644 4219 2406 4219 
Q 1781 4219 1451 3797 
Q 1122 3375 1075 2522 
Q 1259 2794 1537 2939 
Q 1816 3084 2150 3084 
Q 2853 3084 3261 2657 
Q 3669 2231 3669 1497 
Q 3669 778 3244 343 
Q 2819 -91 2113 -91 
Q 1303 -91 875 529 
Q 447 1150 447 2328 
Q 447 3434 972 4092 
Q 1497 4750 2381 4750 
Q 2619 4750 2861 4703 
Q 3103 4656 3366 4563 
z
" transform="scale(0.015625)"/>
       </defs>
       <use xlink:href="#DejaVuSans-30"/>
       <use xlink:href="#DejaVuSans-2e" transform="translate(63.623047 0)"/>
       <use xlink:href="#DejaVuSans-36" transform="translate(95.410156 0)"/>
      </g>
     </g>
    </g>
    <g id="ytick_5">
     <g id="line2d_21">
      <path d="M 47.72 130.247096 
L 707.127273 130.247096 
" clip-path="url(#p3bf6d98d96)" style="fill: none; stroke: #b0b0b0; stroke-width: 0.8; stroke-linecap: square"/>
     </g>
     <g id="line2d_22">
      <g>
       <use xlink:href="#m54a46d6763" x="47.72" y="130.247096" style="stroke: #000000; stroke-width: 0.8"/>
      </g>
     </g>
     <g id="text_12">
      <!-- 0.8 -->
      <g transform="translate(24.816875 134.046315) scale(0.1 -0.1)">
       <defs>
        <path id="DejaVuSans-38" d="M 2034 2216 
Q 1584 2216 1326 1975 
Q 1069 1734 1069 1313 
Q 1069 891 1326 650 
Q 1584 409 2034 409 
Q 2484 409 2743 651 
Q 3003 894 3003 1313 
Q 3003 1734 2745 1975 
Q 2488 2216 2034 2216 
z
M 1403 2484 
Q 997 2584 770 2862 
Q 544 3141 544 3541 
Q 544 4100 942 4425 
Q 1341 4750 2034 4750 
Q 2731 4750 3128 4425 
Q 3525 4100 3525 3541 
Q 3525 3141 3298 2862 
Q 3072 2584 2669 2484 
Q 3125 2378 3379 2068 
Q 3634 1759 3634 1313 
Q 3634 634 3220 271 
Q 2806 -91 2034 -91 
Q 1263 -91 848 271 
Q 434 634 434 1313 
Q 434 1759 690 2068 
Q 947 2378 1403 2484 
z
M 1172 3481 
Q 1172 3119 1398 2916 
Q 1625 2713 2034 2713 
Q 2441 2713 2670 2916 
Q 2900 3119 2900 3481 
Q 2900 3844 2670 4047 
Q 2441 4250 2034 4250 
Q 1625 4250 1398 4047 
Q 1172 3844 1172 3481 
z
" transform="scale(0.015625)"/>
       </defs>
       <use xlink:href="#DejaVuSans-30"/>
       <use xlink:href="#DejaVuSans-2e" transform="translate(63.623047 0)"/>
       <use xlink:href="#DejaVuSans-38" transform="translate(95.410156 0)"/>
      </g>
     </g>
    </g>
    <g id="ytick_6">
     <g id="line2d_23">
      <path d="M 47.72 69.425688 
L 707.127273 69.425688 
" clip-path="url(#p3bf6d98d96)" style="fill: none; stroke: #b0b0b0; stroke-width: 0.8; stroke-linecap: square"/>
     </g>
     <g id="line2d_24">
      <g>
       <use xlink:href="#m54a46d6763" x="47.72" y="69.425688" style="stroke: #000000; stroke-width: 0.8"/>
      </g>
     </g>
     <g id="text_13">
      <!-- 1.0 -->
      <g transform="translate(24.816875 73.224907) scale(0.1 -0.1)">
       <use xlink:href="#DejaVuSans-31"/>
       <use xlink:href="#DejaVuSans-2e" transform="translate(63.623047 0)"/>
       <use xlink:href="#DejaVuSans-30" transform="translate(95.410156 0)"/>
      </g>
     </g>
    </g>
    <g id="text_14">
     <!-- S_anc -->
     <g transform="translate(18.459063 223.11625) rotate(-90) scale(0.1 -0.1)">
      <defs>
       <path id="DejaVuSans-53" d="M 3425 4513 
L 3425 3897 
Q 3066 4069 2747 4153 
Q 2428 4238 2131 4238 
Q 1616 4238 1336 4038 
Q 1056 3838 1056 3469 
Q 1056 3159 1242 3001 
Q 1428 2844 1947 2747 
L 2328 2669 
Q 3034 2534 3370 2195 
Q 3706 1856 3706 1288 
Q 3706 609 3251 259 
Q 2797 -91 1919 -91 
Q 1588 -91 1214 -16 
Q 841 59 441 206 
L 441 856 
Q 825 641 1194 531 
Q 1563 422 1919 422 
Q 2459 422 2753 634 
Q 3047 847 3047 1241 
Q 3047 1584 2836 1778 
Q 2625 1972 2144 2069 
L 1759 2144 
Q 1053 2284 737 2584 
Q 422 2884 422 3419 
Q 422 4038 858 4394 
Q 1294 4750 2059 4750 
Q 2388 4750 2728 4690 
Q 3069 4631 3425 4513 
z
" transform="scale(0.015625)"/>
       <path id="DejaVuSans-5f" d="M 3263 -1063 
L 3263 -1509 
L -63 -1509 
L -63 -1063 
L 3263 -1063 
z
" transform="scale(0.015625)"/>
       <path id="DejaVuSans-61" d="M 2194 1759 
Q 1497 1759 1228 1600 
Q 959 1441 959 1056 
Q 959 750 1161 570 
Q 1363 391 1709 391 
Q 2188 391 2477 730 
Q 2766 1069 2766 1631 
L 2766 1759 
L 2194 1759 
z
M 3341 1997 
L 3341 0 
L 2766 0 
L 2766 531 
Q 2569 213 2275 61 
Q 1981 -91 1556 -91 
Q 1019 -91 701 211 
Q 384 513 384 1019 
Q 384 1609 779 1909 
Q 1175 2209 1959 2209 
L 2766 2209 
L 2766 2266 
Q 2766 2663 2505 2880 
Q 2244 3097 1772 3097 
Q 1472 3097 1187 3025 
Q 903 2953 641 2809 
L 641 3341 
Q 956 3463 1253 3523 
Q 1550 3584 1831 3584 
Q 2591 3584 2966 3190 
Q 3341 2797 3341 1997 
z
" transform="scale(0.015625)"/>
       <path id="DejaVuSans-6e" d="M 3513 2113 
L 3513 0 
L 2938 0 
L 2938 2094 
Q 2938 2591 2744 2837 
Q 2550 3084 2163 3084 
Q 1697 3084 1428 2787 
Q 1159 2491 1159 1978 
L 1159 0 
L 581 0 
L 581 3500 
L 1159 3500 
L 1159 2956 
Q 1366 3272 1645 3428 
Q 1925 3584 2291 3584 
Q 2894 3584 3203 3211 
Q 3513 2838 3513 2113 
z
" transform="scale(0.015625)"/>
       <path id="DejaVuSans-63" d="M 3122 3366 
L 3122 2828 
Q 2878 2963 2633 3030 
Q 2388 3097 2138 3097 
Q 1578 3097 1268 2742 
Q 959 2388 959 1747 
Q 959 1106 1268 751 
Q 1578 397 2138 397 
Q 2388 397 2633 464 
Q 2878 531 3122 666 
L 3122 134 
Q 2881 22 2623 -34 
Q 2366 -91 2075 -91 
Q 1284 -91 818 406 
Q 353 903 353 1747 
Q 353 2603 823 3093 
Q 1294 3584 2113 3584 
Q 2378 3584 2631 3529 
Q 2884 3475 3122 3366 
z
" transform="scale(0.015625)"/>
      </defs>
      <use xlink:href="#DejaVuSans-53"/>
      <use xlink:href="#DejaVuSans-5f" transform="translate(63.476562 0)"/>
      <use xlink:href="#DejaVuSans-61" transform="translate(113.476562 0)"/>
      <use xlink:href="#DejaVuSans-6e" transform="translate(174.755859 0)"/>
      <use xlink:href="#DejaVuSans-63" transform="translate(238.134766 0)"/>
     </g>
    </g>
   </g>
   <g id="line2d_25">
    <path d="M 77.693058 43.387273 
L 90.181832 44.657563 
L 102.670606 44.298688 
L 115.15938 44.279454 
L 127.648154 44.217349 
L 140.136928 44.274449 
L 152.625702 44.130244 
L 165.114477 45.187757 
L 177.603251 44.577814 
L 190.092025 45.254446 
L 202.580799 93.977761 
L 215.069573 93.424444 
L 227.558347 95.434133 
L 240.047121 96.724506 
L 252.535895 98.473735 
L 265.024669 98.579061 
L 277.513444 101.16678 
L 290.002218 101.918376 
L 302.490992 103.355002 
L 314.979766 103.943463 
L 327.46854 104.948806 
L 339.957314 105.687545 
L 352.446088 106.187443 
L 364.934862 107.166448 
L 377.423636 108.235 
L 389.91241 107.84503 
L 402.401185 109.004411 
L 414.889959 108.758249 
L 427.378733 109.870909 
L 439.867507 109.208087 
L 452.356281 110.245304 
L 464.845055 110.95224 
L 477.333829 111.803446 
L 489.822603 111.164557 
L 502.311377 111.873009 
L 514.800152 111.500321 
L 527.288926 112.580257 
L 539.7777 112.198135 
L 552.266474 112.756429 
L 564.755248 113.211805 
L 577.244022 112.616604 
L 589.732796 113.431472 
L 602.22157 114.9192 
L 614.710344 113.966867 
L 627.199118 113.753487 
L 639.687893 114.259034 
L 652.176667 115.199275 
L 664.665441 114.441626 
L 677.154215 114.73935 
" clip-path="url(#p3bf6d98d96)" style="fill: none; stroke: #1f77b4; stroke-width: 1.5; stroke-linecap: square"/>
   </g>
   <g id="line2d_26">
    <path d="M 77.693058 43.387273 
L 90.181832 44.657563 
L 102.670606 44.298688 
L 115.15938 44.279454 
L 127.648154 44.217349 
L 140.136928 44.274449 
L 152.625702 44.130244 
L 165.114477 45.187757 
L 177.603251 44.577814 
L 190.092025 45.254446 
L 202.580799 132.928637 
L 215.069573 133.296274 
L 227.558347 135.636381 
L 240.047121 137.037369 
L 252.535895 139.947656 
L 265.024669 141.23301 
L 277.513444 145.109644 
L 290.002218 145.90158 
L 302.490992 148.216098 
L 314.979766 149.657801 
L 327.46854 152.478897 
L 339.957314 153.260376 
L 352.446088 155.173254 
L 364.934862 157.441011 
L 377.423636 159.915098 
L 389.91241 159.967858 
L 402.401185 161.534425 
L 414.889959 161.81956 
L 427.378733 163.400871 
L 439.867507 163.609836 
L 452.356281 165.164829 
L 464.845055 165.784067 
L 477.333829 167.337389 
L 489.822603 166.431348 
L 502.311377 167.425561 
L 514.800152 166.981317 
L 527.288926 168.605671 
L 539.7777 167.775402 
L 552.266474 168.835684 
L 564.755248 169.285524 
L 577.244022 169.107854 
L 589.732796 169.13914 
L 602.22157 170.654207 
L 614.710344 170.358008 
L 627.199118 170.560771 
L 639.687893 170.668872 
L 652.176667 171.839454 
L 664.665441 170.946971 
L 677.154215 171.848855 
" clip-path="url(#p3bf6d98d96)" style="fill: none; stroke: #ff7f0e; stroke-width: 1.5; stroke-linecap: square"/>
   </g>
   <g id="line2d_27">
    <path d="M 77.693058 43.387273 
L 90.181832 44.657563 
L 102.670606 44.298688 
L 115.15938 44.279454 
L 127.648154 44.217349 
L 140.136928 44.274449 
L 152.625702 44.130244 
L 165.114477 45.187757 
L 177.603251 44.577814 
L 190.092025 45.254446 
L 202.580799 168.646447 
L 215.069573 169.19034 
L 227.558347 171.330117 
L 240.047121 172.824174 
L 252.535895 176.778241 
L 265.024669 180.07955 
L 277.513444 183.873266 
L 290.002218 186.379648 
L 302.490992 188.479189 
L 314.979766 190.584761 
L 327.46854 191.778005 
L 339.957314 193.158008 
L 352.446088 194.886132 
L 364.934862 197.590254 
L 377.423636 198.446107 
L 389.91241 198.965473 
L 402.401185 200.200547 
L 414.889959 201.472475 
L 427.378733 202.14927 
L 439.867507 203.063993 
L 452.356281 204.179245 
L 464.845055 204.777423 
L 477.333829 205.144265 
L 489.822603 205.164788 
L 502.311377 205.806774 
L 514.800152 205.820835 
L 527.288926 206.493432 
L 539.7777 206.248711 
L 552.266474 206.664152 
L 564.755248 207.318485 
L 577.244022 206.656573 
L 589.732796 207.53061 
L 602.22157 207.811584 
L 614.710344 207.955736 
L 627.199118 207.776876 
L 639.687893 208.071428 
L 652.176667 208.846474 
L 664.665441 208.881315 
L 677.154215 209.350922 
" clip-path="url(#p3bf6d98d96)" style="fill: none; stroke: #2ca02c; stroke-width: 1.5; stroke-linecap: square"/>
   </g>
   <g id="line2d_28">
    <path d="M 77.693058 43.387273 
L 90.181832 44.657563 
L 102.670606 44.298688 
L 115.15938 44.279454 
L 127.648154 44.217349 
L 140.136928 44.274449 
L 152.625702 44.130244 
L 165.114477 45.187757 
L 177.603251 44.577814 
L 190.092025 45.254446 
L 202.580799 210.848498 
L 215.069573 213.131797 
L 227.558347 216.610448 
L 240.047121 219.629227 
L 252.535895 223.0215 
L 265.024669 228.174934 
L 277.513444 231.651261 
L 290.002218 234.310644 
L 302.490992 237.226819 
L 314.979766 239.163621 
L 327.46854 239.061428 
L 339.957314 240.603842 
L 352.446088 241.8927 
L 364.934862 244.110556 
L 377.423636 244.750552 
L 389.91241 246.175537 
L 402.401185 246.289273 
L 414.889959 247.859165 
L 427.378733 248.013823 
L 439.867507 249.800818 
L 452.356281 250.88515 
L 464.845055 251.432444 
L 477.333829 250.993235 
L 489.822603 250.762684 
L 502.311377 251.349254 
L 514.800152 252.878614 
L 527.288926 252.626201 
L 539.7777 253.026177 
L 552.266474 252.771766 
L 564.755248 253.657599 
L 577.244022 253.077915 
L 589.732796 253.304926 
L 602.22157 253.79207 
L 614.710344 254.623932 
L 627.199118 254.119923 
L 639.687893 255.02892 
L 652.176667 255.203569 
L 664.665441 255.457485 
L 677.154215 254.808006 
" clip-path="url(#p3bf6d98d96)" style="fill: none; stroke: #d62728; stroke-width: 1.5; stroke-linecap: square"/>
   </g>
   <g id="line2d_29">
    <path d="M 77.693058 43.387273 
L 90.181832 44.657563 
L 102.670606 44.298688 
L 115.15938 44.279454 
L 127.648154 44.217349 
L 140.136928 44.274449 
L 152.625702 44.130244 
L 165.114477 45.187757 
L 177.603251 44.577814 
L 190.092025 45.254446 
L 202.580799 251.501327 
L 215.069573 252.854042 
L 227.558347 257.360304 
L 240.047121 259.595782 
L 252.535895 262.719411 
L 265.024669 267.042283 
L 277.513444 268.749959 
L 290.002218 271.609192 
L 302.490992 274.206656 
L 314.979766 276.496121 
L 327.46854 277.824658 
L 339.957314 279.460992 
L 352.446088 280.786845 
L 364.934862 282.281886 
L 377.423636 283.202618 
L 389.91241 283.927515 
L 402.401185 284.52311 
L 414.889959 286.295578 
L 427.378733 285.535293 
L 439.867507 287.130063 
L 452.356281 288.836284 
L 464.845055 288.769284 
L 477.333829 288.328164 
L 489.822603 288.35864 
L 502.311377 288.556548 
L 514.800152 290.214637 
L 527.288926 290.156881 
L 539.7777 289.316039 
L 552.266474 289.313702 
L 564.755248 289.716845 
L 577.244022 289.582867 
L 589.732796 289.953034 
L 602.22157 290.843137 
L 614.710344 290.588296 
L 627.199118 290.294837 
L 639.687893 290.866114 
L 652.176667 290.654914 
L 664.665441 291.11979 
L 677.154215 291.13093 
" clip-path="url(#p3bf6d98d96)" style="fill: none; stroke: #9467bd; stroke-width: 1.5; stroke-linecap: square"/>
   </g>
   <g id="line2d_30">
    <path d="M 77.693058 43.387273 
L 90.181832 44.657563 
L 102.670606 44.298688 
L 115.15938 44.279454 
L 127.648154 44.217349 
L 140.136928 44.274449 
L 152.625702 44.130244 
L 165.114477 45.187757 
L 177.603251 44.577814 
L 190.092025 45.254446 
L 202.580799 286.850687 
L 215.069573 287.138503 
L 227.558347 289.57056 
L 240.047121 290.818136 
L 252.535895 294.329128 
L 265.024669 297.931481 
L 277.513444 299.076354 
L 290.002218 301.391799 
L 302.490992 302.900968 
L 314.979766 304.239684 
L 327.46854 306.583437 
L 339.957314 307.06225 
L 352.446088 307.645864 
L 364.934862 308.868458 
L 377.423636 310.538625 
L 389.91241 310.781948 
L 402.401185 310.95703 
L 414.889959 311.872526 
L 427.378733 311.722617 
L 439.867507 312.715546 
L 452.356281 313.906566 
L 464.845055 313.076756 
L 477.333829 313.402558 
L 489.822603 313.361128 
L 502.311377 313.392576 
L 514.800152 314.452289 
L 527.288926 314.936352 
L 539.7777 313.978719 
L 552.266474 314.277343 
L 564.755248 314.203114 
L 577.244022 314.751399 
L 589.732796 314.665562 
L 602.22157 315.374211 
L 614.710344 315.050926 
L 627.199118 315.511786 
L 639.687893 315.893769 
L 652.176667 315.608607 
L 664.665441 315.864593 
L 677.154215 316.969198 
" clip-path="url(#p3bf6d98d96)" style="fill: none; stroke: #8c564b; stroke-width: 1.5; stroke-linecap: square"/>
   </g>
   <g id="line2d_31">
    <path d="M 77.693058 43.387273 
L 90.181832 44.657563 
L 102.670606 44.298688 
L 115.15938 44.279454 
L 127.648154 44.217349 
L 140.136928 44.274449 
L 152.625702 44.130244 
L 165.114477 45.187757 
L 177.603251 44.577814 
L 190.092025 45.254446 
L 202.580799 323.262902 
L 215.069573 322.832715 
L 227.558347 326.967085 
L 240.047121 326.354029 
L 252.535895 327.90915 
L 265.024669 330.421528 
L 277.513444 330.238981 
L 290.002218 331.68156 
L 302.490992 332.929706 
L 314.979766 333.271767 
L 327.46854 334.420259 
L 339.957314 335.349359 
L 352.446088 335.809983 
L 364.934862 336.314802 
L 377.423636 337.451578 
L 389.91241 338.18998 
L 402.401185 337.706898 
L 414.889959 338.709761 
L 427.378733 338.984198 
L 439.867507 339.089293 
L 452.356281 340.091996 
L 464.845055 339.527788 
L 477.333829 339.929649 
L 489.822603 340.271711 
L 502.311377 339.98817 
L 514.800152 340.405613 
L 527.288926 340.802174 
L 539.7777 340.587682 
L 552.266474 340.365515 
L 564.755248 340.850155 
L 577.244022 341.315706 
L 589.732796 341.001939 
L 602.22157 341.221932 
L 614.710344 340.982677 
L 627.199118 341.306002 
L 639.687893 342.202036 
L 652.176667 341.59305 
L 664.665441 341.559827 
L 677.154215 342.257286 
" clip-path="url(#p3bf6d98d96)" style="fill: none; stroke: #e377c2; stroke-width: 1.5; stroke-linecap: square"/>
   </g>
   <g id="line2d_32">
    <path d="M 77.693058 43.387273 
L 90.181832 44.657563 
L 102.670606 44.298688 
L 115.15938 44.279454 
L 127.648154 44.217349 
L 140.136928 44.274449 
L 152.625702 44.130244 
L 165.114477 45.187757 
L 177.603251 44.577814 
L 190.092025 45.254446 
L 202.580799 356.093587 
L 215.069573 355.792386 
L 227.558347 356.957277 
L 240.047121 357.030735 
L 252.535895 357.755175 
L 265.024669 358.473473 
L 277.513444 358.971092 
L 290.002218 359.025149 
L 302.490992 359.6852 
L 314.979766 359.969417 
L 327.46854 360.441431 
L 339.957314 360.456167 
L 352.446088 360.8747 
L 364.934862 360.965454 
L 377.423636 361.125082 
L 389.91241 361.05455 
L 402.401185 361.427899 
L 414.889959 361.451868 
L 427.378733 361.676647 
L 439.867507 361.46737 
L 452.356281 361.815659 
L 464.845055 361.677037 
L 477.333829 361.943379 
L 489.822603 361.755519 
L 502.311377 361.98715 
L 514.800152 361.899554 
L 527.288926 362.091317 
L 539.7777 361.961127 
L 552.266474 362.193088 
L 564.755248 362.043358 
L 577.244022 362.259106 
L 589.732796 362.085555 
L 602.22157 362.272557 
L 614.710344 362.111726 
L 627.199118 362.360868 
L 639.687893 362.155504 
L 652.176667 362.416939 
L 664.665441 362.241576 
L 677.154215 362.483931 
" clip-path="url(#p3bf6d98d96)" style="fill: none; stroke: #7f7f7f; stroke-width: 1.5; stroke-linecap: square"/>
   </g>
   <g id="line2d_33">
    <path d="M 77.693058 43.387273 
L 90.181832 44.657563 
L 102.670606 44.298688 
L 115.15938 44.279454 
L 127.648154 44.217349 
L 140.136928 44.274449 
L 152.625702 44.130244 
L 165.114477 45.187757 
L 177.603251 44.577814 
L 190.092025 45.254446 
L 202.580799 370.70842 
L 215.069573 370.123581 
L 227.558347 370.32185 
L 240.047121 370.35997 
L 252.535895 370.648127 
L 265.024669 370.611119 
L 277.513444 370.924231 
L 290.002218 370.851675 
L 302.490992 371.122987 
L 314.979766 370.889514 
L 327.46854 371.040577 
L 339.957314 370.887983 
L 352.446088 371.063004 
L 364.934862 370.814452 
L 377.423636 371.012066 
L 389.91241 370.816231 
L 402.401185 371.051245 
L 414.889959 370.864723 
L 427.378733 370.990537 
L 439.867507 370.807756 
L 452.356281 371.035105 
L 464.845055 370.81631 
L 477.333829 370.99293 
L 489.822603 370.794022 
L 502.311377 370.996088 
L 514.800152 370.826297 
L 527.288926 370.986953 
L 539.7777 370.768318 
L 552.266474 370.981946 
L 564.755248 370.797702 
L 577.244022 370.978452 
L 589.732796 370.770702 
L 602.22157 370.959184 
L 614.710344 370.782818 
L 627.199118 370.976394 
L 639.687893 370.761058 
L 652.176667 370.951836 
L 664.665441 370.769644 
L 677.154215 370.965706 
" clip-path="url(#p3bf6d98d96)" style="fill: none; stroke: #bcbd22; stroke-width: 1.5; stroke-linecap: square"/>
   </g>
   <g id="line2d_34">
    <path d="M 77.693058 43.387273 
L 90.181832 44.657563 
L 102.670606 44.298688 
L 115.15938 44.279454 
L 127.648154 44.217349 
L 140.136928 44.274449 
L 152.625702 44.130244 
L 165.114477 45.187757 
L 177.603251 44.577814 
L 190.092025 45.254446 
L 202.580799 373.532727 
L 215.069573 373.532727 
L 227.558347 373.532727 
L 240.047121 373.532727 
L 252.535895 373.532727 
L 265.024669 373.532727 
L 277.513444 373.532727 
L 290.002218 373.532727 
L 302.490992 373.532727 
L 314.979766 373.532727 
L 327.46854 373.532727 
L 339.957314 373.532727 
L 352.446088 373.532727 
L 364.934862 373.532727 
L 377.423636 373.532727 
L 389.91241 373.532727 
L 402.401185 373.532727 
L 414.889959 373.532727 
L 427.378733 373.532727 
L 439.867507 373.532727 
L 452.356281 373.532727 
L 464.845055 373.532727 
L 477.333829 373.532727 
L 489.822603 373.532727 
L 502.311377 373.532727 
L 514.800152 373.532727 
L 527.288926 373.532727 
L 539.7777 373.532727 
L 552.266474 373.532727 
L 564.755248 373.532727 
L 577.244022 373.532727 
L 589.732796 373.532727 
L 602.22157 373.532727 
L 614.710344 373.532727 
L 627.199118 373.532727 
L 639.687893 373.532727 
L 652.176667 373.532727 
L 664.665441 373.532727 
L 677.154215 373.532727 
" clip-path="url(#p3bf6d98d96)" style="fill: none; stroke: #17becf; stroke-width: 1.5; stroke-linecap: square"/>
   </g>
   <g id="patch_3">
    <path d="M 47.72 390.04 
L 47.72 26.88 
" style="fill: none; stroke: #000000; stroke-width: 0.8; stroke-linejoin: miter; stroke-linecap: square"/>
   </g>
   <g id="patch_4">
    <path d="M 707.127273 390.04 
L 707.127273 26.88 
" style="fill: none; stroke: #000000; stroke-width: 0.8; stroke-linejoin: miter; stroke-linecap: square"/>
   </g>
   <g id="patch_5">
    <path d="M 47.72 390.04 
L 707.127273 390.04 
" style="fill: none; stroke: #000000; stroke-width: 0.8; stroke-linejoin: miter; stroke-linecap: square"/>
   </g>
   <g id="patch_6">
    <path d="M 47.72 26.88 
L 707.127273 26.88 
" style="fill: none; stroke: #000000; stroke-width: 0.8; stroke-linejoin: miter; stroke-linecap: square"/>
   </g>
   <g id="text_15">
    <!-- S_anc evolution for different p values (L=5, dt=1.0, Measurement direction: Z, T=10*L) -->
    <g transform="translate(114.236449 20.88) scale(0.12 -0.12)">
     <defs>
      <path id="DejaVuSans-20" transform="scale(0.015625)"/>
      <path id="DejaVuSans-76" d="M 191 3500 
L 800 3500 
L 1894 563 
L 2988 3500 
L 3597 3500 
L 2284 0 
L 1503 0 
L 191 3500 
z
" transform="scale(0.015625)"/>
      <path id="DejaVuSans-6f" d="M 1959 3097 
Q 1497 3097 1228 2736 
Q 959 2375 959 1747 
Q 959 1119 1226 758 
Q 1494 397 1959 397 
Q 2419 397 2687 759 
Q 2956 1122 2956 1747 
Q 2956 2369 2687 2733 
Q 2419 3097 1959 3097 
z
M 1959 3584 
Q 2709 3584 3137 3096 
Q 3566 2609 3566 1747 
Q 3566 888 3137 398 
Q 2709 -91 1959 -91 
Q 1206 -91 779 398 
Q 353 888 353 1747 
Q 353 2609 779 3096 
Q 1206 3584 1959 3584 
z
" transform="scale(0.015625)"/>
      <path id="DejaVuSans-6c" d="M 603 4863 
L 1178 4863 
L 1178 0 
L 603 0 
L 603 4863 
z
" transform="scale(0.015625)"/>
      <path id="DejaVuSans-75" d="M 544 1381 
L 544 3500 
L 1119 3500 
L 1119 1403 
Q 1119 906 1312 657 
Q 1506 409 1894 409 
Q 2359 409 2629 706 
Q 2900 1003 2900 1516 
L 2900 3500 
L 3475 3500 
L 3475 0 
L 2900 0 
L 2900 538 
Q 2691 219 2414 64 
Q 2138 -91 1772 -91 
Q 1169 -91 856 284 
Q 544 659 544 1381 
z
M 1991 3584 
L 1991 3584 
z
" transform="scale(0.015625)"/>
      <path id="DejaVuSans-74" d="M 1172 4494 
L 1172 3500 
L 2356 3500 
L 2356 3053 
L 1172 3053 
L 1172 1153 
Q 1172 725 1289 603 
Q 1406 481 1766 481 
L 2356 481 
L 2356 0 
L 1766 0 
Q 1100 0 847 248 
Q 594 497 594 1153 
L 594 3053 
L 172 3053 
L 172 3500 
L 594 3500 
L 594 4494 
L 1172 4494 
z
" transform="scale(0.015625)"/>
      <path id="DejaVuSans-66" d="M 2375 4863 
L 2375 4384 
L 1825 4384 
Q 1516 4384 1395 4259 
Q 1275 4134 1275 3809 
L 1275 3500 
L 2222 3500 
L 2222 3053 
L 1275 3053 
L 1275 0 
L 697 0 
L 697 3053 
L 147 3053 
L 147 3500 
L 697 3500 
L 697 3744 
Q 697 4328 969 4595 
Q 1241 4863 1831 4863 
L 2375 4863 
z
" transform="scale(0.015625)"/>
      <path id="DejaVuSans-72" d="M 2631 2963 
Q 2534 3019 2420 3045 
Q 2306 3072 2169 3072 
Q 1681 3072 1420 2755 
Q 1159 2438 1159 1844 
L 1159 0 
L 581 0 
L 581 3500 
L 1159 3500 
L 1159 2956 
Q 1341 3275 1631 3429 
Q 1922 3584 2338 3584 
Q 2397 3584 2469 3576 
Q 2541 3569 2628 3553 
L 2631 2963 
z
" transform="scale(0.015625)"/>
      <path id="DejaVuSans-64" d="M 2906 2969 
L 2906 4863 
L 3481 4863 
L 3481 0 
L 2906 0 
L 2906 525 
Q 2725 213 2448 61 
Q 2172 -91 1784 -91 
Q 1150 -91 751 415 
Q 353 922 353 1747 
Q 353 2572 751 3078 
Q 1150 3584 1784 3584 
Q 2172 3584 2448 3432 
Q 2725 3281 2906 2969 
z
M 947 1747 
Q 947 1113 1208 752 
Q 1469 391 1925 391 
Q 2381 391 2643 752 
Q 2906 1113 2906 1747 
Q 2906 2381 2643 2742 
Q 2381 3103 1925 3103 
Q 1469 3103 1208 2742 
Q 947 2381 947 1747 
z
" transform="scale(0.015625)"/>
      <path id="DejaVuSans-70" d="M 1159 525 
L 1159 -1331 
L 581 -1331 
L 581 3500 
L 1159 3500 
L 1159 2969 
Q 1341 3281 1617 3432 
Q 1894 3584 2278 3584 
Q 2916 3584 3314 3078 
Q 3713 2572 3713 1747 
Q 3713 922 3314 415 
Q 2916 -91 2278 -91 
Q 1894 -91 1617 61 
Q 1341 213 1159 525 
z
M 3116 1747 
Q 3116 2381 2855 2742 
Q 2594 3103 2138 3103 
Q 1681 3103 1420 2742 
Q 1159 2381 1159 1747 
Q 1159 1113 1420 752 
Q 1681 391 2138 391 
Q 2594 391 2855 752 
Q 3116 1113 3116 1747 
z
" transform="scale(0.015625)"/>
      <path id="DejaVuSans-73" d="M 2834 3397 
L 2834 2853 
Q 2591 2978 2328 3040 
Q 2066 3103 1784 3103 
Q 1356 3103 1142 2972 
Q 928 2841 928 2578 
Q 928 2378 1081 2264 
Q 1234 2150 1697 2047 
L 1894 2003 
Q 2506 1872 2764 1633 
Q 3022 1394 3022 966 
Q 3022 478 2636 193 
Q 2250 -91 1575 -91 
Q 1294 -91 989 -36 
Q 684 19 347 128 
L 347 722 
Q 666 556 975 473 
Q 1284 391 1588 391 
Q 1994 391 2212 530 
Q 2431 669 2431 922 
Q 2431 1156 2273 1281 
Q 2116 1406 1581 1522 
L 1381 1569 
Q 847 1681 609 1914 
Q 372 2147 372 2553 
Q 372 3047 722 3315 
Q 1072 3584 1716 3584 
Q 2034 3584 2315 3537 
Q 2597 3491 2834 3397 
z
" transform="scale(0.015625)"/>
      <path id="DejaVuSans-28" d="M 1984 4856 
Q 1566 4138 1362 3434 
Q 1159 2731 1159 2009 
Q 1159 1288 1364 580 
Q 1569 -128 1984 -844 
L 1484 -844 
Q 1016 -109 783 600 
Q 550 1309 550 2009 
Q 550 2706 781 3412 
Q 1013 4119 1484 4856 
L 1984 4856 
z
" transform="scale(0.015625)"/>
      <path id="DejaVuSans-4c" d="M 628 4666 
L 1259 4666 
L 1259 531 
L 3531 531 
L 3531 0 
L 628 0 
L 628 4666 
z
" transform="scale(0.015625)"/>
      <path id="DejaVuSans-3d" d="M 678 2906 
L 4684 2906 
L 4684 2381 
L 678 2381 
L 678 2906 
z
M 678 1631 
L 4684 1631 
L 4684 1100 
L 678 1100 
L 678 1631 
z
" transform="scale(0.015625)"/>
      <path id="DejaVuSans-2c" d="M 750 794 
L 1409 794 
L 1409 256 
L 897 -744 
L 494 -744 
L 750 256 
L 750 794 
z
" transform="scale(0.015625)"/>
      <path id="DejaVuSans-4d" d="M 628 4666 
L 1569 4666 
L 2759 1491 
L 3956 4666 
L 4897 4666 
L 4897 0 
L 4281 0 
L 4281 4097 
L 3078 897 
L 2444 897 
L 1241 4097 
L 1241 0 
L 628 0 
L 628 4666 
z
" transform="scale(0.015625)"/>
      <path id="DejaVuSans-3a" d="M 750 794 
L 1409 794 
L 1409 0 
L 750 0 
L 750 794 
z
M 750 3309 
L 1409 3309 
L 1409 2516 
L 750 2516 
L 750 3309 
z
" transform="scale(0.015625)"/>
      <path id="DejaVuSans-5a" d="M 359 4666 
L 4025 4666 
L 4025 4184 
L 1075 531 
L 4097 531 
L 4097 0 
L 288 0 
L 288 481 
L 3238 4134 
L 359 4134 
L 359 4666 
z
" transform="scale(0.015625)"/>
      <path id="DejaVuSans-2a" d="M 3009 3897 
L 1888 3291 
L 3009 2681 
L 2828 2375 
L 1778 3009 
L 1778 1831 
L 1422 1831 
L 1422 3009 
L 372 2375 
L 191 2681 
L 1313 3291 
L 191 3897 
L 372 4206 
L 1422 3572 
L 1422 4750 
L 1778 4750 
L 1778 3572 
L 2828 4206 
L 3009 3897 
z
" transform="scale(0.015625)"/>
      <path id="DejaVuSans-29" d="M 513 4856 
L 1013 4856 
Q 1481 4119 1714 3412 
Q 1947 2706 1947 2009 
Q 1947 1309 1714 600 
Q 1481 -109 1013 -844 
L 513 -844 
Q 928 -128 1133 580 
Q 1338 1288 1338 2009 
Q 1338 2731 1133 3434 
Q 928 4138 513 4856 
z
" transform="scale(0.015625)"/>
     </defs>
     <use xlink:href="#DejaVuSans-53"/>
     <use xlink:href="#DejaVuSans-5f" transform="translate(63.476562 0)"/>
     <use xlink:href="#DejaVuSans-61" transform="translate(113.476562 0)"/>
     <use xlink:href="#DejaVuSans-6e" transform="translate(174.755859 0)"/>
     <use xlink:href="#DejaVuSans-63" transform="translate(238.134766 0)"/>
     <use xlink:href="#DejaVuSans-20" transform="translate(293.115234 0)"/>
     <use xlink:href="#DejaVuSans-65" transform="translate(324.902344 0)"/>
     <use xlink:href="#DejaVuSans-76" transform="translate(386.425781 0)"/>
     <use xlink:href="#DejaVuSans-6f" transform="translate(445.605469 0)"/>
     <use xlink:href="#DejaVuSans-6c" transform="translate(506.787109 0)"/>
     <use xlink:href="#DejaVuSans-75" transform="translate(534.570312 0)"/>
     <use xlink:href="#DejaVuSans-74" transform="translate(597.949219 0)"/>
     <use xlink:href="#DejaVuSans-69" transform="translate(637.158203 0)"/>
     <use xlink:href="#DejaVuSans-6f" transform="translate(664.941406 0)"/>
     <use xlink:href="#DejaVuSans-6e" transform="translate(726.123047 0)"/>
     <use xlink:href="#DejaVuSans-20" transform="translate(789.501953 0)"/>
     <use xlink:href="#DejaVuSans-66" transform="translate(821.289062 0)"/>
     <use xlink:href="#DejaVuSans-6f" transform="translate(856.494141 0)"/>
     <use xlink:href="#DejaVuSans-72" transform="translate(917.675781 0)"/>
     <use xlink:href="#DejaVuSans-20" transform="translate(958.789062 0)"/>
     <use xlink:href="#DejaVuSans-64" transform="translate(990.576172 0)"/>
     <use xlink:href="#DejaVuSans-69" transform="translate(1054.052734 0)"/>
     <use xlink:href="#DejaVuSans-66" transform="translate(1081.835938 0)"/>
     <use xlink:href="#DejaVuSans-66" transform="translate(1117.041016 0)"/>
     <use xlink:href="#DejaVuSans-65" transform="translate(1152.246094 0)"/>
     <use xlink:href="#DejaVuSans-72" transform="translate(1213.769531 0)"/>
     <use xlink:href="#DejaVuSans-65" transform="translate(1252.632812 0)"/>
     <use xlink:href="#DejaVuSans-6e" transform="translate(1314.15625 0)"/>
     <use xlink:href="#DejaVuSans-74" transform="translate(1377.535156 0)"/>
     <use xlink:href="#DejaVuSans-20" transform="translate(1416.744141 0)"/>
     <use xlink:href="#DejaVuSans-70" transform="translate(1448.53125 0)"/>
     <use xlink:href="#DejaVuSans-20" transform="translate(1512.007812 0)"/>
     <use xlink:href="#DejaVuSans-76" transform="translate(1543.794922 0)"/>
     <use xlink:href="#DejaVuSans-61" transform="translate(1602.974609 0)"/>
     <use xlink:href="#DejaVuSans-6c" transform="translate(1664.253906 0)"/>
     <use xlink:href="#DejaVuSans-75" transform="translate(1692.037109 0)"/>
     <use xlink:href="#DejaVuSans-65" transform="translate(1755.416016 0)"/>
     <use xlink:href="#DejaVuSans-73" transform="translate(1816.939453 0)"/>
     <use xlink:href="#DejaVuSans-20" transform="translate(1869.039062 0)"/>
     <use xlink:href="#DejaVuSans-28" transform="translate(1900.826172 0)"/>
     <use xlink:href="#DejaVuSans-4c" transform="translate(1939.839844 0)"/>
     <use xlink:href="#DejaVuSans-3d" transform="translate(1995.552734 0)"/>
     <use xlink:href="#DejaVuSans-35" transform="translate(2079.341797 0)"/>
     <use xlink:href="#DejaVuSans-2c" transform="translate(2142.964844 0)"/>
     <use xlink:href="#DejaVuSans-20" transform="translate(2174.751953 0)"/>
     <use xlink:href="#DejaVuSans-64" transform="translate(2206.539062 0)"/>
     <use xlink:href="#DejaVuSans-74" transform="translate(2270.015625 0)"/>
     <use xlink:href="#DejaVuSans-3d" transform="translate(2309.224609 0)"/>
     <use xlink:href="#DejaVuSans-31" transform="translate(2393.013672 0)"/>
     <use xlink:href="#DejaVuSans-2e" transform="translate(2456.636719 0)"/>
     <use xlink:href="#DejaVuSans-30" transform="translate(2488.423828 0)"/>
     <use xlink:href="#DejaVuSans-2c" transform="translate(2552.046875 0)"/>
     <use xlink:href="#DejaVuSans-20" transform="translate(2583.833984 0)"/>
     <use xlink:href="#DejaVuSans-4d" transform="translate(2615.621094 0)"/>
     <use xlink:href="#DejaVuSans-65" transform="translate(2701.900391 0)"/>
     <use xlink:href="#DejaVuSans-61" transform="translate(2763.423828 0)"/>
     <use xlink:href="#DejaVuSans-73" transform="translate(2824.703125 0)"/>
     <use xlink:href="#DejaVuSans-75" transform="translate(2876.802734 0)"/>
     <use xlink:href="#DejaVuSans-72" transform="translate(2940.181641 0)"/>
     <use xlink:href="#DejaVuSans-65" transform="translate(2979.044922 0)"/>
     <use xlink:href="#DejaVuSans-6d" transform="translate(3040.568359 0)"/>
     <use xlink:href="#DejaVuSans-65" transform="translate(3137.980469 0)"/>
     <use xlink:href="#DejaVuSans-6e" transform="translate(3199.503906 0)"/>
     <use xlink:href="#DejaVuSans-74" transform="translate(3262.882812 0)"/>
     <use xlink:href="#DejaVuSans-20" transform="translate(3302.091797 0)"/>
     <use xlink:href="#DejaVuSans-64" transform="translate(3333.878906 0)"/>
     <use xlink:href="#DejaVuSans-69" transform="translate(3397.355469 0)"/>
     <use xlink:href="#DejaVuSans-72" transform="translate(3425.138672 0)"/>
     <use xlink:href="#DejaVuSans-65" transform="translate(3464.001953 0)"/>
     <use xlink:href="#DejaVuSans-63" transform="translate(3525.525391 0)"/>
     <use xlink:href="#DejaVuSans-74" transform="translate(3580.505859 0)"/>
     <use xlink:href="#DejaVuSans-69" transform="translate(3619.714844 0)"/>
     <use xlink:href="#DejaVuSans-6f" transform="translate(3647.498047 0)"/>
     <use xlink:href="#DejaVuSans-6e" transform="translate(3708.679688 0)"/>
     <use xlink:href="#DejaVuSans-3a" transform="translate(3772.058594 0)"/>
     <use xlink:href="#DejaVuSans-20" transform="translate(3805.75 0)"/>
     <use xlink:href="#DejaVuSans-5a" transform="translate(3837.537109 0)"/>
     <use xlink:href="#DejaVuSans-2c" transform="translate(3906.042969 0)"/>
     <use xlink:href="#DejaVuSans-20" transform="translate(3937.830078 0)"/>
     <use xlink:href="#DejaVuSans-54" transform="translate(3969.617188 0)"/>
     <use xlink:href="#DejaVuSans-3d" transform="translate(4030.701172 0)"/>
     <use xlink:href="#DejaVuSans-31" transform="translate(4114.490234 0)"/>
     <use xlink:href="#DejaVuSans-30" transform="translate(4178.113281 0)"/>
     <use xlink:href="#DejaVuSans-2a" transform="translate(4241.736328 0)"/>
     <use xlink:href="#DejaVuSans-4c" transform="translate(4291.736328 0)"/>
     <use xlink:href="#DejaVuSans-29" transform="translate(4347.449219 0)"/>
    </g>
   </g>
   <g id="legend_1">
    <g id="patch_7">
     <path d="M 54.72 385.04 
L 117.35125 385.04 
Q 119.35125 385.04 119.35125 383.04 
L 119.35125 237.25875 
Q 119.35125 235.25875 117.35125 235.25875 
L 54.72 235.25875 
Q 52.72 235.25875 52.72 237.25875 
L 52.72 383.04 
Q 52.72 385.04 54.72 385.04 
z
" style="fill: #ffffff; opacity: 0.8; stroke: #cccccc; stroke-linejoin: miter"/>
    </g>
    <g id="line2d_35">
     <path d="M 56.72 243.357188 
L 66.72 243.357188 
L 76.72 243.357188 
" style="fill: none; stroke: #1f77b4; stroke-width: 1.5; stroke-linecap: square"/>
    </g>
    <g id="text_16">
     <!-- p=0.1 -->
     <g transform="translate(84.72 246.857188) scale(0.1 -0.1)">
      <use xlink:href="#DejaVuSans-70"/>
      <use xlink:href="#DejaVuSans-3d" transform="translate(63.476562 0)"/>
      <use xlink:href="#DejaVuSans-30" transform="translate(147.265625 0)"/>
      <use xlink:href="#DejaVuSans-2e" transform="translate(210.888672 0)"/>
      <use xlink:href="#DejaVuSans-31" transform="translate(242.675781 0)"/>
     </g>
    </g>
    <g id="line2d_36">
     <path d="M 56.72 258.035313 
L 66.72 258.035313 
L 76.72 258.035313 
" style="fill: none; stroke: #ff7f0e; stroke-width: 1.5; stroke-linecap: square"/>
    </g>
    <g id="text_17">
     <!-- p=0.2 -->
     <g transform="translate(84.72 261.535313) scale(0.1 -0.1)">
      <use xlink:href="#DejaVuSans-70"/>
      <use xlink:href="#DejaVuSans-3d" transform="translate(63.476562 0)"/>
      <use xlink:href="#DejaVuSans-30" transform="translate(147.265625 0)"/>
      <use xlink:href="#DejaVuSans-2e" transform="translate(210.888672 0)"/>
      <use xlink:href="#DejaVuSans-32" transform="translate(242.675781 0)"/>
     </g>
    </g>
    <g id="line2d_37">
     <path d="M 56.72 272.713438 
L 66.72 272.713438 
L 76.72 272.713438 
" style="fill: none; stroke: #2ca02c; stroke-width: 1.5; stroke-linecap: square"/>
    </g>
    <g id="text_18">
     <!-- p=0.3 -->
     <g transform="translate(84.72 276.213438) scale(0.1 -0.1)">
      <use xlink:href="#DejaVuSans-70"/>
      <use xlink:href="#DejaVuSans-3d" transform="translate(63.476562 0)"/>
      <use xlink:href="#DejaVuSans-30" transform="translate(147.265625 0)"/>
      <use xlink:href="#DejaVuSans-2e" transform="translate(210.888672 0)"/>
      <use xlink:href="#DejaVuSans-33" transform="translate(242.675781 0)"/>
     </g>
    </g>
    <g id="line2d_38">
     <path d="M 56.72 287.391563 
L 66.72 287.391563 
L 76.72 287.391563 
" style="fill: none; stroke: #d62728; stroke-width: 1.5; stroke-linecap: square"/>
    </g>
    <g id="text_19">
     <!-- p=0.4 -->
     <g transform="translate(84.72 290.891563) scale(0.1 -0.1)">
      <use xlink:href="#DejaVuSans-70"/>
      <use xlink:href="#DejaVuSans-3d" transform="translate(63.476562 0)"/>
      <use xlink:href="#DejaVuSans-30" transform="translate(147.265625 0)"/>
      <use xlink:href="#DejaVuSans-2e" transform="translate(210.888672 0)"/>
      <use xlink:href="#DejaVuSans-34" transform="translate(242.675781 0)"/>
     </g>
    </g>
    <g id="line2d_39">
     <path d="M 56.72 302.069688 
L 66.72 302.069688 
L 76.72 302.069688 
" style="fill: none; stroke: #9467bd; stroke-width: 1.5; stroke-linecap: square"/>
    </g>
    <g id="text_20">
     <!-- p=0.5 -->
     <g transform="translate(84.72 305.569688) scale(0.1 -0.1)">
      <use xlink:href="#DejaVuSans-70"/>
      <use xlink:href="#DejaVuSans-3d" transform="translate(63.476562 0)"/>
      <use xlink:href="#DejaVuSans-30" transform="translate(147.265625 0)"/>
      <use xlink:href="#DejaVuSans-2e" transform="translate(210.888672 0)"/>
      <use xlink:href="#DejaVuSans-35" transform="translate(242.675781 0)"/>
     </g>
    </g>
    <g id="line2d_40">
     <path d="M 56.72 316.747813 
L 66.72 316.747813 
L 76.72 316.747813 
" style="fill: none; stroke: #8c564b; stroke-width: 1.5; stroke-linecap: square"/>
    </g>
    <g id="text_21">
     <!-- p=0.6 -->
     <g transform="translate(84.72 320.247813) scale(0.1 -0.1)">
      <use xlink:href="#DejaVuSans-70"/>
      <use xlink:href="#DejaVuSans-3d" transform="translate(63.476562 0)"/>
      <use xlink:href="#DejaVuSans-30" transform="translate(147.265625 0)"/>
      <use xlink:href="#DejaVuSans-2e" transform="translate(210.888672 0)"/>
      <use xlink:href="#DejaVuSans-36" transform="translate(242.675781 0)"/>
     </g>
    </g>
    <g id="line2d_41">
     <path d="M 56.72 331.425938 
L 66.72 331.425938 
L 76.72 331.425938 
" style="fill: none; stroke: #e377c2; stroke-width: 1.5; stroke-linecap: square"/>
    </g>
    <g id="text_22">
     <!-- p=0.7 -->
     <g transform="translate(84.72 334.925938) scale(0.1 -0.1)">
      <defs>
       <path id="DejaVuSans-37" d="M 525 4666 
L 3525 4666 
L 3525 4397 
L 1831 0 
L 1172 0 
L 2766 4134 
L 525 4134 
L 525 4666 
z
" transform="scale(0.015625)"/>
      </defs>
      <use xlink:href="#DejaVuSans-70"/>
      <use xlink:href="#DejaVuSans-3d" transform="translate(63.476562 0)"/>
      <use xlink:href="#DejaVuSans-30" transform="translate(147.265625 0)"/>
      <use xlink:href="#DejaVuSans-2e" transform="translate(210.888672 0)"/>
      <use xlink:href="#DejaVuSans-37" transform="translate(242.675781 0)"/>
     </g>
    </g>
    <g id="line2d_42">
     <path d="M 56.72 346.104062 
L 66.72 346.104062 
L 76.72 346.104062 
" style="fill: none; stroke: #7f7f7f; stroke-width: 1.5; stroke-linecap: square"/>
    </g>
    <g id="text_23">
     <!-- p=0.8 -->
     <g transform="translate(84.72 349.604062) scale(0.1 -0.1)">
      <use xlink:href="#DejaVuSans-70"/>
      <use xlink:href="#DejaVuSans-3d" transform="translate(63.476562 0)"/>
      <use xlink:href="#DejaVuSans-30" transform="translate(147.265625 0)"/>
      <use xlink:href="#DejaVuSans-2e" transform="translate(210.888672 0)"/>
      <use xlink:href="#DejaVuSans-38" transform="translate(242.675781 0)"/>
     </g>
    </g>
    <g id="line2d_43">
     <path d="M 56.72 360.782188 
L 66.72 360.782188 
L 76.72 360.782188 
" style="fill: none; stroke: #bcbd22; stroke-width: 1.5; stroke-linecap: square"/>
    </g>
    <g id="text_24">
     <!-- p=0.9 -->
     <g transform="translate(84.72 364.282188) scale(0.1 -0.1)">
      <defs>
       <path id="DejaVuSans-39" d="M 703 97 
L 703 672 
Q 941 559 1184 500 
Q 1428 441 1663 441 
Q 2288 441 2617 861 
Q 2947 1281 2994 2138 
Q 2813 1869 2534 1725 
Q 2256 1581 1919 1581 
Q 1219 1581 811 2004 
Q 403 2428 403 3163 
Q 403 3881 828 4315 
Q 1253 4750 1959 4750 
Q 2769 4750 3195 4129 
Q 3622 3509 3622 2328 
Q 3622 1225 3098 567 
Q 2575 -91 1691 -91 
Q 1453 -91 1209 -44 
Q 966 3 703 97 
z
M 1959 2075 
Q 2384 2075 2632 2365 
Q 2881 2656 2881 3163 
Q 2881 3666 2632 3958 
Q 2384 4250 1959 4250 
Q 1534 4250 1286 3958 
Q 1038 3666 1038 3163 
Q 1038 2656 1286 2365 
Q 1534 2075 1959 2075 
z
" transform="scale(0.015625)"/>
      </defs>
      <use xlink:href="#DejaVuSans-70"/>
      <use xlink:href="#DejaVuSans-3d" transform="translate(63.476562 0)"/>
      <use xlink:href="#DejaVuSans-30" transform="translate(147.265625 0)"/>
      <use xlink:href="#DejaVuSans-2e" transform="translate(210.888672 0)"/>
      <use xlink:href="#DejaVuSans-39" transform="translate(242.675781 0)"/>
     </g>
    </g>
    <g id="line2d_44">
     <path d="M 56.72 375.460312 
L 66.72 375.460312 
L 76.72 375.460312 
" style="fill: none; stroke: #17becf; stroke-width: 1.5; stroke-linecap: square"/>
    </g>
    <g id="text_25">
     <!-- p=1.0 -->
     <g transform="translate(84.72 378.960312) scale(0.1 -0.1)">
      <use xlink:href="#DejaVuSans-70"/>
      <use xlink:href="#DejaVuSans-3d" transform="translate(63.476562 0)"/>
      <use xlink:href="#DejaVuSans-31" transform="translate(147.265625 0)"/>
      <use xlink:href="#DejaVuSans-2e" transform="translate(210.888672 0)"/>
      <use xlink:href="#DejaVuSans-30" transform="translate(242.675781 0)"/>
     </g>
    </g>
   </g>
  </g>
 </g>
 <defs>
  <clipPath id="p3bf6d98d96">
   <rect x="47.72" y="26.88" width="659.407273" height="363.16"/>
  </clipPath>
 </defs>
</svg>
