<?xml version="1.0" encoding="utf-8" standalone="no"?>
<!DOCTYPE svg PUBLIC "-//W3C//DTD SVG 1.1//EN"
  "http://www.w3.org/Graphics/SVG/1.1/DTD/svg11.dtd">
<svg xmlns:xlink="http://www.w3.org/1999/xlink" width="720pt" height="432pt" viewBox="0 0 720 432" xmlns="http://www.w3.org/2000/svg" version="1.1">
 <metadata>
  <rdf:RDF xmlns:dc="http://purl.org/dc/elements/1.1/" xmlns:cc="http://creativecommons.org/ns#" xmlns:rdf="http://www.w3.org/1999/02/22-rdf-syntax-ns#">
   <cc:Work>
    <dc:type rdf:resource="http://purl.org/dc/dcmitype/StillImage"/>
    <dc:date>2025-08-23T14:09:42.947837</dc:date>
    <dc:format>image/svg+xml</dc:format>
    <dc:creator>
     <cc:Agent>
      <dc:title>Matplotlib v3.10.3, https://matplotlib.org/</dc:title>
     </cc:Agent>
    </dc:creator>
   </cc:Work>
  </rdf:RDF>
 </metadata>
 <defs>
  <style type="text/css">*{stroke-linejoin: round; stroke-linecap: butt}</style>
 </defs>
 <g id="figure_1">
  <g id="patch_1">
   <path d="M 0 432 
L 720 432 
L 720 0 
L 0 0 
z
" style="fill: #ffffff"/>
  </g>
  <g id="axes_1">
   <g id="patch_2">
    <path d="M 47.72 390.04 
L 709.2 390.04 
L 709.2 26.88 
L 47.72 26.88 
z
" style="fill: #ffffff"/>
   </g>
   <g id="matplotlib.axis_1">
    <g id="xtick_1">
     <g id="line2d_1">
      <path d="M 77.787273 390.04 
L 77.787273 26.88 
" clip-path="url(#p329ed974b2)" style="fill: none; stroke: #b0b0b0; stroke-width: 0.8; stroke-linecap: square"/>
     </g>
     <g id="line2d_2">
      <defs>
       <path id="med0ad1387f" d="M 0 0 
L 0 3.5 
" style="stroke: #000000; stroke-width: 0.8"/>
      </defs>
      <g>
       <use xlink:href="#med0ad1387f" x="77.787273" y="390.04" style="stroke: #000000; stroke-width: 0.8"/>
      </g>
     </g>
     <g id="text_1">
      <!-- 0 -->
      <g transform="translate(74.606023 404.638438) scale(0.1 -0.1)">
       <defs>
        <path id="DejaVuSans-30" d="M 2034 4250 
Q 1547 4250 1301 3770 
Q 1056 3291 1056 2328 
Q 1056 1369 1301 889 
Q 1547 409 2034 409 
Q 2525 409 2770 889 
Q 3016 1369 3016 2328 
Q 3016 3291 2770 3770 
Q 2525 4250 2034 4250 
z
M 2034 4750 
Q 2819 4750 3233 4129 
Q 3647 3509 3647 2328 
Q 3647 1150 3233 529 
Q 2819 -91 2034 -91 
Q 1250 -91 836 529 
Q 422 1150 422 2328 
Q 422 3509 836 4129 
Q 1250 4750 2034 4750 
z
" transform="scale(0.015625)"/>
       </defs>
       <use xlink:href="#DejaVuSans-30"/>
      </g>
     </g>
    </g>
    <g id="xtick_2">
     <g id="line2d_3">
      <path d="M 154.882844 390.04 
L 154.882844 26.88 
" clip-path="url(#p329ed974b2)" style="fill: none; stroke: #b0b0b0; stroke-width: 0.8; stroke-linecap: square"/>
     </g>
     <g id="line2d_4">
      <g>
       <use xlink:href="#med0ad1387f" x="154.882844" y="390.04" style="stroke: #000000; stroke-width: 0.8"/>
      </g>
     </g>
     <g id="text_2">
      <!-- 10 -->
      <g transform="translate(148.520344 404.638438) scale(0.1 -0.1)">
       <defs>
        <path id="DejaVuSans-31" d="M 794 531 
L 1825 531 
L 1825 4091 
L 703 3866 
L 703 4441 
L 1819 4666 
L 2450 4666 
L 2450 531 
L 3481 531 
L 3481 0 
L 794 0 
L 794 531 
z
" transform="scale(0.015625)"/>
       </defs>
       <use xlink:href="#DejaVuSans-31"/>
       <use xlink:href="#DejaVuSans-30" transform="translate(63.623047 0)"/>
      </g>
     </g>
    </g>
    <g id="xtick_3">
     <g id="line2d_5">
      <path d="M 231.978415 390.04 
L 231.978415 26.88 
" clip-path="url(#p329ed974b2)" style="fill: none; stroke: #b0b0b0; stroke-width: 0.8; stroke-linecap: square"/>
     </g>
     <g id="line2d_6">
      <g>
       <use xlink:href="#med0ad1387f" x="231.978415" y="390.04" style="stroke: #000000; stroke-width: 0.8"/>
      </g>
     </g>
     <g id="text_3">
      <!-- 20 -->
      <g transform="translate(225.615915 404.638438) scale(0.1 -0.1)">
       <defs>
        <path id="DejaVuSans-32" d="M 1228 531 
L 3431 531 
L 3431 0 
L 469 0 
L 469 531 
Q 828 903 1448 1529 
Q 2069 2156 2228 2338 
Q 2531 2678 2651 2914 
Q 2772 3150 2772 3378 
Q 2772 3750 2511 3984 
Q 2250 4219 1831 4219 
Q 1534 4219 1204 4116 
Q 875 4013 500 3803 
L 500 4441 
Q 881 4594 1212 4672 
Q 1544 4750 1819 4750 
Q 2544 4750 2975 4387 
Q 3406 4025 3406 3419 
Q 3406 3131 3298 2873 
Q 3191 2616 2906 2266 
Q 2828 2175 2409 1742 
Q 1991 1309 1228 531 
z
" transform="scale(0.015625)"/>
       </defs>
       <use xlink:href="#DejaVuSans-32"/>
       <use xlink:href="#DejaVuSans-30" transform="translate(63.623047 0)"/>
      </g>
     </g>
    </g>
    <g id="xtick_4">
     <g id="line2d_7">
      <path d="M 309.073986 390.04 
L 309.073986 26.88 
" clip-path="url(#p329ed974b2)" style="fill: none; stroke: #b0b0b0; stroke-width: 0.8; stroke-linecap: square"/>
     </g>
     <g id="line2d_8">
      <g>
       <use xlink:href="#med0ad1387f" x="309.073986" y="390.04" style="stroke: #000000; stroke-width: 0.8"/>
      </g>
     </g>
     <g id="text_4">
      <!-- 30 -->
      <g transform="translate(302.711486 404.638438) scale(0.1 -0.1)">
       <defs>
        <path id="DejaVuSans-33" d="M 2597 2516 
Q 3050 2419 3304 2112 
Q 3559 1806 3559 1356 
Q 3559 666 3084 287 
Q 2609 -91 1734 -91 
Q 1441 -91 1130 -33 
Q 819 25 488 141 
L 488 750 
Q 750 597 1062 519 
Q 1375 441 1716 441 
Q 2309 441 2620 675 
Q 2931 909 2931 1356 
Q 2931 1769 2642 2001 
Q 2353 2234 1838 2234 
L 1294 2234 
L 1294 2753 
L 1863 2753 
Q 2328 2753 2575 2939 
Q 2822 3125 2822 3475 
Q 2822 3834 2567 4026 
Q 2313 4219 1838 4219 
Q 1578 4219 1281 4162 
Q 984 4106 628 3988 
L 628 4550 
Q 988 4650 1302 4700 
Q 1616 4750 1894 4750 
Q 2613 4750 3031 4423 
Q 3450 4097 3450 3541 
Q 3450 3153 3228 2886 
Q 3006 2619 2597 2516 
z
" transform="scale(0.015625)"/>
       </defs>
       <use xlink:href="#DejaVuSans-33"/>
       <use xlink:href="#DejaVuSans-30" transform="translate(63.623047 0)"/>
      </g>
     </g>
    </g>
    <g id="xtick_5">
     <g id="line2d_9">
      <path d="M 386.169557 390.04 
L 386.169557 26.88 
" clip-path="url(#p329ed974b2)" style="fill: none; stroke: #b0b0b0; stroke-width: 0.8; stroke-linecap: square"/>
     </g>
     <g id="line2d_10">
      <g>
       <use xlink:href="#med0ad1387f" x="386.169557" y="390.04" style="stroke: #000000; stroke-width: 0.8"/>
      </g>
     </g>
     <g id="text_5">
      <!-- 40 -->
      <g transform="translate(379.807057 404.638438) scale(0.1 -0.1)">
       <defs>
        <path id="DejaVuSans-34" d="M 2419 4116 
L 825 1625 
L 2419 1625 
L 2419 4116 
z
M 2253 4666 
L 3047 4666 
L 3047 1625 
L 3713 1625 
L 3713 1100 
L 3047 1100 
L 3047 0 
L 2419 0 
L 2419 1100 
L 313 1100 
L 313 1709 
L 2253 4666 
z
" transform="scale(0.015625)"/>
       </defs>
       <use xlink:href="#DejaVuSans-34"/>
       <use xlink:href="#DejaVuSans-30" transform="translate(63.623047 0)"/>
      </g>
     </g>
    </g>
    <g id="xtick_6">
     <g id="line2d_11">
      <path d="M 463.265128 390.04 
L 463.265128 26.88 
" clip-path="url(#p329ed974b2)" style="fill: none; stroke: #b0b0b0; stroke-width: 0.8; stroke-linecap: square"/>
     </g>
     <g id="line2d_12">
      <g>
       <use xlink:href="#med0ad1387f" x="463.265128" y="390.04" style="stroke: #000000; stroke-width: 0.8"/>
      </g>
     </g>
     <g id="text_6">
      <!-- 50 -->
      <g transform="translate(456.902628 404.638438) scale(0.1 -0.1)">
       <defs>
        <path id="DejaVuSans-35" d="M 691 4666 
L 3169 4666 
L 3169 4134 
L 1269 4134 
L 1269 2991 
Q 1406 3038 1543 3061 
Q 1681 3084 1819 3084 
Q 2600 3084 3056 2656 
Q 3513 2228 3513 1497 
Q 3513 744 3044 326 
Q 2575 -91 1722 -91 
Q 1428 -91 1123 -41 
Q 819 9 494 109 
L 494 744 
Q 775 591 1075 516 
Q 1375 441 1709 441 
Q 2250 441 2565 725 
Q 2881 1009 2881 1497 
Q 2881 1984 2565 2268 
Q 2250 2553 1709 2553 
Q 1456 2553 1204 2497 
Q 953 2441 691 2322 
L 691 4666 
z
" transform="scale(0.015625)"/>
       </defs>
       <use xlink:href="#DejaVuSans-35"/>
       <use xlink:href="#DejaVuSans-30" transform="translate(63.623047 0)"/>
      </g>
     </g>
    </g>
    <g id="xtick_7">
     <g id="line2d_13">
      <path d="M 540.360699 390.04 
L 540.360699 26.88 
" clip-path="url(#p329ed974b2)" style="fill: none; stroke: #b0b0b0; stroke-width: 0.8; stroke-linecap: square"/>
     </g>
     <g id="line2d_14">
      <g>
       <use xlink:href="#med0ad1387f" x="540.360699" y="390.04" style="stroke: #000000; stroke-width: 0.8"/>
      </g>
     </g>
     <g id="text_7">
      <!-- 60 -->
      <g transform="translate(533.998199 404.638438) scale(0.1 -0.1)">
       <defs>
        <path id="DejaVuSans-36" d="M 2113 2584 
Q 1688 2584 1439 2293 
Q 1191 2003 1191 1497 
Q 1191 994 1439 701 
Q 1688 409 2113 409 
Q 2538 409 2786 701 
Q 3034 994 3034 1497 
Q 3034 2003 2786 2293 
Q 2538 2584 2113 2584 
z
M 3366 4563 
L 3366 3988 
Q 3128 4100 2886 4159 
Q 2644 4219 2406 4219 
Q 1781 4219 1451 3797 
Q 1122 3375 1075 2522 
Q 1259 2794 1537 2939 
Q 1816 3084 2150 3084 
Q 2853 3084 3261 2657 
Q 3669 2231 3669 1497 
Q 3669 778 3244 343 
Q 2819 -91 2113 -91 
Q 1303 -91 875 529 
Q 447 1150 447 2328 
Q 447 3434 972 4092 
Q 1497 4750 2381 4750 
Q 2619 4750 2861 4703 
Q 3103 4656 3366 4563 
z
" transform="scale(0.015625)"/>
       </defs>
       <use xlink:href="#DejaVuSans-36"/>
       <use xlink:href="#DejaVuSans-30" transform="translate(63.623047 0)"/>
      </g>
     </g>
    </g>
    <g id="xtick_8">
     <g id="line2d_15">
      <path d="M 617.45627 390.04 
L 617.45627 26.88 
" clip-path="url(#p329ed974b2)" style="fill: none; stroke: #b0b0b0; stroke-width: 0.8; stroke-linecap: square"/>
     </g>
     <g id="line2d_16">
      <g>
       <use xlink:href="#med0ad1387f" x="617.45627" y="390.04" style="stroke: #000000; stroke-width: 0.8"/>
      </g>
     </g>
     <g id="text_8">
      <!-- 70 -->
      <g transform="translate(611.09377 404.638438) scale(0.1 -0.1)">
       <defs>
        <path id="DejaVuSans-37" d="M 525 4666 
L 3525 4666 
L 3525 4397 
L 1831 0 
L 1172 0 
L 2766 4134 
L 525 4134 
L 525 4666 
z
" transform="scale(0.015625)"/>
       </defs>
       <use xlink:href="#DejaVuSans-37"/>
       <use xlink:href="#DejaVuSans-30" transform="translate(63.623047 0)"/>
      </g>
     </g>
    </g>
    <g id="xtick_9">
     <g id="line2d_17">
      <path d="M 694.551841 390.04 
L 694.551841 26.88 
" clip-path="url(#p329ed974b2)" style="fill: none; stroke: #b0b0b0; stroke-width: 0.8; stroke-linecap: square"/>
     </g>
     <g id="line2d_18">
      <g>
       <use xlink:href="#med0ad1387f" x="694.551841" y="390.04" style="stroke: #000000; stroke-width: 0.8"/>
      </g>
     </g>
     <g id="text_9">
      <!-- 80 -->
      <g transform="translate(688.189341 404.638438) scale(0.1 -0.1)">
       <defs>
        <path id="DejaVuSans-38" d="M 2034 2216 
Q 1584 2216 1326 1975 
Q 1069 1734 1069 1313 
Q 1069 891 1326 650 
Q 1584 409 2034 409 
Q 2484 409 2743 651 
Q 3003 894 3003 1313 
Q 3003 1734 2745 1975 
Q 2488 2216 2034 2216 
z
M 1403 2484 
Q 997 2584 770 2862 
Q 544 3141 544 3541 
Q 544 4100 942 4425 
Q 1341 4750 2034 4750 
Q 2731 4750 3128 4425 
Q 3525 4100 3525 3541 
Q 3525 3141 3298 2862 
Q 3072 2584 2669 2484 
Q 3125 2378 3379 2068 
Q 3634 1759 3634 1313 
Q 3634 634 3220 271 
Q 2806 -91 2034 -91 
Q 1263 -91 848 271 
Q 434 634 434 1313 
Q 434 1759 690 2068 
Q 947 2378 1403 2484 
z
M 1172 3481 
Q 1172 3119 1398 2916 
Q 1625 2713 2034 2713 
Q 2441 2713 2670 2916 
Q 2900 3119 2900 3481 
Q 2900 3844 2670 4047 
Q 2441 4250 2034 4250 
Q 1625 4250 1398 4047 
Q 1172 3844 1172 3481 
z
" transform="scale(0.015625)"/>
       </defs>
       <use xlink:href="#DejaVuSans-38"/>
       <use xlink:href="#DejaVuSans-30" transform="translate(63.623047 0)"/>
      </g>
     </g>
    </g>
    <g id="text_10">
     <!-- Time -->
     <g transform="translate(366.226406 418.316562) scale(0.1 -0.1)">
      <defs>
       <path id="DejaVuSans-54" d="M -19 4666 
L 3928 4666 
L 3928 4134 
L 2272 4134 
L 2272 0 
L 1638 0 
L 1638 4134 
L -19 4134 
L -19 4666 
z
" transform="scale(0.015625)"/>
       <path id="DejaVuSans-69" d="M 603 3500 
L 1178 3500 
L 1178 0 
L 603 0 
L 603 3500 
z
M 603 4863 
L 1178 4863 
L 1178 4134 
L 603 4134 
L 603 4863 
z
" transform="scale(0.015625)"/>
       <path id="DejaVuSans-6d" d="M 3328 2828 
Q 3544 3216 3844 3400 
Q 4144 3584 4550 3584 
Q 5097 3584 5394 3201 
Q 5691 2819 5691 2113 
L 5691 0 
L 5113 0 
L 5113 2094 
Q 5113 2597 4934 2840 
Q 4756 3084 4391 3084 
Q 3944 3084 3684 2787 
Q 3425 2491 3425 1978 
L 3425 0 
L 2847 0 
L 2847 2094 
Q 2847 2600 2669 2842 
Q 2491 3084 2119 3084 
Q 1678 3084 1418 2786 
Q 1159 2488 1159 1978 
L 1159 0 
L 581 0 
L 581 3500 
L 1159 3500 
L 1159 2956 
Q 1356 3278 1631 3431 
Q 1906 3584 2284 3584 
Q 2666 3584 2933 3390 
Q 3200 3197 3328 2828 
z
" transform="scale(0.015625)"/>
       <path id="DejaVuSans-65" d="M 3597 1894 
L 3597 1613 
L 953 1613 
Q 991 1019 1311 708 
Q 1631 397 2203 397 
Q 2534 397 2845 478 
Q 3156 559 3463 722 
L 3463 178 
Q 3153 47 2828 -22 
Q 2503 -91 2169 -91 
Q 1331 -91 842 396 
Q 353 884 353 1716 
Q 353 2575 817 3079 
Q 1281 3584 2069 3584 
Q 2775 3584 3186 3129 
Q 3597 2675 3597 1894 
z
M 3022 2063 
Q 3016 2534 2758 2815 
Q 2500 3097 2075 3097 
Q 1594 3097 1305 2825 
Q 1016 2553 972 2059 
L 3022 2063 
z
" transform="scale(0.015625)"/>
      </defs>
      <use xlink:href="#DejaVuSans-54"/>
      <use xlink:href="#DejaVuSans-69" transform="translate(57.958984 0)"/>
      <use xlink:href="#DejaVuSans-6d" transform="translate(85.742188 0)"/>
      <use xlink:href="#DejaVuSans-65" transform="translate(183.154297 0)"/>
     </g>
    </g>
   </g>
   <g id="matplotlib.axis_2">
    <g id="ytick_1">
     <g id="line2d_19">
      <path d="M 47.72 373.532727 
L 709.2 373.532727 
" clip-path="url(#p329ed974b2)" style="fill: none; stroke: #b0b0b0; stroke-width: 0.8; stroke-linecap: square"/>
     </g>
     <g id="line2d_20">
      <defs>
       <path id="m9792c102c8" d="M 0 0 
L -3.5 0 
" style="stroke: #000000; stroke-width: 0.8"/>
      </defs>
      <g>
       <use xlink:href="#m9792c102c8" x="47.72" y="373.532727" style="stroke: #000000; stroke-width: 0.8"/>
      </g>
     </g>
     <g id="text_11">
      <!-- 0.0 -->
      <g transform="translate(24.816875 377.331946) scale(0.1 -0.1)">
       <defs>
        <path id="DejaVuSans-2e" d="M 684 794 
L 1344 794 
L 1344 0 
L 684 0 
L 684 794 
z
" transform="scale(0.015625)"/>
       </defs>
       <use xlink:href="#DejaVuSans-30"/>
       <use xlink:href="#DejaVuSans-2e" transform="translate(63.623047 0)"/>
       <use xlink:href="#DejaVuSans-30" transform="translate(95.410156 0)"/>
      </g>
     </g>
    </g>
    <g id="ytick_2">
     <g id="line2d_21">
      <path d="M 47.72 313.004815 
L 709.2 313.004815 
" clip-path="url(#p329ed974b2)" style="fill: none; stroke: #b0b0b0; stroke-width: 0.8; stroke-linecap: square"/>
     </g>
     <g id="line2d_22">
      <g>
       <use xlink:href="#m9792c102c8" x="47.72" y="313.004815" style="stroke: #000000; stroke-width: 0.8"/>
      </g>
     </g>
     <g id="text_12">
      <!-- 0.2 -->
      <g transform="translate(24.816875 316.804034) scale(0.1 -0.1)">
       <use xlink:href="#DejaVuSans-30"/>
       <use xlink:href="#DejaVuSans-2e" transform="translate(63.623047 0)"/>
       <use xlink:href="#DejaVuSans-32" transform="translate(95.410156 0)"/>
      </g>
     </g>
    </g>
    <g id="ytick_3">
     <g id="line2d_23">
      <path d="M 47.72 252.476902 
L 709.2 252.476902 
" clip-path="url(#p329ed974b2)" style="fill: none; stroke: #b0b0b0; stroke-width: 0.8; stroke-linecap: square"/>
     </g>
     <g id="line2d_24">
      <g>
       <use xlink:href="#m9792c102c8" x="47.72" y="252.476902" style="stroke: #000000; stroke-width: 0.8"/>
      </g>
     </g>
     <g id="text_13">
      <!-- 0.4 -->
      <g transform="translate(24.816875 256.276121) scale(0.1 -0.1)">
       <use xlink:href="#DejaVuSans-30"/>
       <use xlink:href="#DejaVuSans-2e" transform="translate(63.623047 0)"/>
       <use xlink:href="#DejaVuSans-34" transform="translate(95.410156 0)"/>
      </g>
     </g>
    </g>
    <g id="ytick_4">
     <g id="line2d_25">
      <path d="M 47.72 191.94899 
L 709.2 191.94899 
" clip-path="url(#p329ed974b2)" style="fill: none; stroke: #b0b0b0; stroke-width: 0.8; stroke-linecap: square"/>
     </g>
     <g id="line2d_26">
      <g>
       <use xlink:href="#m9792c102c8" x="47.72" y="191.94899" style="stroke: #000000; stroke-width: 0.8"/>
      </g>
     </g>
     <g id="text_14">
      <!-- 0.6 -->
      <g transform="translate(24.816875 195.748209) scale(0.1 -0.1)">
       <use xlink:href="#DejaVuSans-30"/>
       <use xlink:href="#DejaVuSans-2e" transform="translate(63.623047 0)"/>
       <use xlink:href="#DejaVuSans-36" transform="translate(95.410156 0)"/>
      </g>
     </g>
    </g>
    <g id="ytick_5">
     <g id="line2d_27">
      <path d="M 47.72 131.421077 
L 709.2 131.421077 
" clip-path="url(#p329ed974b2)" style="fill: none; stroke: #b0b0b0; stroke-width: 0.8; stroke-linecap: square"/>
     </g>
     <g id="line2d_28">
      <g>
       <use xlink:href="#m9792c102c8" x="47.72" y="131.421077" style="stroke: #000000; stroke-width: 0.8"/>
      </g>
     </g>
     <g id="text_15">
      <!-- 0.8 -->
      <g transform="translate(24.816875 135.220296) scale(0.1 -0.1)">
       <use xlink:href="#DejaVuSans-30"/>
       <use xlink:href="#DejaVuSans-2e" transform="translate(63.623047 0)"/>
       <use xlink:href="#DejaVuSans-38" transform="translate(95.410156 0)"/>
      </g>
     </g>
    </g>
    <g id="ytick_6">
     <g id="line2d_29">
      <path d="M 47.72 70.893165 
L 709.2 70.893165 
" clip-path="url(#p329ed974b2)" style="fill: none; stroke: #b0b0b0; stroke-width: 0.8; stroke-linecap: square"/>
     </g>
     <g id="line2d_30">
      <g>
       <use xlink:href="#m9792c102c8" x="47.72" y="70.893165" style="stroke: #000000; stroke-width: 0.8"/>
      </g>
     </g>
     <g id="text_16">
      <!-- 1.0 -->
      <g transform="translate(24.816875 74.692384) scale(0.1 -0.1)">
       <use xlink:href="#DejaVuSans-31"/>
       <use xlink:href="#DejaVuSans-2e" transform="translate(63.623047 0)"/>
       <use xlink:href="#DejaVuSans-30" transform="translate(95.410156 0)"/>
      </g>
     </g>
    </g>
    <g id="text_17">
     <!-- S_anc -->
     <g transform="translate(18.459063 223.11625) rotate(-90) scale(0.1 -0.1)">
      <defs>
       <path id="DejaVuSans-53" d="M 3425 4513 
L 3425 3897 
Q 3066 4069 2747 4153 
Q 2428 4238 2131 4238 
Q 1616 4238 1336 4038 
Q 1056 3838 1056 3469 
Q 1056 3159 1242 3001 
Q 1428 2844 1947 2747 
L 2328 2669 
Q 3034 2534 3370 2195 
Q 3706 1856 3706 1288 
Q 3706 609 3251 259 
Q 2797 -91 1919 -91 
Q 1588 -91 1214 -16 
Q 841 59 441 206 
L 441 856 
Q 825 641 1194 531 
Q 1563 422 1919 422 
Q 2459 422 2753 634 
Q 3047 847 3047 1241 
Q 3047 1584 2836 1778 
Q 2625 1972 2144 2069 
L 1759 2144 
Q 1053 2284 737 2584 
Q 422 2884 422 3419 
Q 422 4038 858 4394 
Q 1294 4750 2059 4750 
Q 2388 4750 2728 4690 
Q 3069 4631 3425 4513 
z
" transform="scale(0.015625)"/>
       <path id="DejaVuSans-5f" d="M 3263 -1063 
L 3263 -1509 
L -63 -1509 
L -63 -1063 
L 3263 -1063 
z
" transform="scale(0.015625)"/>
       <path id="DejaVuSans-61" d="M 2194 1759 
Q 1497 1759 1228 1600 
Q 959 1441 959 1056 
Q 959 750 1161 570 
Q 1363 391 1709 391 
Q 2188 391 2477 730 
Q 2766 1069 2766 1631 
L 2766 1759 
L 2194 1759 
z
M 3341 1997 
L 3341 0 
L 2766 0 
L 2766 531 
Q 2569 213 2275 61 
Q 1981 -91 1556 -91 
Q 1019 -91 701 211 
Q 384 513 384 1019 
Q 384 1609 779 1909 
Q 1175 2209 1959 2209 
L 2766 2209 
L 2766 2266 
Q 2766 2663 2505 2880 
Q 2244 3097 1772 3097 
Q 1472 3097 1187 3025 
Q 903 2953 641 2809 
L 641 3341 
Q 956 3463 1253 3523 
Q 1550 3584 1831 3584 
Q 2591 3584 2966 3190 
Q 3341 2797 3341 1997 
z
" transform="scale(0.015625)"/>
       <path id="DejaVuSans-6e" d="M 3513 2113 
L 3513 0 
L 2938 0 
L 2938 2094 
Q 2938 2591 2744 2837 
Q 2550 3084 2163 3084 
Q 1697 3084 1428 2787 
Q 1159 2491 1159 1978 
L 1159 0 
L 581 0 
L 581 3500 
L 1159 3500 
L 1159 2956 
Q 1366 3272 1645 3428 
Q 1925 3584 2291 3584 
Q 2894 3584 3203 3211 
Q 3513 2838 3513 2113 
z
" transform="scale(0.015625)"/>
       <path id="DejaVuSans-63" d="M 3122 3366 
L 3122 2828 
Q 2878 2963 2633 3030 
Q 2388 3097 2138 3097 
Q 1578 3097 1268 2742 
Q 959 2388 959 1747 
Q 959 1106 1268 751 
Q 1578 397 2138 397 
Q 2388 397 2633 464 
Q 2878 531 3122 666 
L 3122 134 
Q 2881 22 2623 -34 
Q 2366 -91 2075 -91 
Q 1284 -91 818 406 
Q 353 903 353 1747 
Q 353 2603 823 3093 
Q 1294 3584 2113 3584 
Q 2378 3584 2631 3529 
Q 2884 3475 3122 3366 
z
" transform="scale(0.015625)"/>
      </defs>
      <use xlink:href="#DejaVuSans-53"/>
      <use xlink:href="#DejaVuSans-5f" transform="translate(63.476562 0)"/>
      <use xlink:href="#DejaVuSans-61" transform="translate(113.476562 0)"/>
      <use xlink:href="#DejaVuSans-6e" transform="translate(174.755859 0)"/>
      <use xlink:href="#DejaVuSans-63" transform="translate(238.134766 0)"/>
     </g>
    </g>
   </g>
   <g id="line2d_31">
    <path d="M 77.787273 43.387273 
L 85.49683 43.763626 
L 93.206387 43.716657 
L 100.915944 43.832328 
L 108.625501 43.764242 
L 116.335058 43.71023 
L 124.044615 43.706467 
L 131.754172 43.639427 
L 139.46373 43.633974 
L 147.173287 43.591505 
L 154.882844 43.551242 
L 162.592401 43.505524 
L 170.301958 43.569058 
L 178.011515 43.541345 
L 185.721072 43.570391 
L 193.430629 43.570057 
L 201.140186 82.206174 
L 208.849744 83.554078 
L 216.559301 85.375474 
L 224.268858 86.800071 
L 231.978415 88.184696 
L 239.687972 89.690087 
L 247.397529 91.271221 
L 255.107086 92.521733 
L 262.816643 93.88707 
L 270.5262 95.278455 
L 278.235758 96.47346 
L 285.945315 97.996133 
L 293.654872 98.980746 
L 301.364429 100.432412 
L 309.073986 101.386606 
L 316.783543 102.645641 
L 324.4931 103.645563 
L 332.202657 104.773552 
L 339.912214 106.041519 
L 347.621772 106.860877 
L 355.331329 107.978692 
L 363.040886 108.917125 
L 370.750443 109.865623 
L 378.46 110.794504 
L 386.169557 111.736489 
L 393.879114 112.577858 
L 401.588671 113.330539 
L 409.298228 114.009742 
L 417.007786 114.44815 
L 424.717343 114.97546 
L 432.4269 115.660947 
L 440.136457 116.387961 
L 447.846014 117.095348 
L 455.555571 117.344827 
L 463.265128 118.037926 
L 470.974685 118.349318 
L 478.684242 118.732239 
L 486.3938 119.291489 
L 494.103357 119.561476 
L 501.812914 119.781387 
L 509.522471 120.12196 
L 517.232028 120.28184 
L 524.941585 120.774442 
L 532.651142 121.101923 
L 540.360699 121.253161 
L 548.070256 121.7807 
L 555.779814 121.940762 
L 563.489371 122.341723 
L 571.198928 122.820621 
L 578.908485 122.910402 
L 586.618042 123.280657 
L 594.327599 123.426874 
L 602.037156 123.743629 
L 609.746713 123.887127 
L 617.45627 124.232492 
L 625.165828 124.406774 
L 632.875385 124.682988 
L 640.584942 124.785278 
L 648.294499 125.071576 
L 656.004056 125.027987 
L 663.713613 125.316271 
L 671.42317 125.740017 
L 679.132727 125.854311 
" clip-path="url(#p329ed974b2)" style="fill: none; stroke: #1f77b4; stroke-width: 1.5; stroke-linecap: square"/>
   </g>
   <g id="line2d_32">
    <path d="M 77.787273 43.387273 
L 85.49683 43.763626 
L 93.206387 43.716657 
L 100.915944 43.832328 
L 108.625501 43.764242 
L 116.335058 43.71023 
L 124.044615 43.706467 
L 131.754172 43.639427 
L 139.46373 43.633974 
L 147.173287 43.591505 
L 154.882844 43.551242 
L 162.592401 43.505524 
L 170.301958 43.569058 
L 178.011515 43.541345 
L 185.721072 43.570391 
L 193.430629 43.570057 
L 201.140186 111.336674 
L 208.849744 113.59143 
L 216.559301 116.842089 
L 224.268858 119.786685 
L 231.978415 123.160581 
L 239.687972 126.7604 
L 247.397529 130.116799 
L 255.107086 133.09737 
L 262.816643 136.61797 
L 270.5262 139.662933 
L 278.235758 142.309228 
L 285.945315 144.412187 
L 293.654872 147.345041 
L 301.364429 149.060802 
L 309.073986 151.010866 
L 316.783543 152.771455 
L 324.4931 154.351138 
L 332.202657 155.510569 
L 339.912214 157.318829 
L 347.621772 158.323333 
L 355.331329 159.765776 
L 363.040886 160.870544 
L 370.750443 162.107851 
L 378.46 162.993124 
L 386.169557 164.288688 
L 393.879114 165.215292 
L 401.588671 166.194014 
L 409.298228 166.711817 
L 417.007786 167.305189 
L 424.717343 168.314936 
L 432.4269 168.987543 
L 440.136457 169.856087 
L 447.846014 170.665796 
L 455.555571 171.211489 
L 463.265128 172.097571 
L 470.974685 172.66957 
L 478.684242 172.914514 
L 486.3938 173.592037 
L 494.103357 174.057049 
L 501.812914 174.809258 
L 509.522471 175.236859 
L 517.232028 175.716965 
L 524.941585 176.041394 
L 532.651142 176.249907 
L 540.360699 176.761402 
L 548.070256 177.344921 
L 555.779814 177.305295 
L 563.489371 177.785284 
L 571.198928 177.780171 
L 578.908485 178.12648 
L 586.618042 178.632482 
L 594.327599 178.726729 
L 602.037156 178.678949 
L 609.746713 179.30786 
L 617.45627 179.244263 
L 625.165828 179.656289 
L 632.875385 179.969781 
L 640.584942 180.022521 
L 648.294499 180.259777 
L 656.004056 180.624625 
L 663.713613 180.887976 
L 671.42317 181.190005 
L 679.132727 181.233782 
" clip-path="url(#p329ed974b2)" style="fill: none; stroke: #ff7f0e; stroke-width: 1.5; stroke-linecap: square"/>
   </g>
   <g id="line2d_33">
    <path d="M 77.787273 43.387273 
L 85.49683 43.763626 
L 93.206387 43.716657 
L 100.915944 43.832328 
L 108.625501 43.764242 
L 116.335058 43.71023 
L 124.044615 43.706467 
L 131.754172 43.639427 
L 139.46373 43.633974 
L 147.173287 43.591505 
L 154.882844 43.551242 
L 162.592401 43.505524 
L 170.301958 43.569058 
L 178.011515 43.541345 
L 185.721072 43.570391 
L 193.430629 43.570057 
L 201.140186 142.688675 
L 208.849744 144.843103 
L 216.559301 149.629215 
L 224.268858 153.792547 
L 231.978415 158.210525 
L 239.687972 162.752489 
L 247.397529 167.360763 
L 255.107086 171.590685 
L 262.816643 176.193549 
L 270.5262 180.186315 
L 278.235758 184.087647 
L 285.945315 187.614049 
L 293.654872 191.498692 
L 301.364429 193.898401 
L 309.073986 196.751498 
L 316.783543 198.412317 
L 324.4931 200.371685 
L 332.202657 201.851673 
L 339.912214 203.983506 
L 347.621772 205.470951 
L 355.331329 207.019463 
L 363.040886 208.499199 
L 370.750443 209.402181 
L 378.46 210.273952 
L 386.169557 211.83486 
L 393.879114 212.548494 
L 401.588671 213.790419 
L 409.298228 214.288199 
L 417.007786 215.335207 
L 424.717343 216.4045 
L 432.4269 217.094249 
L 440.136457 217.602816 
L 447.846014 218.437511 
L 455.555571 218.860093 
L 463.265128 219.329127 
L 470.974685 220.222457 
L 478.684242 220.401673 
L 486.3938 221.050733 
L 494.103357 221.26719 
L 501.812914 222.028072 
L 509.522471 222.614991 
L 517.232028 222.938769 
L 524.941585 223.437037 
L 532.651142 223.85449 
L 540.360699 224.65578 
L 548.070256 225.32925 
L 555.779814 225.383523 
L 563.489371 225.721474 
L 571.198928 226.042946 
L 578.908485 226.296812 
L 586.618042 226.723813 
L 594.327599 226.831421 
L 602.037156 226.894542 
L 609.746713 227.391459 
L 617.45627 227.613587 
L 625.165828 228.004623 
L 632.875385 228.659735 
L 640.584942 228.620622 
L 648.294499 228.835214 
L 656.004056 229.048344 
L 663.713613 229.392381 
L 671.42317 229.703752 
L 679.132727 229.685929 
" clip-path="url(#p329ed974b2)" style="fill: none; stroke: #2ca02c; stroke-width: 1.5; stroke-linecap: square"/>
   </g>
   <g id="line2d_34">
    <path d="M 77.787273 43.387273 
L 85.49683 43.763626 
L 93.206387 43.716657 
L 100.915944 43.832328 
L 108.625501 43.764242 
L 116.335058 43.71023 
L 124.044615 43.706467 
L 131.754172 43.639427 
L 139.46373 43.633974 
L 147.173287 43.591505 
L 154.882844 43.551242 
L 162.592401 43.505524 
L 170.301958 43.569058 
L 178.011515 43.541345 
L 185.721072 43.570391 
L 193.430629 43.570057 
L 201.140186 177.511714 
L 208.849744 179.944148 
L 216.559301 184.98218 
L 224.268858 189.730221 
L 231.978415 195.222647 
L 239.687972 200.16144 
L 247.397529 205.012086 
L 255.107086 208.660942 
L 262.816643 213.24288 
L 270.5262 217.169016 
L 278.235758 220.978728 
L 285.945315 223.816443 
L 293.654872 227.345856 
L 301.364429 228.922848 
L 309.073986 232.354714 
L 316.783543 233.001315 
L 324.4931 235.699327 
L 332.202657 236.113164 
L 339.912214 238.527461 
L 347.621772 239.060973 
L 355.331329 240.997743 
L 363.040886 241.277566 
L 370.750443 243.029969 
L 378.46 243.224923 
L 386.169557 244.583402 
L 393.879114 244.440602 
L 401.588671 246.336717 
L 409.298228 246.275928 
L 417.007786 247.37826 
L 424.717343 247.688845 
L 432.4269 248.504256 
L 440.136457 248.837446 
L 447.846014 249.735918 
L 455.555571 249.476214 
L 463.265128 249.941473 
L 470.974685 250.367793 
L 478.684242 250.960568 
L 486.3938 251.242737 
L 494.103357 251.431127 
L 501.812914 252.125517 
L 509.522471 252.817624 
L 517.232028 252.82735 
L 524.941585 253.575149 
L 532.651142 253.071434 
L 540.360699 254.239699 
L 548.070256 254.710571 
L 555.779814 254.86984 
L 563.489371 255.085064 
L 571.198928 255.262354 
L 578.908485 255.273651 
L 586.618042 255.657507 
L 594.327599 255.709409 
L 602.037156 255.792728 
L 609.746713 255.877851 
L 617.45627 256.105145 
L 625.165828 256.3183 
L 632.875385 256.96106 
L 640.584942 256.917371 
L 648.294499 256.922127 
L 656.004056 256.957938 
L 663.713613 257.754188 
L 671.42317 257.267953 
L 679.132727 257.555204 
" clip-path="url(#p329ed974b2)" style="fill: none; stroke: #d62728; stroke-width: 1.5; stroke-linecap: square"/>
   </g>
   <g id="line2d_35">
    <path d="M 77.787273 43.387273 
L 85.49683 43.763626 
L 93.206387 43.716657 
L 100.915944 43.832328 
L 108.625501 43.764242 
L 116.335058 43.71023 
L 124.044615 43.706467 
L 131.754172 43.639427 
L 139.46373 43.633974 
L 147.173287 43.591505 
L 154.882844 43.551242 
L 162.592401 43.505524 
L 170.301958 43.569058 
L 178.011515 43.541345 
L 185.721072 43.570391 
L 193.430629 43.570057 
L 201.140186 213.440878 
L 208.849744 217.373566 
L 216.559301 221.930126 
L 224.268858 228.887729 
L 231.978415 234.935312 
L 239.687972 242.079103 
L 247.397529 247.473067 
L 255.107086 252.51918 
L 262.816643 256.212011 
L 270.5262 259.658449 
L 278.235758 262.684513 
L 285.945315 265.11941 
L 293.654872 267.170981 
L 301.364429 268.22294 
L 309.073986 270.51001 
L 316.783543 271.688176 
L 324.4931 272.88824 
L 332.202657 273.271376 
L 339.912214 275.458413 
L 347.621772 275.948564 
L 355.331329 276.767072 
L 363.040886 277.0744 
L 370.750443 278.934942 
L 378.46 278.585894 
L 386.169557 279.618408 
L 393.879114 279.878307 
L 401.588671 281.00589 
L 409.298228 281.306144 
L 417.007786 281.960327 
L 424.717343 281.907731 
L 432.4269 282.713147 
L 440.136457 282.544296 
L 447.846014 283.34099 
L 455.555571 283.491977 
L 463.265128 284.066822 
L 470.974685 284.184272 
L 478.684242 284.509565 
L 486.3938 284.655678 
L 494.103357 285.059063 
L 501.812914 285.424882 
L 509.522471 286.039914 
L 517.232028 285.810813 
L 524.941585 286.767576 
L 532.651142 287.079035 
L 540.360699 287.349231 
L 548.070256 287.400285 
L 555.779814 287.718372 
L 563.489371 287.529863 
L 571.198928 287.711235 
L 578.908485 287.430763 
L 586.618042 288.174365 
L 594.327599 288.179969 
L 602.037156 288.399588 
L 609.746713 288.256964 
L 617.45627 288.757026 
L 625.165828 288.735415 
L 632.875385 288.724198 
L 640.584942 288.860554 
L 648.294499 289.452325 
L 656.004056 289.342631 
L 663.713613 290.06903 
L 671.42317 289.223871 
L 679.132727 289.989153 
" clip-path="url(#p329ed974b2)" style="fill: none; stroke: #9467bd; stroke-width: 1.5; stroke-linecap: square"/>
   </g>
   <g id="line2d_36">
    <path d="M 77.787273 43.387273 
L 85.49683 43.763626 
L 93.206387 43.716657 
L 100.915944 43.832328 
L 108.625501 43.764242 
L 116.335058 43.71023 
L 124.044615 43.706467 
L 131.754172 43.639427 
L 139.46373 43.633974 
L 147.173287 43.591505 
L 154.882844 43.551242 
L 162.592401 43.505524 
L 170.301958 43.569058 
L 178.011515 43.541345 
L 185.721072 43.570391 
L 193.430629 43.570057 
L 201.140186 253.235441 
L 208.849744 256.894518 
L 216.559301 262.280929 
L 224.268858 269.24066 
L 231.978415 274.732112 
L 239.687972 281.196012 
L 247.397529 284.463226 
L 255.107086 290.055889 
L 262.816643 292.10535 
L 270.5262 295.244497 
L 278.235758 296.322895 
L 285.945315 299.532304 
L 293.654872 300.246374 
L 301.364429 302.137001 
L 309.073986 303.111269 
L 316.783543 304.826296 
L 324.4931 304.824944 
L 332.202657 306.901274 
L 339.912214 307.464242 
L 347.621772 309.016692 
L 355.331329 309.036142 
L 363.040886 310.226871 
L 370.750443 310.629066 
L 378.46 311.904023 
L 386.169557 311.255353 
L 393.879114 312.432354 
L 401.588671 312.622451 
L 409.298228 313.766665 
L 417.007786 313.437769 
L 424.717343 314.535418 
L 432.4269 313.640036 
L 440.136457 314.504248 
L 447.846014 313.992702 
L 455.555571 314.530462 
L 463.265128 314.524365 
L 470.974685 315.099878 
L 478.684242 314.203184 
L 486.3938 315.372507 
L 494.103357 315.024685 
L 501.812914 315.648948 
L 509.522471 315.435785 
L 517.232028 315.632685 
L 524.941585 315.386733 
L 532.651142 316.75909 
L 540.360699 315.972253 
L 548.070256 316.635232 
L 555.779814 316.398252 
L 563.489371 317.045754 
L 571.198928 316.03205 
L 578.908485 316.936421 
L 586.618042 316.368207 
L 594.327599 316.995872 
L 602.037156 316.664746 
L 609.746713 317.26744 
L 617.45627 316.812511 
L 625.165828 317.818262 
L 632.875385 316.662031 
L 640.584942 317.610962 
L 648.294499 317.199894 
L 656.004056 318.014221 
L 663.713613 317.313994 
L 671.42317 317.918954 
L 679.132727 317.680389 
" clip-path="url(#p329ed974b2)" style="fill: none; stroke: #8c564b; stroke-width: 1.5; stroke-linecap: square"/>
   </g>
   <g id="line2d_37">
    <path d="M 77.787273 43.387273 
L 85.49683 43.763626 
L 93.206387 43.716657 
L 100.915944 43.832328 
L 108.625501 43.764242 
L 116.335058 43.71023 
L 124.044615 43.706467 
L 131.754172 43.639427 
L 139.46373 43.633974 
L 147.173287 43.591505 
L 154.882844 43.551242 
L 162.592401 43.505524 
L 170.301958 43.569058 
L 178.011515 43.541345 
L 185.721072 43.570391 
L 193.430629 43.570057 
L 201.140186 284.987771 
L 208.849744 289.138411 
L 216.559301 295.012998 
L 224.268858 302.118169 
L 231.978415 306.906921 
L 239.687972 312.331285 
L 247.397529 314.995487 
L 255.107086 318.551271 
L 262.816643 319.179316 
L 270.5262 320.710226 
L 278.235758 321.552584 
L 285.945315 323.114688 
L 293.654872 323.427376 
L 301.364429 324.76983 
L 309.073986 325.29415 
L 316.783543 326.126112 
L 324.4931 326.703175 
L 332.202657 327.355849 
L 339.912214 328.204467 
L 347.621772 328.794219 
L 355.331329 328.615038 
L 363.040886 329.088893 
L 370.750443 329.753533 
L 378.46 330.782675 
L 386.169557 330.11812 
L 393.879114 331.013798 
L 401.588671 330.855916 
L 409.298228 332.051387 
L 417.007786 331.848349 
L 424.717343 332.436361 
L 432.4269 332.483783 
L 440.136457 332.792216 
L 447.846014 332.312991 
L 455.555571 332.332219 
L 463.265128 332.585352 
L 470.974685 333.236625 
L 478.684242 332.654242 
L 486.3938 333.784314 
L 494.103357 333.638451 
L 501.812914 334.406161 
L 509.522471 334.368892 
L 517.232028 333.989534 
L 524.941585 334.369157 
L 532.651142 335.227639 
L 540.360699 334.607902 
L 548.070256 334.64148 
L 555.779814 334.554871 
L 563.489371 335.162754 
L 571.198928 334.264569 
L 578.908485 335.032383 
L 586.618042 334.626979 
L 594.327599 335.334994 
L 602.037156 335.311507 
L 609.746713 335.225476 
L 617.45627 335.148979 
L 625.165828 335.750348 
L 632.875385 334.667324 
L 640.584942 335.005319 
L 648.294499 334.962267 
L 656.004056 335.771373 
L 663.713613 335.08799 
L 671.42317 335.784875 
L 679.132727 335.559327 
" clip-path="url(#p329ed974b2)" style="fill: none; stroke: #e377c2; stroke-width: 1.5; stroke-linecap: square"/>
   </g>
   <g id="line2d_38">
    <path d="M 77.787273 43.387273 
L 85.49683 43.763626 
L 93.206387 43.716657 
L 100.915944 43.832328 
L 108.625501 43.764242 
L 116.335058 43.71023 
L 124.044615 43.706467 
L 131.754172 43.639427 
L 139.46373 43.633974 
L 147.173287 43.591505 
L 154.882844 43.551242 
L 162.592401 43.505524 
L 170.301958 43.569058 
L 178.011515 43.541345 
L 185.721072 43.570391 
L 193.430629 43.570057 
L 201.140186 322.689032 
L 208.849744 326.397907 
L 216.559301 330.481705 
L 224.268858 335.427868 
L 231.978415 337.819076 
L 239.687972 342.104772 
L 247.397529 344.46715 
L 255.107086 347.247024 
L 262.816643 347.632869 
L 270.5262 348.951026 
L 278.235758 348.71884 
L 285.945315 350.863743 
L 293.654872 350.148282 
L 301.364429 351.532182 
L 309.073986 351.176439 
L 316.783543 352.151539 
L 324.4931 351.95889 
L 332.202657 352.828086 
L 339.912214 352.088882 
L 347.621772 353.441034 
L 355.331329 352.356987 
L 363.040886 353.883876 
L 370.750443 353.229124 
L 378.46 354.527661 
L 386.169557 353.51776 
L 393.879114 354.394358 
L 401.588671 354.012179 
L 409.298228 354.842678 
L 417.007786 354.227252 
L 424.717343 355.341011 
L 432.4269 354.121192 
L 440.136457 355.270879 
L 447.846014 354.395281 
L 455.555571 355.121797 
L 463.265128 354.782272 
L 470.974685 355.378116 
L 478.684242 354.783693 
L 486.3938 356.290352 
L 494.103357 355.503327 
L 501.812914 356.470041 
L 509.522471 355.312235 
L 517.232028 356.25305 
L 524.941585 355.244576 
L 532.651142 356.606776 
L 540.360699 355.72765 
L 548.070256 356.64306 
L 555.779814 355.6236 
L 563.489371 356.576247 
L 571.198928 355.573827 
L 578.908485 356.782653 
L 586.618042 355.504124 
L 594.327599 356.445974 
L 602.037156 355.736624 
L 609.746713 356.435654 
L 617.45627 355.522937 
L 625.165828 356.287833 
L 632.875385 355.297722 
L 640.584942 355.977795 
L 648.294499 355.242398 
L 656.004056 356.758694 
L 663.713613 355.587519 
L 671.42317 356.73229 
L 679.132727 355.624143 
" clip-path="url(#p329ed974b2)" style="fill: none; stroke: #7f7f7f; stroke-width: 1.5; stroke-linecap: square"/>
   </g>
   <g id="line2d_39">
    <path d="M 77.787273 43.387273 
L 85.49683 43.763626 
L 93.206387 43.716657 
L 100.915944 43.832328 
L 108.625501 43.764242 
L 116.335058 43.71023 
L 124.044615 43.706467 
L 131.754172 43.639427 
L 139.46373 43.633974 
L 147.173287 43.591505 
L 154.882844 43.551242 
L 162.592401 43.505524 
L 170.301958 43.569058 
L 178.011515 43.541345 
L 185.721072 43.570391 
L 193.430629 43.570057 
L 201.140186 347.345718 
L 208.849744 353.096895 
L 216.559301 355.663579 
L 224.268858 358.570341 
L 231.978415 359.496802 
L 239.687972 361.968709 
L 247.397529 362.879739 
L 255.107086 364.862975 
L 262.816643 364.381827 
L 270.5262 365.470939 
L 278.235758 365.039318 
L 285.945315 366.380272 
L 293.654872 365.842659 
L 301.364429 366.971837 
L 309.073986 366.498105 
L 316.783543 367.759246 
L 324.4931 367.078422 
L 332.202657 368.16529 
L 339.912214 367.541499 
L 347.621772 368.641077 
L 355.331329 367.801716 
L 363.040886 368.706524 
L 370.750443 368.038997 
L 378.46 369.193758 
L 386.169557 368.386289 
L 393.879114 369.297605 
L 401.588671 368.568079 
L 409.298228 369.675775 
L 417.007786 368.904219 
L 424.717343 369.893644 
L 432.4269 369.123349 
L 440.136457 370.092338 
L 447.846014 369.146017 
L 455.555571 369.970583 
L 463.265128 369.182595 
L 470.974685 370.142195 
L 478.684242 369.187886 
L 486.3938 370.0065 
L 494.103357 369.21264 
L 501.812914 370.167828 
L 509.522471 369.209403 
L 517.232028 370.02516 
L 524.941585 369.228231 
L 532.651142 370.181318 
L 540.360699 369.220726 
L 548.070256 370.03511 
L 555.779814 369.236544 
L 563.489371 370.18868 
L 571.198928 369.226958 
L 578.908485 370.040714 
L 586.618042 369.241281 
L 594.327599 370.193025 
L 602.037156 369.251884 
L 609.746713 369.967873 
L 617.45627 369.24704 
L 625.165828 370.200952 
L 632.875385 369.246799 
L 640.584942 370.058773 
L 648.294499 369.262802 
L 656.004056 370.217555 
L 663.713613 369.252996 
L 671.42317 370.068329 
L 679.132727 369.26915 
" clip-path="url(#p329ed974b2)" style="fill: none; stroke: #bcbd22; stroke-width: 1.5; stroke-linecap: square"/>
   </g>
   <g id="line2d_40">
    <path d="M 77.787273 43.387273 
L 85.49683 43.763626 
L 93.206387 43.716657 
L 100.915944 43.832328 
L 108.625501 43.764242 
L 116.335058 43.71023 
L 124.044615 43.706467 
L 131.754172 43.639427 
L 139.46373 43.633974 
L 147.173287 43.591505 
L 154.882844 43.551242 
L 162.592401 43.505524 
L 170.301958 43.569058 
L 178.011515 43.541345 
L 185.721072 43.570391 
L 193.430629 43.570057 
L 201.140186 373.532727 
L 208.849744 373.532727 
L 216.559301 373.532727 
L 224.268858 373.532727 
L 231.978415 373.532727 
L 239.687972 373.532727 
L 247.397529 373.532727 
L 255.107086 373.532727 
L 262.816643 373.532727 
L 270.5262 373.532727 
L 278.235758 373.532727 
L 285.945315 373.532727 
L 293.654872 373.532727 
L 301.364429 373.532727 
L 309.073986 373.532727 
L 316.783543 373.532727 
L 324.4931 373.532727 
L 332.202657 373.532727 
L 339.912214 373.532727 
L 347.621772 373.532727 
L 355.331329 373.532727 
L 363.040886 373.532727 
L 370.750443 373.532727 
L 378.46 373.532727 
L 386.169557 373.532727 
L 393.879114 373.532727 
L 401.588671 373.532727 
L 409.298228 373.532727 
L 417.007786 373.532727 
L 424.717343 373.532727 
L 432.4269 373.532727 
L 440.136457 373.532727 
L 447.846014 373.532727 
L 455.555571 373.532727 
L 463.265128 373.532727 
L 470.974685 373.532727 
L 478.684242 373.532727 
L 486.3938 373.532727 
L 494.103357 373.532727 
L 501.812914 373.532727 
L 509.522471 373.532727 
L 517.232028 373.532727 
L 524.941585 373.532727 
L 532.651142 373.532727 
L 540.360699 373.532727 
L 548.070256 373.532727 
L 555.779814 373.532727 
L 563.489371 373.532727 
L 571.198928 373.532727 
L 578.908485 373.532727 
L 586.618042 373.532727 
L 594.327599 373.532727 
L 602.037156 373.532727 
L 609.746713 373.532727 
L 617.45627 373.532727 
L 625.165828 373.532727 
L 632.875385 373.532727 
L 640.584942 373.532727 
L 648.294499 373.532727 
L 656.004056 373.532727 
L 663.713613 373.532727 
L 671.42317 373.532727 
L 679.132727 373.532727 
" clip-path="url(#p329ed974b2)" style="fill: none; stroke: #17becf; stroke-width: 1.5; stroke-linecap: square"/>
   </g>
   <g id="patch_3">
    <path d="M 47.72 390.04 
L 47.72 26.88 
" style="fill: none; stroke: #000000; stroke-width: 0.8; stroke-linejoin: miter; stroke-linecap: square"/>
   </g>
   <g id="patch_4">
    <path d="M 709.2 390.04 
L 709.2 26.88 
" style="fill: none; stroke: #000000; stroke-width: 0.8; stroke-linejoin: miter; stroke-linecap: square"/>
   </g>
   <g id="patch_5">
    <path d="M 47.72 390.04 
L 709.2 390.04 
" style="fill: none; stroke: #000000; stroke-width: 0.8; stroke-linejoin: miter; stroke-linecap: square"/>
   </g>
   <g id="patch_6">
    <path d="M 47.72 26.88 
L 709.2 26.88 
" style="fill: none; stroke: #000000; stroke-width: 0.8; stroke-linejoin: miter; stroke-linecap: square"/>
   </g>
   <g id="text_18">
    <!-- S_anc evolution for different p values (L=8, dt=1.0, Measurement direction: Z, T=10*L) -->
    <g transform="translate(115.272813 20.88) scale(0.12 -0.12)">
     <defs>
      <path id="DejaVuSans-20" transform="scale(0.015625)"/>
      <path id="DejaVuSans-76" d="M 191 3500 
L 800 3500 
L 1894 563 
L 2988 3500 
L 3597 3500 
L 2284 0 
L 1503 0 
L 191 3500 
z
" transform="scale(0.015625)"/>
      <path id="DejaVuSans-6f" d="M 1959 3097 
Q 1497 3097 1228 2736 
Q 959 2375 959 1747 
Q 959 1119 1226 758 
Q 1494 397 1959 397 
Q 2419 397 2687 759 
Q 2956 1122 2956 1747 
Q 2956 2369 2687 2733 
Q 2419 3097 1959 3097 
z
M 1959 3584 
Q 2709 3584 3137 3096 
Q 3566 2609 3566 1747 
Q 3566 888 3137 398 
Q 2709 -91 1959 -91 
Q 1206 -91 779 398 
Q 353 888 353 1747 
Q 353 2609 779 3096 
Q 1206 3584 1959 3584 
z
" transform="scale(0.015625)"/>
      <path id="DejaVuSans-6c" d="M 603 4863 
L 1178 4863 
L 1178 0 
L 603 0 
L 603 4863 
z
" transform="scale(0.015625)"/>
      <path id="DejaVuSans-75" d="M 544 1381 
L 544 3500 
L 1119 3500 
L 1119 1403 
Q 1119 906 1312 657 
Q 1506 409 1894 409 
Q 2359 409 2629 706 
Q 2900 1003 2900 1516 
L 2900 3500 
L 3475 3500 
L 3475 0 
L 2900 0 
L 2900 538 
Q 2691 219 2414 64 
Q 2138 -91 1772 -91 
Q 1169 -91 856 284 
Q 544 659 544 1381 
z
M 1991 3584 
L 1991 3584 
z
" transform="scale(0.015625)"/>
      <path id="DejaVuSans-74" d="M 1172 4494 
L 1172 3500 
L 2356 3500 
L 2356 3053 
L 1172 3053 
L 1172 1153 
Q 1172 725 1289 603 
Q 1406 481 1766 481 
L 2356 481 
L 2356 0 
L 1766 0 
Q 1100 0 847 248 
Q 594 497 594 1153 
L 594 3053 
L 172 3053 
L 172 3500 
L 594 3500 
L 594 4494 
L 1172 4494 
z
" transform="scale(0.015625)"/>
      <path id="DejaVuSans-66" d="M 2375 4863 
L 2375 4384 
L 1825 4384 
Q 1516 4384 1395 4259 
Q 1275 4134 1275 3809 
L 1275 3500 
L 2222 3500 
L 2222 3053 
L 1275 3053 
L 1275 0 
L 697 0 
L 697 3053 
L 147 3053 
L 147 3500 
L 697 3500 
L 697 3744 
Q 697 4328 969 4595 
Q 1241 4863 1831 4863 
L 2375 4863 
z
" transform="scale(0.015625)"/>
      <path id="DejaVuSans-72" d="M 2631 2963 
Q 2534 3019 2420 3045 
Q 2306 3072 2169 3072 
Q 1681 3072 1420 2755 
Q 1159 2438 1159 1844 
L 1159 0 
L 581 0 
L 581 3500 
L 1159 3500 
L 1159 2956 
Q 1341 3275 1631 3429 
Q 1922 3584 2338 3584 
Q 2397 3584 2469 3576 
Q 2541 3569 2628 3553 
L 2631 2963 
z
" transform="scale(0.015625)"/>
      <path id="DejaVuSans-64" d="M 2906 2969 
L 2906 4863 
L 3481 4863 
L 3481 0 
L 2906 0 
L 2906 525 
Q 2725 213 2448 61 
Q 2172 -91 1784 -91 
Q 1150 -91 751 415 
Q 353 922 353 1747 
Q 353 2572 751 3078 
Q 1150 3584 1784 3584 
Q 2172 3584 2448 3432 
Q 2725 3281 2906 2969 
z
M 947 1747 
Q 947 1113 1208 752 
Q 1469 391 1925 391 
Q 2381 391 2643 752 
Q 2906 1113 2906 1747 
Q 2906 2381 2643 2742 
Q 2381 3103 1925 3103 
Q 1469 3103 1208 2742 
Q 947 2381 947 1747 
z
" transform="scale(0.015625)"/>
      <path id="DejaVuSans-70" d="M 1159 525 
L 1159 -1331 
L 581 -1331 
L 581 3500 
L 1159 3500 
L 1159 2969 
Q 1341 3281 1617 3432 
Q 1894 3584 2278 3584 
Q 2916 3584 3314 3078 
Q 3713 2572 3713 1747 
Q 3713 922 3314 415 
Q 2916 -91 2278 -91 
Q 1894 -91 1617 61 
Q 1341 213 1159 525 
z
M 3116 1747 
Q 3116 2381 2855 2742 
Q 2594 3103 2138 3103 
Q 1681 3103 1420 2742 
Q 1159 2381 1159 1747 
Q 1159 1113 1420 752 
Q 1681 391 2138 391 
Q 2594 391 2855 752 
Q 3116 1113 3116 1747 
z
" transform="scale(0.015625)"/>
      <path id="DejaVuSans-73" d="M 2834 3397 
L 2834 2853 
Q 2591 2978 2328 3040 
Q 2066 3103 1784 3103 
Q 1356 3103 1142 2972 
Q 928 2841 928 2578 
Q 928 2378 1081 2264 
Q 1234 2150 1697 2047 
L 1894 2003 
Q 2506 1872 2764 1633 
Q 3022 1394 3022 966 
Q 3022 478 2636 193 
Q 2250 -91 1575 -91 
Q 1294 -91 989 -36 
Q 684 19 347 128 
L 347 722 
Q 666 556 975 473 
Q 1284 391 1588 391 
Q 1994 391 2212 530 
Q 2431 669 2431 922 
Q 2431 1156 2273 1281 
Q 2116 1406 1581 1522 
L 1381 1569 
Q 847 1681 609 1914 
Q 372 2147 372 2553 
Q 372 3047 722 3315 
Q 1072 3584 1716 3584 
Q 2034 3584 2315 3537 
Q 2597 3491 2834 3397 
z
" transform="scale(0.015625)"/>
      <path id="DejaVuSans-28" d="M 1984 4856 
Q 1566 4138 1362 3434 
Q 1159 2731 1159 2009 
Q 1159 1288 1364 580 
Q 1569 -128 1984 -844 
L 1484 -844 
Q 1016 -109 783 600 
Q 550 1309 550 2009 
Q 550 2706 781 3412 
Q 1013 4119 1484 4856 
L 1984 4856 
z
" transform="scale(0.015625)"/>
      <path id="DejaVuSans-4c" d="M 628 4666 
L 1259 4666 
L 1259 531 
L 3531 531 
L 3531 0 
L 628 0 
L 628 4666 
z
" transform="scale(0.015625)"/>
      <path id="DejaVuSans-3d" d="M 678 2906 
L 4684 2906 
L 4684 2381 
L 678 2381 
L 678 2906 
z
M 678 1631 
L 4684 1631 
L 4684 1100 
L 678 1100 
L 678 1631 
z
" transform="scale(0.015625)"/>
      <path id="DejaVuSans-2c" d="M 750 794 
L 1409 794 
L 1409 256 
L 897 -744 
L 494 -744 
L 750 256 
L 750 794 
z
" transform="scale(0.015625)"/>
      <path id="DejaVuSans-4d" d="M 628 4666 
L 1569 4666 
L 2759 1491 
L 3956 4666 
L 4897 4666 
L 4897 0 
L 4281 0 
L 4281 4097 
L 3078 897 
L 2444 897 
L 1241 4097 
L 1241 0 
L 628 0 
L 628 4666 
z
" transform="scale(0.015625)"/>
      <path id="DejaVuSans-3a" d="M 750 794 
L 1409 794 
L 1409 0 
L 750 0 
L 750 794 
z
M 750 3309 
L 1409 3309 
L 1409 2516 
L 750 2516 
L 750 3309 
z
" transform="scale(0.015625)"/>
      <path id="DejaVuSans-5a" d="M 359 4666 
L 4025 4666 
L 4025 4184 
L 1075 531 
L 4097 531 
L 4097 0 
L 288 0 
L 288 481 
L 3238 4134 
L 359 4134 
L 359 4666 
z
" transform="scale(0.015625)"/>
      <path id="DejaVuSans-2a" d="M 3009 3897 
L 1888 3291 
L 3009 2681 
L 2828 2375 
L 1778 3009 
L 1778 1831 
L 1422 1831 
L 1422 3009 
L 372 2375 
L 191 2681 
L 1313 3291 
L 191 3897 
L 372 4206 
L 1422 3572 
L 1422 4750 
L 1778 4750 
L 1778 3572 
L 2828 4206 
L 3009 3897 
z
" transform="scale(0.015625)"/>
      <path id="DejaVuSans-29" d="M 513 4856 
L 1013 4856 
Q 1481 4119 1714 3412 
Q 1947 2706 1947 2009 
Q 1947 1309 1714 600 
Q 1481 -109 1013 -844 
L 513 -844 
Q 928 -128 1133 580 
Q 1338 1288 1338 2009 
Q 1338 2731 1133 3434 
Q 928 4138 513 4856 
z
" transform="scale(0.015625)"/>
     </defs>
     <use xlink:href="#DejaVuSans-53"/>
     <use xlink:href="#DejaVuSans-5f" transform="translate(63.476562 0)"/>
     <use xlink:href="#DejaVuSans-61" transform="translate(113.476562 0)"/>
     <use xlink:href="#DejaVuSans-6e" transform="translate(174.755859 0)"/>
     <use xlink:href="#DejaVuSans-63" transform="translate(238.134766 0)"/>
     <use xlink:href="#DejaVuSans-20" transform="translate(293.115234 0)"/>
     <use xlink:href="#DejaVuSans-65" transform="translate(324.902344 0)"/>
     <use xlink:href="#DejaVuSans-76" transform="translate(386.425781 0)"/>
     <use xlink:href="#DejaVuSans-6f" transform="translate(445.605469 0)"/>
     <use xlink:href="#DejaVuSans-6c" transform="translate(506.787109 0)"/>
     <use xlink:href="#DejaVuSans-75" transform="translate(534.570312 0)"/>
     <use xlink:href="#DejaVuSans-74" transform="translate(597.949219 0)"/>
     <use xlink:href="#DejaVuSans-69" transform="translate(637.158203 0)"/>
     <use xlink:href="#DejaVuSans-6f" transform="translate(664.941406 0)"/>
     <use xlink:href="#DejaVuSans-6e" transform="translate(726.123047 0)"/>
     <use xlink:href="#DejaVuSans-20" transform="translate(789.501953 0)"/>
     <use xlink:href="#DejaVuSans-66" transform="translate(821.289062 0)"/>
     <use xlink:href="#DejaVuSans-6f" transform="translate(856.494141 0)"/>
     <use xlink:href="#DejaVuSans-72" transform="translate(917.675781 0)"/>
     <use xlink:href="#DejaVuSans-20" transform="translate(958.789062 0)"/>
     <use xlink:href="#DejaVuSans-64" transform="translate(990.576172 0)"/>
     <use xlink:href="#DejaVuSans-69" transform="translate(1054.052734 0)"/>
     <use xlink:href="#DejaVuSans-66" transform="translate(1081.835938 0)"/>
     <use xlink:href="#DejaVuSans-66" transform="translate(1117.041016 0)"/>
     <use xlink:href="#DejaVuSans-65" transform="translate(1152.246094 0)"/>
     <use xlink:href="#DejaVuSans-72" transform="translate(1213.769531 0)"/>
     <use xlink:href="#DejaVuSans-65" transform="translate(1252.632812 0)"/>
     <use xlink:href="#DejaVuSans-6e" transform="translate(1314.15625 0)"/>
     <use xlink:href="#DejaVuSans-74" transform="translate(1377.535156 0)"/>
     <use xlink:href="#DejaVuSans-20" transform="translate(1416.744141 0)"/>
     <use xlink:href="#DejaVuSans-70" transform="translate(1448.53125 0)"/>
     <use xlink:href="#DejaVuSans-20" transform="translate(1512.007812 0)"/>
     <use xlink:href="#DejaVuSans-76" transform="translate(1543.794922 0)"/>
     <use xlink:href="#DejaVuSans-61" transform="translate(1602.974609 0)"/>
     <use xlink:href="#DejaVuSans-6c" transform="translate(1664.253906 0)"/>
     <use xlink:href="#DejaVuSans-75" transform="translate(1692.037109 0)"/>
     <use xlink:href="#DejaVuSans-65" transform="translate(1755.416016 0)"/>
     <use xlink:href="#DejaVuSans-73" transform="translate(1816.939453 0)"/>
     <use xlink:href="#DejaVuSans-20" transform="translate(1869.039062 0)"/>
     <use xlink:href="#DejaVuSans-28" transform="translate(1900.826172 0)"/>
     <use xlink:href="#DejaVuSans-4c" transform="translate(1939.839844 0)"/>
     <use xlink:href="#DejaVuSans-3d" transform="translate(1995.552734 0)"/>
     <use xlink:href="#DejaVuSans-38" transform="translate(2079.341797 0)"/>
     <use xlink:href="#DejaVuSans-2c" transform="translate(2142.964844 0)"/>
     <use xlink:href="#DejaVuSans-20" transform="translate(2174.751953 0)"/>
     <use xlink:href="#DejaVuSans-64" transform="translate(2206.539062 0)"/>
     <use xlink:href="#DejaVuSans-74" transform="translate(2270.015625 0)"/>
     <use xlink:href="#DejaVuSans-3d" transform="translate(2309.224609 0)"/>
     <use xlink:href="#DejaVuSans-31" transform="translate(2393.013672 0)"/>
     <use xlink:href="#DejaVuSans-2e" transform="translate(2456.636719 0)"/>
     <use xlink:href="#DejaVuSans-30" transform="translate(2488.423828 0)"/>
     <use xlink:href="#DejaVuSans-2c" transform="translate(2552.046875 0)"/>
     <use xlink:href="#DejaVuSans-20" transform="translate(2583.833984 0)"/>
     <use xlink:href="#DejaVuSans-4d" transform="translate(2615.621094 0)"/>
     <use xlink:href="#DejaVuSans-65" transform="translate(2701.900391 0)"/>
     <use xlink:href="#DejaVuSans-61" transform="translate(2763.423828 0)"/>
     <use xlink:href="#DejaVuSans-73" transform="translate(2824.703125 0)"/>
     <use xlink:href="#DejaVuSans-75" transform="translate(2876.802734 0)"/>
     <use xlink:href="#DejaVuSans-72" transform="translate(2940.181641 0)"/>
     <use xlink:href="#DejaVuSans-65" transform="translate(2979.044922 0)"/>
     <use xlink:href="#DejaVuSans-6d" transform="translate(3040.568359 0)"/>
     <use xlink:href="#DejaVuSans-65" transform="translate(3137.980469 0)"/>
     <use xlink:href="#DejaVuSans-6e" transform="translate(3199.503906 0)"/>
     <use xlink:href="#DejaVuSans-74" transform="translate(3262.882812 0)"/>
     <use xlink:href="#DejaVuSans-20" transform="translate(3302.091797 0)"/>
     <use xlink:href="#DejaVuSans-64" transform="translate(3333.878906 0)"/>
     <use xlink:href="#DejaVuSans-69" transform="translate(3397.355469 0)"/>
     <use xlink:href="#DejaVuSans-72" transform="translate(3425.138672 0)"/>
     <use xlink:href="#DejaVuSans-65" transform="translate(3464.001953 0)"/>
     <use xlink:href="#DejaVuSans-63" transform="translate(3525.525391 0)"/>
     <use xlink:href="#DejaVuSans-74" transform="translate(3580.505859 0)"/>
     <use xlink:href="#DejaVuSans-69" transform="translate(3619.714844 0)"/>
     <use xlink:href="#DejaVuSans-6f" transform="translate(3647.498047 0)"/>
     <use xlink:href="#DejaVuSans-6e" transform="translate(3708.679688 0)"/>
     <use xlink:href="#DejaVuSans-3a" transform="translate(3772.058594 0)"/>
     <use xlink:href="#DejaVuSans-20" transform="translate(3805.75 0)"/>
     <use xlink:href="#DejaVuSans-5a" transform="translate(3837.537109 0)"/>
     <use xlink:href="#DejaVuSans-2c" transform="translate(3906.042969 0)"/>
     <use xlink:href="#DejaVuSans-20" transform="translate(3937.830078 0)"/>
     <use xlink:href="#DejaVuSans-54" transform="translate(3969.617188 0)"/>
     <use xlink:href="#DejaVuSans-3d" transform="translate(4030.701172 0)"/>
     <use xlink:href="#DejaVuSans-31" transform="translate(4114.490234 0)"/>
     <use xlink:href="#DejaVuSans-30" transform="translate(4178.113281 0)"/>
     <use xlink:href="#DejaVuSans-2a" transform="translate(4241.736328 0)"/>
     <use xlink:href="#DejaVuSans-4c" transform="translate(4291.736328 0)"/>
     <use xlink:href="#DejaVuSans-29" transform="translate(4347.449219 0)"/>
    </g>
   </g>
   <g id="legend_1">
    <g id="patch_7">
     <path d="M 54.72 385.04 
L 117.35125 385.04 
Q 119.35125 385.04 119.35125 383.04 
L 119.35125 237.25875 
Q 119.35125 235.25875 117.35125 235.25875 
L 54.72 235.25875 
Q 52.72 235.25875 52.72 237.25875 
L 52.72 383.04 
Q 52.72 385.04 54.72 385.04 
z
" style="fill: #ffffff; opacity: 0.8; stroke: #cccccc; stroke-linejoin: miter"/>
    </g>
    <g id="line2d_41">
     <path d="M 56.72 243.357188 
L 66.72 243.357188 
L 76.72 243.357188 
" style="fill: none; stroke: #1f77b4; stroke-width: 1.5; stroke-linecap: square"/>
    </g>
    <g id="text_19">
     <!-- p=0.1 -->
     <g transform="translate(84.72 246.857188) scale(0.1 -0.1)">
      <use xlink:href="#DejaVuSans-70"/>
      <use xlink:href="#DejaVuSans-3d" transform="translate(63.476562 0)"/>
      <use xlink:href="#DejaVuSans-30" transform="translate(147.265625 0)"/>
      <use xlink:href="#DejaVuSans-2e" transform="translate(210.888672 0)"/>
      <use xlink:href="#DejaVuSans-31" transform="translate(242.675781 0)"/>
     </g>
    </g>
    <g id="line2d_42">
     <path d="M 56.72 258.035313 
L 66.72 258.035313 
L 76.72 258.035313 
" style="fill: none; stroke: #ff7f0e; stroke-width: 1.5; stroke-linecap: square"/>
    </g>
    <g id="text_20">
     <!-- p=0.2 -->
     <g transform="translate(84.72 261.535313) scale(0.1 -0.1)">
      <use xlink:href="#DejaVuSans-70"/>
      <use xlink:href="#DejaVuSans-3d" transform="translate(63.476562 0)"/>
      <use xlink:href="#DejaVuSans-30" transform="translate(147.265625 0)"/>
      <use xlink:href="#DejaVuSans-2e" transform="translate(210.888672 0)"/>
      <use xlink:href="#DejaVuSans-32" transform="translate(242.675781 0)"/>
     </g>
    </g>
    <g id="line2d_43">
     <path d="M 56.72 272.713438 
L 66.72 272.713438 
L 76.72 272.713438 
" style="fill: none; stroke: #2ca02c; stroke-width: 1.5; stroke-linecap: square"/>
    </g>
    <g id="text_21">
     <!-- p=0.3 -->
     <g transform="translate(84.72 276.213438) scale(0.1 -0.1)">
      <use xlink:href="#DejaVuSans-70"/>
      <use xlink:href="#DejaVuSans-3d" transform="translate(63.476562 0)"/>
      <use xlink:href="#DejaVuSans-30" transform="translate(147.265625 0)"/>
      <use xlink:href="#DejaVuSans-2e" transform="translate(210.888672 0)"/>
      <use xlink:href="#DejaVuSans-33" transform="translate(242.675781 0)"/>
     </g>
    </g>
    <g id="line2d_44">
     <path d="M 56.72 287.391563 
L 66.72 287.391563 
L 76.72 287.391563 
" style="fill: none; stroke: #d62728; stroke-width: 1.5; stroke-linecap: square"/>
    </g>
    <g id="text_22">
     <!-- p=0.4 -->
     <g transform="translate(84.72 290.891563) scale(0.1 -0.1)">
      <use xlink:href="#DejaVuSans-70"/>
      <use xlink:href="#DejaVuSans-3d" transform="translate(63.476562 0)"/>
      <use xlink:href="#DejaVuSans-30" transform="translate(147.265625 0)"/>
      <use xlink:href="#DejaVuSans-2e" transform="translate(210.888672 0)"/>
      <use xlink:href="#DejaVuSans-34" transform="translate(242.675781 0)"/>
     </g>
    </g>
    <g id="line2d_45">
     <path d="M 56.72 302.069688 
L 66.72 302.069688 
L 76.72 302.069688 
" style="fill: none; stroke: #9467bd; stroke-width: 1.5; stroke-linecap: square"/>
    </g>
    <g id="text_23">
     <!-- p=0.5 -->
     <g transform="translate(84.72 305.569688) scale(0.1 -0.1)">
      <use xlink:href="#DejaVuSans-70"/>
      <use xlink:href="#DejaVuSans-3d" transform="translate(63.476562 0)"/>
      <use xlink:href="#DejaVuSans-30" transform="translate(147.265625 0)"/>
      <use xlink:href="#DejaVuSans-2e" transform="translate(210.888672 0)"/>
      <use xlink:href="#DejaVuSans-35" transform="translate(242.675781 0)"/>
     </g>
    </g>
    <g id="line2d_46">
     <path d="M 56.72 316.747813 
L 66.72 316.747813 
L 76.72 316.747813 
" style="fill: none; stroke: #8c564b; stroke-width: 1.5; stroke-linecap: square"/>
    </g>
    <g id="text_24">
     <!-- p=0.6 -->
     <g transform="translate(84.72 320.247813) scale(0.1 -0.1)">
      <use xlink:href="#DejaVuSans-70"/>
      <use xlink:href="#DejaVuSans-3d" transform="translate(63.476562 0)"/>
      <use xlink:href="#DejaVuSans-30" transform="translate(147.265625 0)"/>
      <use xlink:href="#DejaVuSans-2e" transform="translate(210.888672 0)"/>
      <use xlink:href="#DejaVuSans-36" transform="translate(242.675781 0)"/>
     </g>
    </g>
    <g id="line2d_47">
     <path d="M 56.72 331.425938 
L 66.72 331.425938 
L 76.72 331.425938 
" style="fill: none; stroke: #e377c2; stroke-width: 1.5; stroke-linecap: square"/>
    </g>
    <g id="text_25">
     <!-- p=0.7 -->
     <g transform="translate(84.72 334.925938) scale(0.1 -0.1)">
      <use xlink:href="#DejaVuSans-70"/>
      <use xlink:href="#DejaVuSans-3d" transform="translate(63.476562 0)"/>
      <use xlink:href="#DejaVuSans-30" transform="translate(147.265625 0)"/>
      <use xlink:href="#DejaVuSans-2e" transform="translate(210.888672 0)"/>
      <use xlink:href="#DejaVuSans-37" transform="translate(242.675781 0)"/>
     </g>
    </g>
    <g id="line2d_48">
     <path d="M 56.72 346.104062 
L 66.72 346.104062 
L 76.72 346.104062 
" style="fill: none; stroke: #7f7f7f; stroke-width: 1.5; stroke-linecap: square"/>
    </g>
    <g id="text_26">
     <!-- p=0.8 -->
     <g transform="translate(84.72 349.604062) scale(0.1 -0.1)">
      <use xlink:href="#DejaVuSans-70"/>
      <use xlink:href="#DejaVuSans-3d" transform="translate(63.476562 0)"/>
      <use xlink:href="#DejaVuSans-30" transform="translate(147.265625 0)"/>
      <use xlink:href="#DejaVuSans-2e" transform="translate(210.888672 0)"/>
      <use xlink:href="#DejaVuSans-38" transform="translate(242.675781 0)"/>
     </g>
    </g>
    <g id="line2d_49">
     <path d="M 56.72 360.782188 
L 66.72 360.782188 
L 76.72 360.782188 
" style="fill: none; stroke: #bcbd22; stroke-width: 1.5; stroke-linecap: square"/>
    </g>
    <g id="text_27">
     <!-- p=0.9 -->
     <g transform="translate(84.72 364.282188) scale(0.1 -0.1)">
      <defs>
       <path id="DejaVuSans-39" d="M 703 97 
L 703 672 
Q 941 559 1184 500 
Q 1428 441 1663 441 
Q 2288 441 2617 861 
Q 2947 1281 2994 2138 
Q 2813 1869 2534 1725 
Q 2256 1581 1919 1581 
Q 1219 1581 811 2004 
Q 403 2428 403 3163 
Q 403 3881 828 4315 
Q 1253 4750 1959 4750 
Q 2769 4750 3195 4129 
Q 3622 3509 3622 2328 
Q 3622 1225 3098 567 
Q 2575 -91 1691 -91 
Q 1453 -91 1209 -44 
Q 966 3 703 97 
z
M 1959 2075 
Q 2384 2075 2632 2365 
Q 2881 2656 2881 3163 
Q 2881 3666 2632 3958 
Q 2384 4250 1959 4250 
Q 1534 4250 1286 3958 
Q 1038 3666 1038 3163 
Q 1038 2656 1286 2365 
Q 1534 2075 1959 2075 
z
" transform="scale(0.015625)"/>
      </defs>
      <use xlink:href="#DejaVuSans-70"/>
      <use xlink:href="#DejaVuSans-3d" transform="translate(63.476562 0)"/>
      <use xlink:href="#DejaVuSans-30" transform="translate(147.265625 0)"/>
      <use xlink:href="#DejaVuSans-2e" transform="translate(210.888672 0)"/>
      <use xlink:href="#DejaVuSans-39" transform="translate(242.675781 0)"/>
     </g>
    </g>
    <g id="line2d_50">
     <path d="M 56.72 375.460312 
L 66.72 375.460312 
L 76.72 375.460312 
" style="fill: none; stroke: #17becf; stroke-width: 1.5; stroke-linecap: square"/>
    </g>
    <g id="text_28">
     <!-- p=1.0 -->
     <g transform="translate(84.72 378.960312) scale(0.1 -0.1)">
      <use xlink:href="#DejaVuSans-70"/>
      <use xlink:href="#DejaVuSans-3d" transform="translate(63.476562 0)"/>
      <use xlink:href="#DejaVuSans-31" transform="translate(147.265625 0)"/>
      <use xlink:href="#DejaVuSans-2e" transform="translate(210.888672 0)"/>
      <use xlink:href="#DejaVuSans-30" transform="translate(242.675781 0)"/>
     </g>
    </g>
   </g>
  </g>
 </g>
 <defs>
  <clipPath id="p329ed974b2">
   <rect x="47.72" y="26.88" width="661.48" height="363.16"/>
  </clipPath>
 </defs>
</svg>
