<?xml version="1.0" encoding="utf-8" standalone="no"?>
<!DOCTYPE svg PUBLIC "-//W3C//DTD SVG 1.1//EN"
  "http://www.w3.org/Graphics/SVG/1.1/DTD/svg11.dtd">
<svg xmlns:xlink="http://www.w3.org/1999/xlink" width="720pt" height="432pt" viewBox="0 0 720 432" xmlns="http://www.w3.org/2000/svg" version="1.1">
 <metadata>
  <rdf:RDF xmlns:dc="http://purl.org/dc/elements/1.1/" xmlns:cc="http://creativecommons.org/ns#" xmlns:rdf="http://www.w3.org/1999/02/22-rdf-syntax-ns#">
   <cc:Work>
    <dc:type rdf:resource="http://purl.org/dc/dcmitype/StillImage"/>
    <dc:date>2025-08-23T17:31:44.005932</dc:date>
    <dc:format>image/svg+xml</dc:format>
    <dc:creator>
     <cc:Agent>
      <dc:title>Matplotlib v3.10.3, https://matplotlib.org/</dc:title>
     </cc:Agent>
    </dc:creator>
   </cc:Work>
  </rdf:RDF>
 </metadata>
 <defs>
  <style type="text/css">*{stroke-linejoin: round; stroke-linecap: butt}</style>
 </defs>
 <g id="figure_1">
  <g id="patch_1">
   <path d="M 0 432 
L 720 432 
L 720 0 
L 0 0 
z
" style="fill: #ffffff"/>
  </g>
  <g id="axes_1">
   <g id="patch_2">
    <path d="M 47.72 390.04 
L 709.2 390.04 
L 709.2 26.88 
L 47.72 26.88 
z
" style="fill: #ffffff"/>
   </g>
   <g id="matplotlib.axis_1">
    <g id="xtick_1">
     <g id="line2d_1">
      <path d="M 77.787273 390.04 
L 77.787273 26.88 
" clip-path="url(#pdd900b9b08)" style="fill: none; stroke: #b0b0b0; stroke-width: 0.8; stroke-linecap: square"/>
     </g>
     <g id="line2d_2">
      <defs>
       <path id="m11022b733a" d="M 0 0 
L 0 3.5 
" style="stroke: #000000; stroke-width: 0.8"/>
      </defs>
      <g>
       <use xlink:href="#m11022b733a" x="77.787273" y="390.04" style="stroke: #000000; stroke-width: 0.8"/>
      </g>
     </g>
     <g id="text_1">
      <!-- 0 -->
      <g transform="translate(74.606023 404.638438) scale(0.1 -0.1)">
       <defs>
        <path id="DejaVuSans-30" d="M 2034 4250 
Q 1547 4250 1301 3770 
Q 1056 3291 1056 2328 
Q 1056 1369 1301 889 
Q 1547 409 2034 409 
Q 2525 409 2770 889 
Q 3016 1369 3016 2328 
Q 3016 3291 2770 3770 
Q 2525 4250 2034 4250 
z
M 2034 4750 
Q 2819 4750 3233 4129 
Q 3647 3509 3647 2328 
Q 3647 1150 3233 529 
Q 2819 -91 2034 -91 
Q 1250 -91 836 529 
Q 422 1150 422 2328 
Q 422 3509 836 4129 
Q 1250 4750 2034 4750 
z
" transform="scale(0.015625)"/>
       </defs>
       <use xlink:href="#DejaVuSans-30"/>
      </g>
     </g>
    </g>
    <g id="xtick_2">
     <g id="line2d_3">
      <path d="M 153.906951 390.04 
L 153.906951 26.88 
" clip-path="url(#pdd900b9b08)" style="fill: none; stroke: #b0b0b0; stroke-width: 0.8; stroke-linecap: square"/>
     </g>
     <g id="line2d_4">
      <g>
       <use xlink:href="#m11022b733a" x="153.906951" y="390.04" style="stroke: #000000; stroke-width: 0.8"/>
      </g>
     </g>
     <g id="text_2">
      <!-- 10 -->
      <g transform="translate(147.544451 404.638438) scale(0.1 -0.1)">
       <defs>
        <path id="DejaVuSans-31" d="M 794 531 
L 1825 531 
L 1825 4091 
L 703 3866 
L 703 4441 
L 1819 4666 
L 2450 4666 
L 2450 531 
L 3481 531 
L 3481 0 
L 794 0 
L 794 531 
z
" transform="scale(0.015625)"/>
       </defs>
       <use xlink:href="#DejaVuSans-31"/>
       <use xlink:href="#DejaVuSans-30" transform="translate(63.623047 0)"/>
      </g>
     </g>
    </g>
    <g id="xtick_3">
     <g id="line2d_5">
      <path d="M 230.026628 390.04 
L 230.026628 26.88 
" clip-path="url(#pdd900b9b08)" style="fill: none; stroke: #b0b0b0; stroke-width: 0.8; stroke-linecap: square"/>
     </g>
     <g id="line2d_6">
      <g>
       <use xlink:href="#m11022b733a" x="230.026628" y="390.04" style="stroke: #000000; stroke-width: 0.8"/>
      </g>
     </g>
     <g id="text_3">
      <!-- 20 -->
      <g transform="translate(223.664128 404.638438) scale(0.1 -0.1)">
       <defs>
        <path id="DejaVuSans-32" d="M 1228 531 
L 3431 531 
L 3431 0 
L 469 0 
L 469 531 
Q 828 903 1448 1529 
Q 2069 2156 2228 2338 
Q 2531 2678 2651 2914 
Q 2772 3150 2772 3378 
Q 2772 3750 2511 3984 
Q 2250 4219 1831 4219 
Q 1534 4219 1204 4116 
Q 875 4013 500 3803 
L 500 4441 
Q 881 4594 1212 4672 
Q 1544 4750 1819 4750 
Q 2544 4750 2975 4387 
Q 3406 4025 3406 3419 
Q 3406 3131 3298 2873 
Q 3191 2616 2906 2266 
Q 2828 2175 2409 1742 
Q 1991 1309 1228 531 
z
" transform="scale(0.015625)"/>
       </defs>
       <use xlink:href="#DejaVuSans-32"/>
       <use xlink:href="#DejaVuSans-30" transform="translate(63.623047 0)"/>
      </g>
     </g>
    </g>
    <g id="xtick_4">
     <g id="line2d_7">
      <path d="M 306.146306 390.04 
L 306.146306 26.88 
" clip-path="url(#pdd900b9b08)" style="fill: none; stroke: #b0b0b0; stroke-width: 0.8; stroke-linecap: square"/>
     </g>
     <g id="line2d_8">
      <g>
       <use xlink:href="#m11022b733a" x="306.146306" y="390.04" style="stroke: #000000; stroke-width: 0.8"/>
      </g>
     </g>
     <g id="text_4">
      <!-- 30 -->
      <g transform="translate(299.783806 404.638438) scale(0.1 -0.1)">
       <defs>
        <path id="DejaVuSans-33" d="M 2597 2516 
Q 3050 2419 3304 2112 
Q 3559 1806 3559 1356 
Q 3559 666 3084 287 
Q 2609 -91 1734 -91 
Q 1441 -91 1130 -33 
Q 819 25 488 141 
L 488 750 
Q 750 597 1062 519 
Q 1375 441 1716 441 
Q 2309 441 2620 675 
Q 2931 909 2931 1356 
Q 2931 1769 2642 2001 
Q 2353 2234 1838 2234 
L 1294 2234 
L 1294 2753 
L 1863 2753 
Q 2328 2753 2575 2939 
Q 2822 3125 2822 3475 
Q 2822 3834 2567 4026 
Q 2313 4219 1838 4219 
Q 1578 4219 1281 4162 
Q 984 4106 628 3988 
L 628 4550 
Q 988 4650 1302 4700 
Q 1616 4750 1894 4750 
Q 2613 4750 3031 4423 
Q 3450 4097 3450 3541 
Q 3450 3153 3228 2886 
Q 3006 2619 2597 2516 
z
" transform="scale(0.015625)"/>
       </defs>
       <use xlink:href="#DejaVuSans-33"/>
       <use xlink:href="#DejaVuSans-30" transform="translate(63.623047 0)"/>
      </g>
     </g>
    </g>
    <g id="xtick_5">
     <g id="line2d_9">
      <path d="M 382.265984 390.04 
L 382.265984 26.88 
" clip-path="url(#pdd900b9b08)" style="fill: none; stroke: #b0b0b0; stroke-width: 0.8; stroke-linecap: square"/>
     </g>
     <g id="line2d_10">
      <g>
       <use xlink:href="#m11022b733a" x="382.265984" y="390.04" style="stroke: #000000; stroke-width: 0.8"/>
      </g>
     </g>
     <g id="text_5">
      <!-- 40 -->
      <g transform="translate(375.903484 404.638438) scale(0.1 -0.1)">
       <defs>
        <path id="DejaVuSans-34" d="M 2419 4116 
L 825 1625 
L 2419 1625 
L 2419 4116 
z
M 2253 4666 
L 3047 4666 
L 3047 1625 
L 3713 1625 
L 3713 1100 
L 3047 1100 
L 3047 0 
L 2419 0 
L 2419 1100 
L 313 1100 
L 313 1709 
L 2253 4666 
z
" transform="scale(0.015625)"/>
       </defs>
       <use xlink:href="#DejaVuSans-34"/>
       <use xlink:href="#DejaVuSans-30" transform="translate(63.623047 0)"/>
      </g>
     </g>
    </g>
    <g id="xtick_6">
     <g id="line2d_11">
      <path d="M 458.385662 390.04 
L 458.385662 26.88 
" clip-path="url(#pdd900b9b08)" style="fill: none; stroke: #b0b0b0; stroke-width: 0.8; stroke-linecap: square"/>
     </g>
     <g id="line2d_12">
      <g>
       <use xlink:href="#m11022b733a" x="458.385662" y="390.04" style="stroke: #000000; stroke-width: 0.8"/>
      </g>
     </g>
     <g id="text_6">
      <!-- 50 -->
      <g transform="translate(452.023162 404.638438) scale(0.1 -0.1)">
       <defs>
        <path id="DejaVuSans-35" d="M 691 4666 
L 3169 4666 
L 3169 4134 
L 1269 4134 
L 1269 2991 
Q 1406 3038 1543 3061 
Q 1681 3084 1819 3084 
Q 2600 3084 3056 2656 
Q 3513 2228 3513 1497 
Q 3513 744 3044 326 
Q 2575 -91 1722 -91 
Q 1428 -91 1123 -41 
Q 819 9 494 109 
L 494 744 
Q 775 591 1075 516 
Q 1375 441 1709 441 
Q 2250 441 2565 725 
Q 2881 1009 2881 1497 
Q 2881 1984 2565 2268 
Q 2250 2553 1709 2553 
Q 1456 2553 1204 2497 
Q 953 2441 691 2322 
L 691 4666 
z
" transform="scale(0.015625)"/>
       </defs>
       <use xlink:href="#DejaVuSans-35"/>
       <use xlink:href="#DejaVuSans-30" transform="translate(63.623047 0)"/>
      </g>
     </g>
    </g>
    <g id="xtick_7">
     <g id="line2d_13">
      <path d="M 534.505339 390.04 
L 534.505339 26.88 
" clip-path="url(#pdd900b9b08)" style="fill: none; stroke: #b0b0b0; stroke-width: 0.8; stroke-linecap: square"/>
     </g>
     <g id="line2d_14">
      <g>
       <use xlink:href="#m11022b733a" x="534.505339" y="390.04" style="stroke: #000000; stroke-width: 0.8"/>
      </g>
     </g>
     <g id="text_7">
      <!-- 60 -->
      <g transform="translate(528.142839 404.638438) scale(0.1 -0.1)">
       <defs>
        <path id="DejaVuSans-36" d="M 2113 2584 
Q 1688 2584 1439 2293 
Q 1191 2003 1191 1497 
Q 1191 994 1439 701 
Q 1688 409 2113 409 
Q 2538 409 2786 701 
Q 3034 994 3034 1497 
Q 3034 2003 2786 2293 
Q 2538 2584 2113 2584 
z
M 3366 4563 
L 3366 3988 
Q 3128 4100 2886 4159 
Q 2644 4219 2406 4219 
Q 1781 4219 1451 3797 
Q 1122 3375 1075 2522 
Q 1259 2794 1537 2939 
Q 1816 3084 2150 3084 
Q 2853 3084 3261 2657 
Q 3669 2231 3669 1497 
Q 3669 778 3244 343 
Q 2819 -91 2113 -91 
Q 1303 -91 875 529 
Q 447 1150 447 2328 
Q 447 3434 972 4092 
Q 1497 4750 2381 4750 
Q 2619 4750 2861 4703 
Q 3103 4656 3366 4563 
z
" transform="scale(0.015625)"/>
       </defs>
       <use xlink:href="#DejaVuSans-36"/>
       <use xlink:href="#DejaVuSans-30" transform="translate(63.623047 0)"/>
      </g>
     </g>
    </g>
    <g id="xtick_8">
     <g id="line2d_15">
      <path d="M 610.625017 390.04 
L 610.625017 26.88 
" clip-path="url(#pdd900b9b08)" style="fill: none; stroke: #b0b0b0; stroke-width: 0.8; stroke-linecap: square"/>
     </g>
     <g id="line2d_16">
      <g>
       <use xlink:href="#m11022b733a" x="610.625017" y="390.04" style="stroke: #000000; stroke-width: 0.8"/>
      </g>
     </g>
     <g id="text_8">
      <!-- 70 -->
      <g transform="translate(604.262517 404.638438) scale(0.1 -0.1)">
       <defs>
        <path id="DejaVuSans-37" d="M 525 4666 
L 3525 4666 
L 3525 4397 
L 1831 0 
L 1172 0 
L 2766 4134 
L 525 4134 
L 525 4666 
z
" transform="scale(0.015625)"/>
       </defs>
       <use xlink:href="#DejaVuSans-37"/>
       <use xlink:href="#DejaVuSans-30" transform="translate(63.623047 0)"/>
      </g>
     </g>
    </g>
    <g id="xtick_9">
     <g id="line2d_17">
      <path d="M 686.744695 390.04 
L 686.744695 26.88 
" clip-path="url(#pdd900b9b08)" style="fill: none; stroke: #b0b0b0; stroke-width: 0.8; stroke-linecap: square"/>
     </g>
     <g id="line2d_18">
      <g>
       <use xlink:href="#m11022b733a" x="686.744695" y="390.04" style="stroke: #000000; stroke-width: 0.8"/>
      </g>
     </g>
     <g id="text_9">
      <!-- 80 -->
      <g transform="translate(680.382195 404.638438) scale(0.1 -0.1)">
       <defs>
        <path id="DejaVuSans-38" d="M 2034 2216 
Q 1584 2216 1326 1975 
Q 1069 1734 1069 1313 
Q 1069 891 1326 650 
Q 1584 409 2034 409 
Q 2484 409 2743 651 
Q 3003 894 3003 1313 
Q 3003 1734 2745 1975 
Q 2488 2216 2034 2216 
z
M 1403 2484 
Q 997 2584 770 2862 
Q 544 3141 544 3541 
Q 544 4100 942 4425 
Q 1341 4750 2034 4750 
Q 2731 4750 3128 4425 
Q 3525 4100 3525 3541 
Q 3525 3141 3298 2862 
Q 3072 2584 2669 2484 
Q 3125 2378 3379 2068 
Q 3634 1759 3634 1313 
Q 3634 634 3220 271 
Q 2806 -91 2034 -91 
Q 1263 -91 848 271 
Q 434 634 434 1313 
Q 434 1759 690 2068 
Q 947 2378 1403 2484 
z
M 1172 3481 
Q 1172 3119 1398 2916 
Q 1625 2713 2034 2713 
Q 2441 2713 2670 2916 
Q 2900 3119 2900 3481 
Q 2900 3844 2670 4047 
Q 2441 4250 2034 4250 
Q 1625 4250 1398 4047 
Q 1172 3844 1172 3481 
z
" transform="scale(0.015625)"/>
       </defs>
       <use xlink:href="#DejaVuSans-38"/>
       <use xlink:href="#DejaVuSans-30" transform="translate(63.623047 0)"/>
      </g>
     </g>
    </g>
    <g id="text_10">
     <!-- Time -->
     <g transform="translate(366.226406 418.316562) scale(0.1 -0.1)">
      <defs>
       <path id="DejaVuSans-54" d="M -19 4666 
L 3928 4666 
L 3928 4134 
L 2272 4134 
L 2272 0 
L 1638 0 
L 1638 4134 
L -19 4134 
L -19 4666 
z
" transform="scale(0.015625)"/>
       <path id="DejaVuSans-69" d="M 603 3500 
L 1178 3500 
L 1178 0 
L 603 0 
L 603 3500 
z
M 603 4863 
L 1178 4863 
L 1178 4134 
L 603 4134 
L 603 4863 
z
" transform="scale(0.015625)"/>
       <path id="DejaVuSans-6d" d="M 3328 2828 
Q 3544 3216 3844 3400 
Q 4144 3584 4550 3584 
Q 5097 3584 5394 3201 
Q 5691 2819 5691 2113 
L 5691 0 
L 5113 0 
L 5113 2094 
Q 5113 2597 4934 2840 
Q 4756 3084 4391 3084 
Q 3944 3084 3684 2787 
Q 3425 2491 3425 1978 
L 3425 0 
L 2847 0 
L 2847 2094 
Q 2847 2600 2669 2842 
Q 2491 3084 2119 3084 
Q 1678 3084 1418 2786 
Q 1159 2488 1159 1978 
L 1159 0 
L 581 0 
L 581 3500 
L 1159 3500 
L 1159 2956 
Q 1356 3278 1631 3431 
Q 1906 3584 2284 3584 
Q 2666 3584 2933 3390 
Q 3200 3197 3328 2828 
z
" transform="scale(0.015625)"/>
       <path id="DejaVuSans-65" d="M 3597 1894 
L 3597 1613 
L 953 1613 
Q 991 1019 1311 708 
Q 1631 397 2203 397 
Q 2534 397 2845 478 
Q 3156 559 3463 722 
L 3463 178 
Q 3153 47 2828 -22 
Q 2503 -91 2169 -91 
Q 1331 -91 842 396 
Q 353 884 353 1716 
Q 353 2575 817 3079 
Q 1281 3584 2069 3584 
Q 2775 3584 3186 3129 
Q 3597 2675 3597 1894 
z
M 3022 2063 
Q 3016 2534 2758 2815 
Q 2500 3097 2075 3097 
Q 1594 3097 1305 2825 
Q 1016 2553 972 2059 
L 3022 2063 
z
" transform="scale(0.015625)"/>
      </defs>
      <use xlink:href="#DejaVuSans-54"/>
      <use xlink:href="#DejaVuSans-69" transform="translate(57.958984 0)"/>
      <use xlink:href="#DejaVuSans-6d" transform="translate(85.742188 0)"/>
      <use xlink:href="#DejaVuSans-65" transform="translate(183.154297 0)"/>
     </g>
    </g>
   </g>
   <g id="matplotlib.axis_2">
    <g id="ytick_1">
     <g id="line2d_19">
      <path d="M 47.72 373.532727 
L 709.2 373.532727 
" clip-path="url(#pdd900b9b08)" style="fill: none; stroke: #b0b0b0; stroke-width: 0.8; stroke-linecap: square"/>
     </g>
     <g id="line2d_20">
      <defs>
       <path id="m456c5f4e6f" d="M 0 0 
L -3.5 0 
" style="stroke: #000000; stroke-width: 0.8"/>
      </defs>
      <g>
       <use xlink:href="#m456c5f4e6f" x="47.72" y="373.532727" style="stroke: #000000; stroke-width: 0.8"/>
      </g>
     </g>
     <g id="text_11">
      <!-- 0.0 -->
      <g transform="translate(24.816875 377.331946) scale(0.1 -0.1)">
       <defs>
        <path id="DejaVuSans-2e" d="M 684 794 
L 1344 794 
L 1344 0 
L 684 0 
L 684 794 
z
" transform="scale(0.015625)"/>
       </defs>
       <use xlink:href="#DejaVuSans-30"/>
       <use xlink:href="#DejaVuSans-2e" transform="translate(63.623047 0)"/>
       <use xlink:href="#DejaVuSans-30" transform="translate(95.410156 0)"/>
      </g>
     </g>
    </g>
    <g id="ytick_2">
     <g id="line2d_21">
      <path d="M 47.72 322.319603 
L 709.2 322.319603 
" clip-path="url(#pdd900b9b08)" style="fill: none; stroke: #b0b0b0; stroke-width: 0.8; stroke-linecap: square"/>
     </g>
     <g id="line2d_22">
      <g>
       <use xlink:href="#m456c5f4e6f" x="47.72" y="322.319603" style="stroke: #000000; stroke-width: 0.8"/>
      </g>
     </g>
     <g id="text_12">
      <!-- 0.5 -->
      <g transform="translate(24.816875 326.118822) scale(0.1 -0.1)">
       <use xlink:href="#DejaVuSans-30"/>
       <use xlink:href="#DejaVuSans-2e" transform="translate(63.623047 0)"/>
       <use xlink:href="#DejaVuSans-35" transform="translate(95.410156 0)"/>
      </g>
     </g>
    </g>
    <g id="ytick_3">
     <g id="line2d_23">
      <path d="M 47.72 271.10648 
L 709.2 271.10648 
" clip-path="url(#pdd900b9b08)" style="fill: none; stroke: #b0b0b0; stroke-width: 0.8; stroke-linecap: square"/>
     </g>
     <g id="line2d_24">
      <g>
       <use xlink:href="#m456c5f4e6f" x="47.72" y="271.10648" style="stroke: #000000; stroke-width: 0.8"/>
      </g>
     </g>
     <g id="text_13">
      <!-- 1.0 -->
      <g transform="translate(24.816875 274.905698) scale(0.1 -0.1)">
       <use xlink:href="#DejaVuSans-31"/>
       <use xlink:href="#DejaVuSans-2e" transform="translate(63.623047 0)"/>
       <use xlink:href="#DejaVuSans-30" transform="translate(95.410156 0)"/>
      </g>
     </g>
    </g>
    <g id="ytick_4">
     <g id="line2d_25">
      <path d="M 47.72 219.893356 
L 709.2 219.893356 
" clip-path="url(#pdd900b9b08)" style="fill: none; stroke: #b0b0b0; stroke-width: 0.8; stroke-linecap: square"/>
     </g>
     <g id="line2d_26">
      <g>
       <use xlink:href="#m456c5f4e6f" x="47.72" y="219.893356" style="stroke: #000000; stroke-width: 0.8"/>
      </g>
     </g>
     <g id="text_14">
      <!-- 1.5 -->
      <g transform="translate(24.816875 223.692575) scale(0.1 -0.1)">
       <use xlink:href="#DejaVuSans-31"/>
       <use xlink:href="#DejaVuSans-2e" transform="translate(63.623047 0)"/>
       <use xlink:href="#DejaVuSans-35" transform="translate(95.410156 0)"/>
      </g>
     </g>
    </g>
    <g id="ytick_5">
     <g id="line2d_27">
      <path d="M 47.72 168.680232 
L 709.2 168.680232 
" clip-path="url(#pdd900b9b08)" style="fill: none; stroke: #b0b0b0; stroke-width: 0.8; stroke-linecap: square"/>
     </g>
     <g id="line2d_28">
      <g>
       <use xlink:href="#m456c5f4e6f" x="47.72" y="168.680232" style="stroke: #000000; stroke-width: 0.8"/>
      </g>
     </g>
     <g id="text_15">
      <!-- 2.0 -->
      <g transform="translate(24.816875 172.479451) scale(0.1 -0.1)">
       <use xlink:href="#DejaVuSans-32"/>
       <use xlink:href="#DejaVuSans-2e" transform="translate(63.623047 0)"/>
       <use xlink:href="#DejaVuSans-30" transform="translate(95.410156 0)"/>
      </g>
     </g>
    </g>
    <g id="ytick_6">
     <g id="line2d_29">
      <path d="M 47.72 117.467108 
L 709.2 117.467108 
" clip-path="url(#pdd900b9b08)" style="fill: none; stroke: #b0b0b0; stroke-width: 0.8; stroke-linecap: square"/>
     </g>
     <g id="line2d_30">
      <g>
       <use xlink:href="#m456c5f4e6f" x="47.72" y="117.467108" style="stroke: #000000; stroke-width: 0.8"/>
      </g>
     </g>
     <g id="text_16">
      <!-- 2.5 -->
      <g transform="translate(24.816875 121.266327) scale(0.1 -0.1)">
       <use xlink:href="#DejaVuSans-32"/>
       <use xlink:href="#DejaVuSans-2e" transform="translate(63.623047 0)"/>
       <use xlink:href="#DejaVuSans-35" transform="translate(95.410156 0)"/>
      </g>
     </g>
    </g>
    <g id="ytick_7">
     <g id="line2d_31">
      <path d="M 47.72 66.253985 
L 709.2 66.253985 
" clip-path="url(#pdd900b9b08)" style="fill: none; stroke: #b0b0b0; stroke-width: 0.8; stroke-linecap: square"/>
     </g>
     <g id="line2d_32">
      <g>
       <use xlink:href="#m456c5f4e6f" x="47.72" y="66.253985" style="stroke: #000000; stroke-width: 0.8"/>
      </g>
     </g>
     <g id="text_17">
      <!-- 3.0 -->
      <g transform="translate(24.816875 70.053203) scale(0.1 -0.1)">
       <use xlink:href="#DejaVuSans-33"/>
       <use xlink:href="#DejaVuSans-2e" transform="translate(63.623047 0)"/>
       <use xlink:href="#DejaVuSans-30" transform="translate(95.410156 0)"/>
      </g>
     </g>
    </g>
    <g id="text_18">
     <!-- Half-chain entropy -->
     <g transform="translate(18.737187 254.432656) rotate(-90) scale(0.1 -0.1)">
      <defs>
       <path id="DejaVuSans-48" d="M 628 4666 
L 1259 4666 
L 1259 2753 
L 3553 2753 
L 3553 4666 
L 4184 4666 
L 4184 0 
L 3553 0 
L 3553 2222 
L 1259 2222 
L 1259 0 
L 628 0 
L 628 4666 
z
" transform="scale(0.015625)"/>
       <path id="DejaVuSans-61" d="M 2194 1759 
Q 1497 1759 1228 1600 
Q 959 1441 959 1056 
Q 959 750 1161 570 
Q 1363 391 1709 391 
Q 2188 391 2477 730 
Q 2766 1069 2766 1631 
L 2766 1759 
L 2194 1759 
z
M 3341 1997 
L 3341 0 
L 2766 0 
L 2766 531 
Q 2569 213 2275 61 
Q 1981 -91 1556 -91 
Q 1019 -91 701 211 
Q 384 513 384 1019 
Q 384 1609 779 1909 
Q 1175 2209 1959 2209 
L 2766 2209 
L 2766 2266 
Q 2766 2663 2505 2880 
Q 2244 3097 1772 3097 
Q 1472 3097 1187 3025 
Q 903 2953 641 2809 
L 641 3341 
Q 956 3463 1253 3523 
Q 1550 3584 1831 3584 
Q 2591 3584 2966 3190 
Q 3341 2797 3341 1997 
z
" transform="scale(0.015625)"/>
       <path id="DejaVuSans-6c" d="M 603 4863 
L 1178 4863 
L 1178 0 
L 603 0 
L 603 4863 
z
" transform="scale(0.015625)"/>
       <path id="DejaVuSans-66" d="M 2375 4863 
L 2375 4384 
L 1825 4384 
Q 1516 4384 1395 4259 
Q 1275 4134 1275 3809 
L 1275 3500 
L 2222 3500 
L 2222 3053 
L 1275 3053 
L 1275 0 
L 697 0 
L 697 3053 
L 147 3053 
L 147 3500 
L 697 3500 
L 697 3744 
Q 697 4328 969 4595 
Q 1241 4863 1831 4863 
L 2375 4863 
z
" transform="scale(0.015625)"/>
       <path id="DejaVuSans-2d" d="M 313 2009 
L 1997 2009 
L 1997 1497 
L 313 1497 
L 313 2009 
z
" transform="scale(0.015625)"/>
       <path id="DejaVuSans-63" d="M 3122 3366 
L 3122 2828 
Q 2878 2963 2633 3030 
Q 2388 3097 2138 3097 
Q 1578 3097 1268 2742 
Q 959 2388 959 1747 
Q 959 1106 1268 751 
Q 1578 397 2138 397 
Q 2388 397 2633 464 
Q 2878 531 3122 666 
L 3122 134 
Q 2881 22 2623 -34 
Q 2366 -91 2075 -91 
Q 1284 -91 818 406 
Q 353 903 353 1747 
Q 353 2603 823 3093 
Q 1294 3584 2113 3584 
Q 2378 3584 2631 3529 
Q 2884 3475 3122 3366 
z
" transform="scale(0.015625)"/>
       <path id="DejaVuSans-68" d="M 3513 2113 
L 3513 0 
L 2938 0 
L 2938 2094 
Q 2938 2591 2744 2837 
Q 2550 3084 2163 3084 
Q 1697 3084 1428 2787 
Q 1159 2491 1159 1978 
L 1159 0 
L 581 0 
L 581 4863 
L 1159 4863 
L 1159 2956 
Q 1366 3272 1645 3428 
Q 1925 3584 2291 3584 
Q 2894 3584 3203 3211 
Q 3513 2838 3513 2113 
z
" transform="scale(0.015625)"/>
       <path id="DejaVuSans-6e" d="M 3513 2113 
L 3513 0 
L 2938 0 
L 2938 2094 
Q 2938 2591 2744 2837 
Q 2550 3084 2163 3084 
Q 1697 3084 1428 2787 
Q 1159 2491 1159 1978 
L 1159 0 
L 581 0 
L 581 3500 
L 1159 3500 
L 1159 2956 
Q 1366 3272 1645 3428 
Q 1925 3584 2291 3584 
Q 2894 3584 3203 3211 
Q 3513 2838 3513 2113 
z
" transform="scale(0.015625)"/>
       <path id="DejaVuSans-20" transform="scale(0.015625)"/>
       <path id="DejaVuSans-74" d="M 1172 4494 
L 1172 3500 
L 2356 3500 
L 2356 3053 
L 1172 3053 
L 1172 1153 
Q 1172 725 1289 603 
Q 1406 481 1766 481 
L 2356 481 
L 2356 0 
L 1766 0 
Q 1100 0 847 248 
Q 594 497 594 1153 
L 594 3053 
L 172 3053 
L 172 3500 
L 594 3500 
L 594 4494 
L 1172 4494 
z
" transform="scale(0.015625)"/>
       <path id="DejaVuSans-72" d="M 2631 2963 
Q 2534 3019 2420 3045 
Q 2306 3072 2169 3072 
Q 1681 3072 1420 2755 
Q 1159 2438 1159 1844 
L 1159 0 
L 581 0 
L 581 3500 
L 1159 3500 
L 1159 2956 
Q 1341 3275 1631 3429 
Q 1922 3584 2338 3584 
Q 2397 3584 2469 3576 
Q 2541 3569 2628 3553 
L 2631 2963 
z
" transform="scale(0.015625)"/>
       <path id="DejaVuSans-6f" d="M 1959 3097 
Q 1497 3097 1228 2736 
Q 959 2375 959 1747 
Q 959 1119 1226 758 
Q 1494 397 1959 397 
Q 2419 397 2687 759 
Q 2956 1122 2956 1747 
Q 2956 2369 2687 2733 
Q 2419 3097 1959 3097 
z
M 1959 3584 
Q 2709 3584 3137 3096 
Q 3566 2609 3566 1747 
Q 3566 888 3137 398 
Q 2709 -91 1959 -91 
Q 1206 -91 779 398 
Q 353 888 353 1747 
Q 353 2609 779 3096 
Q 1206 3584 1959 3584 
z
" transform="scale(0.015625)"/>
       <path id="DejaVuSans-70" d="M 1159 525 
L 1159 -1331 
L 581 -1331 
L 581 3500 
L 1159 3500 
L 1159 2969 
Q 1341 3281 1617 3432 
Q 1894 3584 2278 3584 
Q 2916 3584 3314 3078 
Q 3713 2572 3713 1747 
Q 3713 922 3314 415 
Q 2916 -91 2278 -91 
Q 1894 -91 1617 61 
Q 1341 213 1159 525 
z
M 3116 1747 
Q 3116 2381 2855 2742 
Q 2594 3103 2138 3103 
Q 1681 3103 1420 2742 
Q 1159 2381 1159 1747 
Q 1159 1113 1420 752 
Q 1681 391 2138 391 
Q 2594 391 2855 752 
Q 3116 1113 3116 1747 
z
" transform="scale(0.015625)"/>
       <path id="DejaVuSans-79" d="M 2059 -325 
Q 1816 -950 1584 -1140 
Q 1353 -1331 966 -1331 
L 506 -1331 
L 506 -850 
L 844 -850 
Q 1081 -850 1212 -737 
Q 1344 -625 1503 -206 
L 1606 56 
L 191 3500 
L 800 3500 
L 1894 763 
L 2988 3500 
L 3597 3500 
L 2059 -325 
z
" transform="scale(0.015625)"/>
      </defs>
      <use xlink:href="#DejaVuSans-48"/>
      <use xlink:href="#DejaVuSans-61" transform="translate(75.195312 0)"/>
      <use xlink:href="#DejaVuSans-6c" transform="translate(136.474609 0)"/>
      <use xlink:href="#DejaVuSans-66" transform="translate(164.257812 0)"/>
      <use xlink:href="#DejaVuSans-2d" transform="translate(193.962891 0)"/>
      <use xlink:href="#DejaVuSans-63" transform="translate(230.046875 0)"/>
      <use xlink:href="#DejaVuSans-68" transform="translate(285.027344 0)"/>
      <use xlink:href="#DejaVuSans-61" transform="translate(348.40625 0)"/>
      <use xlink:href="#DejaVuSans-69" transform="translate(409.685547 0)"/>
      <use xlink:href="#DejaVuSans-6e" transform="translate(437.46875 0)"/>
      <use xlink:href="#DejaVuSans-20" transform="translate(500.847656 0)"/>
      <use xlink:href="#DejaVuSans-65" transform="translate(532.634766 0)"/>
      <use xlink:href="#DejaVuSans-6e" transform="translate(594.158203 0)"/>
      <use xlink:href="#DejaVuSans-74" transform="translate(657.537109 0)"/>
      <use xlink:href="#DejaVuSans-72" transform="translate(696.746094 0)"/>
      <use xlink:href="#DejaVuSans-6f" transform="translate(735.609375 0)"/>
      <use xlink:href="#DejaVuSans-70" transform="translate(796.791016 0)"/>
      <use xlink:href="#DejaVuSans-79" transform="translate(860.267578 0)"/>
     </g>
    </g>
   </g>
   <g id="line2d_33">
    <path d="M 77.787273 373.532727 
L 85.399241 58.304847 
L 93.011208 45.421928 
L 100.623176 43.793719 
L 108.235144 43.572258 
L 115.847112 43.719344 
L 123.459079 43.387273 
L 131.071047 43.740777 
L 138.683015 44.023144 
L 146.294983 43.755345 
L 153.906951 43.971287 
L 161.518918 44.104663 
L 169.130886 44.465532 
L 176.742854 45.555247 
L 184.354822 46.719651 
L 191.966789 48.307913 
L 199.578757 50.14534 
L 207.190725 51.200129 
L 214.802693 52.279695 
L 222.414661 53.305876 
L 230.026628 53.974337 
L 237.638596 54.716602 
L 245.250564 55.348819 
L 252.862532 55.809716 
L 260.474499 57.247725 
L 268.086467 57.693107 
L 275.698435 57.805282 
L 283.310403 58.332535 
L 290.922371 59.02142 
L 298.534338 59.130282 
L 306.146306 59.904022 
L 313.758274 60.763518 
L 321.370242 61.364347 
L 328.982209 61.924264 
L 336.594177 62.104109 
L 344.206145 62.496007 
L 351.818113 62.444339 
L 359.430081 62.558449 
L 367.042048 62.80005 
L 374.654016 63.062194 
L 382.265984 63.199328 
L 389.877952 63.680016 
L 397.489919 64.194337 
L 405.101887 64.499837 
L 412.713855 64.740242 
L 420.325823 65.387166 
L 427.937791 65.879973 
L 435.549758 65.784641 
L 443.161726 65.744124 
L 450.773694 66.099128 
L 458.385662 66.253208 
L 465.997629 66.33894 
L 473.609597 66.293948 
L 481.221565 66.032476 
L 488.833533 66.080299 
L 496.445501 66.338024 
L 504.057468 66.714467 
L 511.669436 66.890861 
L 519.281404 67.336174 
L 526.893372 67.566323 
L 534.505339 67.505123 
L 542.117307 67.410612 
L 549.729275 67.58864 
L 557.341243 67.494877 
L 564.953211 67.162608 
L 572.565178 67.259845 
L 580.177146 67.680685 
L 587.789114 67.871505 
L 595.401082 67.729893 
L 603.013049 67.772133 
L 610.625017 67.657534 
L 618.236985 67.944461 
L 625.848953 68.379246 
L 633.460921 68.701715 
L 641.072888 68.937734 
L 648.684856 69.091074 
L 656.296824 69.368324 
L 663.908792 69.278876 
L 671.520759 69.437437 
L 679.132727 69.191977 
" clip-path="url(#pdd900b9b08)" style="fill: none; stroke: #1f77b4; stroke-width: 1.5; stroke-linecap: square"/>
   </g>
   <g id="line2d_34">
    <path d="M 77.787273 373.532727 
L 85.399241 100.499609 
L 93.011208 89.951806 
L 100.623176 89.640095 
L 108.235144 89.92597 
L 115.847112 90.524795 
L 123.459079 90.982768 
L 131.071047 91.699776 
L 138.683015 91.455584 
L 146.294983 92.533675 
L 153.906951 93.103013 
L 161.518918 94.70485 
L 169.130886 96.129444 
L 176.742854 98.520869 
L 184.354822 99.586897 
L 191.966789 100.803161 
L 199.578757 101.084499 
L 207.190725 101.389455 
L 214.802693 102.241002 
L 222.414661 102.978686 
L 230.026628 103.72807 
L 237.638596 104.699496 
L 245.250564 104.966486 
L 252.862532 105.62186 
L 260.474499 108.541508 
L 268.086467 110.286819 
L 275.698435 111.223866 
L 283.310403 111.98042 
L 290.922371 112.337275 
L 298.534338 112.490474 
L 306.146306 113.212862 
L 313.758274 114.166936 
L 321.370242 114.228634 
L 328.982209 114.726167 
L 336.594177 114.607862 
L 344.206145 114.612524 
L 351.818113 114.986262 
L 359.430081 114.955072 
L 367.042048 115.466408 
L 374.654016 115.626227 
L 382.265984 115.532574 
L 389.877952 115.420159 
L 397.489919 115.68403 
L 405.101887 115.991355 
L 412.713855 116.400166 
L 420.325823 116.650674 
L 427.937791 116.932804 
L 435.549758 117.159357 
L 443.161726 116.996126 
L 450.773694 117.23111 
L 458.385662 117.54965 
L 465.997629 117.541592 
L 473.609597 117.981682 
L 481.221565 117.597363 
L 488.833533 117.753283 
L 496.445501 117.937195 
L 504.057468 118.276073 
L 511.669436 118.66229 
L 519.281404 118.912821 
L 526.893372 118.777786 
L 534.505339 118.897401 
L 542.117307 119.018827 
L 549.729275 119.273751 
L 557.341243 119.067965 
L 564.953211 119.281834 
L 572.565178 119.08757 
L 580.177146 119.060536 
L 587.789114 119.170628 
L 595.401082 119.256308 
L 603.013049 119.405781 
L 610.625017 119.824821 
L 618.236985 120.132279 
L 625.848953 120.454409 
L 633.460921 120.722328 
L 641.072888 121.099858 
L 648.684856 121.331277 
L 656.296824 121.506044 
L 663.908792 121.470592 
L 671.520759 121.424381 
L 679.132727 121.290671 
" clip-path="url(#pdd900b9b08)" style="fill: none; stroke: #ff7f0e; stroke-width: 1.5; stroke-linecap: square"/>
   </g>
   <g id="line2d_35">
    <path d="M 77.787273 373.532727 
L 85.399241 133.022171 
L 93.011208 124.854264 
L 100.623176 123.802578 
L 108.235144 126.425416 
L 115.847112 128.629314 
L 123.459079 128.618739 
L 131.071047 129.604541 
L 138.683015 131.657479 
L 146.294983 130.968191 
L 153.906951 132.443215 
L 161.518918 134.202549 
L 169.130886 133.419847 
L 176.742854 135.55657 
L 184.354822 137.124708 
L 191.966789 136.325425 
L 199.578757 137.732482 
L 207.190725 138.935023 
L 214.802693 137.394349 
L 222.414661 138.942161 
L 230.026628 140.349394 
L 237.638596 139.63305 
L 245.250564 140.614999 
L 252.862532 141.542918 
L 260.474499 141.551716 
L 268.086467 143.09395 
L 275.698435 144.265938 
L 283.310403 143.666046 
L 290.922371 144.408933 
L 298.534338 145.496214 
L 306.146306 144.168006 
L 313.758274 145.697952 
L 321.370242 146.719503 
L 328.982209 145.726788 
L 336.594177 146.7155 
L 344.206145 147.473461 
L 351.818113 146.234349 
L 359.430081 147.15448 
L 367.042048 148.449439 
L 374.654016 147.125329 
L 382.265984 148.080203 
L 389.877952 148.775541 
L 397.489919 147.648422 
L 405.101887 148.413675 
L 412.713855 149.568282 
L 420.325823 148.256336 
L 427.937791 149.276086 
L 435.549758 150.330934 
L 443.161726 148.707153 
L 450.773694 149.50472 
L 458.385662 150.81707 
L 465.997629 149.313343 
L 473.609597 150.150081 
L 481.221565 150.716978 
L 488.833533 149.425345 
L 496.445501 150.36488 
L 504.057468 151.334561 
L 511.669436 150.187893 
L 519.281404 151.282022 
L 526.893372 151.919093 
L 534.505339 150.412078 
L 542.117307 151.287879 
L 549.729275 152.304358 
L 557.341243 150.876369 
L 564.953211 151.751981 
L 572.565178 152.448202 
L 580.177146 151.016123 
L 587.789114 151.794264 
L 595.401082 152.650644 
L 603.013049 151.348465 
L 610.625017 152.261848 
L 618.236985 153.174909 
L 625.848953 151.802861 
L 633.460921 152.800862 
L 641.072888 153.841292 
L 648.684856 152.606943 
L 656.296824 153.615784 
L 663.908792 154.438894 
L 671.520759 152.909275 
L 679.132727 153.295862 
" clip-path="url(#pdd900b9b08)" style="fill: none; stroke: #2ca02c; stroke-width: 1.5; stroke-linecap: square"/>
   </g>
   <g id="line2d_36">
    <path d="M 77.787273 373.532727 
L 85.399241 177.090687 
L 93.011208 173.753364 
L 100.623176 173.096586 
L 108.235144 174.777268 
L 115.847112 178.263182 
L 123.459079 179.248373 
L 131.071047 180.50635 
L 138.683015 183.362007 
L 146.294983 185.146423 
L 153.906951 186.429516 
L 161.518918 187.75144 
L 169.130886 188.847054 
L 176.742854 190.584725 
L 184.354822 189.894433 
L 191.966789 192.164603 
L 199.578757 192.397454 
L 207.190725 193.722038 
L 214.802693 193.386124 
L 222.414661 194.963413 
L 230.026628 194.34728 
L 237.638596 196.194067 
L 245.250564 196.250198 
L 252.862532 197.534796 
L 260.474499 197.632482 
L 268.086467 198.373931 
L 275.698435 198.907537 
L 283.310403 199.408131 
L 290.922371 199.35342 
L 298.534338 200.663779 
L 306.146306 200.202882 
L 313.758274 201.669843 
L 321.370242 201.53376 
L 328.982209 202.133263 
L 336.594177 202.253177 
L 344.206145 203.083606 
L 351.818113 202.111839 
L 359.430081 203.391188 
L 367.042048 203.100468 
L 374.654016 203.77376 
L 382.265984 204.38829 
L 389.877952 204.582085 
L 397.489919 204.274498 
L 405.101887 205.093624 
L 412.713855 204.947554 
L 420.325823 205.947944 
L 427.937791 206.041956 
L 435.549758 206.498356 
L 443.161726 205.898441 
L 450.773694 206.410424 
L 458.385662 205.516732 
L 465.997629 206.228717 
L 473.609597 205.728986 
L 481.221565 206.192854 
L 488.833533 206.151561 
L 496.445501 206.487464 
L 504.057468 206.075052 
L 511.669436 206.852671 
L 519.281404 206.242763 
L 526.893372 206.714832 
L 534.505339 206.875373 
L 542.117307 206.977644 
L 549.729275 207.096095 
L 557.341243 207.729658 
L 564.953211 207.243067 
L 572.565178 207.512045 
L 580.177146 207.276342 
L 587.789114 207.863013 
L 595.401082 207.825619 
L 603.013049 208.18134 
L 610.625017 207.983248 
L 618.236985 208.673842 
L 625.848953 207.621038 
L 633.460921 208.107874 
L 641.072888 208.669732 
L 648.684856 208.466027 
L 656.296824 208.432523 
L 663.908792 209.188705 
L 671.520759 208.711652 
L 679.132727 208.211483 
" clip-path="url(#pdd900b9b08)" style="fill: none; stroke: #d62728; stroke-width: 1.5; stroke-linecap: square"/>
   </g>
   <g id="line2d_37">
    <path d="M 77.787273 373.532727 
L 85.399241 218.130317 
L 93.011208 215.261214 
L 100.623176 216.593694 
L 108.235144 220.015672 
L 115.847112 223.15449 
L 123.459079 225.383389 
L 131.071047 227.289702 
L 138.683015 228.156831 
L 146.294983 230.329681 
L 153.906951 231.260848 
L 161.518918 231.945691 
L 169.130886 233.271081 
L 176.742854 233.223145 
L 184.354822 234.383164 
L 191.966789 235.319691 
L 199.578757 236.038694 
L 207.190725 236.543679 
L 214.802693 236.917976 
L 222.414661 237.513533 
L 230.026628 238.431195 
L 237.638596 238.778967 
L 245.250564 239.160865 
L 252.862532 239.768488 
L 260.474499 238.923519 
L 268.086467 239.829824 
L 275.698435 240.374923 
L 283.310403 240.38454 
L 290.922371 241.789354 
L 298.534338 241.577249 
L 306.146306 241.340853 
L 313.758274 243.227173 
L 321.370242 242.670023 
L 328.982209 242.859573 
L 336.594177 243.089394 
L 344.206145 242.223461 
L 351.818113 243.197775 
L 359.430081 243.893121 
L 367.042048 242.981002 
L 374.654016 243.652451 
L 382.265984 244.234192 
L 389.877952 244.255589 
L 397.489919 245.017083 
L 405.101887 245.016538 
L 412.713855 244.679065 
L 420.325823 245.268138 
L 427.937791 245.360404 
L 435.549758 245.244714 
L 443.161726 245.275379 
L 450.773694 245.641177 
L 458.385662 245.834013 
L 465.997629 246.03888 
L 473.609597 245.880127 
L 481.221565 246.013247 
L 488.833533 245.585434 
L 496.445501 246.222243 
L 504.057468 246.71822 
L 511.669436 245.4142 
L 519.281404 246.05724 
L 526.893372 246.111902 
L 534.505339 245.058498 
L 542.117307 246.385476 
L 549.729275 246.357782 
L 557.341243 245.403551 
L 564.953211 246.736375 
L 572.565178 245.966833 
L 580.177146 245.881747 
L 587.789114 246.854613 
L 595.401082 246.346396 
L 603.013049 246.204407 
L 610.625017 247.308124 
L 618.236985 245.85916 
L 625.848953 246.525871 
L 633.460921 247.20985 
L 641.072888 246.016637 
L 648.684856 246.458178 
L 656.296824 246.957395 
L 663.908792 246.118012 
L 671.520759 246.796725 
L 679.132727 246.741402 
" clip-path="url(#pdd900b9b08)" style="fill: none; stroke: #9467bd; stroke-width: 1.5; stroke-linecap: square"/>
   </g>
   <g id="line2d_38">
    <path d="M 77.787273 373.532727 
L 85.399241 284.242741 
L 93.011208 284.099124 
L 100.623176 284.662573 
L 108.235144 287.830988 
L 115.847112 291.664268 
L 123.459079 291.697255 
L 131.071047 292.646677 
L 138.683015 294.130437 
L 146.294983 293.392652 
L 153.906951 293.874037 
L 161.518918 294.509859 
L 169.130886 294.916765 
L 176.742854 294.706032 
L 184.354822 295.90431 
L 191.966789 296.903062 
L 199.578757 296.468022 
L 207.190725 297.771808 
L 214.802693 297.412274 
L 222.414661 296.782758 
L 230.026628 298.407581 
L 237.638596 297.83574 
L 245.250564 299.335514 
L 252.862532 300.125061 
L 260.474499 300.487218 
L 268.086467 301.087582 
L 275.698435 300.579188 
L 283.310403 300.847562 
L 290.922371 300.841744 
L 298.534338 300.740963 
L 306.146306 300.661257 
L 313.758274 300.682708 
L 321.370242 300.762628 
L 328.982209 300.86873 
L 336.594177 301.15251 
L 344.206145 300.628476 
L 351.818113 300.374287 
L 359.430081 300.209845 
L 367.042048 300.19616 
L 374.654016 299.746021 
L 382.265984 300.238596 
L 389.877952 299.151417 
L 397.489919 298.757168 
L 405.101887 298.572308 
L 412.713855 298.65812 
L 420.325823 298.194627 
L 427.937791 299.24936 
L 435.549758 298.574489 
L 443.161726 298.671052 
L 450.773694 298.940384 
L 458.385662 299.705189 
L 465.997629 299.32397 
L 473.609597 301.288616 
L 481.221565 299.974496 
L 488.833533 300.194794 
L 496.445501 301.22349 
L 504.057468 301.926937 
L 511.669436 301.288879 
L 519.281404 302.111753 
L 526.893372 301.186277 
L 534.505339 300.880293 
L 542.117307 300.723396 
L 549.729275 301.234792 
L 557.341243 300.576194 
L 564.953211 301.485017 
L 572.565178 300.787286 
L 580.177146 300.75147 
L 587.789114 300.85149 
L 595.401082 301.717555 
L 603.013049 301.393767 
L 610.625017 302.469169 
L 618.236985 301.85736 
L 625.848953 301.866972 
L 633.460921 301.989133 
L 641.072888 302.762974 
L 648.684856 302.372281 
L 656.296824 303.192422 
L 663.908792 302.391817 
L 671.520759 302.170833 
L 679.132727 301.957217 
" clip-path="url(#pdd900b9b08)" style="fill: none; stroke: #8c564b; stroke-width: 1.5; stroke-linecap: square"/>
   </g>
   <g id="line2d_39">
    <path d="M 77.787273 373.532727 
L 85.399241 316.465764 
L 93.011208 317.538055 
L 100.623176 318.08288 
L 108.235144 321.48718 
L 115.847112 324.009622 
L 123.459079 323.916915 
L 131.071047 324.825385 
L 138.683015 325.790627 
L 146.294983 326.359405 
L 153.906951 327.779766 
L 161.518918 327.497492 
L 169.130886 328.86195 
L 176.742854 330.077244 
L 184.354822 331.538725 
L 191.966789 331.976554 
L 199.578757 331.900245 
L 207.190725 332.368929 
L 214.802693 332.719849 
L 222.414661 332.495708 
L 230.026628 334.83617 
L 237.638596 333.749245 
L 245.250564 334.855241 
L 252.862532 334.881893 
L 260.474499 335.473015 
L 268.086467 336.345498 
L 275.698435 336.036679 
L 283.310403 335.40592 
L 290.922371 336.03967 
L 298.534338 335.554183 
L 306.146306 335.780059 
L 313.758274 335.745994 
L 321.370242 336.21046 
L 328.982209 335.638833 
L 336.594177 336.44834 
L 344.206145 335.700733 
L 351.818113 335.844579 
L 359.430081 335.501822 
L 367.042048 336.388422 
L 374.654016 335.741804 
L 382.265984 336.899207 
L 389.877952 336.024915 
L 397.489919 336.108005 
L 405.101887 335.637149 
L 412.713855 336.535931 
L 420.325823 335.669732 
L 427.937791 336.895803 
L 435.549758 335.737914 
L 443.161726 336.022473 
L 450.773694 335.607459 
L 458.385662 336.652905 
L 465.997629 335.77514 
L 473.609597 336.895468 
L 481.221565 335.691541 
L 488.833533 335.994602 
L 496.445501 335.532752 
L 504.057468 336.610739 
L 511.669436 335.725516 
L 519.281404 336.913381 
L 526.893372 335.824725 
L 534.505339 336.123127 
L 542.117307 335.590203 
L 549.729275 336.560997 
L 557.341243 335.549875 
L 564.953211 336.745697 
L 572.565178 335.642373 
L 580.177146 335.959809 
L 587.789114 335.493527 
L 595.401082 336.523603 
L 603.013049 335.631946 
L 610.625017 336.887275 
L 618.236985 335.739445 
L 625.848953 336.011643 
L 633.460921 335.491894 
L 641.072888 336.518198 
L 648.684856 335.670537 
L 656.296824 336.936731 
L 663.908792 335.82659 
L 671.520759 336.156434 
L 679.132727 335.660994 
" clip-path="url(#pdd900b9b08)" style="fill: none; stroke: #e377c2; stroke-width: 1.5; stroke-linecap: square"/>
   </g>
   <g id="line2d_40">
    <path d="M 77.787273 373.532727 
L 85.399241 339.398292 
L 93.011208 340.556167 
L 100.623176 342.565159 
L 108.235144 341.89437 
L 115.847112 343.752008 
L 123.459079 344.240676 
L 131.071047 342.865102 
L 138.683015 343.780631 
L 146.294983 345.272974 
L 153.906951 345.689566 
L 161.518918 345.763828 
L 169.130886 346.029669 
L 176.742854 346.201083 
L 184.354822 346.515901 
L 191.966789 346.74018 
L 199.578757 346.835214 
L 207.190725 346.789584 
L 214.802693 346.767924 
L 222.414661 346.591837 
L 230.026628 347.002202 
L 237.638596 347.055879 
L 245.250564 347.193715 
L 252.862532 347.052691 
L 260.474499 346.847017 
L 268.086467 346.815948 
L 275.698435 346.900354 
L 283.310403 346.956004 
L 290.922371 347.021586 
L 298.534338 346.923478 
L 306.146306 346.926657 
L 313.758274 346.985239 
L 321.370242 346.989171 
L 328.982209 347.016226 
L 336.594177 346.939235 
L 344.206145 346.895993 
L 351.818113 346.920844 
L 359.430081 346.94291 
L 367.042048 346.978097 
L 374.654016 346.990302 
L 382.265984 346.965749 
L 389.877952 347.008121 
L 397.489919 346.998983 
L 405.101887 347.009532 
L 412.713855 346.993105 
L 420.325823 346.976379 
L 427.937791 346.97526 
L 435.549758 346.986499 
L 443.161726 346.98169 
L 450.773694 347.009558 
L 458.385662 347.000466 
L 465.997629 347.025489 
L 473.609597 347.023122 
L 481.221565 347.028601 
L 488.833533 347.022061 
L 496.445501 347.026157 
L 504.057468 347.016306 
L 511.669436 347.027729 
L 519.281404 347.013297 
L 526.893372 347.032234 
L 534.505339 347.029827 
L 542.117307 347.045982 
L 549.729275 347.042415 
L 557.341243 347.052029 
L 564.953211 347.045329 
L 572.565178 347.056735 
L 580.177146 347.04493 
L 587.789114 347.056283 
L 595.401082 347.044594 
L 603.013049 347.05654 
L 610.625017 347.051787 
L 618.236985 347.06554 
L 625.848953 347.059689 
L 633.460921 347.071411 
L 641.072888 347.06356 
L 648.684856 347.076883 
L 656.296824 347.066492 
L 663.908792 347.076476 
L 671.520759 347.066977 
L 679.132727 347.078009 
" clip-path="url(#pdd900b9b08)" style="fill: none; stroke: #7f7f7f; stroke-width: 1.5; stroke-linecap: square"/>
   </g>
   <g id="line2d_41">
    <path d="M 77.787273 373.532727 
L 85.399241 363.679047 
L 93.011208 366.119347 
L 100.623176 365.690789 
L 108.235144 366.717118 
L 115.847112 366.66253 
L 123.459079 367.342838 
L 131.071047 367.302472 
L 138.683015 367.889019 
L 146.294983 367.70541 
L 153.906951 367.802976 
L 161.518918 367.027217 
L 169.130886 367.233692 
L 176.742854 366.863726 
L 184.354822 367.30727 
L 191.966789 367.225833 
L 199.578757 366.76529 
L 207.190725 366.744862 
L 214.802693 366.216041 
L 222.414661 366.152238 
L 230.026628 366.09698 
L 237.638596 367.20803 
L 245.250564 366.609717 
L 252.862532 368.047027 
L 260.474499 367.165174 
L 268.086467 367.423464 
L 275.698435 366.9137 
L 283.310403 366.899703 
L 290.922371 366.951233 
L 298.534338 366.396952 
L 306.146306 367.585589 
L 313.758274 366.308629 
L 321.370242 367.555959 
L 328.982209 366.62622 
L 336.594177 367.308454 
L 344.206145 367.046698 
L 351.818113 367.201053 
L 359.430081 367.583238 
L 367.042048 366.869319 
L 374.654016 367.668935 
L 382.265984 366.504402 
L 389.877952 367.109042 
L 397.489919 366.250287 
L 405.101887 366.494081 
L 412.713855 366.265004 
L 420.325823 366.162976 
L 427.937791 366.591442 
L 435.549758 366.127237 
L 443.161726 366.797642 
L 450.773694 366.240113 
L 458.385662 366.768955 
L 465.997629 366.468651 
L 473.609597 366.693983 
L 481.221565 366.734878 
L 488.833533 366.596253 
L 496.445501 366.878443 
L 504.057468 366.495751 
L 511.669436 366.850497 
L 519.281404 366.507946 
L 526.893372 366.823033 
L 534.505339 366.742603 
L 542.117307 366.900064 
L 549.729275 367.051535 
L 557.341243 366.950076 
L 564.953211 367.159273 
L 572.565178 366.883083 
L 580.177146 367.02672 
L 587.789114 366.754067 
L 595.401082 366.797827 
L 603.013049 366.663492 
L 610.625017 366.606376 
L 618.236985 366.637183 
L 625.848953 366.506207 
L 633.460921 366.640993 
L 641.072888 366.505973 
L 648.684856 366.65658 
L 656.296824 366.588177 
L 663.908792 366.678908 
L 671.520759 366.706698 
L 679.132727 366.708305 
" clip-path="url(#pdd900b9b08)" style="fill: none; stroke: #bcbd22; stroke-width: 1.5; stroke-linecap: square"/>
   </g>
   <g id="line2d_42">
    <path d="M 77.787273 373.532727 
L 85.399241 373.532727 
L 93.011208 373.532727 
L 100.623176 373.532727 
L 108.235144 373.532727 
L 115.847112 373.532727 
L 123.459079 373.532727 
L 131.071047 373.532727 
L 138.683015 373.532727 
L 146.294983 373.532727 
L 153.906951 373.532727 
L 161.518918 373.532727 
L 169.130886 373.532727 
L 176.742854 373.532727 
L 184.354822 373.532727 
L 191.966789 373.532727 
L 199.578757 373.532727 
L 207.190725 373.532727 
L 214.802693 373.532727 
L 222.414661 373.532727 
L 230.026628 373.532727 
L 237.638596 373.532727 
L 245.250564 373.532727 
L 252.862532 373.532727 
L 260.474499 373.532727 
L 268.086467 373.532727 
L 275.698435 373.532727 
L 283.310403 373.532727 
L 290.922371 373.532727 
L 298.534338 373.532727 
L 306.146306 373.532727 
L 313.758274 373.532727 
L 321.370242 373.532727 
L 328.982209 373.532727 
L 336.594177 373.532727 
L 344.206145 373.532727 
L 351.818113 373.532727 
L 359.430081 373.532727 
L 367.042048 373.532727 
L 374.654016 373.532727 
L 382.265984 373.532727 
L 389.877952 373.532727 
L 397.489919 373.532727 
L 405.101887 373.532727 
L 412.713855 373.532727 
L 420.325823 373.532727 
L 427.937791 373.532727 
L 435.549758 373.532727 
L 443.161726 373.532727 
L 450.773694 373.532727 
L 458.385662 373.532727 
L 465.997629 373.532727 
L 473.609597 373.532727 
L 481.221565 373.532727 
L 488.833533 373.532727 
L 496.445501 373.532727 
L 504.057468 373.532727 
L 511.669436 373.532727 
L 519.281404 373.532727 
L 526.893372 373.532727 
L 534.505339 373.532727 
L 542.117307 373.532727 
L 549.729275 373.532727 
L 557.341243 373.532727 
L 564.953211 373.532727 
L 572.565178 373.532727 
L 580.177146 373.532727 
L 587.789114 373.532727 
L 595.401082 373.532727 
L 603.013049 373.532727 
L 610.625017 373.532727 
L 618.236985 373.532727 
L 625.848953 373.532727 
L 633.460921 373.532727 
L 641.072888 373.532727 
L 648.684856 373.532727 
L 656.296824 373.532727 
L 663.908792 373.532727 
L 671.520759 373.532727 
L 679.132727 373.532727 
" clip-path="url(#pdd900b9b08)" style="fill: none; stroke: #17becf; stroke-width: 1.5; stroke-linecap: square"/>
   </g>
   <g id="patch_3">
    <path d="M 47.72 390.04 
L 47.72 26.88 
" style="fill: none; stroke: #000000; stroke-width: 0.8; stroke-linejoin: miter; stroke-linecap: square"/>
   </g>
   <g id="patch_4">
    <path d="M 709.2 390.04 
L 709.2 26.88 
" style="fill: none; stroke: #000000; stroke-width: 0.8; stroke-linejoin: miter; stroke-linecap: square"/>
   </g>
   <g id="patch_5">
    <path d="M 47.72 390.04 
L 709.2 390.04 
" style="fill: none; stroke: #000000; stroke-width: 0.8; stroke-linejoin: miter; stroke-linecap: square"/>
   </g>
   <g id="patch_6">
    <path d="M 47.72 26.88 
L 709.2 26.88 
" style="fill: none; stroke: #000000; stroke-width: 0.8; stroke-linejoin: miter; stroke-linecap: square"/>
   </g>
   <g id="text_19">
    <!-- S(L/2) evolution for different p values (L=8, dt=1.0, Measurement direction: Z) -->
    <g transform="translate(141.671875 20.88) scale(0.12 -0.12)">
     <defs>
      <path id="DejaVuSans-53" d="M 3425 4513 
L 3425 3897 
Q 3066 4069 2747 4153 
Q 2428 4238 2131 4238 
Q 1616 4238 1336 4038 
Q 1056 3838 1056 3469 
Q 1056 3159 1242 3001 
Q 1428 2844 1947 2747 
L 2328 2669 
Q 3034 2534 3370 2195 
Q 3706 1856 3706 1288 
Q 3706 609 3251 259 
Q 2797 -91 1919 -91 
Q 1588 -91 1214 -16 
Q 841 59 441 206 
L 441 856 
Q 825 641 1194 531 
Q 1563 422 1919 422 
Q 2459 422 2753 634 
Q 3047 847 3047 1241 
Q 3047 1584 2836 1778 
Q 2625 1972 2144 2069 
L 1759 2144 
Q 1053 2284 737 2584 
Q 422 2884 422 3419 
Q 422 4038 858 4394 
Q 1294 4750 2059 4750 
Q 2388 4750 2728 4690 
Q 3069 4631 3425 4513 
z
" transform="scale(0.015625)"/>
      <path id="DejaVuSans-28" d="M 1984 4856 
Q 1566 4138 1362 3434 
Q 1159 2731 1159 2009 
Q 1159 1288 1364 580 
Q 1569 -128 1984 -844 
L 1484 -844 
Q 1016 -109 783 600 
Q 550 1309 550 2009 
Q 550 2706 781 3412 
Q 1013 4119 1484 4856 
L 1984 4856 
z
" transform="scale(0.015625)"/>
      <path id="DejaVuSans-4c" d="M 628 4666 
L 1259 4666 
L 1259 531 
L 3531 531 
L 3531 0 
L 628 0 
L 628 4666 
z
" transform="scale(0.015625)"/>
      <path id="DejaVuSans-2f" d="M 1625 4666 
L 2156 4666 
L 531 -594 
L 0 -594 
L 1625 4666 
z
" transform="scale(0.015625)"/>
      <path id="DejaVuSans-29" d="M 513 4856 
L 1013 4856 
Q 1481 4119 1714 3412 
Q 1947 2706 1947 2009 
Q 1947 1309 1714 600 
Q 1481 -109 1013 -844 
L 513 -844 
Q 928 -128 1133 580 
Q 1338 1288 1338 2009 
Q 1338 2731 1133 3434 
Q 928 4138 513 4856 
z
" transform="scale(0.015625)"/>
      <path id="DejaVuSans-76" d="M 191 3500 
L 800 3500 
L 1894 563 
L 2988 3500 
L 3597 3500 
L 2284 0 
L 1503 0 
L 191 3500 
z
" transform="scale(0.015625)"/>
      <path id="DejaVuSans-75" d="M 544 1381 
L 544 3500 
L 1119 3500 
L 1119 1403 
Q 1119 906 1312 657 
Q 1506 409 1894 409 
Q 2359 409 2629 706 
Q 2900 1003 2900 1516 
L 2900 3500 
L 3475 3500 
L 3475 0 
L 2900 0 
L 2900 538 
Q 2691 219 2414 64 
Q 2138 -91 1772 -91 
Q 1169 -91 856 284 
Q 544 659 544 1381 
z
M 1991 3584 
L 1991 3584 
z
" transform="scale(0.015625)"/>
      <path id="DejaVuSans-64" d="M 2906 2969 
L 2906 4863 
L 3481 4863 
L 3481 0 
L 2906 0 
L 2906 525 
Q 2725 213 2448 61 
Q 2172 -91 1784 -91 
Q 1150 -91 751 415 
Q 353 922 353 1747 
Q 353 2572 751 3078 
Q 1150 3584 1784 3584 
Q 2172 3584 2448 3432 
Q 2725 3281 2906 2969 
z
M 947 1747 
Q 947 1113 1208 752 
Q 1469 391 1925 391 
Q 2381 391 2643 752 
Q 2906 1113 2906 1747 
Q 2906 2381 2643 2742 
Q 2381 3103 1925 3103 
Q 1469 3103 1208 2742 
Q 947 2381 947 1747 
z
" transform="scale(0.015625)"/>
      <path id="DejaVuSans-73" d="M 2834 3397 
L 2834 2853 
Q 2591 2978 2328 3040 
Q 2066 3103 1784 3103 
Q 1356 3103 1142 2972 
Q 928 2841 928 2578 
Q 928 2378 1081 2264 
Q 1234 2150 1697 2047 
L 1894 2003 
Q 2506 1872 2764 1633 
Q 3022 1394 3022 966 
Q 3022 478 2636 193 
Q 2250 -91 1575 -91 
Q 1294 -91 989 -36 
Q 684 19 347 128 
L 347 722 
Q 666 556 975 473 
Q 1284 391 1588 391 
Q 1994 391 2212 530 
Q 2431 669 2431 922 
Q 2431 1156 2273 1281 
Q 2116 1406 1581 1522 
L 1381 1569 
Q 847 1681 609 1914 
Q 372 2147 372 2553 
Q 372 3047 722 3315 
Q 1072 3584 1716 3584 
Q 2034 3584 2315 3537 
Q 2597 3491 2834 3397 
z
" transform="scale(0.015625)"/>
      <path id="DejaVuSans-3d" d="M 678 2906 
L 4684 2906 
L 4684 2381 
L 678 2381 
L 678 2906 
z
M 678 1631 
L 4684 1631 
L 4684 1100 
L 678 1100 
L 678 1631 
z
" transform="scale(0.015625)"/>
      <path id="DejaVuSans-2c" d="M 750 794 
L 1409 794 
L 1409 256 
L 897 -744 
L 494 -744 
L 750 256 
L 750 794 
z
" transform="scale(0.015625)"/>
      <path id="DejaVuSans-4d" d="M 628 4666 
L 1569 4666 
L 2759 1491 
L 3956 4666 
L 4897 4666 
L 4897 0 
L 4281 0 
L 4281 4097 
L 3078 897 
L 2444 897 
L 1241 4097 
L 1241 0 
L 628 0 
L 628 4666 
z
" transform="scale(0.015625)"/>
      <path id="DejaVuSans-3a" d="M 750 794 
L 1409 794 
L 1409 0 
L 750 0 
L 750 794 
z
M 750 3309 
L 1409 3309 
L 1409 2516 
L 750 2516 
L 750 3309 
z
" transform="scale(0.015625)"/>
      <path id="DejaVuSans-5a" d="M 359 4666 
L 4025 4666 
L 4025 4184 
L 1075 531 
L 4097 531 
L 4097 0 
L 288 0 
L 288 481 
L 3238 4134 
L 359 4134 
L 359 4666 
z
" transform="scale(0.015625)"/>
     </defs>
     <use xlink:href="#DejaVuSans-53"/>
     <use xlink:href="#DejaVuSans-28" transform="translate(63.476562 0)"/>
     <use xlink:href="#DejaVuSans-4c" transform="translate(102.490234 0)"/>
     <use xlink:href="#DejaVuSans-2f" transform="translate(158.203125 0)"/>
     <use xlink:href="#DejaVuSans-32" transform="translate(191.894531 0)"/>
     <use xlink:href="#DejaVuSans-29" transform="translate(255.517578 0)"/>
     <use xlink:href="#DejaVuSans-20" transform="translate(294.53125 0)"/>
     <use xlink:href="#DejaVuSans-65" transform="translate(326.318359 0)"/>
     <use xlink:href="#DejaVuSans-76" transform="translate(387.841797 0)"/>
     <use xlink:href="#DejaVuSans-6f" transform="translate(447.021484 0)"/>
     <use xlink:href="#DejaVuSans-6c" transform="translate(508.203125 0)"/>
     <use xlink:href="#DejaVuSans-75" transform="translate(535.986328 0)"/>
     <use xlink:href="#DejaVuSans-74" transform="translate(599.365234 0)"/>
     <use xlink:href="#DejaVuSans-69" transform="translate(638.574219 0)"/>
     <use xlink:href="#DejaVuSans-6f" transform="translate(666.357422 0)"/>
     <use xlink:href="#DejaVuSans-6e" transform="translate(727.539062 0)"/>
     <use xlink:href="#DejaVuSans-20" transform="translate(790.917969 0)"/>
     <use xlink:href="#DejaVuSans-66" transform="translate(822.705078 0)"/>
     <use xlink:href="#DejaVuSans-6f" transform="translate(857.910156 0)"/>
     <use xlink:href="#DejaVuSans-72" transform="translate(919.091797 0)"/>
     <use xlink:href="#DejaVuSans-20" transform="translate(960.205078 0)"/>
     <use xlink:href="#DejaVuSans-64" transform="translate(991.992188 0)"/>
     <use xlink:href="#DejaVuSans-69" transform="translate(1055.46875 0)"/>
     <use xlink:href="#DejaVuSans-66" transform="translate(1083.251953 0)"/>
     <use xlink:href="#DejaVuSans-66" transform="translate(1118.457031 0)"/>
     <use xlink:href="#DejaVuSans-65" transform="translate(1153.662109 0)"/>
     <use xlink:href="#DejaVuSans-72" transform="translate(1215.185547 0)"/>
     <use xlink:href="#DejaVuSans-65" transform="translate(1254.048828 0)"/>
     <use xlink:href="#DejaVuSans-6e" transform="translate(1315.572266 0)"/>
     <use xlink:href="#DejaVuSans-74" transform="translate(1378.951172 0)"/>
     <use xlink:href="#DejaVuSans-20" transform="translate(1418.160156 0)"/>
     <use xlink:href="#DejaVuSans-70" transform="translate(1449.947266 0)"/>
     <use xlink:href="#DejaVuSans-20" transform="translate(1513.423828 0)"/>
     <use xlink:href="#DejaVuSans-76" transform="translate(1545.210938 0)"/>
     <use xlink:href="#DejaVuSans-61" transform="translate(1604.390625 0)"/>
     <use xlink:href="#DejaVuSans-6c" transform="translate(1665.669922 0)"/>
     <use xlink:href="#DejaVuSans-75" transform="translate(1693.453125 0)"/>
     <use xlink:href="#DejaVuSans-65" transform="translate(1756.832031 0)"/>
     <use xlink:href="#DejaVuSans-73" transform="translate(1818.355469 0)"/>
     <use xlink:href="#DejaVuSans-20" transform="translate(1870.455078 0)"/>
     <use xlink:href="#DejaVuSans-28" transform="translate(1902.242188 0)"/>
     <use xlink:href="#DejaVuSans-4c" transform="translate(1941.255859 0)"/>
     <use xlink:href="#DejaVuSans-3d" transform="translate(1996.96875 0)"/>
     <use xlink:href="#DejaVuSans-38" transform="translate(2080.757812 0)"/>
     <use xlink:href="#DejaVuSans-2c" transform="translate(2144.380859 0)"/>
     <use xlink:href="#DejaVuSans-20" transform="translate(2176.167969 0)"/>
     <use xlink:href="#DejaVuSans-64" transform="translate(2207.955078 0)"/>
     <use xlink:href="#DejaVuSans-74" transform="translate(2271.431641 0)"/>
     <use xlink:href="#DejaVuSans-3d" transform="translate(2310.640625 0)"/>
     <use xlink:href="#DejaVuSans-31" transform="translate(2394.429688 0)"/>
     <use xlink:href="#DejaVuSans-2e" transform="translate(2458.052734 0)"/>
     <use xlink:href="#DejaVuSans-30" transform="translate(2489.839844 0)"/>
     <use xlink:href="#DejaVuSans-2c" transform="translate(2553.462891 0)"/>
     <use xlink:href="#DejaVuSans-20" transform="translate(2585.25 0)"/>
     <use xlink:href="#DejaVuSans-4d" transform="translate(2617.037109 0)"/>
     <use xlink:href="#DejaVuSans-65" transform="translate(2703.316406 0)"/>
     <use xlink:href="#DejaVuSans-61" transform="translate(2764.839844 0)"/>
     <use xlink:href="#DejaVuSans-73" transform="translate(2826.119141 0)"/>
     <use xlink:href="#DejaVuSans-75" transform="translate(2878.21875 0)"/>
     <use xlink:href="#DejaVuSans-72" transform="translate(2941.597656 0)"/>
     <use xlink:href="#DejaVuSans-65" transform="translate(2980.460938 0)"/>
     <use xlink:href="#DejaVuSans-6d" transform="translate(3041.984375 0)"/>
     <use xlink:href="#DejaVuSans-65" transform="translate(3139.396484 0)"/>
     <use xlink:href="#DejaVuSans-6e" transform="translate(3200.919922 0)"/>
     <use xlink:href="#DejaVuSans-74" transform="translate(3264.298828 0)"/>
     <use xlink:href="#DejaVuSans-20" transform="translate(3303.507812 0)"/>
     <use xlink:href="#DejaVuSans-64" transform="translate(3335.294922 0)"/>
     <use xlink:href="#DejaVuSans-69" transform="translate(3398.771484 0)"/>
     <use xlink:href="#DejaVuSans-72" transform="translate(3426.554688 0)"/>
     <use xlink:href="#DejaVuSans-65" transform="translate(3465.417969 0)"/>
     <use xlink:href="#DejaVuSans-63" transform="translate(3526.941406 0)"/>
     <use xlink:href="#DejaVuSans-74" transform="translate(3581.921875 0)"/>
     <use xlink:href="#DejaVuSans-69" transform="translate(3621.130859 0)"/>
     <use xlink:href="#DejaVuSans-6f" transform="translate(3648.914062 0)"/>
     <use xlink:href="#DejaVuSans-6e" transform="translate(3710.095703 0)"/>
     <use xlink:href="#DejaVuSans-3a" transform="translate(3773.474609 0)"/>
     <use xlink:href="#DejaVuSans-20" transform="translate(3807.166016 0)"/>
     <use xlink:href="#DejaVuSans-5a" transform="translate(3838.953125 0)"/>
     <use xlink:href="#DejaVuSans-29" transform="translate(3907.458984 0)"/>
    </g>
   </g>
   <g id="legend_1">
    <g id="patch_7">
     <path d="M 54.72 385.04 
L 117.35125 385.04 
Q 119.35125 385.04 119.35125 383.04 
L 119.35125 237.25875 
Q 119.35125 235.25875 117.35125 235.25875 
L 54.72 235.25875 
Q 52.72 235.25875 52.72 237.25875 
L 52.72 383.04 
Q 52.72 385.04 54.72 385.04 
z
" style="fill: #ffffff; opacity: 0.8; stroke: #cccccc; stroke-linejoin: miter"/>
    </g>
    <g id="line2d_43">
     <path d="M 56.72 243.357188 
L 66.72 243.357188 
L 76.72 243.357188 
" style="fill: none; stroke: #1f77b4; stroke-width: 1.5; stroke-linecap: square"/>
    </g>
    <g id="text_20">
     <!-- p=0.1 -->
     <g transform="translate(84.72 246.857188) scale(0.1 -0.1)">
      <use xlink:href="#DejaVuSans-70"/>
      <use xlink:href="#DejaVuSans-3d" transform="translate(63.476562 0)"/>
      <use xlink:href="#DejaVuSans-30" transform="translate(147.265625 0)"/>
      <use xlink:href="#DejaVuSans-2e" transform="translate(210.888672 0)"/>
      <use xlink:href="#DejaVuSans-31" transform="translate(242.675781 0)"/>
     </g>
    </g>
    <g id="line2d_44">
     <path d="M 56.72 258.035313 
L 66.72 258.035313 
L 76.72 258.035313 
" style="fill: none; stroke: #ff7f0e; stroke-width: 1.5; stroke-linecap: square"/>
    </g>
    <g id="text_21">
     <!-- p=0.2 -->
     <g transform="translate(84.72 261.535313) scale(0.1 -0.1)">
      <use xlink:href="#DejaVuSans-70"/>
      <use xlink:href="#DejaVuSans-3d" transform="translate(63.476562 0)"/>
      <use xlink:href="#DejaVuSans-30" transform="translate(147.265625 0)"/>
      <use xlink:href="#DejaVuSans-2e" transform="translate(210.888672 0)"/>
      <use xlink:href="#DejaVuSans-32" transform="translate(242.675781 0)"/>
     </g>
    </g>
    <g id="line2d_45">
     <path d="M 56.72 272.713438 
L 66.72 272.713438 
L 76.72 272.713438 
" style="fill: none; stroke: #2ca02c; stroke-width: 1.5; stroke-linecap: square"/>
    </g>
    <g id="text_22">
     <!-- p=0.3 -->
     <g transform="translate(84.72 276.213438) scale(0.1 -0.1)">
      <use xlink:href="#DejaVuSans-70"/>
      <use xlink:href="#DejaVuSans-3d" transform="translate(63.476562 0)"/>
      <use xlink:href="#DejaVuSans-30" transform="translate(147.265625 0)"/>
      <use xlink:href="#DejaVuSans-2e" transform="translate(210.888672 0)"/>
      <use xlink:href="#DejaVuSans-33" transform="translate(242.675781 0)"/>
     </g>
    </g>
    <g id="line2d_46">
     <path d="M 56.72 287.391563 
L 66.72 287.391563 
L 76.72 287.391563 
" style="fill: none; stroke: #d62728; stroke-width: 1.5; stroke-linecap: square"/>
    </g>
    <g id="text_23">
     <!-- p=0.4 -->
     <g transform="translate(84.72 290.891563) scale(0.1 -0.1)">
      <use xlink:href="#DejaVuSans-70"/>
      <use xlink:href="#DejaVuSans-3d" transform="translate(63.476562 0)"/>
      <use xlink:href="#DejaVuSans-30" transform="translate(147.265625 0)"/>
      <use xlink:href="#DejaVuSans-2e" transform="translate(210.888672 0)"/>
      <use xlink:href="#DejaVuSans-34" transform="translate(242.675781 0)"/>
     </g>
    </g>
    <g id="line2d_47">
     <path d="M 56.72 302.069688 
L 66.72 302.069688 
L 76.72 302.069688 
" style="fill: none; stroke: #9467bd; stroke-width: 1.5; stroke-linecap: square"/>
    </g>
    <g id="text_24">
     <!-- p=0.5 -->
     <g transform="translate(84.72 305.569688) scale(0.1 -0.1)">
      <use xlink:href="#DejaVuSans-70"/>
      <use xlink:href="#DejaVuSans-3d" transform="translate(63.476562 0)"/>
      <use xlink:href="#DejaVuSans-30" transform="translate(147.265625 0)"/>
      <use xlink:href="#DejaVuSans-2e" transform="translate(210.888672 0)"/>
      <use xlink:href="#DejaVuSans-35" transform="translate(242.675781 0)"/>
     </g>
    </g>
    <g id="line2d_48">
     <path d="M 56.72 316.747813 
L 66.72 316.747813 
L 76.72 316.747813 
" style="fill: none; stroke: #8c564b; stroke-width: 1.5; stroke-linecap: square"/>
    </g>
    <g id="text_25">
     <!-- p=0.6 -->
     <g transform="translate(84.72 320.247813) scale(0.1 -0.1)">
      <use xlink:href="#DejaVuSans-70"/>
      <use xlink:href="#DejaVuSans-3d" transform="translate(63.476562 0)"/>
      <use xlink:href="#DejaVuSans-30" transform="translate(147.265625 0)"/>
      <use xlink:href="#DejaVuSans-2e" transform="translate(210.888672 0)"/>
      <use xlink:href="#DejaVuSans-36" transform="translate(242.675781 0)"/>
     </g>
    </g>
    <g id="line2d_49">
     <path d="M 56.72 331.425938 
L 66.72 331.425938 
L 76.72 331.425938 
" style="fill: none; stroke: #e377c2; stroke-width: 1.5; stroke-linecap: square"/>
    </g>
    <g id="text_26">
     <!-- p=0.7 -->
     <g transform="translate(84.72 334.925938) scale(0.1 -0.1)">
      <use xlink:href="#DejaVuSans-70"/>
      <use xlink:href="#DejaVuSans-3d" transform="translate(63.476562 0)"/>
      <use xlink:href="#DejaVuSans-30" transform="translate(147.265625 0)"/>
      <use xlink:href="#DejaVuSans-2e" transform="translate(210.888672 0)"/>
      <use xlink:href="#DejaVuSans-37" transform="translate(242.675781 0)"/>
     </g>
    </g>
    <g id="line2d_50">
     <path d="M 56.72 346.104062 
L 66.72 346.104062 
L 76.72 346.104062 
" style="fill: none; stroke: #7f7f7f; stroke-width: 1.5; stroke-linecap: square"/>
    </g>
    <g id="text_27">
     <!-- p=0.8 -->
     <g transform="translate(84.72 349.604062) scale(0.1 -0.1)">
      <use xlink:href="#DejaVuSans-70"/>
      <use xlink:href="#DejaVuSans-3d" transform="translate(63.476562 0)"/>
      <use xlink:href="#DejaVuSans-30" transform="translate(147.265625 0)"/>
      <use xlink:href="#DejaVuSans-2e" transform="translate(210.888672 0)"/>
      <use xlink:href="#DejaVuSans-38" transform="translate(242.675781 0)"/>
     </g>
    </g>
    <g id="line2d_51">
     <path d="M 56.72 360.782188 
L 66.72 360.782188 
L 76.72 360.782188 
" style="fill: none; stroke: #bcbd22; stroke-width: 1.5; stroke-linecap: square"/>
    </g>
    <g id="text_28">
     <!-- p=0.9 -->
     <g transform="translate(84.72 364.282188) scale(0.1 -0.1)">
      <defs>
       <path id="DejaVuSans-39" d="M 703 97 
L 703 672 
Q 941 559 1184 500 
Q 1428 441 1663 441 
Q 2288 441 2617 861 
Q 2947 1281 2994 2138 
Q 2813 1869 2534 1725 
Q 2256 1581 1919 1581 
Q 1219 1581 811 2004 
Q 403 2428 403 3163 
Q 403 3881 828 4315 
Q 1253 4750 1959 4750 
Q 2769 4750 3195 4129 
Q 3622 3509 3622 2328 
Q 3622 1225 3098 567 
Q 2575 -91 1691 -91 
Q 1453 -91 1209 -44 
Q 966 3 703 97 
z
M 1959 2075 
Q 2384 2075 2632 2365 
Q 2881 2656 2881 3163 
Q 2881 3666 2632 3958 
Q 2384 4250 1959 4250 
Q 1534 4250 1286 3958 
Q 1038 3666 1038 3163 
Q 1038 2656 1286 2365 
Q 1534 2075 1959 2075 
z
" transform="scale(0.015625)"/>
      </defs>
      <use xlink:href="#DejaVuSans-70"/>
      <use xlink:href="#DejaVuSans-3d" transform="translate(63.476562 0)"/>
      <use xlink:href="#DejaVuSans-30" transform="translate(147.265625 0)"/>
      <use xlink:href="#DejaVuSans-2e" transform="translate(210.888672 0)"/>
      <use xlink:href="#DejaVuSans-39" transform="translate(242.675781 0)"/>
     </g>
    </g>
    <g id="line2d_52">
     <path d="M 56.72 375.460312 
L 66.72 375.460312 
L 76.72 375.460312 
" style="fill: none; stroke: #17becf; stroke-width: 1.5; stroke-linecap: square"/>
    </g>
    <g id="text_29">
     <!-- p=1.0 -->
     <g transform="translate(84.72 378.960312) scale(0.1 -0.1)">
      <use xlink:href="#DejaVuSans-70"/>
      <use xlink:href="#DejaVuSans-3d" transform="translate(63.476562 0)"/>
      <use xlink:href="#DejaVuSans-31" transform="translate(147.265625 0)"/>
      <use xlink:href="#DejaVuSans-2e" transform="translate(210.888672 0)"/>
      <use xlink:href="#DejaVuSans-30" transform="translate(242.675781 0)"/>
     </g>
    </g>
   </g>
  </g>
 </g>
 <defs>
  <clipPath id="pdd900b9b08">
   <rect x="47.72" y="26.88" width="661.48" height="363.16"/>
  </clipPath>
 </defs>
</svg>
