<?xml version="1.0" encoding="utf-8" standalone="no"?>
<!DOCTYPE svg PUBLIC "-//W3C//DTD SVG 1.1//EN"
  "http://www.w3.org/Graphics/SVG/1.1/DTD/svg11.dtd">
<svg xmlns:xlink="http://www.w3.org/1999/xlink" width="720pt" height="432pt" viewBox="0 0 720 432" xmlns="http://www.w3.org/2000/svg" version="1.1">
 <metadata>
  <rdf:RDF xmlns:dc="http://purl.org/dc/elements/1.1/" xmlns:cc="http://creativecommons.org/ns#" xmlns:rdf="http://www.w3.org/1999/02/22-rdf-syntax-ns#">
   <cc:Work>
    <dc:type rdf:resource="http://purl.org/dc/dcmitype/StillImage"/>
    <dc:date>2025-08-25T13:18:21.759021</dc:date>
    <dc:format>image/svg+xml</dc:format>
    <dc:creator>
     <cc:Agent>
      <dc:title>Matplotlib v3.10.3, https://matplotlib.org/</dc:title>
     </cc:Agent>
    </dc:creator>
   </cc:Work>
  </rdf:RDF>
 </metadata>
 <defs>
  <style type="text/css">*{stroke-linejoin: round; stroke-linecap: butt}</style>
 </defs>
 <g id="figure_1">
  <g id="patch_1">
   <path d="M 0 432 
L 720 432 
L 720 0 
L 0 0 
z
" style="fill: #ffffff"/>
  </g>
  <g id="axes_1">
   <g id="patch_2">
    <path d="M 47.72 390.04 
L 709.2 390.04 
L 709.2 26.88 
L 47.72 26.88 
z
" style="fill: #ffffff"/>
   </g>
   <g id="matplotlib.axis_1">
    <g id="xtick_1">
     <g id="line2d_1">
      <path d="M 77.787273 390.04 
L 77.787273 26.88 
" clip-path="url(#pcd58781fd6)" style="fill: none; stroke: #b0b0b0; stroke-width: 0.8; stroke-linecap: square"/>
     </g>
     <g id="line2d_2">
      <defs>
       <path id="m6fd7b2bf87" d="M 0 0 
L 0 3.5 
" style="stroke: #000000; stroke-width: 0.8"/>
      </defs>
      <g>
       <use xlink:href="#m6fd7b2bf87" x="77.787273" y="390.04" style="stroke: #000000; stroke-width: 0.8"/>
      </g>
     </g>
     <g id="text_1">
      <!-- 0 -->
      <g transform="translate(74.606023 404.638438) scale(0.1 -0.1)">
       <defs>
        <path id="DejaVuSans-30" d="M 2034 4250 
Q 1547 4250 1301 3770 
Q 1056 3291 1056 2328 
Q 1056 1369 1301 889 
Q 1547 409 2034 409 
Q 2525 409 2770 889 
Q 3016 1369 3016 2328 
Q 3016 3291 2770 3770 
Q 2525 4250 2034 4250 
z
M 2034 4750 
Q 2819 4750 3233 4129 
Q 3647 3509 3647 2328 
Q 3647 1150 3233 529 
Q 2819 -91 2034 -91 
Q 1250 -91 836 529 
Q 422 1150 422 2328 
Q 422 3509 836 4129 
Q 1250 4750 2034 4750 
z
" transform="scale(0.015625)"/>
       </defs>
       <use xlink:href="#DejaVuSans-30"/>
      </g>
     </g>
    </g>
    <g id="xtick_2">
     <g id="line2d_3">
      <path d="M 204.386316 390.04 
L 204.386316 26.88 
" clip-path="url(#pcd58781fd6)" style="fill: none; stroke: #b0b0b0; stroke-width: 0.8; stroke-linecap: square"/>
     </g>
     <g id="line2d_4">
      <g>
       <use xlink:href="#m6fd7b2bf87" x="204.386316" y="390.04" style="stroke: #000000; stroke-width: 0.8"/>
      </g>
     </g>
     <g id="text_2">
      <!-- 20 -->
      <g transform="translate(198.023816 404.638438) scale(0.1 -0.1)">
       <defs>
        <path id="DejaVuSans-32" d="M 1228 531 
L 3431 531 
L 3431 0 
L 469 0 
L 469 531 
Q 828 903 1448 1529 
Q 2069 2156 2228 2338 
Q 2531 2678 2651 2914 
Q 2772 3150 2772 3378 
Q 2772 3750 2511 3984 
Q 2250 4219 1831 4219 
Q 1534 4219 1204 4116 
Q 875 4013 500 3803 
L 500 4441 
Q 881 4594 1212 4672 
Q 1544 4750 1819 4750 
Q 2544 4750 2975 4387 
Q 3406 4025 3406 3419 
Q 3406 3131 3298 2873 
Q 3191 2616 2906 2266 
Q 2828 2175 2409 1742 
Q 1991 1309 1228 531 
z
" transform="scale(0.015625)"/>
       </defs>
       <use xlink:href="#DejaVuSans-32"/>
       <use xlink:href="#DejaVuSans-30" transform="translate(63.623047 0)"/>
      </g>
     </g>
    </g>
    <g id="xtick_3">
     <g id="line2d_5">
      <path d="M 330.985359 390.04 
L 330.985359 26.88 
" clip-path="url(#pcd58781fd6)" style="fill: none; stroke: #b0b0b0; stroke-width: 0.8; stroke-linecap: square"/>
     </g>
     <g id="line2d_6">
      <g>
       <use xlink:href="#m6fd7b2bf87" x="330.985359" y="390.04" style="stroke: #000000; stroke-width: 0.8"/>
      </g>
     </g>
     <g id="text_3">
      <!-- 40 -->
      <g transform="translate(324.622859 404.638438) scale(0.1 -0.1)">
       <defs>
        <path id="DejaVuSans-34" d="M 2419 4116 
L 825 1625 
L 2419 1625 
L 2419 4116 
z
M 2253 4666 
L 3047 4666 
L 3047 1625 
L 3713 1625 
L 3713 1100 
L 3047 1100 
L 3047 0 
L 2419 0 
L 2419 1100 
L 313 1100 
L 313 1709 
L 2253 4666 
z
" transform="scale(0.015625)"/>
       </defs>
       <use xlink:href="#DejaVuSans-34"/>
       <use xlink:href="#DejaVuSans-30" transform="translate(63.623047 0)"/>
      </g>
     </g>
    </g>
    <g id="xtick_4">
     <g id="line2d_7">
      <path d="M 457.584402 390.04 
L 457.584402 26.88 
" clip-path="url(#pcd58781fd6)" style="fill: none; stroke: #b0b0b0; stroke-width: 0.8; stroke-linecap: square"/>
     </g>
     <g id="line2d_8">
      <g>
       <use xlink:href="#m6fd7b2bf87" x="457.584402" y="390.04" style="stroke: #000000; stroke-width: 0.8"/>
      </g>
     </g>
     <g id="text_4">
      <!-- 60 -->
      <g transform="translate(451.221902 404.638438) scale(0.1 -0.1)">
       <defs>
        <path id="DejaVuSans-36" d="M 2113 2584 
Q 1688 2584 1439 2293 
Q 1191 2003 1191 1497 
Q 1191 994 1439 701 
Q 1688 409 2113 409 
Q 2538 409 2786 701 
Q 3034 994 3034 1497 
Q 3034 2003 2786 2293 
Q 2538 2584 2113 2584 
z
M 3366 4563 
L 3366 3988 
Q 3128 4100 2886 4159 
Q 2644 4219 2406 4219 
Q 1781 4219 1451 3797 
Q 1122 3375 1075 2522 
Q 1259 2794 1537 2939 
Q 1816 3084 2150 3084 
Q 2853 3084 3261 2657 
Q 3669 2231 3669 1497 
Q 3669 778 3244 343 
Q 2819 -91 2113 -91 
Q 1303 -91 875 529 
Q 447 1150 447 2328 
Q 447 3434 972 4092 
Q 1497 4750 2381 4750 
Q 2619 4750 2861 4703 
Q 3103 4656 3366 4563 
z
" transform="scale(0.015625)"/>
       </defs>
       <use xlink:href="#DejaVuSans-36"/>
       <use xlink:href="#DejaVuSans-30" transform="translate(63.623047 0)"/>
      </g>
     </g>
    </g>
    <g id="xtick_5">
     <g id="line2d_9">
      <path d="M 584.183445 390.04 
L 584.183445 26.88 
" clip-path="url(#pcd58781fd6)" style="fill: none; stroke: #b0b0b0; stroke-width: 0.8; stroke-linecap: square"/>
     </g>
     <g id="line2d_10">
      <g>
       <use xlink:href="#m6fd7b2bf87" x="584.183445" y="390.04" style="stroke: #000000; stroke-width: 0.8"/>
      </g>
     </g>
     <g id="text_5">
      <!-- 80 -->
      <g transform="translate(577.820945 404.638438) scale(0.1 -0.1)">
       <defs>
        <path id="DejaVuSans-38" d="M 2034 2216 
Q 1584 2216 1326 1975 
Q 1069 1734 1069 1313 
Q 1069 891 1326 650 
Q 1584 409 2034 409 
Q 2484 409 2743 651 
Q 3003 894 3003 1313 
Q 3003 1734 2745 1975 
Q 2488 2216 2034 2216 
z
M 1403 2484 
Q 997 2584 770 2862 
Q 544 3141 544 3541 
Q 544 4100 942 4425 
Q 1341 4750 2034 4750 
Q 2731 4750 3128 4425 
Q 3525 4100 3525 3541 
Q 3525 3141 3298 2862 
Q 3072 2584 2669 2484 
Q 3125 2378 3379 2068 
Q 3634 1759 3634 1313 
Q 3634 634 3220 271 
Q 2806 -91 2034 -91 
Q 1263 -91 848 271 
Q 434 634 434 1313 
Q 434 1759 690 2068 
Q 947 2378 1403 2484 
z
M 1172 3481 
Q 1172 3119 1398 2916 
Q 1625 2713 2034 2713 
Q 2441 2713 2670 2916 
Q 2900 3119 2900 3481 
Q 2900 3844 2670 4047 
Q 2441 4250 2034 4250 
Q 1625 4250 1398 4047 
Q 1172 3844 1172 3481 
z
" transform="scale(0.015625)"/>
       </defs>
       <use xlink:href="#DejaVuSans-38"/>
       <use xlink:href="#DejaVuSans-30" transform="translate(63.623047 0)"/>
      </g>
     </g>
    </g>
    <g id="text_6">
     <!-- Time -->
     <g transform="translate(366.226406 418.316562) scale(0.1 -0.1)">
      <defs>
       <path id="DejaVuSans-54" d="M -19 4666 
L 3928 4666 
L 3928 4134 
L 2272 4134 
L 2272 0 
L 1638 0 
L 1638 4134 
L -19 4134 
L -19 4666 
z
" transform="scale(0.015625)"/>
       <path id="DejaVuSans-69" d="M 603 3500 
L 1178 3500 
L 1178 0 
L 603 0 
L 603 3500 
z
M 603 4863 
L 1178 4863 
L 1178 4134 
L 603 4134 
L 603 4863 
z
" transform="scale(0.015625)"/>
       <path id="DejaVuSans-6d" d="M 3328 2828 
Q 3544 3216 3844 3400 
Q 4144 3584 4550 3584 
Q 5097 3584 5394 3201 
Q 5691 2819 5691 2113 
L 5691 0 
L 5113 0 
L 5113 2094 
Q 5113 2597 4934 2840 
Q 4756 3084 4391 3084 
Q 3944 3084 3684 2787 
Q 3425 2491 3425 1978 
L 3425 0 
L 2847 0 
L 2847 2094 
Q 2847 2600 2669 2842 
Q 2491 3084 2119 3084 
Q 1678 3084 1418 2786 
Q 1159 2488 1159 1978 
L 1159 0 
L 581 0 
L 581 3500 
L 1159 3500 
L 1159 2956 
Q 1356 3278 1631 3431 
Q 1906 3584 2284 3584 
Q 2666 3584 2933 3390 
Q 3200 3197 3328 2828 
z
" transform="scale(0.015625)"/>
       <path id="DejaVuSans-65" d="M 3597 1894 
L 3597 1613 
L 953 1613 
Q 991 1019 1311 708 
Q 1631 397 2203 397 
Q 2534 397 2845 478 
Q 3156 559 3463 722 
L 3463 178 
Q 3153 47 2828 -22 
Q 2503 -91 2169 -91 
Q 1331 -91 842 396 
Q 353 884 353 1716 
Q 353 2575 817 3079 
Q 1281 3584 2069 3584 
Q 2775 3584 3186 3129 
Q 3597 2675 3597 1894 
z
M 3022 2063 
Q 3016 2534 2758 2815 
Q 2500 3097 2075 3097 
Q 1594 3097 1305 2825 
Q 1016 2553 972 2059 
L 3022 2063 
z
" transform="scale(0.015625)"/>
      </defs>
      <use xlink:href="#DejaVuSans-54"/>
      <use xlink:href="#DejaVuSans-69" transform="translate(57.958984 0)"/>
      <use xlink:href="#DejaVuSans-6d" transform="translate(85.742188 0)"/>
      <use xlink:href="#DejaVuSans-65" transform="translate(183.154297 0)"/>
     </g>
    </g>
   </g>
   <g id="matplotlib.axis_2">
    <g id="ytick_1">
     <g id="line2d_11">
      <path d="M 47.72 373.532727 
L 709.2 373.532727 
" clip-path="url(#pcd58781fd6)" style="fill: none; stroke: #b0b0b0; stroke-width: 0.8; stroke-linecap: square"/>
     </g>
     <g id="line2d_12">
      <defs>
       <path id="m2f8ba3d7f9" d="M 0 0 
L -3.5 0 
" style="stroke: #000000; stroke-width: 0.8"/>
      </defs>
      <g>
       <use xlink:href="#m2f8ba3d7f9" x="47.72" y="373.532727" style="stroke: #000000; stroke-width: 0.8"/>
      </g>
     </g>
     <g id="text_7">
      <!-- 0.0 -->
      <g transform="translate(24.816875 377.331946) scale(0.1 -0.1)">
       <defs>
        <path id="DejaVuSans-2e" d="M 684 794 
L 1344 794 
L 1344 0 
L 684 0 
L 684 794 
z
" transform="scale(0.015625)"/>
       </defs>
       <use xlink:href="#DejaVuSans-30"/>
       <use xlink:href="#DejaVuSans-2e" transform="translate(63.623047 0)"/>
       <use xlink:href="#DejaVuSans-30" transform="translate(95.410156 0)"/>
      </g>
     </g>
    </g>
    <g id="ytick_2">
     <g id="line2d_13">
      <path d="M 47.72 322.662529 
L 709.2 322.662529 
" clip-path="url(#pcd58781fd6)" style="fill: none; stroke: #b0b0b0; stroke-width: 0.8; stroke-linecap: square"/>
     </g>
     <g id="line2d_14">
      <g>
       <use xlink:href="#m2f8ba3d7f9" x="47.72" y="322.662529" style="stroke: #000000; stroke-width: 0.8"/>
      </g>
     </g>
     <g id="text_8">
      <!-- 0.5 -->
      <g transform="translate(24.816875 326.461748) scale(0.1 -0.1)">
       <defs>
        <path id="DejaVuSans-35" d="M 691 4666 
L 3169 4666 
L 3169 4134 
L 1269 4134 
L 1269 2991 
Q 1406 3038 1543 3061 
Q 1681 3084 1819 3084 
Q 2600 3084 3056 2656 
Q 3513 2228 3513 1497 
Q 3513 744 3044 326 
Q 2575 -91 1722 -91 
Q 1428 -91 1123 -41 
Q 819 9 494 109 
L 494 744 
Q 775 591 1075 516 
Q 1375 441 1709 441 
Q 2250 441 2565 725 
Q 2881 1009 2881 1497 
Q 2881 1984 2565 2268 
Q 2250 2553 1709 2553 
Q 1456 2553 1204 2497 
Q 953 2441 691 2322 
L 691 4666 
z
" transform="scale(0.015625)"/>
       </defs>
       <use xlink:href="#DejaVuSans-30"/>
       <use xlink:href="#DejaVuSans-2e" transform="translate(63.623047 0)"/>
       <use xlink:href="#DejaVuSans-35" transform="translate(95.410156 0)"/>
      </g>
     </g>
    </g>
    <g id="ytick_3">
     <g id="line2d_15">
      <path d="M 47.72 271.792332 
L 709.2 271.792332 
" clip-path="url(#pcd58781fd6)" style="fill: none; stroke: #b0b0b0; stroke-width: 0.8; stroke-linecap: square"/>
     </g>
     <g id="line2d_16">
      <g>
       <use xlink:href="#m2f8ba3d7f9" x="47.72" y="271.792332" style="stroke: #000000; stroke-width: 0.8"/>
      </g>
     </g>
     <g id="text_9">
      <!-- 1.0 -->
      <g transform="translate(24.816875 275.59155) scale(0.1 -0.1)">
       <defs>
        <path id="DejaVuSans-31" d="M 794 531 
L 1825 531 
L 1825 4091 
L 703 3866 
L 703 4441 
L 1819 4666 
L 2450 4666 
L 2450 531 
L 3481 531 
L 3481 0 
L 794 0 
L 794 531 
z
" transform="scale(0.015625)"/>
       </defs>
       <use xlink:href="#DejaVuSans-31"/>
       <use xlink:href="#DejaVuSans-2e" transform="translate(63.623047 0)"/>
       <use xlink:href="#DejaVuSans-30" transform="translate(95.410156 0)"/>
      </g>
     </g>
    </g>
    <g id="ytick_4">
     <g id="line2d_17">
      <path d="M 47.72 220.922134 
L 709.2 220.922134 
" clip-path="url(#pcd58781fd6)" style="fill: none; stroke: #b0b0b0; stroke-width: 0.8; stroke-linecap: square"/>
     </g>
     <g id="line2d_18">
      <g>
       <use xlink:href="#m2f8ba3d7f9" x="47.72" y="220.922134" style="stroke: #000000; stroke-width: 0.8"/>
      </g>
     </g>
     <g id="text_10">
      <!-- 1.5 -->
      <g transform="translate(24.816875 224.721353) scale(0.1 -0.1)">
       <use xlink:href="#DejaVuSans-31"/>
       <use xlink:href="#DejaVuSans-2e" transform="translate(63.623047 0)"/>
       <use xlink:href="#DejaVuSans-35" transform="translate(95.410156 0)"/>
      </g>
     </g>
    </g>
    <g id="ytick_5">
     <g id="line2d_19">
      <path d="M 47.72 170.051936 
L 709.2 170.051936 
" clip-path="url(#pcd58781fd6)" style="fill: none; stroke: #b0b0b0; stroke-width: 0.8; stroke-linecap: square"/>
     </g>
     <g id="line2d_20">
      <g>
       <use xlink:href="#m2f8ba3d7f9" x="47.72" y="170.051936" style="stroke: #000000; stroke-width: 0.8"/>
      </g>
     </g>
     <g id="text_11">
      <!-- 2.0 -->
      <g transform="translate(24.816875 173.851155) scale(0.1 -0.1)">
       <use xlink:href="#DejaVuSans-32"/>
       <use xlink:href="#DejaVuSans-2e" transform="translate(63.623047 0)"/>
       <use xlink:href="#DejaVuSans-30" transform="translate(95.410156 0)"/>
      </g>
     </g>
    </g>
    <g id="ytick_6">
     <g id="line2d_21">
      <path d="M 47.72 119.181738 
L 709.2 119.181738 
" clip-path="url(#pcd58781fd6)" style="fill: none; stroke: #b0b0b0; stroke-width: 0.8; stroke-linecap: square"/>
     </g>
     <g id="line2d_22">
      <g>
       <use xlink:href="#m2f8ba3d7f9" x="47.72" y="119.181738" style="stroke: #000000; stroke-width: 0.8"/>
      </g>
     </g>
     <g id="text_12">
      <!-- 2.5 -->
      <g transform="translate(24.816875 122.980957) scale(0.1 -0.1)">
       <use xlink:href="#DejaVuSans-32"/>
       <use xlink:href="#DejaVuSans-2e" transform="translate(63.623047 0)"/>
       <use xlink:href="#DejaVuSans-35" transform="translate(95.410156 0)"/>
      </g>
     </g>
    </g>
    <g id="ytick_7">
     <g id="line2d_23">
      <path d="M 47.72 68.311541 
L 709.2 68.311541 
" clip-path="url(#pcd58781fd6)" style="fill: none; stroke: #b0b0b0; stroke-width: 0.8; stroke-linecap: square"/>
     </g>
     <g id="line2d_24">
      <g>
       <use xlink:href="#m2f8ba3d7f9" x="47.72" y="68.311541" style="stroke: #000000; stroke-width: 0.8"/>
      </g>
     </g>
     <g id="text_13">
      <!-- 3.0 -->
      <g transform="translate(24.816875 72.110759) scale(0.1 -0.1)">
       <defs>
        <path id="DejaVuSans-33" d="M 2597 2516 
Q 3050 2419 3304 2112 
Q 3559 1806 3559 1356 
Q 3559 666 3084 287 
Q 2609 -91 1734 -91 
Q 1441 -91 1130 -33 
Q 819 25 488 141 
L 488 750 
Q 750 597 1062 519 
Q 1375 441 1716 441 
Q 2309 441 2620 675 
Q 2931 909 2931 1356 
Q 2931 1769 2642 2001 
Q 2353 2234 1838 2234 
L 1294 2234 
L 1294 2753 
L 1863 2753 
Q 2328 2753 2575 2939 
Q 2822 3125 2822 3475 
Q 2822 3834 2567 4026 
Q 2313 4219 1838 4219 
Q 1578 4219 1281 4162 
Q 984 4106 628 3988 
L 628 4550 
Q 988 4650 1302 4700 
Q 1616 4750 1894 4750 
Q 2613 4750 3031 4423 
Q 3450 4097 3450 3541 
Q 3450 3153 3228 2886 
Q 3006 2619 2597 2516 
z
" transform="scale(0.015625)"/>
       </defs>
       <use xlink:href="#DejaVuSans-33"/>
       <use xlink:href="#DejaVuSans-2e" transform="translate(63.623047 0)"/>
       <use xlink:href="#DejaVuSans-30" transform="translate(95.410156 0)"/>
      </g>
     </g>
    </g>
    <g id="text_14">
     <!-- Half-chain entropy -->
     <g transform="translate(18.737187 254.432656) rotate(-90) scale(0.1 -0.1)">
      <defs>
       <path id="DejaVuSans-48" d="M 628 4666 
L 1259 4666 
L 1259 2753 
L 3553 2753 
L 3553 4666 
L 4184 4666 
L 4184 0 
L 3553 0 
L 3553 2222 
L 1259 2222 
L 1259 0 
L 628 0 
L 628 4666 
z
" transform="scale(0.015625)"/>
       <path id="DejaVuSans-61" d="M 2194 1759 
Q 1497 1759 1228 1600 
Q 959 1441 959 1056 
Q 959 750 1161 570 
Q 1363 391 1709 391 
Q 2188 391 2477 730 
Q 2766 1069 2766 1631 
L 2766 1759 
L 2194 1759 
z
M 3341 1997 
L 3341 0 
L 2766 0 
L 2766 531 
Q 2569 213 2275 61 
Q 1981 -91 1556 -91 
Q 1019 -91 701 211 
Q 384 513 384 1019 
Q 384 1609 779 1909 
Q 1175 2209 1959 2209 
L 2766 2209 
L 2766 2266 
Q 2766 2663 2505 2880 
Q 2244 3097 1772 3097 
Q 1472 3097 1187 3025 
Q 903 2953 641 2809 
L 641 3341 
Q 956 3463 1253 3523 
Q 1550 3584 1831 3584 
Q 2591 3584 2966 3190 
Q 3341 2797 3341 1997 
z
" transform="scale(0.015625)"/>
       <path id="DejaVuSans-6c" d="M 603 4863 
L 1178 4863 
L 1178 0 
L 603 0 
L 603 4863 
z
" transform="scale(0.015625)"/>
       <path id="DejaVuSans-66" d="M 2375 4863 
L 2375 4384 
L 1825 4384 
Q 1516 4384 1395 4259 
Q 1275 4134 1275 3809 
L 1275 3500 
L 2222 3500 
L 2222 3053 
L 1275 3053 
L 1275 0 
L 697 0 
L 697 3053 
L 147 3053 
L 147 3500 
L 697 3500 
L 697 3744 
Q 697 4328 969 4595 
Q 1241 4863 1831 4863 
L 2375 4863 
z
" transform="scale(0.015625)"/>
       <path id="DejaVuSans-2d" d="M 313 2009 
L 1997 2009 
L 1997 1497 
L 313 1497 
L 313 2009 
z
" transform="scale(0.015625)"/>
       <path id="DejaVuSans-63" d="M 3122 3366 
L 3122 2828 
Q 2878 2963 2633 3030 
Q 2388 3097 2138 3097 
Q 1578 3097 1268 2742 
Q 959 2388 959 1747 
Q 959 1106 1268 751 
Q 1578 397 2138 397 
Q 2388 397 2633 464 
Q 2878 531 3122 666 
L 3122 134 
Q 2881 22 2623 -34 
Q 2366 -91 2075 -91 
Q 1284 -91 818 406 
Q 353 903 353 1747 
Q 353 2603 823 3093 
Q 1294 3584 2113 3584 
Q 2378 3584 2631 3529 
Q 2884 3475 3122 3366 
z
" transform="scale(0.015625)"/>
       <path id="DejaVuSans-68" d="M 3513 2113 
L 3513 0 
L 2938 0 
L 2938 2094 
Q 2938 2591 2744 2837 
Q 2550 3084 2163 3084 
Q 1697 3084 1428 2787 
Q 1159 2491 1159 1978 
L 1159 0 
L 581 0 
L 581 4863 
L 1159 4863 
L 1159 2956 
Q 1366 3272 1645 3428 
Q 1925 3584 2291 3584 
Q 2894 3584 3203 3211 
Q 3513 2838 3513 2113 
z
" transform="scale(0.015625)"/>
       <path id="DejaVuSans-6e" d="M 3513 2113 
L 3513 0 
L 2938 0 
L 2938 2094 
Q 2938 2591 2744 2837 
Q 2550 3084 2163 3084 
Q 1697 3084 1428 2787 
Q 1159 2491 1159 1978 
L 1159 0 
L 581 0 
L 581 3500 
L 1159 3500 
L 1159 2956 
Q 1366 3272 1645 3428 
Q 1925 3584 2291 3584 
Q 2894 3584 3203 3211 
Q 3513 2838 3513 2113 
z
" transform="scale(0.015625)"/>
       <path id="DejaVuSans-20" transform="scale(0.015625)"/>
       <path id="DejaVuSans-74" d="M 1172 4494 
L 1172 3500 
L 2356 3500 
L 2356 3053 
L 1172 3053 
L 1172 1153 
Q 1172 725 1289 603 
Q 1406 481 1766 481 
L 2356 481 
L 2356 0 
L 1766 0 
Q 1100 0 847 248 
Q 594 497 594 1153 
L 594 3053 
L 172 3053 
L 172 3500 
L 594 3500 
L 594 4494 
L 1172 4494 
z
" transform="scale(0.015625)"/>
       <path id="DejaVuSans-72" d="M 2631 2963 
Q 2534 3019 2420 3045 
Q 2306 3072 2169 3072 
Q 1681 3072 1420 2755 
Q 1159 2438 1159 1844 
L 1159 0 
L 581 0 
L 581 3500 
L 1159 3500 
L 1159 2956 
Q 1341 3275 1631 3429 
Q 1922 3584 2338 3584 
Q 2397 3584 2469 3576 
Q 2541 3569 2628 3553 
L 2631 2963 
z
" transform="scale(0.015625)"/>
       <path id="DejaVuSans-6f" d="M 1959 3097 
Q 1497 3097 1228 2736 
Q 959 2375 959 1747 
Q 959 1119 1226 758 
Q 1494 397 1959 397 
Q 2419 397 2687 759 
Q 2956 1122 2956 1747 
Q 2956 2369 2687 2733 
Q 2419 3097 1959 3097 
z
M 1959 3584 
Q 2709 3584 3137 3096 
Q 3566 2609 3566 1747 
Q 3566 888 3137 398 
Q 2709 -91 1959 -91 
Q 1206 -91 779 398 
Q 353 888 353 1747 
Q 353 2609 779 3096 
Q 1206 3584 1959 3584 
z
" transform="scale(0.015625)"/>
       <path id="DejaVuSans-70" d="M 1159 525 
L 1159 -1331 
L 581 -1331 
L 581 3500 
L 1159 3500 
L 1159 2969 
Q 1341 3281 1617 3432 
Q 1894 3584 2278 3584 
Q 2916 3584 3314 3078 
Q 3713 2572 3713 1747 
Q 3713 922 3314 415 
Q 2916 -91 2278 -91 
Q 1894 -91 1617 61 
Q 1341 213 1159 525 
z
M 3116 1747 
Q 3116 2381 2855 2742 
Q 2594 3103 2138 3103 
Q 1681 3103 1420 2742 
Q 1159 2381 1159 1747 
Q 1159 1113 1420 752 
Q 1681 391 2138 391 
Q 2594 391 2855 752 
Q 3116 1113 3116 1747 
z
" transform="scale(0.015625)"/>
       <path id="DejaVuSans-79" d="M 2059 -325 
Q 1816 -950 1584 -1140 
Q 1353 -1331 966 -1331 
L 506 -1331 
L 506 -850 
L 844 -850 
Q 1081 -850 1212 -737 
Q 1344 -625 1503 -206 
L 1606 56 
L 191 3500 
L 800 3500 
L 1894 763 
L 2988 3500 
L 3597 3500 
L 2059 -325 
z
" transform="scale(0.015625)"/>
      </defs>
      <use xlink:href="#DejaVuSans-48"/>
      <use xlink:href="#DejaVuSans-61" transform="translate(75.195312 0)"/>
      <use xlink:href="#DejaVuSans-6c" transform="translate(136.474609 0)"/>
      <use xlink:href="#DejaVuSans-66" transform="translate(164.257812 0)"/>
      <use xlink:href="#DejaVuSans-2d" transform="translate(193.962891 0)"/>
      <use xlink:href="#DejaVuSans-63" transform="translate(230.046875 0)"/>
      <use xlink:href="#DejaVuSans-68" transform="translate(285.027344 0)"/>
      <use xlink:href="#DejaVuSans-61" transform="translate(348.40625 0)"/>
      <use xlink:href="#DejaVuSans-69" transform="translate(409.685547 0)"/>
      <use xlink:href="#DejaVuSans-6e" transform="translate(437.46875 0)"/>
      <use xlink:href="#DejaVuSans-20" transform="translate(500.847656 0)"/>
      <use xlink:href="#DejaVuSans-65" transform="translate(532.634766 0)"/>
      <use xlink:href="#DejaVuSans-6e" transform="translate(594.158203 0)"/>
      <use xlink:href="#DejaVuSans-74" transform="translate(657.537109 0)"/>
      <use xlink:href="#DejaVuSans-72" transform="translate(696.746094 0)"/>
      <use xlink:href="#DejaVuSans-6f" transform="translate(735.609375 0)"/>
      <use xlink:href="#DejaVuSans-70" transform="translate(796.791016 0)"/>
      <use xlink:href="#DejaVuSans-79" transform="translate(860.267578 0)"/>
     </g>
    </g>
   </g>
   <g id="line2d_25">
    <path d="M 77.787273 373.532727 
L 84.117225 56.776015 
L 90.447177 44.859848 
L 96.777129 43.400576 
L 103.107081 43.387273 
L 109.437033 43.894678 
L 115.766986 44.65093 
L 122.096938 45.290978 
L 128.42689 45.941307 
L 134.756842 46.483457 
L 141.086794 47.025461 
L 147.416746 47.66503 
L 153.746699 48.205262 
L 160.076651 48.869643 
L 166.406603 49.593451 
L 172.736555 50.558466 
L 179.066507 51.678577 
L 185.396459 52.556253 
L 191.726411 53.230276 
L 198.056364 53.963299 
L 204.386316 54.717799 
L 210.716268 55.193331 
L 217.04622 55.712367 
L 223.376172 56.360071 
L 229.706124 56.849368 
L 236.036077 57.248428 
L 242.366029 57.616476 
L 248.695981 58.155388 
L 255.025933 58.659787 
L 261.355885 59.04738 
L 267.685837 59.428073 
L 274.015789 59.992171 
L 280.345742 60.39523 
L 286.675694 60.712252 
L 293.005646 61.00024 
L 299.335598 61.158516 
L 305.66555 61.554435 
L 311.995502 61.78166 
L 318.325455 62.217794 
L 324.655407 62.340666 
L 330.985359 62.681154 
L 337.315311 62.961936 
L 343.645263 63.320621 
L 349.975215 63.46588 
L 356.305167 63.654248 
L 362.63512 63.844672 
L 368.965072 64.135242 
L 375.295024 64.120233 
L 381.624976 64.352345 
L 387.954928 64.580672 
L 394.28488 64.957387 
L 400.614833 64.914062 
L 406.944785 65.072021 
L 413.274737 65.123588 
L 419.604689 65.492741 
L 425.934641 65.486703 
L 432.264593 65.573035 
L 438.594545 65.802046 
L 444.924498 66.059387 
L 451.25445 66.135885 
L 457.584402 66.149362 
L 463.914354 66.393677 
L 470.244306 66.483203 
L 476.574258 66.497886 
L 482.904211 66.574409 
L 489.234163 66.774884 
L 495.564115 66.774455 
L 501.894067 66.793972 
L 508.224019 66.852707 
L 514.553971 67.084539 
L 520.883923 67.1774 
L 527.213876 67.226073 
L 533.543828 67.214205 
L 539.87378 67.445019 
L 546.203732 67.665696 
L 552.533684 67.696994 
L 558.863636 67.777897 
L 565.193589 67.994858 
L 571.523541 68.146233 
L 577.853493 68.051969 
L 584.183445 68.157913 
L 590.513397 68.151797 
L 596.843349 68.332347 
L 603.173301 68.357706 
L 609.503254 68.399852 
L 615.833206 68.429582 
L 622.163158 68.675072 
L 628.49311 68.584905 
L 634.823062 68.568072 
L 641.153014 68.5946 
L 647.482967 68.903099 
L 653.812919 68.920485 
L 660.142871 68.843164 
L 666.472823 69.023783 
L 672.802775 69.067181 
L 679.132727 69.03514 
" clip-path="url(#pcd58781fd6)" style="fill: none; stroke: #1f77b4; stroke-width: 1.5; stroke-linecap: square"/>
   </g>
   <g id="line2d_26">
    <path d="M 77.787273 373.532727 
L 84.117225 109.052106 
L 90.447177 101.282636 
L 96.777129 101.280962 
L 103.107081 102.645149 
L 109.437033 104.576911 
L 115.766986 106.356206 
L 122.096938 108.129374 
L 128.42689 109.6797 
L 134.756842 111.075779 
L 141.086794 112.432285 
L 147.416746 113.785643 
L 153.746699 114.971003 
L 160.076651 116.276901 
L 166.406603 117.50143 
L 172.736555 118.563975 
L 179.066507 119.71866 
L 185.396459 120.807934 
L 191.726411 121.506612 
L 198.056364 122.355344 
L 204.386316 122.986431 
L 210.716268 123.538994 
L 217.04622 124.201247 
L 223.376172 124.928427 
L 229.706124 125.569906 
L 236.036077 126.245686 
L 242.366029 126.663079 
L 248.695981 127.126243 
L 255.025933 127.52407 
L 261.355885 127.870365 
L 267.685837 128.309939 
L 274.015789 128.92504 
L 280.345742 129.277927 
L 286.675694 129.497932 
L 293.005646 129.838863 
L 299.335598 130.008719 
L 305.66555 130.367575 
L 311.995502 130.583343 
L 318.325455 131.153583 
L 324.655407 131.192736 
L 330.985359 131.529697 
L 337.315311 131.847933 
L 343.645263 131.96109 
L 349.975215 132.30576 
L 356.305167 132.501998 
L 362.63512 132.697842 
L 368.965072 133.300017 
L 375.295024 133.013737 
L 381.624976 132.914105 
L 387.954928 133.26667 
L 394.28488 133.751226 
L 400.614833 133.588039 
L 406.944785 133.775615 
L 413.274737 133.922915 
L 419.604689 134.247239 
L 425.934641 134.384572 
L 432.264593 134.988629 
L 438.594545 134.622314 
L 444.924498 134.8674 
L 451.25445 135.00219 
L 457.584402 134.867009 
L 463.914354 135.780012 
L 470.244306 135.521958 
L 476.574258 135.435723 
L 482.904211 135.580194 
L 489.234163 135.917133 
L 495.564115 136.003802 
L 501.894067 136.005301 
L 508.224019 136.049918 
L 514.553971 136.14327 
L 520.883923 136.410377 
L 527.213876 136.446045 
L 533.543828 136.454034 
L 539.87378 136.650807 
L 546.203732 137.275183 
L 552.533684 136.864599 
L 558.863636 136.950364 
L 565.193589 137.291723 
L 571.523541 137.172658 
L 577.853493 137.309814 
L 584.183445 137.403221 
L 590.513397 137.499282 
L 596.843349 137.679193 
L 603.173301 137.678095 
L 609.503254 137.660022 
L 615.833206 137.706956 
L 622.163158 137.984318 
L 628.49311 137.911798 
L 634.823062 138.011218 
L 641.153014 138.068175 
L 647.482967 138.177878 
L 653.812919 138.720466 
L 660.142871 138.299781 
L 666.472823 138.337106 
L 672.802775 138.410498 
L 679.132727 138.515129 
" clip-path="url(#pcd58781fd6)" style="fill: none; stroke: #ff7f0e; stroke-width: 1.5; stroke-linecap: square"/>
   </g>
   <g id="line2d_27">
    <path d="M 77.787273 373.532727 
L 84.117225 153.482798 
L 90.447177 148.093249 
L 96.777129 149.716088 
L 103.107081 152.791984 
L 109.437033 156.06927 
L 115.766986 158.30034 
L 122.096938 160.09725 
L 128.42689 162.354613 
L 134.756842 163.441881 
L 141.086794 165.265717 
L 147.416746 166.889703 
L 153.746699 167.708087 
L 160.076651 168.916817 
L 166.406603 170.319966 
L 172.736555 171.09292 
L 179.066507 172.352174 
L 185.396459 173.35803 
L 191.726411 173.805699 
L 198.056364 174.663378 
L 204.386316 175.567785 
L 210.716268 175.91212 
L 217.04622 176.676767 
L 223.376172 177.119301 
L 229.706124 177.732242 
L 236.036077 178.302059 
L 242.366029 178.923254 
L 248.695981 179.203297 
L 255.025933 179.524001 
L 261.355885 179.899709 
L 267.685837 180.267219 
L 274.015789 180.809876 
L 280.345742 181.147536 
L 286.675694 181.159986 
L 293.005646 181.458115 
L 299.335598 181.777864 
L 305.66555 181.946299 
L 311.995502 181.96409 
L 318.325455 182.523165 
L 324.655407 182.529657 
L 330.985359 182.861023 
L 337.315311 183.014975 
L 343.645263 183.048585 
L 349.975215 183.415787 
L 356.305167 183.577059 
L 362.63512 183.792047 
L 368.965072 183.812144 
L 375.295024 183.817735 
L 381.624976 183.858922 
L 387.954928 184.04847 
L 394.28488 184.297469 
L 400.614833 184.200511 
L 406.944785 184.42559 
L 413.274737 184.565741 
L 419.604689 184.779529 
L 425.934641 184.745688 
L 432.264593 185.25618 
L 438.594545 185.028597 
L 444.924498 185.212043 
L 451.25445 185.441111 
L 457.584402 185.279189 
L 463.914354 185.672499 
L 470.244306 185.879466 
L 476.574258 185.626334 
L 482.904211 185.925114 
L 489.234163 186.107604 
L 495.564115 185.922275 
L 501.894067 186.179139 
L 508.224019 186.362278 
L 514.553971 185.98976 
L 520.883923 186.375886 
L 527.213876 186.545933 
L 533.543828 186.596236 
L 539.87378 186.560552 
L 546.203732 186.64323 
L 552.533684 186.62574 
L 558.863636 186.592606 
L 565.193589 186.955332 
L 571.523541 186.796509 
L 577.853493 186.778982 
L 584.183445 187.083849 
L 590.513397 186.881481 
L 596.843349 187.104696 
L 603.173301 187.216644 
L 609.503254 187.05896 
L 615.833206 187.039373 
L 622.163158 187.461722 
L 628.49311 187.12521 
L 634.823062 187.454552 
L 641.153014 187.460676 
L 647.482967 187.314854 
L 653.812919 187.457219 
L 660.142871 187.683433 
L 666.472823 187.488077 
L 672.802775 187.402902 
L 679.132727 187.496577 
" clip-path="url(#pcd58781fd6)" style="fill: none; stroke: #2ca02c; stroke-width: 1.5; stroke-linecap: square"/>
   </g>
   <g id="line2d_28">
    <path d="M 77.787273 373.532727 
L 84.117225 202.462592 
L 90.447177 199.522495 
L 96.777129 202.388125 
L 103.107081 205.762021 
L 109.437033 209.051111 
L 115.766986 211.702506 
L 122.096938 214.177693 
L 128.42689 216.276734 
L 134.756842 217.869496 
L 141.086794 219.197177 
L 147.416746 220.826187 
L 153.746699 221.850601 
L 160.076651 222.487423 
L 166.406603 223.625274 
L 172.736555 224.317329 
L 179.066507 225.106599 
L 185.396459 225.653205 
L 191.726411 226.19347 
L 198.056364 226.9617 
L 204.386316 227.529557 
L 210.716268 228.412481 
L 217.04622 228.352432 
L 223.376172 228.975294 
L 229.706124 229.316974 
L 236.036077 230.058389 
L 242.366029 230.367693 
L 248.695981 230.68768 
L 255.025933 230.616744 
L 261.355885 231.1946 
L 267.685837 231.597788 
L 274.015789 231.711142 
L 280.345742 232.220881 
L 286.675694 232.301543 
L 293.005646 232.40023 
L 299.335598 232.481111 
L 305.66555 232.666793 
L 311.995502 232.735233 
L 318.325455 233.063847 
L 324.655407 233.147012 
L 330.985359 233.019094 
L 337.315311 233.525825 
L 343.645263 233.614326 
L 349.975215 233.947085 
L 356.305167 233.840517 
L 362.63512 234.132502 
L 368.965072 234.140687 
L 375.295024 234.281458 
L 381.624976 234.325326 
L 387.954928 234.158573 
L 394.28488 234.320884 
L 400.614833 234.603009 
L 406.944785 234.32763 
L 413.274737 234.432972 
L 419.604689 234.754943 
L 425.934641 234.750264 
L 432.264593 234.782117 
L 438.594545 235.009345 
L 444.924498 234.672802 
L 451.25445 235.088695 
L 457.584402 235.031553 
L 463.914354 235.145335 
L 470.244306 235.275461 
L 476.574258 235.280359 
L 482.904211 235.265223 
L 489.234163 235.527744 
L 495.564115 235.297966 
L 501.894067 235.396694 
L 508.224019 235.568633 
L 514.553971 235.719542 
L 520.883923 235.575632 
L 527.213876 235.638477 
L 533.543828 235.636143 
L 539.87378 235.797416 
L 546.203732 235.811989 
L 552.533684 236.081213 
L 558.863636 235.628389 
L 565.193589 236.117019 
L 571.523541 236.047149 
L 577.853493 235.920537 
L 584.183445 235.944448 
L 590.513397 235.983955 
L 596.843349 235.962065 
L 603.173301 236.17263 
L 609.503254 236.299387 
L 615.833206 236.025032 
L 622.163158 236.439049 
L 628.49311 236.380793 
L 634.823062 236.510848 
L 641.153014 236.330369 
L 647.482967 236.318279 
L 653.812919 236.506393 
L 660.142871 236.487585 
L 666.472823 236.71605 
L 672.802775 236.445934 
L 679.132727 236.522703 
" clip-path="url(#pcd58781fd6)" style="fill: none; stroke: #d62728; stroke-width: 1.5; stroke-linecap: square"/>
   </g>
   <g id="line2d_29">
    <path d="M 77.787273 373.532727 
L 84.117225 244.563343 
L 90.447177 242.373177 
L 96.777129 245.530679 
L 103.107081 248.910705 
L 109.437033 252.321049 
L 115.766986 255.234611 
L 122.096938 257.527045 
L 128.42689 259.310455 
L 134.756842 260.620879 
L 141.086794 261.692913 
L 147.416746 262.73868 
L 153.746699 263.849781 
L 160.076651 264.240166 
L 166.406603 264.963326 
L 172.736555 265.787167 
L 179.066507 266.166472 
L 185.396459 266.665243 
L 191.726411 267.033993 
L 198.056364 267.722329 
L 204.386316 267.921424 
L 210.716268 268.517693 
L 217.04622 268.296918 
L 223.376172 268.969558 
L 229.706124 269.114213 
L 236.036077 269.326683 
L 242.366029 269.390137 
L 248.695981 269.914199 
L 255.025933 269.887741 
L 261.355885 270.529554 
L 267.685837 270.343687 
L 274.015789 270.648737 
L 280.345742 270.828168 
L 286.675694 271.200869 
L 293.005646 271.032382 
L 299.335598 271.018777 
L 305.66555 271.207601 
L 311.995502 271.343863 
L 318.325455 271.316578 
L 324.655407 271.417564 
L 330.985359 271.181221 
L 337.315311 271.588706 
L 343.645263 271.746014 
L 349.975215 271.966822 
L 356.305167 271.819594 
L 362.63512 272.091119 
L 368.965072 271.678942 
L 375.295024 272.123757 
L 381.624976 272.051092 
L 387.954928 272.187551 
L 394.28488 272.171098 
L 400.614833 272.520882 
L 406.944785 272.221185 
L 413.274737 272.470609 
L 419.604689 272.533625 
L 425.934641 272.658231 
L 432.264593 272.654629 
L 438.594545 272.760279 
L 444.924498 272.45324 
L 451.25445 272.907013 
L 457.584402 272.638547 
L 463.914354 272.935152 
L 470.244306 272.530335 
L 476.574258 272.789459 
L 482.904211 272.617209 
L 489.234163 272.758966 
L 495.564115 272.719802 
L 501.894067 272.799116 
L 508.224019 272.723212 
L 514.553971 272.976251 
L 520.883923 272.769733 
L 527.213876 272.772106 
L 533.543828 272.784872 
L 539.87378 272.94851 
L 546.203732 272.646888 
L 552.533684 273.077827 
L 558.863636 272.608212 
L 565.193589 272.97517 
L 571.523541 272.843147 
L 577.853493 273.022539 
L 584.183445 272.825968 
L 590.513397 273.073151 
L 596.843349 272.716554 
L 603.173301 273.066224 
L 609.503254 273.074923 
L 615.833206 273.107103 
L 622.163158 273.042204 
L 628.49311 273.272931 
L 634.823062 273.080039 
L 641.153014 273.134873 
L 647.482967 273.019395 
L 653.812919 273.078283 
L 660.142871 273.004921 
L 666.472823 273.472822 
L 672.802775 272.819182 
L 679.132727 273.1986 
" clip-path="url(#pcd58781fd6)" style="fill: none; stroke: #9467bd; stroke-width: 1.5; stroke-linecap: square"/>
   </g>
   <g id="line2d_30">
    <path d="M 77.787273 373.532727 
L 84.117225 282.89578 
L 90.447177 282.442361 
L 96.777129 285.47852 
L 103.107081 288.486484 
L 109.437033 290.867207 
L 115.766986 293.307626 
L 122.096938 295.121137 
L 128.42689 296.394313 
L 134.756842 297.343998 
L 141.086794 298.124616 
L 147.416746 299.241085 
L 153.746699 299.516606 
L 160.076651 300.397712 
L 166.406603 300.537872 
L 172.736555 301.098672 
L 179.066507 300.698825 
L 185.396459 301.420363 
L 191.726411 301.502076 
L 198.056364 302.204944 
L 204.386316 302.095944 
L 210.716268 302.457884 
L 217.04622 302.382589 
L 223.376172 303.049042 
L 229.706124 303.040995 
L 236.036077 303.395563 
L 242.366029 303.276008 
L 248.695981 303.687925 
L 255.025933 303.447526 
L 261.355885 304.096806 
L 267.685837 303.585224 
L 274.015789 303.962675 
L 280.345742 303.940038 
L 286.675694 304.553353 
L 293.005646 304.318041 
L 299.335598 304.394551 
L 305.66555 304.218504 
L 311.995502 304.483124 
L 318.325455 304.331827 
L 324.655407 304.362124 
L 330.985359 303.893772 
L 337.315311 304.406535 
L 343.645263 304.180402 
L 349.975215 304.573502 
L 356.305167 304.08556 
L 362.63512 304.380603 
L 368.965072 304.232879 
L 375.295024 304.636805 
L 381.624976 304.355175 
L 387.954928 304.849257 
L 394.28488 304.269493 
L 400.614833 304.61542 
L 406.944785 304.445217 
L 413.274737 304.947226 
L 419.604689 304.873432 
L 425.934641 304.972911 
L 432.264593 305.041901 
L 438.594545 305.307809 
L 444.924498 304.898132 
L 451.25445 305.307682 
L 457.584402 304.859297 
L 463.914354 305.315393 
L 470.244306 304.950839 
L 476.574258 305.178837 
L 482.904211 304.850483 
L 489.234163 305.098336 
L 495.564115 304.933583 
L 501.894067 305.105932 
L 508.224019 305.183158 
L 514.553971 305.55261 
L 520.883923 305.253792 
L 527.213876 305.371437 
L 533.543828 305.073244 
L 539.87378 305.426746 
L 546.203732 305.289038 
L 552.533684 305.453428 
L 558.863636 305.185597 
L 565.193589 305.643085 
L 571.523541 305.330289 
L 577.853493 305.730513 
L 584.183445 305.097454 
L 590.513397 305.689915 
L 596.843349 305.272434 
L 603.173301 305.54374 
L 609.503254 305.205727 
L 615.833206 305.419624 
L 622.163158 305.41676 
L 628.49311 305.512286 
L 634.823062 305.470018 
L 641.153014 305.707775 
L 647.482967 305.327112 
L 653.812919 305.708125 
L 660.142871 305.307108 
L 666.472823 306.052759 
L 672.802775 305.511051 
L 679.132727 305.641015 
" clip-path="url(#pcd58781fd6)" style="fill: none; stroke: #8c564b; stroke-width: 1.5; stroke-linecap: square"/>
   </g>
   <g id="line2d_31">
    <path d="M 77.787273 373.532727 
L 84.117225 313.971185 
L 90.447177 314.216903 
L 96.777129 316.978108 
L 103.107081 319.520412 
L 109.437033 321.260171 
L 115.766986 323.320219 
L 122.096938 323.795027 
L 128.42689 324.880331 
L 134.756842 324.930049 
L 141.086794 325.625993 
L 147.416746 326.007014 
L 153.746699 326.25799 
L 160.076651 326.531158 
L 166.406603 327.327522 
L 172.736555 327.584974 
L 179.066507 327.574974 
L 185.396459 327.453436 
L 191.726411 327.685657 
L 198.056364 327.900477 
L 204.386316 328.359124 
L 210.716268 328.133898 
L 217.04622 328.315542 
L 223.376172 328.333779 
L 229.706124 328.477069 
L 236.036077 328.547924 
L 242.366029 328.768361 
L 248.695981 328.538058 
L 255.025933 328.508472 
L 261.355885 328.63699 
L 267.685837 329.027791 
L 274.015789 328.532841 
L 280.345742 328.817674 
L 286.675694 328.872002 
L 293.005646 329.185626 
L 299.335598 328.796935 
L 305.66555 328.939789 
L 311.995502 328.891831 
L 318.325455 329.219171 
L 324.655407 328.884577 
L 330.985359 328.927058 
L 337.315311 329.102458 
L 343.645263 329.41895 
L 349.975215 328.990968 
L 356.305167 328.943578 
L 362.63512 329.027271 
L 368.965072 329.380442 
L 375.295024 329.214008 
L 381.624976 329.123918 
L 387.954928 328.970823 
L 394.28488 329.314507 
L 400.614833 329.191479 
L 406.944785 329.199968 
L 413.274737 328.933008 
L 419.604689 329.260785 
L 425.934641 328.944863 
L 432.264593 329.342194 
L 438.594545 329.211068 
L 444.924498 329.119278 
L 451.25445 329.081062 
L 457.584402 329.322595 
L 463.914354 329.191188 
L 470.244306 329.4177 
L 476.574258 328.916649 
L 482.904211 329.172777 
L 489.234163 329.082435 
L 495.564115 329.485672 
L 501.894067 328.722149 
L 508.224019 329.135655 
L 514.553971 329.081168 
L 520.883923 329.546836 
L 527.213876 329.023296 
L 533.543828 329.142193 
L 539.87378 329.042916 
L 546.203732 329.428452 
L 552.533684 329.263382 
L 558.863636 329.166026 
L 565.193589 329.369514 
L 571.523541 329.349506 
L 577.853493 329.281853 
L 584.183445 329.121295 
L 590.513397 329.305844 
L 596.843349 329.332158 
L 603.173301 329.207307 
L 609.503254 329.257202 
L 615.833206 329.198334 
L 622.163158 329.588097 
L 628.49311 329.269123 
L 634.823062 329.406821 
L 641.153014 329.236382 
L 647.482967 329.572021 
L 653.812919 329.235642 
L 660.142871 329.461989 
L 666.472823 329.531637 
L 672.802775 329.491579 
L 679.132727 329.211194 
" clip-path="url(#pcd58781fd6)" style="fill: none; stroke: #e377c2; stroke-width: 1.5; stroke-linecap: square"/>
   </g>
   <g id="line2d_32">
    <path d="M 77.787273 373.532727 
L 84.117225 342.885002 
L 90.447177 343.214975 
L 96.777129 345.7653 
L 103.107081 346.771682 
L 109.437033 348.202179 
L 115.766986 348.924202 
L 122.096938 349.29394 
L 128.42689 349.729957 
L 134.756842 349.856574 
L 141.086794 349.917236 
L 147.416746 350.510089 
L 153.746699 350.689847 
L 160.076651 350.603645 
L 166.406603 350.709857 
L 172.736555 350.981392 
L 179.066507 350.940387 
L 185.396459 351.070529 
L 191.726411 351.087375 
L 198.056364 351.068658 
L 204.386316 351.232968 
L 210.716268 351.098148 
L 217.04622 351.338142 
L 223.376172 351.321335 
L 229.706124 351.211728 
L 236.036077 351.281335 
L 242.366029 351.34407 
L 248.695981 351.310846 
L 255.025933 351.359359 
L 261.355885 351.425991 
L 267.685837 351.47821 
L 274.015789 351.362996 
L 280.345742 351.524389 
L 286.675694 351.592254 
L 293.005646 351.448574 
L 299.335598 351.45491 
L 305.66555 351.563902 
L 311.995502 351.508432 
L 318.325455 351.547165 
L 324.655407 351.542433 
L 330.985359 351.447975 
L 337.315311 351.660427 
L 343.645263 351.585525 
L 349.975215 351.673751 
L 356.305167 351.613234 
L 362.63512 351.549127 
L 368.965072 351.682332 
L 375.295024 351.626266 
L 381.624976 351.564042 
L 387.954928 351.599808 
L 394.28488 351.704797 
L 400.614833 351.56365 
L 406.944785 351.707381 
L 413.274737 351.659861 
L 419.604689 351.565338 
L 425.934641 351.633141 
L 432.264593 351.655128 
L 438.594545 351.645003 
L 444.924498 351.660698 
L 451.25445 351.678311 
L 457.584402 351.73605 
L 463.914354 351.692165 
L 470.244306 351.63241 
L 476.574258 351.614891 
L 482.904211 351.712444 
L 489.234163 351.648752 
L 495.564115 351.646523 
L 501.894067 351.705102 
L 508.224019 351.635634 
L 514.553971 351.671597 
L 520.883923 351.64617 
L 527.213876 351.625561 
L 533.543828 351.671593 
L 539.87378 351.653876 
L 546.203732 351.71462 
L 552.533684 351.53944 
L 558.863636 351.684889 
L 565.193589 351.59762 
L 571.523541 351.635953 
L 577.853493 351.631555 
L 584.183445 351.596172 
L 590.513397 351.665032 
L 596.843349 351.568631 
L 603.173301 351.647384 
L 609.503254 351.590625 
L 615.833206 351.726543 
L 622.163158 351.602879 
L 628.49311 351.68977 
L 634.823062 351.594124 
L 641.153014 351.684222 
L 647.482967 351.609013 
L 653.812919 351.715996 
L 660.142871 351.639885 
L 666.472823 351.729653 
L 672.802775 351.668118 
L 679.132727 351.709527 
" clip-path="url(#pcd58781fd6)" style="fill: none; stroke: #7f7f7f; stroke-width: 1.5; stroke-linecap: square"/>
   </g>
   <g id="line2d_33">
    <path d="M 77.787273 373.532727 
L 84.117225 365.324237 
L 90.447177 365.86316 
L 96.777129 366.202889 
L 103.107081 366.619147 
L 109.437033 366.718166 
L 115.766986 367.020273 
L 122.096938 366.91108 
L 128.42689 367.031941 
L 134.756842 366.916027 
L 141.086794 367.024287 
L 147.416746 366.833004 
L 153.746699 367.163437 
L 160.076651 367.060306 
L 166.406603 367.152989 
L 172.736555 367.050925 
L 179.066507 367.361179 
L 185.396459 367.133481 
L 191.726411 367.229758 
L 198.056364 367.028615 
L 204.386316 367.330276 
L 210.716268 367.207282 
L 217.04622 367.296048 
L 223.376172 367.21056 
L 229.706124 367.41896 
L 236.036077 367.267241 
L 242.366029 367.308491 
L 248.695981 367.127616 
L 255.025933 367.434621 
L 261.355885 367.171436 
L 267.685837 367.384201 
L 274.015789 367.057765 
L 280.345742 367.508563 
L 286.675694 367.195405 
L 293.005646 367.367862 
L 299.335598 367.122362 
L 305.66555 367.462933 
L 311.995502 367.293073 
L 318.325455 367.304557 
L 324.655407 367.176566 
L 330.985359 367.386911 
L 337.315311 367.245074 
L 343.645263 367.2425 
L 349.975215 367.062832 
L 356.305167 367.357718 
L 362.63512 367.137244 
L 368.965072 367.292106 
L 375.295024 367.032543 
L 381.624976 367.410607 
L 387.954928 367.146787 
L 394.28488 367.306157 
L 400.614833 367.070158 
L 406.944785 367.410266 
L 413.274737 367.200345 
L 419.604689 367.278275 
L 425.934641 367.111713 
L 432.264593 367.395208 
L 438.594545 367.208776 
L 444.924498 367.270745 
L 451.25445 367.101798 
L 457.584402 367.412298 
L 463.914354 367.215748 
L 470.244306 367.327862 
L 476.574258 367.105526 
L 482.904211 367.450256 
L 489.234163 367.21689 
L 495.564115 367.321639 
L 501.894067 367.086055 
L 508.224019 367.412641 
L 514.553971 367.18952 
L 520.883923 367.281275 
L 527.213876 367.079545 
L 533.543828 367.381252 
L 539.87378 367.181003 
L 546.203732 367.271864 
L 552.533684 367.08308 
L 558.863636 367.39018 
L 565.193589 367.185768 
L 571.523541 367.287266 
L 577.853493 367.084097 
L 584.183445 367.414474 
L 590.513397 367.192998 
L 596.843349 367.296906 
L 603.173301 367.089562 
L 609.503254 367.417289 
L 615.833206 367.201294 
L 622.163158 367.302654 
L 628.49311 367.101559 
L 634.823062 367.422537 
L 641.153014 367.217776 
L 647.482967 367.311777 
L 653.812919 367.110448 
L 660.142871 367.422667 
L 666.472823 367.214373 
L 672.802775 367.308398 
L 679.132727 367.098271 
" clip-path="url(#pcd58781fd6)" style="fill: none; stroke: #bcbd22; stroke-width: 1.5; stroke-linecap: square"/>
   </g>
   <g id="line2d_34">
    <path d="M 77.787273 373.532727 
L 84.117225 373.532727 
L 90.447177 373.532727 
L 96.777129 373.532727 
L 103.107081 373.532727 
L 109.437033 373.532727 
L 115.766986 373.532727 
L 122.096938 373.532727 
L 128.42689 373.532727 
L 134.756842 373.532727 
L 141.086794 373.532727 
L 147.416746 373.532727 
L 153.746699 373.532727 
L 160.076651 373.532727 
L 166.406603 373.532727 
L 172.736555 373.532727 
L 179.066507 373.532727 
L 185.396459 373.532727 
L 191.726411 373.532727 
L 198.056364 373.532727 
L 204.386316 373.532727 
L 210.716268 373.532727 
L 217.04622 373.532727 
L 223.376172 373.532727 
L 229.706124 373.532727 
L 236.036077 373.532727 
L 242.366029 373.532727 
L 248.695981 373.532727 
L 255.025933 373.532727 
L 261.355885 373.532727 
L 267.685837 373.532727 
L 274.015789 373.532727 
L 280.345742 373.532727 
L 286.675694 373.532727 
L 293.005646 373.532727 
L 299.335598 373.532727 
L 305.66555 373.532727 
L 311.995502 373.532727 
L 318.325455 373.532727 
L 324.655407 373.532727 
L 330.985359 373.532727 
L 337.315311 373.532727 
L 343.645263 373.532727 
L 349.975215 373.532727 
L 356.305167 373.532727 
L 362.63512 373.532727 
L 368.965072 373.532727 
L 375.295024 373.532727 
L 381.624976 373.532727 
L 387.954928 373.532727 
L 394.28488 373.532727 
L 400.614833 373.532727 
L 406.944785 373.532727 
L 413.274737 373.532727 
L 419.604689 373.532727 
L 425.934641 373.532727 
L 432.264593 373.532727 
L 438.594545 373.532727 
L 444.924498 373.532727 
L 451.25445 373.532727 
L 457.584402 373.532727 
L 463.914354 373.532727 
L 470.244306 373.532727 
L 476.574258 373.532727 
L 482.904211 373.532727 
L 489.234163 373.532727 
L 495.564115 373.532727 
L 501.894067 373.532727 
L 508.224019 373.532727 
L 514.553971 373.532727 
L 520.883923 373.532727 
L 527.213876 373.532727 
L 533.543828 373.532727 
L 539.87378 373.532727 
L 546.203732 373.532727 
L 552.533684 373.532727 
L 558.863636 373.532727 
L 565.193589 373.532727 
L 571.523541 373.532727 
L 577.853493 373.532727 
L 584.183445 373.532727 
L 590.513397 373.532727 
L 596.843349 373.532727 
L 603.173301 373.532727 
L 609.503254 373.532727 
L 615.833206 373.532727 
L 622.163158 373.532727 
L 628.49311 373.532727 
L 634.823062 373.532727 
L 641.153014 373.532727 
L 647.482967 373.532727 
L 653.812919 373.532727 
L 660.142871 373.532727 
L 666.472823 373.532727 
L 672.802775 373.532727 
L 679.132727 373.532727 
" clip-path="url(#pcd58781fd6)" style="fill: none; stroke: #17becf; stroke-width: 1.5; stroke-linecap: square"/>
   </g>
   <g id="patch_3">
    <path d="M 47.72 390.04 
L 47.72 26.88 
" style="fill: none; stroke: #000000; stroke-width: 0.8; stroke-linejoin: miter; stroke-linecap: square"/>
   </g>
   <g id="patch_4">
    <path d="M 709.2 390.04 
L 709.2 26.88 
" style="fill: none; stroke: #000000; stroke-width: 0.8; stroke-linejoin: miter; stroke-linecap: square"/>
   </g>
   <g id="patch_5">
    <path d="M 47.72 390.04 
L 709.2 390.04 
" style="fill: none; stroke: #000000; stroke-width: 0.8; stroke-linejoin: miter; stroke-linecap: square"/>
   </g>
   <g id="patch_6">
    <path d="M 47.72 26.88 
L 709.2 26.88 
" style="fill: none; stroke: #000000; stroke-width: 0.8; stroke-linejoin: miter; stroke-linecap: square"/>
   </g>
   <g id="text_15">
    <!-- S(L/2) evolution for different p values (L=8, dt=1.0, Measurement direction: Z) -->
    <g transform="translate(141.671875 20.88) scale(0.12 -0.12)">
     <defs>
      <path id="DejaVuSans-53" d="M 3425 4513 
L 3425 3897 
Q 3066 4069 2747 4153 
Q 2428 4238 2131 4238 
Q 1616 4238 1336 4038 
Q 1056 3838 1056 3469 
Q 1056 3159 1242 3001 
Q 1428 2844 1947 2747 
L 2328 2669 
Q 3034 2534 3370 2195 
Q 3706 1856 3706 1288 
Q 3706 609 3251 259 
Q 2797 -91 1919 -91 
Q 1588 -91 1214 -16 
Q 841 59 441 206 
L 441 856 
Q 825 641 1194 531 
Q 1563 422 1919 422 
Q 2459 422 2753 634 
Q 3047 847 3047 1241 
Q 3047 1584 2836 1778 
Q 2625 1972 2144 2069 
L 1759 2144 
Q 1053 2284 737 2584 
Q 422 2884 422 3419 
Q 422 4038 858 4394 
Q 1294 4750 2059 4750 
Q 2388 4750 2728 4690 
Q 3069 4631 3425 4513 
z
" transform="scale(0.015625)"/>
      <path id="DejaVuSans-28" d="M 1984 4856 
Q 1566 4138 1362 3434 
Q 1159 2731 1159 2009 
Q 1159 1288 1364 580 
Q 1569 -128 1984 -844 
L 1484 -844 
Q 1016 -109 783 600 
Q 550 1309 550 2009 
Q 550 2706 781 3412 
Q 1013 4119 1484 4856 
L 1984 4856 
z
" transform="scale(0.015625)"/>
      <path id="DejaVuSans-4c" d="M 628 4666 
L 1259 4666 
L 1259 531 
L 3531 531 
L 3531 0 
L 628 0 
L 628 4666 
z
" transform="scale(0.015625)"/>
      <path id="DejaVuSans-2f" d="M 1625 4666 
L 2156 4666 
L 531 -594 
L 0 -594 
L 1625 4666 
z
" transform="scale(0.015625)"/>
      <path id="DejaVuSans-29" d="M 513 4856 
L 1013 4856 
Q 1481 4119 1714 3412 
Q 1947 2706 1947 2009 
Q 1947 1309 1714 600 
Q 1481 -109 1013 -844 
L 513 -844 
Q 928 -128 1133 580 
Q 1338 1288 1338 2009 
Q 1338 2731 1133 3434 
Q 928 4138 513 4856 
z
" transform="scale(0.015625)"/>
      <path id="DejaVuSans-76" d="M 191 3500 
L 800 3500 
L 1894 563 
L 2988 3500 
L 3597 3500 
L 2284 0 
L 1503 0 
L 191 3500 
z
" transform="scale(0.015625)"/>
      <path id="DejaVuSans-75" d="M 544 1381 
L 544 3500 
L 1119 3500 
L 1119 1403 
Q 1119 906 1312 657 
Q 1506 409 1894 409 
Q 2359 409 2629 706 
Q 2900 1003 2900 1516 
L 2900 3500 
L 3475 3500 
L 3475 0 
L 2900 0 
L 2900 538 
Q 2691 219 2414 64 
Q 2138 -91 1772 -91 
Q 1169 -91 856 284 
Q 544 659 544 1381 
z
M 1991 3584 
L 1991 3584 
z
" transform="scale(0.015625)"/>
      <path id="DejaVuSans-64" d="M 2906 2969 
L 2906 4863 
L 3481 4863 
L 3481 0 
L 2906 0 
L 2906 525 
Q 2725 213 2448 61 
Q 2172 -91 1784 -91 
Q 1150 -91 751 415 
Q 353 922 353 1747 
Q 353 2572 751 3078 
Q 1150 3584 1784 3584 
Q 2172 3584 2448 3432 
Q 2725 3281 2906 2969 
z
M 947 1747 
Q 947 1113 1208 752 
Q 1469 391 1925 391 
Q 2381 391 2643 752 
Q 2906 1113 2906 1747 
Q 2906 2381 2643 2742 
Q 2381 3103 1925 3103 
Q 1469 3103 1208 2742 
Q 947 2381 947 1747 
z
" transform="scale(0.015625)"/>
      <path id="DejaVuSans-73" d="M 2834 3397 
L 2834 2853 
Q 2591 2978 2328 3040 
Q 2066 3103 1784 3103 
Q 1356 3103 1142 2972 
Q 928 2841 928 2578 
Q 928 2378 1081 2264 
Q 1234 2150 1697 2047 
L 1894 2003 
Q 2506 1872 2764 1633 
Q 3022 1394 3022 966 
Q 3022 478 2636 193 
Q 2250 -91 1575 -91 
Q 1294 -91 989 -36 
Q 684 19 347 128 
L 347 722 
Q 666 556 975 473 
Q 1284 391 1588 391 
Q 1994 391 2212 530 
Q 2431 669 2431 922 
Q 2431 1156 2273 1281 
Q 2116 1406 1581 1522 
L 1381 1569 
Q 847 1681 609 1914 
Q 372 2147 372 2553 
Q 372 3047 722 3315 
Q 1072 3584 1716 3584 
Q 2034 3584 2315 3537 
Q 2597 3491 2834 3397 
z
" transform="scale(0.015625)"/>
      <path id="DejaVuSans-3d" d="M 678 2906 
L 4684 2906 
L 4684 2381 
L 678 2381 
L 678 2906 
z
M 678 1631 
L 4684 1631 
L 4684 1100 
L 678 1100 
L 678 1631 
z
" transform="scale(0.015625)"/>
      <path id="DejaVuSans-2c" d="M 750 794 
L 1409 794 
L 1409 256 
L 897 -744 
L 494 -744 
L 750 256 
L 750 794 
z
" transform="scale(0.015625)"/>
      <path id="DejaVuSans-4d" d="M 628 4666 
L 1569 4666 
L 2759 1491 
L 3956 4666 
L 4897 4666 
L 4897 0 
L 4281 0 
L 4281 4097 
L 3078 897 
L 2444 897 
L 1241 4097 
L 1241 0 
L 628 0 
L 628 4666 
z
" transform="scale(0.015625)"/>
      <path id="DejaVuSans-3a" d="M 750 794 
L 1409 794 
L 1409 0 
L 750 0 
L 750 794 
z
M 750 3309 
L 1409 3309 
L 1409 2516 
L 750 2516 
L 750 3309 
z
" transform="scale(0.015625)"/>
      <path id="DejaVuSans-5a" d="M 359 4666 
L 4025 4666 
L 4025 4184 
L 1075 531 
L 4097 531 
L 4097 0 
L 288 0 
L 288 481 
L 3238 4134 
L 359 4134 
L 359 4666 
z
" transform="scale(0.015625)"/>
     </defs>
     <use xlink:href="#DejaVuSans-53"/>
     <use xlink:href="#DejaVuSans-28" transform="translate(63.476562 0)"/>
     <use xlink:href="#DejaVuSans-4c" transform="translate(102.490234 0)"/>
     <use xlink:href="#DejaVuSans-2f" transform="translate(158.203125 0)"/>
     <use xlink:href="#DejaVuSans-32" transform="translate(191.894531 0)"/>
     <use xlink:href="#DejaVuSans-29" transform="translate(255.517578 0)"/>
     <use xlink:href="#DejaVuSans-20" transform="translate(294.53125 0)"/>
     <use xlink:href="#DejaVuSans-65" transform="translate(326.318359 0)"/>
     <use xlink:href="#DejaVuSans-76" transform="translate(387.841797 0)"/>
     <use xlink:href="#DejaVuSans-6f" transform="translate(447.021484 0)"/>
     <use xlink:href="#DejaVuSans-6c" transform="translate(508.203125 0)"/>
     <use xlink:href="#DejaVuSans-75" transform="translate(535.986328 0)"/>
     <use xlink:href="#DejaVuSans-74" transform="translate(599.365234 0)"/>
     <use xlink:href="#DejaVuSans-69" transform="translate(638.574219 0)"/>
     <use xlink:href="#DejaVuSans-6f" transform="translate(666.357422 0)"/>
     <use xlink:href="#DejaVuSans-6e" transform="translate(727.539062 0)"/>
     <use xlink:href="#DejaVuSans-20" transform="translate(790.917969 0)"/>
     <use xlink:href="#DejaVuSans-66" transform="translate(822.705078 0)"/>
     <use xlink:href="#DejaVuSans-6f" transform="translate(857.910156 0)"/>
     <use xlink:href="#DejaVuSans-72" transform="translate(919.091797 0)"/>
     <use xlink:href="#DejaVuSans-20" transform="translate(960.205078 0)"/>
     <use xlink:href="#DejaVuSans-64" transform="translate(991.992188 0)"/>
     <use xlink:href="#DejaVuSans-69" transform="translate(1055.46875 0)"/>
     <use xlink:href="#DejaVuSans-66" transform="translate(1083.251953 0)"/>
     <use xlink:href="#DejaVuSans-66" transform="translate(1118.457031 0)"/>
     <use xlink:href="#DejaVuSans-65" transform="translate(1153.662109 0)"/>
     <use xlink:href="#DejaVuSans-72" transform="translate(1215.185547 0)"/>
     <use xlink:href="#DejaVuSans-65" transform="translate(1254.048828 0)"/>
     <use xlink:href="#DejaVuSans-6e" transform="translate(1315.572266 0)"/>
     <use xlink:href="#DejaVuSans-74" transform="translate(1378.951172 0)"/>
     <use xlink:href="#DejaVuSans-20" transform="translate(1418.160156 0)"/>
     <use xlink:href="#DejaVuSans-70" transform="translate(1449.947266 0)"/>
     <use xlink:href="#DejaVuSans-20" transform="translate(1513.423828 0)"/>
     <use xlink:href="#DejaVuSans-76" transform="translate(1545.210938 0)"/>
     <use xlink:href="#DejaVuSans-61" transform="translate(1604.390625 0)"/>
     <use xlink:href="#DejaVuSans-6c" transform="translate(1665.669922 0)"/>
     <use xlink:href="#DejaVuSans-75" transform="translate(1693.453125 0)"/>
     <use xlink:href="#DejaVuSans-65" transform="translate(1756.832031 0)"/>
     <use xlink:href="#DejaVuSans-73" transform="translate(1818.355469 0)"/>
     <use xlink:href="#DejaVuSans-20" transform="translate(1870.455078 0)"/>
     <use xlink:href="#DejaVuSans-28" transform="translate(1902.242188 0)"/>
     <use xlink:href="#DejaVuSans-4c" transform="translate(1941.255859 0)"/>
     <use xlink:href="#DejaVuSans-3d" transform="translate(1996.96875 0)"/>
     <use xlink:href="#DejaVuSans-38" transform="translate(2080.757812 0)"/>
     <use xlink:href="#DejaVuSans-2c" transform="translate(2144.380859 0)"/>
     <use xlink:href="#DejaVuSans-20" transform="translate(2176.167969 0)"/>
     <use xlink:href="#DejaVuSans-64" transform="translate(2207.955078 0)"/>
     <use xlink:href="#DejaVuSans-74" transform="translate(2271.431641 0)"/>
     <use xlink:href="#DejaVuSans-3d" transform="translate(2310.640625 0)"/>
     <use xlink:href="#DejaVuSans-31" transform="translate(2394.429688 0)"/>
     <use xlink:href="#DejaVuSans-2e" transform="translate(2458.052734 0)"/>
     <use xlink:href="#DejaVuSans-30" transform="translate(2489.839844 0)"/>
     <use xlink:href="#DejaVuSans-2c" transform="translate(2553.462891 0)"/>
     <use xlink:href="#DejaVuSans-20" transform="translate(2585.25 0)"/>
     <use xlink:href="#DejaVuSans-4d" transform="translate(2617.037109 0)"/>
     <use xlink:href="#DejaVuSans-65" transform="translate(2703.316406 0)"/>
     <use xlink:href="#DejaVuSans-61" transform="translate(2764.839844 0)"/>
     <use xlink:href="#DejaVuSans-73" transform="translate(2826.119141 0)"/>
     <use xlink:href="#DejaVuSans-75" transform="translate(2878.21875 0)"/>
     <use xlink:href="#DejaVuSans-72" transform="translate(2941.597656 0)"/>
     <use xlink:href="#DejaVuSans-65" transform="translate(2980.460938 0)"/>
     <use xlink:href="#DejaVuSans-6d" transform="translate(3041.984375 0)"/>
     <use xlink:href="#DejaVuSans-65" transform="translate(3139.396484 0)"/>
     <use xlink:href="#DejaVuSans-6e" transform="translate(3200.919922 0)"/>
     <use xlink:href="#DejaVuSans-74" transform="translate(3264.298828 0)"/>
     <use xlink:href="#DejaVuSans-20" transform="translate(3303.507812 0)"/>
     <use xlink:href="#DejaVuSans-64" transform="translate(3335.294922 0)"/>
     <use xlink:href="#DejaVuSans-69" transform="translate(3398.771484 0)"/>
     <use xlink:href="#DejaVuSans-72" transform="translate(3426.554688 0)"/>
     <use xlink:href="#DejaVuSans-65" transform="translate(3465.417969 0)"/>
     <use xlink:href="#DejaVuSans-63" transform="translate(3526.941406 0)"/>
     <use xlink:href="#DejaVuSans-74" transform="translate(3581.921875 0)"/>
     <use xlink:href="#DejaVuSans-69" transform="translate(3621.130859 0)"/>
     <use xlink:href="#DejaVuSans-6f" transform="translate(3648.914062 0)"/>
     <use xlink:href="#DejaVuSans-6e" transform="translate(3710.095703 0)"/>
     <use xlink:href="#DejaVuSans-3a" transform="translate(3773.474609 0)"/>
     <use xlink:href="#DejaVuSans-20" transform="translate(3807.166016 0)"/>
     <use xlink:href="#DejaVuSans-5a" transform="translate(3838.953125 0)"/>
     <use xlink:href="#DejaVuSans-29" transform="translate(3907.458984 0)"/>
    </g>
   </g>
   <g id="legend_1">
    <g id="patch_7">
     <path d="M 54.72 385.04 
L 117.35125 385.04 
Q 119.35125 385.04 119.35125 383.04 
L 119.35125 237.25875 
Q 119.35125 235.25875 117.35125 235.25875 
L 54.72 235.25875 
Q 52.72 235.25875 52.72 237.25875 
L 52.72 383.04 
Q 52.72 385.04 54.72 385.04 
z
" style="fill: #ffffff; opacity: 0.8; stroke: #cccccc; stroke-linejoin: miter"/>
    </g>
    <g id="line2d_35">
     <path d="M 56.72 243.357188 
L 66.72 243.357188 
L 76.72 243.357188 
" style="fill: none; stroke: #1f77b4; stroke-width: 1.5; stroke-linecap: square"/>
    </g>
    <g id="text_16">
     <!-- p=0.1 -->
     <g transform="translate(84.72 246.857188) scale(0.1 -0.1)">
      <use xlink:href="#DejaVuSans-70"/>
      <use xlink:href="#DejaVuSans-3d" transform="translate(63.476562 0)"/>
      <use xlink:href="#DejaVuSans-30" transform="translate(147.265625 0)"/>
      <use xlink:href="#DejaVuSans-2e" transform="translate(210.888672 0)"/>
      <use xlink:href="#DejaVuSans-31" transform="translate(242.675781 0)"/>
     </g>
    </g>
    <g id="line2d_36">
     <path d="M 56.72 258.035313 
L 66.72 258.035313 
L 76.72 258.035313 
" style="fill: none; stroke: #ff7f0e; stroke-width: 1.5; stroke-linecap: square"/>
    </g>
    <g id="text_17">
     <!-- p=0.2 -->
     <g transform="translate(84.72 261.535313) scale(0.1 -0.1)">
      <use xlink:href="#DejaVuSans-70"/>
      <use xlink:href="#DejaVuSans-3d" transform="translate(63.476562 0)"/>
      <use xlink:href="#DejaVuSans-30" transform="translate(147.265625 0)"/>
      <use xlink:href="#DejaVuSans-2e" transform="translate(210.888672 0)"/>
      <use xlink:href="#DejaVuSans-32" transform="translate(242.675781 0)"/>
     </g>
    </g>
    <g id="line2d_37">
     <path d="M 56.72 272.713438 
L 66.72 272.713438 
L 76.72 272.713438 
" style="fill: none; stroke: #2ca02c; stroke-width: 1.5; stroke-linecap: square"/>
    </g>
    <g id="text_18">
     <!-- p=0.3 -->
     <g transform="translate(84.72 276.213438) scale(0.1 -0.1)">
      <use xlink:href="#DejaVuSans-70"/>
      <use xlink:href="#DejaVuSans-3d" transform="translate(63.476562 0)"/>
      <use xlink:href="#DejaVuSans-30" transform="translate(147.265625 0)"/>
      <use xlink:href="#DejaVuSans-2e" transform="translate(210.888672 0)"/>
      <use xlink:href="#DejaVuSans-33" transform="translate(242.675781 0)"/>
     </g>
    </g>
    <g id="line2d_38">
     <path d="M 56.72 287.391563 
L 66.72 287.391563 
L 76.72 287.391563 
" style="fill: none; stroke: #d62728; stroke-width: 1.5; stroke-linecap: square"/>
    </g>
    <g id="text_19">
     <!-- p=0.4 -->
     <g transform="translate(84.72 290.891563) scale(0.1 -0.1)">
      <use xlink:href="#DejaVuSans-70"/>
      <use xlink:href="#DejaVuSans-3d" transform="translate(63.476562 0)"/>
      <use xlink:href="#DejaVuSans-30" transform="translate(147.265625 0)"/>
      <use xlink:href="#DejaVuSans-2e" transform="translate(210.888672 0)"/>
      <use xlink:href="#DejaVuSans-34" transform="translate(242.675781 0)"/>
     </g>
    </g>
    <g id="line2d_39">
     <path d="M 56.72 302.069688 
L 66.72 302.069688 
L 76.72 302.069688 
" style="fill: none; stroke: #9467bd; stroke-width: 1.5; stroke-linecap: square"/>
    </g>
    <g id="text_20">
     <!-- p=0.5 -->
     <g transform="translate(84.72 305.569688) scale(0.1 -0.1)">
      <use xlink:href="#DejaVuSans-70"/>
      <use xlink:href="#DejaVuSans-3d" transform="translate(63.476562 0)"/>
      <use xlink:href="#DejaVuSans-30" transform="translate(147.265625 0)"/>
      <use xlink:href="#DejaVuSans-2e" transform="translate(210.888672 0)"/>
      <use xlink:href="#DejaVuSans-35" transform="translate(242.675781 0)"/>
     </g>
    </g>
    <g id="line2d_40">
     <path d="M 56.72 316.747813 
L 66.72 316.747813 
L 76.72 316.747813 
" style="fill: none; stroke: #8c564b; stroke-width: 1.5; stroke-linecap: square"/>
    </g>
    <g id="text_21">
     <!-- p=0.6 -->
     <g transform="translate(84.72 320.247813) scale(0.1 -0.1)">
      <use xlink:href="#DejaVuSans-70"/>
      <use xlink:href="#DejaVuSans-3d" transform="translate(63.476562 0)"/>
      <use xlink:href="#DejaVuSans-30" transform="translate(147.265625 0)"/>
      <use xlink:href="#DejaVuSans-2e" transform="translate(210.888672 0)"/>
      <use xlink:href="#DejaVuSans-36" transform="translate(242.675781 0)"/>
     </g>
    </g>
    <g id="line2d_41">
     <path d="M 56.72 331.425938 
L 66.72 331.425938 
L 76.72 331.425938 
" style="fill: none; stroke: #e377c2; stroke-width: 1.5; stroke-linecap: square"/>
    </g>
    <g id="text_22">
     <!-- p=0.7 -->
     <g transform="translate(84.72 334.925938) scale(0.1 -0.1)">
      <defs>
       <path id="DejaVuSans-37" d="M 525 4666 
L 3525 4666 
L 3525 4397 
L 1831 0 
L 1172 0 
L 2766 4134 
L 525 4134 
L 525 4666 
z
" transform="scale(0.015625)"/>
      </defs>
      <use xlink:href="#DejaVuSans-70"/>
      <use xlink:href="#DejaVuSans-3d" transform="translate(63.476562 0)"/>
      <use xlink:href="#DejaVuSans-30" transform="translate(147.265625 0)"/>
      <use xlink:href="#DejaVuSans-2e" transform="translate(210.888672 0)"/>
      <use xlink:href="#DejaVuSans-37" transform="translate(242.675781 0)"/>
     </g>
    </g>
    <g id="line2d_42">
     <path d="M 56.72 346.104062 
L 66.72 346.104062 
L 76.72 346.104062 
" style="fill: none; stroke: #7f7f7f; stroke-width: 1.5; stroke-linecap: square"/>
    </g>
    <g id="text_23">
     <!-- p=0.8 -->
     <g transform="translate(84.72 349.604062) scale(0.1 -0.1)">
      <use xlink:href="#DejaVuSans-70"/>
      <use xlink:href="#DejaVuSans-3d" transform="translate(63.476562 0)"/>
      <use xlink:href="#DejaVuSans-30" transform="translate(147.265625 0)"/>
      <use xlink:href="#DejaVuSans-2e" transform="translate(210.888672 0)"/>
      <use xlink:href="#DejaVuSans-38" transform="translate(242.675781 0)"/>
     </g>
    </g>
    <g id="line2d_43">
     <path d="M 56.72 360.782188 
L 66.72 360.782188 
L 76.72 360.782188 
" style="fill: none; stroke: #bcbd22; stroke-width: 1.5; stroke-linecap: square"/>
    </g>
    <g id="text_24">
     <!-- p=0.9 -->
     <g transform="translate(84.72 364.282188) scale(0.1 -0.1)">
      <defs>
       <path id="DejaVuSans-39" d="M 703 97 
L 703 672 
Q 941 559 1184 500 
Q 1428 441 1663 441 
Q 2288 441 2617 861 
Q 2947 1281 2994 2138 
Q 2813 1869 2534 1725 
Q 2256 1581 1919 1581 
Q 1219 1581 811 2004 
Q 403 2428 403 3163 
Q 403 3881 828 4315 
Q 1253 4750 1959 4750 
Q 2769 4750 3195 4129 
Q 3622 3509 3622 2328 
Q 3622 1225 3098 567 
Q 2575 -91 1691 -91 
Q 1453 -91 1209 -44 
Q 966 3 703 97 
z
M 1959 2075 
Q 2384 2075 2632 2365 
Q 2881 2656 2881 3163 
Q 2881 3666 2632 3958 
Q 2384 4250 1959 4250 
Q 1534 4250 1286 3958 
Q 1038 3666 1038 3163 
Q 1038 2656 1286 2365 
Q 1534 2075 1959 2075 
z
" transform="scale(0.015625)"/>
      </defs>
      <use xlink:href="#DejaVuSans-70"/>
      <use xlink:href="#DejaVuSans-3d" transform="translate(63.476562 0)"/>
      <use xlink:href="#DejaVuSans-30" transform="translate(147.265625 0)"/>
      <use xlink:href="#DejaVuSans-2e" transform="translate(210.888672 0)"/>
      <use xlink:href="#DejaVuSans-39" transform="translate(242.675781 0)"/>
     </g>
    </g>
    <g id="line2d_44">
     <path d="M 56.72 375.460312 
L 66.72 375.460312 
L 76.72 375.460312 
" style="fill: none; stroke: #17becf; stroke-width: 1.5; stroke-linecap: square"/>
    </g>
    <g id="text_25">
     <!-- p=1.0 -->
     <g transform="translate(84.72 378.960312) scale(0.1 -0.1)">
      <use xlink:href="#DejaVuSans-70"/>
      <use xlink:href="#DejaVuSans-3d" transform="translate(63.476562 0)"/>
      <use xlink:href="#DejaVuSans-31" transform="translate(147.265625 0)"/>
      <use xlink:href="#DejaVuSans-2e" transform="translate(210.888672 0)"/>
      <use xlink:href="#DejaVuSans-30" transform="translate(242.675781 0)"/>
     </g>
    </g>
   </g>
  </g>
 </g>
 <defs>
  <clipPath id="pcd58781fd6">
   <rect x="47.72" y="26.88" width="661.48" height="363.16"/>
  </clipPath>
 </defs>
</svg>
