<?xml version="1.0" encoding="utf-8" standalone="no"?>
<!DOCTYPE svg PUBLIC "-//W3C//DTD SVG 1.1//EN"
  "http://www.w3.org/Graphics/SVG/1.1/DTD/svg11.dtd">
<svg xmlns:xlink="http://www.w3.org/1999/xlink" width="720pt" height="432pt" viewBox="0 0 720 432" xmlns="http://www.w3.org/2000/svg" version="1.1">
 <metadata>
  <rdf:RDF xmlns:dc="http://purl.org/dc/elements/1.1/" xmlns:cc="http://creativecommons.org/ns#" xmlns:rdf="http://www.w3.org/1999/02/22-rdf-syntax-ns#">
   <cc:Work>
    <dc:type rdf:resource="http://purl.org/dc/dcmitype/StillImage"/>
    <dc:date>2025-08-25T13:17:26.524715</dc:date>
    <dc:format>image/svg+xml</dc:format>
    <dc:creator>
     <cc:Agent>
      <dc:title>Matplotlib v3.10.3, https://matplotlib.org/</dc:title>
     </cc:Agent>
    </dc:creator>
   </cc:Work>
  </rdf:RDF>
 </metadata>
 <defs>
  <style type="text/css">*{stroke-linejoin: round; stroke-linecap: butt}</style>
 </defs>
 <g id="figure_1">
  <g id="patch_1">
   <path d="M 0 432 
L 720 432 
L 720 0 
L 0 0 
z
" style="fill: #ffffff"/>
  </g>
  <g id="axes_1">
   <g id="patch_2">
    <path d="M 47.72 390.04 
L 709.2 390.04 
L 709.2 26.88 
L 47.72 26.88 
z
" style="fill: #ffffff"/>
   </g>
   <g id="matplotlib.axis_1">
    <g id="xtick_1">
     <g id="line2d_1">
      <path d="M 77.787273 390.04 
L 77.787273 26.88 
" clip-path="url(#p6a65b28459)" style="fill: none; stroke: #b0b0b0; stroke-width: 0.8; stroke-linecap: square"/>
     </g>
     <g id="line2d_2">
      <defs>
       <path id="ma3fa5943b6" d="M 0 0 
L 0 3.5 
" style="stroke: #000000; stroke-width: 0.8"/>
      </defs>
      <g>
       <use xlink:href="#ma3fa5943b6" x="77.787273" y="390.04" style="stroke: #000000; stroke-width: 0.8"/>
      </g>
     </g>
     <g id="text_1">
      <!-- 0 -->
      <g transform="translate(74.606023 404.638438) scale(0.1 -0.1)">
       <defs>
        <path id="DejaVuSans-30" d="M 2034 4250 
Q 1547 4250 1301 3770 
Q 1056 3291 1056 2328 
Q 1056 1369 1301 889 
Q 1547 409 2034 409 
Q 2525 409 2770 889 
Q 3016 1369 3016 2328 
Q 3016 3291 2770 3770 
Q 2525 4250 2034 4250 
z
M 2034 4750 
Q 2819 4750 3233 4129 
Q 3647 3509 3647 2328 
Q 3647 1150 3233 529 
Q 2819 -91 2034 -91 
Q 1250 -91 836 529 
Q 422 1150 422 2328 
Q 422 3509 836 4129 
Q 1250 4750 2034 4750 
z
" transform="scale(0.015625)"/>
       </defs>
       <use xlink:href="#DejaVuSans-30"/>
      </g>
     </g>
    </g>
    <g id="xtick_2">
     <g id="line2d_3">
      <path d="M 162.483816 390.04 
L 162.483816 26.88 
" clip-path="url(#p6a65b28459)" style="fill: none; stroke: #b0b0b0; stroke-width: 0.8; stroke-linecap: square"/>
     </g>
     <g id="line2d_4">
      <g>
       <use xlink:href="#ma3fa5943b6" x="162.483816" y="390.04" style="stroke: #000000; stroke-width: 0.8"/>
      </g>
     </g>
     <g id="text_2">
      <!-- 10 -->
      <g transform="translate(156.121316 404.638438) scale(0.1 -0.1)">
       <defs>
        <path id="DejaVuSans-31" d="M 794 531 
L 1825 531 
L 1825 4091 
L 703 3866 
L 703 4441 
L 1819 4666 
L 2450 4666 
L 2450 531 
L 3481 531 
L 3481 0 
L 794 0 
L 794 531 
z
" transform="scale(0.015625)"/>
       </defs>
       <use xlink:href="#DejaVuSans-31"/>
       <use xlink:href="#DejaVuSans-30" transform="translate(63.623047 0)"/>
      </g>
     </g>
    </g>
    <g id="xtick_3">
     <g id="line2d_5">
      <path d="M 247.180359 390.04 
L 247.180359 26.88 
" clip-path="url(#p6a65b28459)" style="fill: none; stroke: #b0b0b0; stroke-width: 0.8; stroke-linecap: square"/>
     </g>
     <g id="line2d_6">
      <g>
       <use xlink:href="#ma3fa5943b6" x="247.180359" y="390.04" style="stroke: #000000; stroke-width: 0.8"/>
      </g>
     </g>
     <g id="text_3">
      <!-- 20 -->
      <g transform="translate(240.817859 404.638438) scale(0.1 -0.1)">
       <defs>
        <path id="DejaVuSans-32" d="M 1228 531 
L 3431 531 
L 3431 0 
L 469 0 
L 469 531 
Q 828 903 1448 1529 
Q 2069 2156 2228 2338 
Q 2531 2678 2651 2914 
Q 2772 3150 2772 3378 
Q 2772 3750 2511 3984 
Q 2250 4219 1831 4219 
Q 1534 4219 1204 4116 
Q 875 4013 500 3803 
L 500 4441 
Q 881 4594 1212 4672 
Q 1544 4750 1819 4750 
Q 2544 4750 2975 4387 
Q 3406 4025 3406 3419 
Q 3406 3131 3298 2873 
Q 3191 2616 2906 2266 
Q 2828 2175 2409 1742 
Q 1991 1309 1228 531 
z
" transform="scale(0.015625)"/>
       </defs>
       <use xlink:href="#DejaVuSans-32"/>
       <use xlink:href="#DejaVuSans-30" transform="translate(63.623047 0)"/>
      </g>
     </g>
    </g>
    <g id="xtick_4">
     <g id="line2d_7">
      <path d="M 331.876901 390.04 
L 331.876901 26.88 
" clip-path="url(#p6a65b28459)" style="fill: none; stroke: #b0b0b0; stroke-width: 0.8; stroke-linecap: square"/>
     </g>
     <g id="line2d_8">
      <g>
       <use xlink:href="#ma3fa5943b6" x="331.876901" y="390.04" style="stroke: #000000; stroke-width: 0.8"/>
      </g>
     </g>
     <g id="text_4">
      <!-- 30 -->
      <g transform="translate(325.514401 404.638438) scale(0.1 -0.1)">
       <defs>
        <path id="DejaVuSans-33" d="M 2597 2516 
Q 3050 2419 3304 2112 
Q 3559 1806 3559 1356 
Q 3559 666 3084 287 
Q 2609 -91 1734 -91 
Q 1441 -91 1130 -33 
Q 819 25 488 141 
L 488 750 
Q 750 597 1062 519 
Q 1375 441 1716 441 
Q 2309 441 2620 675 
Q 2931 909 2931 1356 
Q 2931 1769 2642 2001 
Q 2353 2234 1838 2234 
L 1294 2234 
L 1294 2753 
L 1863 2753 
Q 2328 2753 2575 2939 
Q 2822 3125 2822 3475 
Q 2822 3834 2567 4026 
Q 2313 4219 1838 4219 
Q 1578 4219 1281 4162 
Q 984 4106 628 3988 
L 628 4550 
Q 988 4650 1302 4700 
Q 1616 4750 1894 4750 
Q 2613 4750 3031 4423 
Q 3450 4097 3450 3541 
Q 3450 3153 3228 2886 
Q 3006 2619 2597 2516 
z
" transform="scale(0.015625)"/>
       </defs>
       <use xlink:href="#DejaVuSans-33"/>
       <use xlink:href="#DejaVuSans-30" transform="translate(63.623047 0)"/>
      </g>
     </g>
    </g>
    <g id="xtick_5">
     <g id="line2d_9">
      <path d="M 416.573444 390.04 
L 416.573444 26.88 
" clip-path="url(#p6a65b28459)" style="fill: none; stroke: #b0b0b0; stroke-width: 0.8; stroke-linecap: square"/>
     </g>
     <g id="line2d_10">
      <g>
       <use xlink:href="#ma3fa5943b6" x="416.573444" y="390.04" style="stroke: #000000; stroke-width: 0.8"/>
      </g>
     </g>
     <g id="text_5">
      <!-- 40 -->
      <g transform="translate(410.210944 404.638438) scale(0.1 -0.1)">
       <defs>
        <path id="DejaVuSans-34" d="M 2419 4116 
L 825 1625 
L 2419 1625 
L 2419 4116 
z
M 2253 4666 
L 3047 4666 
L 3047 1625 
L 3713 1625 
L 3713 1100 
L 3047 1100 
L 3047 0 
L 2419 0 
L 2419 1100 
L 313 1100 
L 313 1709 
L 2253 4666 
z
" transform="scale(0.015625)"/>
       </defs>
       <use xlink:href="#DejaVuSans-34"/>
       <use xlink:href="#DejaVuSans-30" transform="translate(63.623047 0)"/>
      </g>
     </g>
    </g>
    <g id="xtick_6">
     <g id="line2d_11">
      <path d="M 501.269987 390.04 
L 501.269987 26.88 
" clip-path="url(#p6a65b28459)" style="fill: none; stroke: #b0b0b0; stroke-width: 0.8; stroke-linecap: square"/>
     </g>
     <g id="line2d_12">
      <g>
       <use xlink:href="#ma3fa5943b6" x="501.269987" y="390.04" style="stroke: #000000; stroke-width: 0.8"/>
      </g>
     </g>
     <g id="text_6">
      <!-- 50 -->
      <g transform="translate(494.907487 404.638438) scale(0.1 -0.1)">
       <defs>
        <path id="DejaVuSans-35" d="M 691 4666 
L 3169 4666 
L 3169 4134 
L 1269 4134 
L 1269 2991 
Q 1406 3038 1543 3061 
Q 1681 3084 1819 3084 
Q 2600 3084 3056 2656 
Q 3513 2228 3513 1497 
Q 3513 744 3044 326 
Q 2575 -91 1722 -91 
Q 1428 -91 1123 -41 
Q 819 9 494 109 
L 494 744 
Q 775 591 1075 516 
Q 1375 441 1709 441 
Q 2250 441 2565 725 
Q 2881 1009 2881 1497 
Q 2881 1984 2565 2268 
Q 2250 2553 1709 2553 
Q 1456 2553 1204 2497 
Q 953 2441 691 2322 
L 691 4666 
z
" transform="scale(0.015625)"/>
       </defs>
       <use xlink:href="#DejaVuSans-35"/>
       <use xlink:href="#DejaVuSans-30" transform="translate(63.623047 0)"/>
      </g>
     </g>
    </g>
    <g id="xtick_7">
     <g id="line2d_13">
      <path d="M 585.96653 390.04 
L 585.96653 26.88 
" clip-path="url(#p6a65b28459)" style="fill: none; stroke: #b0b0b0; stroke-width: 0.8; stroke-linecap: square"/>
     </g>
     <g id="line2d_14">
      <g>
       <use xlink:href="#ma3fa5943b6" x="585.96653" y="390.04" style="stroke: #000000; stroke-width: 0.8"/>
      </g>
     </g>
     <g id="text_7">
      <!-- 60 -->
      <g transform="translate(579.60403 404.638438) scale(0.1 -0.1)">
       <defs>
        <path id="DejaVuSans-36" d="M 2113 2584 
Q 1688 2584 1439 2293 
Q 1191 2003 1191 1497 
Q 1191 994 1439 701 
Q 1688 409 2113 409 
Q 2538 409 2786 701 
Q 3034 994 3034 1497 
Q 3034 2003 2786 2293 
Q 2538 2584 2113 2584 
z
M 3366 4563 
L 3366 3988 
Q 3128 4100 2886 4159 
Q 2644 4219 2406 4219 
Q 1781 4219 1451 3797 
Q 1122 3375 1075 2522 
Q 1259 2794 1537 2939 
Q 1816 3084 2150 3084 
Q 2853 3084 3261 2657 
Q 3669 2231 3669 1497 
Q 3669 778 3244 343 
Q 2819 -91 2113 -91 
Q 1303 -91 875 529 
Q 447 1150 447 2328 
Q 447 3434 972 4092 
Q 1497 4750 2381 4750 
Q 2619 4750 2861 4703 
Q 3103 4656 3366 4563 
z
" transform="scale(0.015625)"/>
       </defs>
       <use xlink:href="#DejaVuSans-36"/>
       <use xlink:href="#DejaVuSans-30" transform="translate(63.623047 0)"/>
      </g>
     </g>
    </g>
    <g id="xtick_8">
     <g id="line2d_15">
      <path d="M 670.663073 390.04 
L 670.663073 26.88 
" clip-path="url(#p6a65b28459)" style="fill: none; stroke: #b0b0b0; stroke-width: 0.8; stroke-linecap: square"/>
     </g>
     <g id="line2d_16">
      <g>
       <use xlink:href="#ma3fa5943b6" x="670.663073" y="390.04" style="stroke: #000000; stroke-width: 0.8"/>
      </g>
     </g>
     <g id="text_8">
      <!-- 70 -->
      <g transform="translate(664.300573 404.638438) scale(0.1 -0.1)">
       <defs>
        <path id="DejaVuSans-37" d="M 525 4666 
L 3525 4666 
L 3525 4397 
L 1831 0 
L 1172 0 
L 2766 4134 
L 525 4134 
L 525 4666 
z
" transform="scale(0.015625)"/>
       </defs>
       <use xlink:href="#DejaVuSans-37"/>
       <use xlink:href="#DejaVuSans-30" transform="translate(63.623047 0)"/>
      </g>
     </g>
    </g>
    <g id="text_9">
     <!-- Time -->
     <g transform="translate(366.226406 418.316562) scale(0.1 -0.1)">
      <defs>
       <path id="DejaVuSans-54" d="M -19 4666 
L 3928 4666 
L 3928 4134 
L 2272 4134 
L 2272 0 
L 1638 0 
L 1638 4134 
L -19 4134 
L -19 4666 
z
" transform="scale(0.015625)"/>
       <path id="DejaVuSans-69" d="M 603 3500 
L 1178 3500 
L 1178 0 
L 603 0 
L 603 3500 
z
M 603 4863 
L 1178 4863 
L 1178 4134 
L 603 4134 
L 603 4863 
z
" transform="scale(0.015625)"/>
       <path id="DejaVuSans-6d" d="M 3328 2828 
Q 3544 3216 3844 3400 
Q 4144 3584 4550 3584 
Q 5097 3584 5394 3201 
Q 5691 2819 5691 2113 
L 5691 0 
L 5113 0 
L 5113 2094 
Q 5113 2597 4934 2840 
Q 4756 3084 4391 3084 
Q 3944 3084 3684 2787 
Q 3425 2491 3425 1978 
L 3425 0 
L 2847 0 
L 2847 2094 
Q 2847 2600 2669 2842 
Q 2491 3084 2119 3084 
Q 1678 3084 1418 2786 
Q 1159 2488 1159 1978 
L 1159 0 
L 581 0 
L 581 3500 
L 1159 3500 
L 1159 2956 
Q 1356 3278 1631 3431 
Q 1906 3584 2284 3584 
Q 2666 3584 2933 3390 
Q 3200 3197 3328 2828 
z
" transform="scale(0.015625)"/>
       <path id="DejaVuSans-65" d="M 3597 1894 
L 3597 1613 
L 953 1613 
Q 991 1019 1311 708 
Q 1631 397 2203 397 
Q 2534 397 2845 478 
Q 3156 559 3463 722 
L 3463 178 
Q 3153 47 2828 -22 
Q 2503 -91 2169 -91 
Q 1331 -91 842 396 
Q 353 884 353 1716 
Q 353 2575 817 3079 
Q 1281 3584 2069 3584 
Q 2775 3584 3186 3129 
Q 3597 2675 3597 1894 
z
M 3022 2063 
Q 3016 2534 2758 2815 
Q 2500 3097 2075 3097 
Q 1594 3097 1305 2825 
Q 1016 2553 972 2059 
L 3022 2063 
z
" transform="scale(0.015625)"/>
      </defs>
      <use xlink:href="#DejaVuSans-54"/>
      <use xlink:href="#DejaVuSans-69" transform="translate(57.958984 0)"/>
      <use xlink:href="#DejaVuSans-6d" transform="translate(85.742188 0)"/>
      <use xlink:href="#DejaVuSans-65" transform="translate(183.154297 0)"/>
     </g>
    </g>
   </g>
   <g id="matplotlib.axis_2">
    <g id="ytick_1">
     <g id="line2d_17">
      <path d="M 47.72 373.532727 
L 709.2 373.532727 
" clip-path="url(#p6a65b28459)" style="fill: none; stroke: #b0b0b0; stroke-width: 0.8; stroke-linecap: square"/>
     </g>
     <g id="line2d_18">
      <defs>
       <path id="m48abd9c32b" d="M 0 0 
L -3.5 0 
" style="stroke: #000000; stroke-width: 0.8"/>
      </defs>
      <g>
       <use xlink:href="#m48abd9c32b" x="47.72" y="373.532727" style="stroke: #000000; stroke-width: 0.8"/>
      </g>
     </g>
     <g id="text_10">
      <!-- 0.0 -->
      <g transform="translate(24.816875 377.331946) scale(0.1 -0.1)">
       <defs>
        <path id="DejaVuSans-2e" d="M 684 794 
L 1344 794 
L 1344 0 
L 684 0 
L 684 794 
z
" transform="scale(0.015625)"/>
       </defs>
       <use xlink:href="#DejaVuSans-30"/>
       <use xlink:href="#DejaVuSans-2e" transform="translate(63.623047 0)"/>
       <use xlink:href="#DejaVuSans-30" transform="translate(95.410156 0)"/>
      </g>
     </g>
    </g>
    <g id="ytick_2">
     <g id="line2d_19">
      <path d="M 47.72 301.348572 
L 709.2 301.348572 
" clip-path="url(#p6a65b28459)" style="fill: none; stroke: #b0b0b0; stroke-width: 0.8; stroke-linecap: square"/>
     </g>
     <g id="line2d_20">
      <g>
       <use xlink:href="#m48abd9c32b" x="47.72" y="301.348572" style="stroke: #000000; stroke-width: 0.8"/>
      </g>
     </g>
     <g id="text_11">
      <!-- 0.5 -->
      <g transform="translate(24.816875 305.14779) scale(0.1 -0.1)">
       <use xlink:href="#DejaVuSans-30"/>
       <use xlink:href="#DejaVuSans-2e" transform="translate(63.623047 0)"/>
       <use xlink:href="#DejaVuSans-35" transform="translate(95.410156 0)"/>
      </g>
     </g>
    </g>
    <g id="ytick_3">
     <g id="line2d_21">
      <path d="M 47.72 229.164416 
L 709.2 229.164416 
" clip-path="url(#p6a65b28459)" style="fill: none; stroke: #b0b0b0; stroke-width: 0.8; stroke-linecap: square"/>
     </g>
     <g id="line2d_22">
      <g>
       <use xlink:href="#m48abd9c32b" x="47.72" y="229.164416" style="stroke: #000000; stroke-width: 0.8"/>
      </g>
     </g>
     <g id="text_12">
      <!-- 1.0 -->
      <g transform="translate(24.816875 232.963635) scale(0.1 -0.1)">
       <use xlink:href="#DejaVuSans-31"/>
       <use xlink:href="#DejaVuSans-2e" transform="translate(63.623047 0)"/>
       <use xlink:href="#DejaVuSans-30" transform="translate(95.410156 0)"/>
      </g>
     </g>
    </g>
    <g id="ytick_4">
     <g id="line2d_23">
      <path d="M 47.72 156.98026 
L 709.2 156.98026 
" clip-path="url(#p6a65b28459)" style="fill: none; stroke: #b0b0b0; stroke-width: 0.8; stroke-linecap: square"/>
     </g>
     <g id="line2d_24">
      <g>
       <use xlink:href="#m48abd9c32b" x="47.72" y="156.98026" style="stroke: #000000; stroke-width: 0.8"/>
      </g>
     </g>
     <g id="text_13">
      <!-- 1.5 -->
      <g transform="translate(24.816875 160.779479) scale(0.1 -0.1)">
       <use xlink:href="#DejaVuSans-31"/>
       <use xlink:href="#DejaVuSans-2e" transform="translate(63.623047 0)"/>
       <use xlink:href="#DejaVuSans-35" transform="translate(95.410156 0)"/>
      </g>
     </g>
    </g>
    <g id="ytick_5">
     <g id="line2d_25">
      <path d="M 47.72 84.796105 
L 709.2 84.796105 
" clip-path="url(#p6a65b28459)" style="fill: none; stroke: #b0b0b0; stroke-width: 0.8; stroke-linecap: square"/>
     </g>
     <g id="line2d_26">
      <g>
       <use xlink:href="#m48abd9c32b" x="47.72" y="84.796105" style="stroke: #000000; stroke-width: 0.8"/>
      </g>
     </g>
     <g id="text_14">
      <!-- 2.0 -->
      <g transform="translate(24.816875 88.595324) scale(0.1 -0.1)">
       <use xlink:href="#DejaVuSans-32"/>
       <use xlink:href="#DejaVuSans-2e" transform="translate(63.623047 0)"/>
       <use xlink:href="#DejaVuSans-30" transform="translate(95.410156 0)"/>
      </g>
     </g>
    </g>
    <g id="text_15">
     <!-- Half-chain entropy -->
     <g transform="translate(18.737187 254.432656) rotate(-90) scale(0.1 -0.1)">
      <defs>
       <path id="DejaVuSans-48" d="M 628 4666 
L 1259 4666 
L 1259 2753 
L 3553 2753 
L 3553 4666 
L 4184 4666 
L 4184 0 
L 3553 0 
L 3553 2222 
L 1259 2222 
L 1259 0 
L 628 0 
L 628 4666 
z
" transform="scale(0.015625)"/>
       <path id="DejaVuSans-61" d="M 2194 1759 
Q 1497 1759 1228 1600 
Q 959 1441 959 1056 
Q 959 750 1161 570 
Q 1363 391 1709 391 
Q 2188 391 2477 730 
Q 2766 1069 2766 1631 
L 2766 1759 
L 2194 1759 
z
M 3341 1997 
L 3341 0 
L 2766 0 
L 2766 531 
Q 2569 213 2275 61 
Q 1981 -91 1556 -91 
Q 1019 -91 701 211 
Q 384 513 384 1019 
Q 384 1609 779 1909 
Q 1175 2209 1959 2209 
L 2766 2209 
L 2766 2266 
Q 2766 2663 2505 2880 
Q 2244 3097 1772 3097 
Q 1472 3097 1187 3025 
Q 903 2953 641 2809 
L 641 3341 
Q 956 3463 1253 3523 
Q 1550 3584 1831 3584 
Q 2591 3584 2966 3190 
Q 3341 2797 3341 1997 
z
" transform="scale(0.015625)"/>
       <path id="DejaVuSans-6c" d="M 603 4863 
L 1178 4863 
L 1178 0 
L 603 0 
L 603 4863 
z
" transform="scale(0.015625)"/>
       <path id="DejaVuSans-66" d="M 2375 4863 
L 2375 4384 
L 1825 4384 
Q 1516 4384 1395 4259 
Q 1275 4134 1275 3809 
L 1275 3500 
L 2222 3500 
L 2222 3053 
L 1275 3053 
L 1275 0 
L 697 0 
L 697 3053 
L 147 3053 
L 147 3500 
L 697 3500 
L 697 3744 
Q 697 4328 969 4595 
Q 1241 4863 1831 4863 
L 2375 4863 
z
" transform="scale(0.015625)"/>
       <path id="DejaVuSans-2d" d="M 313 2009 
L 1997 2009 
L 1997 1497 
L 313 1497 
L 313 2009 
z
" transform="scale(0.015625)"/>
       <path id="DejaVuSans-63" d="M 3122 3366 
L 3122 2828 
Q 2878 2963 2633 3030 
Q 2388 3097 2138 3097 
Q 1578 3097 1268 2742 
Q 959 2388 959 1747 
Q 959 1106 1268 751 
Q 1578 397 2138 397 
Q 2388 397 2633 464 
Q 2878 531 3122 666 
L 3122 134 
Q 2881 22 2623 -34 
Q 2366 -91 2075 -91 
Q 1284 -91 818 406 
Q 353 903 353 1747 
Q 353 2603 823 3093 
Q 1294 3584 2113 3584 
Q 2378 3584 2631 3529 
Q 2884 3475 3122 3366 
z
" transform="scale(0.015625)"/>
       <path id="DejaVuSans-68" d="M 3513 2113 
L 3513 0 
L 2938 0 
L 2938 2094 
Q 2938 2591 2744 2837 
Q 2550 3084 2163 3084 
Q 1697 3084 1428 2787 
Q 1159 2491 1159 1978 
L 1159 0 
L 581 0 
L 581 4863 
L 1159 4863 
L 1159 2956 
Q 1366 3272 1645 3428 
Q 1925 3584 2291 3584 
Q 2894 3584 3203 3211 
Q 3513 2838 3513 2113 
z
" transform="scale(0.015625)"/>
       <path id="DejaVuSans-6e" d="M 3513 2113 
L 3513 0 
L 2938 0 
L 2938 2094 
Q 2938 2591 2744 2837 
Q 2550 3084 2163 3084 
Q 1697 3084 1428 2787 
Q 1159 2491 1159 1978 
L 1159 0 
L 581 0 
L 581 3500 
L 1159 3500 
L 1159 2956 
Q 1366 3272 1645 3428 
Q 1925 3584 2291 3584 
Q 2894 3584 3203 3211 
Q 3513 2838 3513 2113 
z
" transform="scale(0.015625)"/>
       <path id="DejaVuSans-20" transform="scale(0.015625)"/>
       <path id="DejaVuSans-74" d="M 1172 4494 
L 1172 3500 
L 2356 3500 
L 2356 3053 
L 1172 3053 
L 1172 1153 
Q 1172 725 1289 603 
Q 1406 481 1766 481 
L 2356 481 
L 2356 0 
L 1766 0 
Q 1100 0 847 248 
Q 594 497 594 1153 
L 594 3053 
L 172 3053 
L 172 3500 
L 594 3500 
L 594 4494 
L 1172 4494 
z
" transform="scale(0.015625)"/>
       <path id="DejaVuSans-72" d="M 2631 2963 
Q 2534 3019 2420 3045 
Q 2306 3072 2169 3072 
Q 1681 3072 1420 2755 
Q 1159 2438 1159 1844 
L 1159 0 
L 581 0 
L 581 3500 
L 1159 3500 
L 1159 2956 
Q 1341 3275 1631 3429 
Q 1922 3584 2338 3584 
Q 2397 3584 2469 3576 
Q 2541 3569 2628 3553 
L 2631 2963 
z
" transform="scale(0.015625)"/>
       <path id="DejaVuSans-6f" d="M 1959 3097 
Q 1497 3097 1228 2736 
Q 959 2375 959 1747 
Q 959 1119 1226 758 
Q 1494 397 1959 397 
Q 2419 397 2687 759 
Q 2956 1122 2956 1747 
Q 2956 2369 2687 2733 
Q 2419 3097 1959 3097 
z
M 1959 3584 
Q 2709 3584 3137 3096 
Q 3566 2609 3566 1747 
Q 3566 888 3137 398 
Q 2709 -91 1959 -91 
Q 1206 -91 779 398 
Q 353 888 353 1747 
Q 353 2609 779 3096 
Q 1206 3584 1959 3584 
z
" transform="scale(0.015625)"/>
       <path id="DejaVuSans-70" d="M 1159 525 
L 1159 -1331 
L 581 -1331 
L 581 3500 
L 1159 3500 
L 1159 2969 
Q 1341 3281 1617 3432 
Q 1894 3584 2278 3584 
Q 2916 3584 3314 3078 
Q 3713 2572 3713 1747 
Q 3713 922 3314 415 
Q 2916 -91 2278 -91 
Q 1894 -91 1617 61 
Q 1341 213 1159 525 
z
M 3116 1747 
Q 3116 2381 2855 2742 
Q 2594 3103 2138 3103 
Q 1681 3103 1420 2742 
Q 1159 2381 1159 1747 
Q 1159 1113 1420 752 
Q 1681 391 2138 391 
Q 2594 391 2855 752 
Q 3116 1113 3116 1747 
z
" transform="scale(0.015625)"/>
       <path id="DejaVuSans-79" d="M 2059 -325 
Q 1816 -950 1584 -1140 
Q 1353 -1331 966 -1331 
L 506 -1331 
L 506 -850 
L 844 -850 
Q 1081 -850 1212 -737 
Q 1344 -625 1503 -206 
L 1606 56 
L 191 3500 
L 800 3500 
L 1894 763 
L 2988 3500 
L 3597 3500 
L 2059 -325 
z
" transform="scale(0.015625)"/>
      </defs>
      <use xlink:href="#DejaVuSans-48"/>
      <use xlink:href="#DejaVuSans-61" transform="translate(75.195312 0)"/>
      <use xlink:href="#DejaVuSans-6c" transform="translate(136.474609 0)"/>
      <use xlink:href="#DejaVuSans-66" transform="translate(164.257812 0)"/>
      <use xlink:href="#DejaVuSans-2d" transform="translate(193.962891 0)"/>
      <use xlink:href="#DejaVuSans-63" transform="translate(230.046875 0)"/>
      <use xlink:href="#DejaVuSans-68" transform="translate(285.027344 0)"/>
      <use xlink:href="#DejaVuSans-61" transform="translate(348.40625 0)"/>
      <use xlink:href="#DejaVuSans-69" transform="translate(409.685547 0)"/>
      <use xlink:href="#DejaVuSans-6e" transform="translate(437.46875 0)"/>
      <use xlink:href="#DejaVuSans-20" transform="translate(500.847656 0)"/>
      <use xlink:href="#DejaVuSans-65" transform="translate(532.634766 0)"/>
      <use xlink:href="#DejaVuSans-6e" transform="translate(594.158203 0)"/>
      <use xlink:href="#DejaVuSans-74" transform="translate(657.537109 0)"/>
      <use xlink:href="#DejaVuSans-72" transform="translate(696.746094 0)"/>
      <use xlink:href="#DejaVuSans-6f" transform="translate(735.609375 0)"/>
      <use xlink:href="#DejaVuSans-70" transform="translate(796.791016 0)"/>
      <use xlink:href="#DejaVuSans-79" transform="translate(860.267578 0)"/>
     </g>
    </g>
   </g>
   <g id="line2d_27">
    <path d="M 77.787273 373.532727 
L 86.256927 51.389176 
L 94.726581 44.262541 
L 103.196236 43.387273 
L 111.66589 43.579941 
L 120.135544 44.104532 
L 128.605198 44.667526 
L 137.074853 45.258181 
L 145.544507 45.684291 
L 154.014161 46.392132 
L 162.483816 47.37166 
L 170.95347 47.836738 
L 179.423124 48.30215 
L 187.892778 48.827806 
L 196.362433 49.472886 
L 204.832087 50.228703 
L 213.301741 50.249545 
L 221.771396 50.984569 
L 230.24105 51.354449 
L 238.710704 51.9278 
L 247.180359 52.73449 
L 255.650013 52.997494 
L 264.119667 53.103536 
L 272.589321 53.612296 
L 281.058976 53.970852 
L 289.52863 54.021397 
L 297.998284 54.564213 
L 306.467939 54.879564 
L 314.937593 55.426482 
L 323.407247 55.305553 
L 331.876901 55.788246 
L 340.346556 56.114302 
L 348.81621 56.449747 
L 357.285864 56.444964 
L 365.755519 56.444705 
L 374.225173 56.865433 
L 382.694827 57.334595 
L 391.164481 57.251946 
L 399.634136 57.188784 
L 408.10379 57.565918 
L 416.573444 57.961585 
L 425.043099 58.110334 
L 433.512753 57.981641 
L 441.982407 58.085772 
L 450.452061 58.133992 
L 458.921716 58.221692 
L 467.39137 58.082066 
L 475.861024 58.528445 
L 484.330679 58.474317 
L 492.800333 58.600306 
L 501.269987 58.912345 
L 509.739641 59.009068 
L 518.209296 59.178756 
L 526.67895 59.093102 
L 535.148604 59.44017 
L 543.618259 59.414897 
L 552.087913 59.409137 
L 560.557567 59.449978 
L 569.027222 59.704356 
L 577.496876 59.592185 
L 585.96653 59.771846 
L 594.436184 59.730992 
L 602.905839 60.129143 
L 611.375493 60.089121 
L 619.845147 60.171382 
L 628.314802 59.901117 
L 636.784456 60.056972 
L 645.25411 60.239529 
L 653.723764 60.098883 
L 662.193419 60.130258 
L 670.663073 60.216336 
L 679.132727 60.337473 
" clip-path="url(#p6a65b28459)" style="fill: none; stroke: #1f77b4; stroke-width: 1.5; stroke-linecap: square"/>
   </g>
   <g id="line2d_28">
    <path d="M 77.787273 373.532727 
L 86.256927 104.946719 
L 94.726581 99.759923 
L 103.196236 99.540978 
L 111.66589 100.598924 
L 120.135544 102.127614 
L 128.605198 103.476912 
L 137.074853 104.69685 
L 145.544507 105.903355 
L 154.014161 107.227752 
L 162.483816 109.069857 
L 170.95347 110.360016 
L 179.423124 111.082125 
L 187.892778 111.978479 
L 196.362433 112.757277 
L 204.832087 113.944058 
L 213.301741 114.92062 
L 221.771396 115.515506 
L 230.24105 116.32568 
L 238.710704 117.181584 
L 247.180359 117.838682 
L 255.650013 118.317233 
L 264.119667 118.607669 
L 272.589321 119.000721 
L 281.058976 119.772772 
L 289.52863 119.82295 
L 297.998284 121.216828 
L 306.467939 121.365205 
L 314.937593 122.222039 
L 323.407247 121.867589 
L 331.876901 122.683278 
L 340.346556 122.620349 
L 348.81621 122.951678 
L 357.285864 122.989867 
L 365.755519 123.428024 
L 374.225173 124.002221 
L 382.694827 124.465621 
L 391.164481 124.322048 
L 399.634136 124.526388 
L 408.10379 124.86818 
L 416.573444 125.07028 
L 425.043099 125.167907 
L 433.512753 125.426739 
L 441.982407 125.412113 
L 450.452061 125.726893 
L 458.921716 125.268693 
L 467.39137 125.954143 
L 475.861024 126.026893 
L 484.330679 126.095171 
L 492.800333 126.069486 
L 501.269987 126.469341 
L 509.739641 126.474924 
L 518.209296 126.889972 
L 526.67895 126.460876 
L 535.148604 127.083139 
L 543.618259 126.81489 
L 552.087913 127.305157 
L 560.557567 127.010835 
L 569.027222 127.60315 
L 577.496876 127.283738 
L 585.96653 127.750921 
L 594.436184 127.36231 
L 602.905839 127.94546 
L 611.375493 127.889427 
L 619.845147 128.21 
L 628.314802 127.554845 
L 636.784456 127.826273 
L 645.25411 127.739058 
L 653.723764 127.827807 
L 662.193419 127.695108 
L 670.663073 128.098637 
L 679.132727 128.164978 
" clip-path="url(#p6a65b28459)" style="fill: none; stroke: #ff7f0e; stroke-width: 1.5; stroke-linecap: square"/>
   </g>
   <g id="line2d_29">
    <path d="M 77.787273 373.532727 
L 86.256927 147.854038 
L 94.726581 143.365344 
L 103.196236 143.769978 
L 111.66589 144.865902 
L 120.135544 146.656201 
L 128.605198 147.988212 
L 137.074853 149.40981 
L 145.544507 151.418837 
L 154.014161 152.716966 
L 162.483816 154.965965 
L 170.95347 156.233695 
L 179.423124 157.065843 
L 187.892778 157.891328 
L 196.362433 158.896029 
L 204.832087 159.715047 
L 213.301741 160.732365 
L 221.771396 161.024919 
L 230.24105 162.119344 
L 238.710704 162.424571 
L 247.180359 163.385356 
L 255.650013 163.884341 
L 264.119667 164.301234 
L 272.589321 164.194893 
L 281.058976 164.83897 
L 289.52863 164.932544 
L 297.998284 165.973793 
L 306.467939 165.752741 
L 314.937593 166.595473 
L 323.407247 166.140683 
L 331.876901 167.024876 
L 340.346556 166.536764 
L 348.81621 167.006586 
L 357.285864 167.158199 
L 365.755519 167.379557 
L 374.225173 167.550149 
L 382.694827 168.38952 
L 391.164481 168.182619 
L 399.634136 168.297661 
L 408.10379 168.417681 
L 416.573444 168.767787 
L 425.043099 168.769429 
L 433.512753 169.189443 
L 441.982407 168.844618 
L 450.452061 169.426682 
L 458.921716 169.176361 
L 467.39137 169.514867 
L 475.861024 169.64642 
L 484.330679 170.030216 
L 492.800333 169.652714 
L 501.269987 170.100646 
L 509.739641 169.953227 
L 518.209296 170.555973 
L 526.67895 170.191211 
L 535.148604 170.585107 
L 543.618259 170.196806 
L 552.087913 171.002696 
L 560.557567 170.386466 
L 569.027222 170.776563 
L 577.496876 170.644651 
L 585.96653 171.133852 
L 594.436184 170.826787 
L 602.905839 171.357099 
L 611.375493 170.925445 
L 619.845147 171.364594 
L 628.314802 170.723225 
L 636.784456 171.20042 
L 645.25411 171.007382 
L 653.723764 171.014993 
L 662.193419 170.775063 
L 670.663073 171.201196 
L 679.132727 171.079873 
" clip-path="url(#p6a65b28459)" style="fill: none; stroke: #2ca02c; stroke-width: 1.5; stroke-linecap: square"/>
   </g>
   <g id="line2d_30">
    <path d="M 77.787273 373.532727 
L 86.256927 195.844577 
L 94.726581 192.561141 
L 103.196236 192.915807 
L 111.66589 193.663735 
L 120.135544 195.540836 
L 128.605198 196.247093 
L 137.074853 198.66254 
L 145.544507 200.017342 
L 154.014161 201.095565 
L 162.483816 204.045512 
L 170.95347 203.997926 
L 179.423124 204.869485 
L 187.892778 205.407195 
L 196.362433 206.561023 
L 204.832087 206.651388 
L 213.301741 207.681676 
L 221.771396 207.784521 
L 230.24105 208.492754 
L 238.710704 208.819154 
L 247.180359 209.87033 
L 255.650013 209.961677 
L 264.119667 210.648466 
L 272.589321 210.250839 
L 281.058976 210.948471 
L 289.52863 211.022031 
L 297.998284 212.129645 
L 306.467939 211.429994 
L 314.937593 212.365288 
L 323.407247 212.080754 
L 331.876901 212.902353 
L 340.346556 212.430595 
L 348.81621 212.98912 
L 357.285864 212.668605 
L 365.755519 213.263354 
L 374.225173 213.307427 
L 382.694827 213.886593 
L 391.164481 213.816282 
L 399.634136 214.018343 
L 408.10379 213.995028 
L 416.573444 214.498373 
L 425.043099 214.240818 
L 433.512753 214.455067 
L 441.982407 214.249996 
L 450.452061 214.864977 
L 458.921716 214.424794 
L 467.39137 214.935693 
L 475.861024 214.928558 
L 484.330679 214.953967 
L 492.800333 214.73782 
L 501.269987 215.300166 
L 509.739641 214.911967 
L 518.209296 215.495665 
L 526.67895 215.072009 
L 535.148604 215.275868 
L 543.618259 215.070537 
L 552.087913 215.922633 
L 560.557567 215.525012 
L 569.027222 215.783255 
L 577.496876 215.6548 
L 585.96653 215.996016 
L 594.436184 215.859738 
L 602.905839 216.54015 
L 611.375493 215.478646 
L 619.845147 216.13896 
L 628.314802 215.445532 
L 636.784456 216.056707 
L 645.25411 215.995343 
L 653.723764 216.177108 
L 662.193419 215.601338 
L 670.663073 216.053252 
L 679.132727 215.965911 
" clip-path="url(#p6a65b28459)" style="fill: none; stroke: #d62728; stroke-width: 1.5; stroke-linecap: square"/>
   </g>
   <g id="line2d_31">
    <path d="M 77.787273 373.532727 
L 86.256927 242.750431 
L 94.726581 240.170556 
L 103.196236 240.572809 
L 111.66589 242.194234 
L 120.135544 244.045053 
L 128.605198 245.443942 
L 137.074853 247.519957 
L 145.544507 248.452577 
L 154.014161 250.069899 
L 162.483816 250.984587 
L 170.95347 251.69052 
L 179.423124 252.505556 
L 187.892778 252.844523 
L 196.362433 253.756264 
L 204.832087 253.966341 
L 213.301741 254.533719 
L 221.771396 254.828125 
L 230.24105 254.896486 
L 238.710704 255.01952 
L 247.180359 255.866552 
L 255.650013 256.159647 
L 264.119667 256.2191 
L 272.589321 256.014762 
L 281.058976 256.840595 
L 289.52863 257.181616 
L 297.998284 257.790483 
L 306.467939 257.417069 
L 314.937593 257.734236 
L 323.407247 257.965878 
L 331.876901 258.35025 
L 340.346556 257.869942 
L 348.81621 258.909218 
L 357.285864 258.531787 
L 365.755519 258.860981 
L 374.225173 259.181651 
L 382.694827 259.470201 
L 391.164481 259.389503 
L 399.634136 259.653661 
L 408.10379 259.440346 
L 416.573444 259.861573 
L 425.043099 259.991647 
L 433.512753 259.912751 
L 441.982407 259.628266 
L 450.452061 260.152348 
L 458.921716 260.366404 
L 467.39137 260.333606 
L 475.861024 260.455322 
L 484.330679 260.491547 
L 492.800333 260.360843 
L 501.269987 260.944422 
L 509.739641 260.592278 
L 518.209296 260.540043 
L 526.67895 260.803476 
L 535.148604 260.943616 
L 543.618259 260.517654 
L 552.087913 261.048638 
L 560.557567 261.189736 
L 569.027222 261.171885 
L 577.496876 260.85437 
L 585.96653 261.060949 
L 594.436184 261.164034 
L 602.905839 261.507171 
L 611.375493 260.877511 
L 619.845147 261.119009 
L 628.314802 261.270104 
L 636.784456 261.134496 
L 645.25411 261.039571 
L 653.723764 261.377597 
L 662.193419 260.958333 
L 670.663073 261.065644 
L 679.132727 261.083954 
" clip-path="url(#p6a65b28459)" style="fill: none; stroke: #9467bd; stroke-width: 1.5; stroke-linecap: square"/>
   </g>
   <g id="line2d_32">
    <path d="M 77.787273 373.532727 
L 86.256927 279.94565 
L 94.726581 278.39615 
L 103.196236 279.290346 
L 111.66589 280.900089 
L 120.135544 282.319986 
L 128.605198 283.296376 
L 137.074853 285.075741 
L 145.544507 285.619452 
L 154.014161 286.518249 
L 162.483816 287.344625 
L 170.95347 287.859815 
L 179.423124 287.955346 
L 187.892778 288.940361 
L 196.362433 289.943098 
L 204.832087 289.864438 
L 213.301741 290.169851 
L 221.771396 290.570475 
L 230.24105 290.580671 
L 238.710704 291.126022 
L 247.180359 291.706021 
L 255.650013 291.991654 
L 264.119667 292.260816 
L 272.589321 291.761922 
L 281.058976 293.008419 
L 289.52863 293.126914 
L 297.998284 293.415894 
L 306.467939 293.02309 
L 314.937593 293.148501 
L 323.407247 293.520378 
L 331.876901 293.808699 
L 340.346556 293.566712 
L 348.81621 294.028873 
L 357.285864 294.027524 
L 365.755519 294.0929 
L 374.225173 294.281116 
L 382.694827 294.381839 
L 391.164481 294.382073 
L 399.634136 294.896912 
L 408.10379 294.272522 
L 416.573444 295.122213 
L 425.043099 294.963734 
L 433.512753 295.098448 
L 441.982407 294.61328 
L 450.452061 294.929693 
L 458.921716 295.161074 
L 467.39137 295.292364 
L 475.861024 295.040129 
L 484.330679 294.91512 
L 492.800333 295.145746 
L 501.269987 295.429559 
L 509.739641 295.138038 
L 518.209296 295.185042 
L 526.67895 295.323825 
L 535.148604 295.480535 
L 543.618259 295.028359 
L 552.087913 295.752392 
L 560.557567 295.551542 
L 569.027222 295.822968 
L 577.496876 295.265212 
L 585.96653 295.576629 
L 594.436184 295.675195 
L 602.905839 295.970501 
L 611.375493 295.531335 
L 619.845147 295.654683 
L 628.314802 296.008865 
L 636.784456 295.868916 
L 645.25411 295.604415 
L 653.723764 295.922355 
L 662.193419 295.582835 
L 670.663073 296.122657 
L 679.132727 295.46637 
" clip-path="url(#p6a65b28459)" style="fill: none; stroke: #8c564b; stroke-width: 1.5; stroke-linecap: square"/>
   </g>
   <g id="line2d_33">
    <path d="M 77.787273 373.532727 
L 86.256927 317.308969 
L 94.726581 317.532098 
L 103.196236 318.588307 
L 111.66589 319.290216 
L 120.135544 320.223609 
L 128.605198 320.76062 
L 137.074853 322.040597 
L 145.544507 322.028633 
L 154.014161 322.648419 
L 162.483816 323.34608 
L 170.95347 323.289152 
L 179.423124 323.699002 
L 187.892778 323.661334 
L 196.362433 325.067531 
L 204.832087 324.626184 
L 213.301741 324.581054 
L 221.771396 324.603679 
L 230.24105 324.378452 
L 238.710704 324.959315 
L 247.180359 325.077377 
L 255.650013 325.60917 
L 264.119667 325.360202 
L 272.589321 325.135025 
L 281.058976 325.780521 
L 289.52863 326.018 
L 297.998284 325.663534 
L 306.467939 326.00653 
L 314.937593 325.597902 
L 323.407247 325.864469 
L 331.876901 325.732715 
L 340.346556 326.24903 
L 348.81621 326.260768 
L 357.285864 326.223247 
L 365.755519 326.202697 
L 374.225173 326.498142 
L 382.694827 326.189762 
L 391.164481 326.580174 
L 399.634136 326.202178 
L 408.10379 326.428377 
L 416.573444 326.598867 
L 425.043099 326.377011 
L 433.512753 326.623836 
L 441.982407 326.800233 
L 450.452061 326.795506 
L 458.921716 326.659938 
L 467.39137 326.741404 
L 475.861024 326.641118 
L 484.330679 326.326602 
L 492.800333 326.619379 
L 501.269987 326.699555 
L 509.739641 326.362709 
L 518.209296 326.842015 
L 526.67895 326.56025 
L 535.148604 326.95014 
L 543.618259 326.551892 
L 552.087913 326.482802 
L 560.557567 326.559024 
L 569.027222 326.822498 
L 577.496876 326.80189 
L 585.96653 326.441012 
L 594.436184 326.484448 
L 602.905839 327.029535 
L 611.375493 326.584866 
L 619.845147 327.044184 
L 628.314802 326.801714 
L 636.784456 326.508065 
L 645.25411 326.838606 
L 653.723764 326.741193 
L 662.193419 326.851904 
L 670.663073 326.842177 
L 679.132727 326.577419 
" clip-path="url(#p6a65b28459)" style="fill: none; stroke: #e377c2; stroke-width: 1.5; stroke-linecap: square"/>
   </g>
   <g id="line2d_34">
    <path d="M 77.787273 373.532727 
L 86.256927 350.203742 
L 94.726581 349.497904 
L 103.196236 349.620634 
L 111.66589 349.789872 
L 120.135544 350.37093 
L 128.605198 350.637389 
L 137.074853 350.877861 
L 145.544507 350.90825 
L 154.014161 351.560735 
L 162.483816 351.326884 
L 170.95347 351.517174 
L 179.423124 352.094095 
L 187.892778 352.036085 
L 196.362433 352.058615 
L 204.832087 352.157266 
L 213.301741 352.038916 
L 221.771396 352.267899 
L 230.24105 352.300114 
L 238.710704 352.50476 
L 247.180359 352.384441 
L 255.650013 352.586717 
L 264.119667 352.630649 
L 272.589321 352.574447 
L 281.058976 352.756469 
L 289.52863 352.773915 
L 297.998284 352.23577 
L 306.467939 353.102294 
L 314.937593 352.437092 
L 323.407247 352.830755 
L 331.876901 352.612462 
L 340.346556 353.023607 
L 348.81621 352.812722 
L 357.285864 353.232535 
L 365.755519 352.974109 
L 374.225173 353.139368 
L 382.694827 352.789489 
L 391.164481 353.2591 
L 399.634136 352.591168 
L 408.10379 353.282466 
L 416.573444 352.888246 
L 425.043099 352.924114 
L 433.512753 353.120152 
L 441.982407 353.391453 
L 450.452061 353.160727 
L 458.921716 353.443772 
L 467.39137 353.029823 
L 475.861024 353.128593 
L 484.330679 352.813609 
L 492.800333 353.208211 
L 501.269987 353.089692 
L 509.739641 353.250664 
L 518.209296 353.269774 
L 526.67895 353.030165 
L 535.148604 353.141552 
L 543.618259 353.188908 
L 552.087913 352.832464 
L 560.557567 353.246759 
L 569.027222 352.952768 
L 577.496876 353.001881 
L 585.96653 352.889579 
L 594.436184 352.995031 
L 602.905839 353.103631 
L 611.375493 353.247589 
L 619.845147 353.105383 
L 628.314802 352.973064 
L 636.784456 352.869186 
L 645.25411 353.065813 
L 653.723764 352.687606 
L 662.193419 353.12783 
L 670.663073 352.812335 
L 679.132727 352.821263 
" clip-path="url(#p6a65b28459)" style="fill: none; stroke: #7f7f7f; stroke-width: 1.5; stroke-linecap: square"/>
   </g>
   <g id="line2d_35">
    <path d="M 77.787273 373.532727 
L 86.256927 367.031954 
L 94.726581 366.989724 
L 103.196236 366.866878 
L 111.66589 366.910007 
L 120.135544 367.051954 
L 128.605198 367.354901 
L 137.074853 367.225049 
L 145.544507 367.131224 
L 154.014161 367.118917 
L 162.483816 367.199655 
L 170.95347 367.150305 
L 179.423124 367.288271 
L 187.892778 367.199666 
L 196.362433 367.28651 
L 204.832087 367.195758 
L 213.301741 367.292375 
L 221.771396 367.216472 
L 230.24105 367.32564 
L 238.710704 367.304081 
L 247.180359 367.341164 
L 255.650013 367.289028 
L 264.119667 367.333613 
L 272.589321 367.348821 
L 281.058976 367.392347 
L 289.52863 367.325282 
L 297.998284 367.392589 
L 306.467939 367.353422 
L 314.937593 367.404256 
L 323.407247 367.370507 
L 331.876901 367.412643 
L 340.346556 367.372658 
L 348.81621 367.42795 
L 357.285864 367.391369 
L 365.755519 367.425964 
L 374.225173 367.394742 
L 382.694827 367.445497 
L 391.164481 367.408098 
L 399.634136 367.442882 
L 408.10379 367.411552 
L 416.573444 367.451381 
L 425.043099 367.424926 
L 433.512753 367.457925 
L 441.982407 367.42362 
L 450.452061 367.456758 
L 458.921716 367.435461 
L 467.39137 367.467252 
L 475.861024 367.435159 
L 484.330679 367.462136 
L 492.800333 367.43676 
L 501.269987 367.468277 
L 509.739641 367.441206 
L 518.209296 367.464377 
L 526.67895 367.434387 
L 535.148604 367.462515 
L 543.618259 367.435833 
L 552.087913 367.460114 
L 560.557567 367.428194 
L 569.027222 367.452199 
L 577.496876 367.422625 
L 585.96653 367.447091 
L 594.436184 367.415591 
L 602.905839 367.43836 
L 611.375493 367.406241 
L 619.845147 367.429498 
L 628.314802 367.29982 
L 636.784456 367.408254 
L 645.25411 367.234881 
L 653.723764 367.245888 
L 662.193419 367.228699 
L 670.663073 367.223481 
L 679.132727 367.336915 
" clip-path="url(#p6a65b28459)" style="fill: none; stroke: #bcbd22; stroke-width: 1.5; stroke-linecap: square"/>
   </g>
   <g id="line2d_36">
    <path d="M 77.787273 373.532727 
L 86.256927 373.532727 
L 94.726581 373.532727 
L 103.196236 373.532727 
L 111.66589 373.532727 
L 120.135544 373.532727 
L 128.605198 373.532727 
L 137.074853 373.532727 
L 145.544507 373.532727 
L 154.014161 373.532727 
L 162.483816 373.532727 
L 170.95347 373.532727 
L 179.423124 373.532727 
L 187.892778 373.532727 
L 196.362433 373.532727 
L 204.832087 373.532727 
L 213.301741 373.532727 
L 221.771396 373.532727 
L 230.24105 373.532727 
L 238.710704 373.532727 
L 247.180359 373.532727 
L 255.650013 373.532727 
L 264.119667 373.532727 
L 272.589321 373.532727 
L 281.058976 373.532727 
L 289.52863 373.532727 
L 297.998284 373.532727 
L 306.467939 373.532727 
L 314.937593 373.532727 
L 323.407247 373.532727 
L 331.876901 373.532727 
L 340.346556 373.532727 
L 348.81621 373.532727 
L 357.285864 373.532727 
L 365.755519 373.532727 
L 374.225173 373.532727 
L 382.694827 373.532727 
L 391.164481 373.532727 
L 399.634136 373.532727 
L 408.10379 373.532727 
L 416.573444 373.532727 
L 425.043099 373.532727 
L 433.512753 373.532727 
L 441.982407 373.532727 
L 450.452061 373.532727 
L 458.921716 373.532727 
L 467.39137 373.532727 
L 475.861024 373.532727 
L 484.330679 373.532727 
L 492.800333 373.532727 
L 501.269987 373.532727 
L 509.739641 373.532727 
L 518.209296 373.532727 
L 526.67895 373.532727 
L 535.148604 373.532727 
L 543.618259 373.532727 
L 552.087913 373.532727 
L 560.557567 373.532727 
L 569.027222 373.532727 
L 577.496876 373.532727 
L 585.96653 373.532727 
L 594.436184 373.532727 
L 602.905839 373.532727 
L 611.375493 373.532727 
L 619.845147 373.532727 
L 628.314802 373.532727 
L 636.784456 373.532727 
L 645.25411 373.532727 
L 653.723764 373.532727 
L 662.193419 373.532727 
L 670.663073 373.532727 
L 679.132727 373.532727 
" clip-path="url(#p6a65b28459)" style="fill: none; stroke: #17becf; stroke-width: 1.5; stroke-linecap: square"/>
   </g>
   <g id="patch_3">
    <path d="M 47.72 390.04 
L 47.72 26.88 
" style="fill: none; stroke: #000000; stroke-width: 0.8; stroke-linejoin: miter; stroke-linecap: square"/>
   </g>
   <g id="patch_4">
    <path d="M 709.2 390.04 
L 709.2 26.88 
" style="fill: none; stroke: #000000; stroke-width: 0.8; stroke-linejoin: miter; stroke-linecap: square"/>
   </g>
   <g id="patch_5">
    <path d="M 47.72 390.04 
L 709.2 390.04 
" style="fill: none; stroke: #000000; stroke-width: 0.8; stroke-linejoin: miter; stroke-linecap: square"/>
   </g>
   <g id="patch_6">
    <path d="M 47.72 26.88 
L 709.2 26.88 
" style="fill: none; stroke: #000000; stroke-width: 0.8; stroke-linejoin: miter; stroke-linecap: square"/>
   </g>
   <g id="text_16">
    <!-- S(L/2) evolution for different p values (L=6, dt=1.0, Measurement direction: Z) -->
    <g transform="translate(141.671875 20.88) scale(0.12 -0.12)">
     <defs>
      <path id="DejaVuSans-53" d="M 3425 4513 
L 3425 3897 
Q 3066 4069 2747 4153 
Q 2428 4238 2131 4238 
Q 1616 4238 1336 4038 
Q 1056 3838 1056 3469 
Q 1056 3159 1242 3001 
Q 1428 2844 1947 2747 
L 2328 2669 
Q 3034 2534 3370 2195 
Q 3706 1856 3706 1288 
Q 3706 609 3251 259 
Q 2797 -91 1919 -91 
Q 1588 -91 1214 -16 
Q 841 59 441 206 
L 441 856 
Q 825 641 1194 531 
Q 1563 422 1919 422 
Q 2459 422 2753 634 
Q 3047 847 3047 1241 
Q 3047 1584 2836 1778 
Q 2625 1972 2144 2069 
L 1759 2144 
Q 1053 2284 737 2584 
Q 422 2884 422 3419 
Q 422 4038 858 4394 
Q 1294 4750 2059 4750 
Q 2388 4750 2728 4690 
Q 3069 4631 3425 4513 
z
" transform="scale(0.015625)"/>
      <path id="DejaVuSans-28" d="M 1984 4856 
Q 1566 4138 1362 3434 
Q 1159 2731 1159 2009 
Q 1159 1288 1364 580 
Q 1569 -128 1984 -844 
L 1484 -844 
Q 1016 -109 783 600 
Q 550 1309 550 2009 
Q 550 2706 781 3412 
Q 1013 4119 1484 4856 
L 1984 4856 
z
" transform="scale(0.015625)"/>
      <path id="DejaVuSans-4c" d="M 628 4666 
L 1259 4666 
L 1259 531 
L 3531 531 
L 3531 0 
L 628 0 
L 628 4666 
z
" transform="scale(0.015625)"/>
      <path id="DejaVuSans-2f" d="M 1625 4666 
L 2156 4666 
L 531 -594 
L 0 -594 
L 1625 4666 
z
" transform="scale(0.015625)"/>
      <path id="DejaVuSans-29" d="M 513 4856 
L 1013 4856 
Q 1481 4119 1714 3412 
Q 1947 2706 1947 2009 
Q 1947 1309 1714 600 
Q 1481 -109 1013 -844 
L 513 -844 
Q 928 -128 1133 580 
Q 1338 1288 1338 2009 
Q 1338 2731 1133 3434 
Q 928 4138 513 4856 
z
" transform="scale(0.015625)"/>
      <path id="DejaVuSans-76" d="M 191 3500 
L 800 3500 
L 1894 563 
L 2988 3500 
L 3597 3500 
L 2284 0 
L 1503 0 
L 191 3500 
z
" transform="scale(0.015625)"/>
      <path id="DejaVuSans-75" d="M 544 1381 
L 544 3500 
L 1119 3500 
L 1119 1403 
Q 1119 906 1312 657 
Q 1506 409 1894 409 
Q 2359 409 2629 706 
Q 2900 1003 2900 1516 
L 2900 3500 
L 3475 3500 
L 3475 0 
L 2900 0 
L 2900 538 
Q 2691 219 2414 64 
Q 2138 -91 1772 -91 
Q 1169 -91 856 284 
Q 544 659 544 1381 
z
M 1991 3584 
L 1991 3584 
z
" transform="scale(0.015625)"/>
      <path id="DejaVuSans-64" d="M 2906 2969 
L 2906 4863 
L 3481 4863 
L 3481 0 
L 2906 0 
L 2906 525 
Q 2725 213 2448 61 
Q 2172 -91 1784 -91 
Q 1150 -91 751 415 
Q 353 922 353 1747 
Q 353 2572 751 3078 
Q 1150 3584 1784 3584 
Q 2172 3584 2448 3432 
Q 2725 3281 2906 2969 
z
M 947 1747 
Q 947 1113 1208 752 
Q 1469 391 1925 391 
Q 2381 391 2643 752 
Q 2906 1113 2906 1747 
Q 2906 2381 2643 2742 
Q 2381 3103 1925 3103 
Q 1469 3103 1208 2742 
Q 947 2381 947 1747 
z
" transform="scale(0.015625)"/>
      <path id="DejaVuSans-73" d="M 2834 3397 
L 2834 2853 
Q 2591 2978 2328 3040 
Q 2066 3103 1784 3103 
Q 1356 3103 1142 2972 
Q 928 2841 928 2578 
Q 928 2378 1081 2264 
Q 1234 2150 1697 2047 
L 1894 2003 
Q 2506 1872 2764 1633 
Q 3022 1394 3022 966 
Q 3022 478 2636 193 
Q 2250 -91 1575 -91 
Q 1294 -91 989 -36 
Q 684 19 347 128 
L 347 722 
Q 666 556 975 473 
Q 1284 391 1588 391 
Q 1994 391 2212 530 
Q 2431 669 2431 922 
Q 2431 1156 2273 1281 
Q 2116 1406 1581 1522 
L 1381 1569 
Q 847 1681 609 1914 
Q 372 2147 372 2553 
Q 372 3047 722 3315 
Q 1072 3584 1716 3584 
Q 2034 3584 2315 3537 
Q 2597 3491 2834 3397 
z
" transform="scale(0.015625)"/>
      <path id="DejaVuSans-3d" d="M 678 2906 
L 4684 2906 
L 4684 2381 
L 678 2381 
L 678 2906 
z
M 678 1631 
L 4684 1631 
L 4684 1100 
L 678 1100 
L 678 1631 
z
" transform="scale(0.015625)"/>
      <path id="DejaVuSans-2c" d="M 750 794 
L 1409 794 
L 1409 256 
L 897 -744 
L 494 -744 
L 750 256 
L 750 794 
z
" transform="scale(0.015625)"/>
      <path id="DejaVuSans-4d" d="M 628 4666 
L 1569 4666 
L 2759 1491 
L 3956 4666 
L 4897 4666 
L 4897 0 
L 4281 0 
L 4281 4097 
L 3078 897 
L 2444 897 
L 1241 4097 
L 1241 0 
L 628 0 
L 628 4666 
z
" transform="scale(0.015625)"/>
      <path id="DejaVuSans-3a" d="M 750 794 
L 1409 794 
L 1409 0 
L 750 0 
L 750 794 
z
M 750 3309 
L 1409 3309 
L 1409 2516 
L 750 2516 
L 750 3309 
z
" transform="scale(0.015625)"/>
      <path id="DejaVuSans-5a" d="M 359 4666 
L 4025 4666 
L 4025 4184 
L 1075 531 
L 4097 531 
L 4097 0 
L 288 0 
L 288 481 
L 3238 4134 
L 359 4134 
L 359 4666 
z
" transform="scale(0.015625)"/>
     </defs>
     <use xlink:href="#DejaVuSans-53"/>
     <use xlink:href="#DejaVuSans-28" transform="translate(63.476562 0)"/>
     <use xlink:href="#DejaVuSans-4c" transform="translate(102.490234 0)"/>
     <use xlink:href="#DejaVuSans-2f" transform="translate(158.203125 0)"/>
     <use xlink:href="#DejaVuSans-32" transform="translate(191.894531 0)"/>
     <use xlink:href="#DejaVuSans-29" transform="translate(255.517578 0)"/>
     <use xlink:href="#DejaVuSans-20" transform="translate(294.53125 0)"/>
     <use xlink:href="#DejaVuSans-65" transform="translate(326.318359 0)"/>
     <use xlink:href="#DejaVuSans-76" transform="translate(387.841797 0)"/>
     <use xlink:href="#DejaVuSans-6f" transform="translate(447.021484 0)"/>
     <use xlink:href="#DejaVuSans-6c" transform="translate(508.203125 0)"/>
     <use xlink:href="#DejaVuSans-75" transform="translate(535.986328 0)"/>
     <use xlink:href="#DejaVuSans-74" transform="translate(599.365234 0)"/>
     <use xlink:href="#DejaVuSans-69" transform="translate(638.574219 0)"/>
     <use xlink:href="#DejaVuSans-6f" transform="translate(666.357422 0)"/>
     <use xlink:href="#DejaVuSans-6e" transform="translate(727.539062 0)"/>
     <use xlink:href="#DejaVuSans-20" transform="translate(790.917969 0)"/>
     <use xlink:href="#DejaVuSans-66" transform="translate(822.705078 0)"/>
     <use xlink:href="#DejaVuSans-6f" transform="translate(857.910156 0)"/>
     <use xlink:href="#DejaVuSans-72" transform="translate(919.091797 0)"/>
     <use xlink:href="#DejaVuSans-20" transform="translate(960.205078 0)"/>
     <use xlink:href="#DejaVuSans-64" transform="translate(991.992188 0)"/>
     <use xlink:href="#DejaVuSans-69" transform="translate(1055.46875 0)"/>
     <use xlink:href="#DejaVuSans-66" transform="translate(1083.251953 0)"/>
     <use xlink:href="#DejaVuSans-66" transform="translate(1118.457031 0)"/>
     <use xlink:href="#DejaVuSans-65" transform="translate(1153.662109 0)"/>
     <use xlink:href="#DejaVuSans-72" transform="translate(1215.185547 0)"/>
     <use xlink:href="#DejaVuSans-65" transform="translate(1254.048828 0)"/>
     <use xlink:href="#DejaVuSans-6e" transform="translate(1315.572266 0)"/>
     <use xlink:href="#DejaVuSans-74" transform="translate(1378.951172 0)"/>
     <use xlink:href="#DejaVuSans-20" transform="translate(1418.160156 0)"/>
     <use xlink:href="#DejaVuSans-70" transform="translate(1449.947266 0)"/>
     <use xlink:href="#DejaVuSans-20" transform="translate(1513.423828 0)"/>
     <use xlink:href="#DejaVuSans-76" transform="translate(1545.210938 0)"/>
     <use xlink:href="#DejaVuSans-61" transform="translate(1604.390625 0)"/>
     <use xlink:href="#DejaVuSans-6c" transform="translate(1665.669922 0)"/>
     <use xlink:href="#DejaVuSans-75" transform="translate(1693.453125 0)"/>
     <use xlink:href="#DejaVuSans-65" transform="translate(1756.832031 0)"/>
     <use xlink:href="#DejaVuSans-73" transform="translate(1818.355469 0)"/>
     <use xlink:href="#DejaVuSans-20" transform="translate(1870.455078 0)"/>
     <use xlink:href="#DejaVuSans-28" transform="translate(1902.242188 0)"/>
     <use xlink:href="#DejaVuSans-4c" transform="translate(1941.255859 0)"/>
     <use xlink:href="#DejaVuSans-3d" transform="translate(1996.96875 0)"/>
     <use xlink:href="#DejaVuSans-36" transform="translate(2080.757812 0)"/>
     <use xlink:href="#DejaVuSans-2c" transform="translate(2144.380859 0)"/>
     <use xlink:href="#DejaVuSans-20" transform="translate(2176.167969 0)"/>
     <use xlink:href="#DejaVuSans-64" transform="translate(2207.955078 0)"/>
     <use xlink:href="#DejaVuSans-74" transform="translate(2271.431641 0)"/>
     <use xlink:href="#DejaVuSans-3d" transform="translate(2310.640625 0)"/>
     <use xlink:href="#DejaVuSans-31" transform="translate(2394.429688 0)"/>
     <use xlink:href="#DejaVuSans-2e" transform="translate(2458.052734 0)"/>
     <use xlink:href="#DejaVuSans-30" transform="translate(2489.839844 0)"/>
     <use xlink:href="#DejaVuSans-2c" transform="translate(2553.462891 0)"/>
     <use xlink:href="#DejaVuSans-20" transform="translate(2585.25 0)"/>
     <use xlink:href="#DejaVuSans-4d" transform="translate(2617.037109 0)"/>
     <use xlink:href="#DejaVuSans-65" transform="translate(2703.316406 0)"/>
     <use xlink:href="#DejaVuSans-61" transform="translate(2764.839844 0)"/>
     <use xlink:href="#DejaVuSans-73" transform="translate(2826.119141 0)"/>
     <use xlink:href="#DejaVuSans-75" transform="translate(2878.21875 0)"/>
     <use xlink:href="#DejaVuSans-72" transform="translate(2941.597656 0)"/>
     <use xlink:href="#DejaVuSans-65" transform="translate(2980.460938 0)"/>
     <use xlink:href="#DejaVuSans-6d" transform="translate(3041.984375 0)"/>
     <use xlink:href="#DejaVuSans-65" transform="translate(3139.396484 0)"/>
     <use xlink:href="#DejaVuSans-6e" transform="translate(3200.919922 0)"/>
     <use xlink:href="#DejaVuSans-74" transform="translate(3264.298828 0)"/>
     <use xlink:href="#DejaVuSans-20" transform="translate(3303.507812 0)"/>
     <use xlink:href="#DejaVuSans-64" transform="translate(3335.294922 0)"/>
     <use xlink:href="#DejaVuSans-69" transform="translate(3398.771484 0)"/>
     <use xlink:href="#DejaVuSans-72" transform="translate(3426.554688 0)"/>
     <use xlink:href="#DejaVuSans-65" transform="translate(3465.417969 0)"/>
     <use xlink:href="#DejaVuSans-63" transform="translate(3526.941406 0)"/>
     <use xlink:href="#DejaVuSans-74" transform="translate(3581.921875 0)"/>
     <use xlink:href="#DejaVuSans-69" transform="translate(3621.130859 0)"/>
     <use xlink:href="#DejaVuSans-6f" transform="translate(3648.914062 0)"/>
     <use xlink:href="#DejaVuSans-6e" transform="translate(3710.095703 0)"/>
     <use xlink:href="#DejaVuSans-3a" transform="translate(3773.474609 0)"/>
     <use xlink:href="#DejaVuSans-20" transform="translate(3807.166016 0)"/>
     <use xlink:href="#DejaVuSans-5a" transform="translate(3838.953125 0)"/>
     <use xlink:href="#DejaVuSans-29" transform="translate(3907.458984 0)"/>
    </g>
   </g>
   <g id="legend_1">
    <g id="patch_7">
     <path d="M 54.72 385.04 
L 117.35125 385.04 
Q 119.35125 385.04 119.35125 383.04 
L 119.35125 237.25875 
Q 119.35125 235.25875 117.35125 235.25875 
L 54.72 235.25875 
Q 52.72 235.25875 52.72 237.25875 
L 52.72 383.04 
Q 52.72 385.04 54.72 385.04 
z
" style="fill: #ffffff; opacity: 0.8; stroke: #cccccc; stroke-linejoin: miter"/>
    </g>
    <g id="line2d_37">
     <path d="M 56.72 243.357188 
L 66.72 243.357188 
L 76.72 243.357188 
" style="fill: none; stroke: #1f77b4; stroke-width: 1.5; stroke-linecap: square"/>
    </g>
    <g id="text_17">
     <!-- p=0.1 -->
     <g transform="translate(84.72 246.857188) scale(0.1 -0.1)">
      <use xlink:href="#DejaVuSans-70"/>
      <use xlink:href="#DejaVuSans-3d" transform="translate(63.476562 0)"/>
      <use xlink:href="#DejaVuSans-30" transform="translate(147.265625 0)"/>
      <use xlink:href="#DejaVuSans-2e" transform="translate(210.888672 0)"/>
      <use xlink:href="#DejaVuSans-31" transform="translate(242.675781 0)"/>
     </g>
    </g>
    <g id="line2d_38">
     <path d="M 56.72 258.035313 
L 66.72 258.035313 
L 76.72 258.035313 
" style="fill: none; stroke: #ff7f0e; stroke-width: 1.5; stroke-linecap: square"/>
    </g>
    <g id="text_18">
     <!-- p=0.2 -->
     <g transform="translate(84.72 261.535313) scale(0.1 -0.1)">
      <use xlink:href="#DejaVuSans-70"/>
      <use xlink:href="#DejaVuSans-3d" transform="translate(63.476562 0)"/>
      <use xlink:href="#DejaVuSans-30" transform="translate(147.265625 0)"/>
      <use xlink:href="#DejaVuSans-2e" transform="translate(210.888672 0)"/>
      <use xlink:href="#DejaVuSans-32" transform="translate(242.675781 0)"/>
     </g>
    </g>
    <g id="line2d_39">
     <path d="M 56.72 272.713438 
L 66.72 272.713438 
L 76.72 272.713438 
" style="fill: none; stroke: #2ca02c; stroke-width: 1.5; stroke-linecap: square"/>
    </g>
    <g id="text_19">
     <!-- p=0.3 -->
     <g transform="translate(84.72 276.213438) scale(0.1 -0.1)">
      <use xlink:href="#DejaVuSans-70"/>
      <use xlink:href="#DejaVuSans-3d" transform="translate(63.476562 0)"/>
      <use xlink:href="#DejaVuSans-30" transform="translate(147.265625 0)"/>
      <use xlink:href="#DejaVuSans-2e" transform="translate(210.888672 0)"/>
      <use xlink:href="#DejaVuSans-33" transform="translate(242.675781 0)"/>
     </g>
    </g>
    <g id="line2d_40">
     <path d="M 56.72 287.391563 
L 66.72 287.391563 
L 76.72 287.391563 
" style="fill: none; stroke: #d62728; stroke-width: 1.5; stroke-linecap: square"/>
    </g>
    <g id="text_20">
     <!-- p=0.4 -->
     <g transform="translate(84.72 290.891563) scale(0.1 -0.1)">
      <use xlink:href="#DejaVuSans-70"/>
      <use xlink:href="#DejaVuSans-3d" transform="translate(63.476562 0)"/>
      <use xlink:href="#DejaVuSans-30" transform="translate(147.265625 0)"/>
      <use xlink:href="#DejaVuSans-2e" transform="translate(210.888672 0)"/>
      <use xlink:href="#DejaVuSans-34" transform="translate(242.675781 0)"/>
     </g>
    </g>
    <g id="line2d_41">
     <path d="M 56.72 302.069688 
L 66.72 302.069688 
L 76.72 302.069688 
" style="fill: none; stroke: #9467bd; stroke-width: 1.5; stroke-linecap: square"/>
    </g>
    <g id="text_21">
     <!-- p=0.5 -->
     <g transform="translate(84.72 305.569688) scale(0.1 -0.1)">
      <use xlink:href="#DejaVuSans-70"/>
      <use xlink:href="#DejaVuSans-3d" transform="translate(63.476562 0)"/>
      <use xlink:href="#DejaVuSans-30" transform="translate(147.265625 0)"/>
      <use xlink:href="#DejaVuSans-2e" transform="translate(210.888672 0)"/>
      <use xlink:href="#DejaVuSans-35" transform="translate(242.675781 0)"/>
     </g>
    </g>
    <g id="line2d_42">
     <path d="M 56.72 316.747813 
L 66.72 316.747813 
L 76.72 316.747813 
" style="fill: none; stroke: #8c564b; stroke-width: 1.5; stroke-linecap: square"/>
    </g>
    <g id="text_22">
     <!-- p=0.6 -->
     <g transform="translate(84.72 320.247813) scale(0.1 -0.1)">
      <use xlink:href="#DejaVuSans-70"/>
      <use xlink:href="#DejaVuSans-3d" transform="translate(63.476562 0)"/>
      <use xlink:href="#DejaVuSans-30" transform="translate(147.265625 0)"/>
      <use xlink:href="#DejaVuSans-2e" transform="translate(210.888672 0)"/>
      <use xlink:href="#DejaVuSans-36" transform="translate(242.675781 0)"/>
     </g>
    </g>
    <g id="line2d_43">
     <path d="M 56.72 331.425938 
L 66.72 331.425938 
L 76.72 331.425938 
" style="fill: none; stroke: #e377c2; stroke-width: 1.5; stroke-linecap: square"/>
    </g>
    <g id="text_23">
     <!-- p=0.7 -->
     <g transform="translate(84.72 334.925938) scale(0.1 -0.1)">
      <use xlink:href="#DejaVuSans-70"/>
      <use xlink:href="#DejaVuSans-3d" transform="translate(63.476562 0)"/>
      <use xlink:href="#DejaVuSans-30" transform="translate(147.265625 0)"/>
      <use xlink:href="#DejaVuSans-2e" transform="translate(210.888672 0)"/>
      <use xlink:href="#DejaVuSans-37" transform="translate(242.675781 0)"/>
     </g>
    </g>
    <g id="line2d_44">
     <path d="M 56.72 346.104062 
L 66.72 346.104062 
L 76.72 346.104062 
" style="fill: none; stroke: #7f7f7f; stroke-width: 1.5; stroke-linecap: square"/>
    </g>
    <g id="text_24">
     <!-- p=0.8 -->
     <g transform="translate(84.72 349.604062) scale(0.1 -0.1)">
      <defs>
       <path id="DejaVuSans-38" d="M 2034 2216 
Q 1584 2216 1326 1975 
Q 1069 1734 1069 1313 
Q 1069 891 1326 650 
Q 1584 409 2034 409 
Q 2484 409 2743 651 
Q 3003 894 3003 1313 
Q 3003 1734 2745 1975 
Q 2488 2216 2034 2216 
z
M 1403 2484 
Q 997 2584 770 2862 
Q 544 3141 544 3541 
Q 544 4100 942 4425 
Q 1341 4750 2034 4750 
Q 2731 4750 3128 4425 
Q 3525 4100 3525 3541 
Q 3525 3141 3298 2862 
Q 3072 2584 2669 2484 
Q 3125 2378 3379 2068 
Q 3634 1759 3634 1313 
Q 3634 634 3220 271 
Q 2806 -91 2034 -91 
Q 1263 -91 848 271 
Q 434 634 434 1313 
Q 434 1759 690 2068 
Q 947 2378 1403 2484 
z
M 1172 3481 
Q 1172 3119 1398 2916 
Q 1625 2713 2034 2713 
Q 2441 2713 2670 2916 
Q 2900 3119 2900 3481 
Q 2900 3844 2670 4047 
Q 2441 4250 2034 4250 
Q 1625 4250 1398 4047 
Q 1172 3844 1172 3481 
z
" transform="scale(0.015625)"/>
      </defs>
      <use xlink:href="#DejaVuSans-70"/>
      <use xlink:href="#DejaVuSans-3d" transform="translate(63.476562 0)"/>
      <use xlink:href="#DejaVuSans-30" transform="translate(147.265625 0)"/>
      <use xlink:href="#DejaVuSans-2e" transform="translate(210.888672 0)"/>
      <use xlink:href="#DejaVuSans-38" transform="translate(242.675781 0)"/>
     </g>
    </g>
    <g id="line2d_45">
     <path d="M 56.72 360.782188 
L 66.72 360.782188 
L 76.72 360.782188 
" style="fill: none; stroke: #bcbd22; stroke-width: 1.5; stroke-linecap: square"/>
    </g>
    <g id="text_25">
     <!-- p=0.9 -->
     <g transform="translate(84.72 364.282188) scale(0.1 -0.1)">
      <defs>
       <path id="DejaVuSans-39" d="M 703 97 
L 703 672 
Q 941 559 1184 500 
Q 1428 441 1663 441 
Q 2288 441 2617 861 
Q 2947 1281 2994 2138 
Q 2813 1869 2534 1725 
Q 2256 1581 1919 1581 
Q 1219 1581 811 2004 
Q 403 2428 403 3163 
Q 403 3881 828 4315 
Q 1253 4750 1959 4750 
Q 2769 4750 3195 4129 
Q 3622 3509 3622 2328 
Q 3622 1225 3098 567 
Q 2575 -91 1691 -91 
Q 1453 -91 1209 -44 
Q 966 3 703 97 
z
M 1959 2075 
Q 2384 2075 2632 2365 
Q 2881 2656 2881 3163 
Q 2881 3666 2632 3958 
Q 2384 4250 1959 4250 
Q 1534 4250 1286 3958 
Q 1038 3666 1038 3163 
Q 1038 2656 1286 2365 
Q 1534 2075 1959 2075 
z
" transform="scale(0.015625)"/>
      </defs>
      <use xlink:href="#DejaVuSans-70"/>
      <use xlink:href="#DejaVuSans-3d" transform="translate(63.476562 0)"/>
      <use xlink:href="#DejaVuSans-30" transform="translate(147.265625 0)"/>
      <use xlink:href="#DejaVuSans-2e" transform="translate(210.888672 0)"/>
      <use xlink:href="#DejaVuSans-39" transform="translate(242.675781 0)"/>
     </g>
    </g>
    <g id="line2d_46">
     <path d="M 56.72 375.460312 
L 66.72 375.460312 
L 76.72 375.460312 
" style="fill: none; stroke: #17becf; stroke-width: 1.5; stroke-linecap: square"/>
    </g>
    <g id="text_26">
     <!-- p=1.0 -->
     <g transform="translate(84.72 378.960312) scale(0.1 -0.1)">
      <use xlink:href="#DejaVuSans-70"/>
      <use xlink:href="#DejaVuSans-3d" transform="translate(63.476562 0)"/>
      <use xlink:href="#DejaVuSans-31" transform="translate(147.265625 0)"/>
      <use xlink:href="#DejaVuSans-2e" transform="translate(210.888672 0)"/>
      <use xlink:href="#DejaVuSans-30" transform="translate(242.675781 0)"/>
     </g>
    </g>
   </g>
  </g>
 </g>
 <defs>
  <clipPath id="p6a65b28459">
   <rect x="47.72" y="26.88" width="661.48" height="363.16"/>
  </clipPath>
 </defs>
</svg>
