<?xml version="1.0" encoding="utf-8" standalone="no"?>
<!DOCTYPE svg PUBLIC "-//W3C//DTD SVG 1.1//EN"
  "http://www.w3.org/Graphics/SVG/1.1/DTD/svg11.dtd">
<svg xmlns:xlink="http://www.w3.org/1999/xlink" width="720pt" height="432pt" viewBox="0 0 720 432" xmlns="http://www.w3.org/2000/svg" version="1.1">
 <metadata>
  <rdf:RDF xmlns:dc="http://purl.org/dc/elements/1.1/" xmlns:cc="http://creativecommons.org/ns#" xmlns:rdf="http://www.w3.org/1999/02/22-rdf-syntax-ns#">
   <cc:Work>
    <dc:type rdf:resource="http://purl.org/dc/dcmitype/StillImage"/>
    <dc:date>2025-08-26T14:39:19.410872</dc:date>
    <dc:format>image/svg+xml</dc:format>
    <dc:creator>
     <cc:Agent>
      <dc:title>Matplotlib v3.10.3, https://matplotlib.org/</dc:title>
     </cc:Agent>
    </dc:creator>
   </cc:Work>
  </rdf:RDF>
 </metadata>
 <defs>
  <style type="text/css">*{stroke-linejoin: round; stroke-linecap: butt}</style>
 </defs>
 <g id="figure_1">
  <g id="patch_1">
   <path d="M 0 432 
L 720 432 
L 720 0 
L 0 0 
z
" style="fill: #ffffff"/>
  </g>
  <g id="axes_1">
   <g id="patch_2">
    <path d="M 54.02 390.04 
L 709.2 390.04 
L 709.2 26.88 
L 54.02 26.88 
z
" style="fill: #ffffff"/>
   </g>
   <g id="FillBetweenPolyCollection_1">
    <path d="M 83.800909 373.532727 
L 83.800909 373.532727 
L 95.956382 56.152497 
L 108.111855 53.492303 
L 120.267328 53.577538 
L 132.422801 52.842785 
L 144.578275 49.329641 
L 156.733748 51.725926 
L 168.889221 51.24514 
L 181.044694 52.025417 
L 193.200167 50.490442 
L 205.35564 51.161067 
L 217.511113 50.594328 
L 229.666586 49.658311 
L 241.822059 50.873636 
L 253.977532 50.286878 
L 266.133006 50.272635 
L 278.288479 49.748557 
L 290.443952 50.482428 
L 302.599425 50.906029 
L 314.754898 49.820797 
L 326.910371 49.662371 
L 339.065844 49.158981 
L 351.221317 51.291278 
L 363.37679 48.228649 
L 375.532263 49.471082 
L 387.687737 48.856563 
L 399.84321 50.26713 
L 411.998683 48.5461 
L 424.154156 49.511165 
L 436.309629 49.744326 
L 448.465102 49.635995 
L 460.620575 49.748102 
L 472.776048 49.369084 
L 484.931521 49.416169 
L 497.086994 48.032759 
L 509.242468 48.924221 
L 521.397941 48.845395 
L 533.553414 47.60273 
L 545.708887 49.402476 
L 557.86436 48.854506 
L 570.019833 49.954018 
L 582.175306 50.387836 
L 594.330779 48.538742 
L 606.486252 48.714315 
L 618.641725 49.65537 
L 630.797199 48.164165 
L 642.952672 47.800561 
L 655.108145 49.208814 
L 667.263618 49.516159 
L 679.419091 49.981407 
L 679.419091 45.181909 
L 679.419091 45.181909 
L 667.263618 44.515201 
L 655.108145 44.995194 
L 642.952672 43.387273 
L 630.797199 44.088382 
L 618.641725 45.257263 
L 606.486252 44.751475 
L 594.330779 44.13525 
L 582.175306 46.075196 
L 570.019833 45.297212 
L 557.86436 44.499594 
L 545.708887 45.55236 
L 533.553414 44.023493 
L 521.397941 44.806614 
L 509.242468 44.852631 
L 497.086994 44.436557 
L 484.931521 45.041042 
L 472.776048 45.228212 
L 460.620575 45.548036 
L 448.465102 45.140574 
L 436.309629 45.445562 
L 424.154156 45.445582 
L 411.998683 44.56665 
L 399.84321 45.876976 
L 387.687737 44.641428 
L 375.532263 45.436821 
L 363.37679 44.225584 
L 351.221317 46.795829 
L 339.065844 44.256431 
L 326.910371 44.525813 
L 314.754898 44.588241 
L 302.599425 45.845995 
L 290.443952 45.656041 
L 278.288479 44.59289 
L 266.133006 45.014973 
L 253.977532 45.081736 
L 241.822059 45.009071 
L 229.666586 44.343031 
L 217.511113 44.809099 
L 205.35564 45.25127 
L 193.200167 44.265155 
L 181.044694 45.874082 
L 168.889221 44.951637 
L 156.733748 45.605588 
L 144.578275 43.851975 
L 132.422801 46.711454 
L 120.267328 46.908593 
L 108.111855 47.220549 
L 95.956382 48.503292 
L 83.800909 373.532727 
z
" clip-path="url(#pd63457c152)" style="fill: #1f77b4; fill-opacity: 0.2"/>
   </g>
   <g id="FillBetweenPolyCollection_2">
    <path d="M 83.800909 373.532727 
L 83.800909 373.532727 
L 95.956382 78.037826 
L 108.111855 77.749834 
L 120.267328 76.830347 
L 132.422801 77.561949 
L 144.578275 75.956228 
L 156.733748 76.608916 
L 168.889221 75.739289 
L 181.044694 78.54611 
L 193.200167 78.086298 
L 205.35564 78.519758 
L 217.511113 78.245065 
L 229.666586 78.399414 
L 241.822059 80.406864 
L 253.977532 80.612196 
L 266.133006 80.621265 
L 278.288479 80.858286 
L 290.443952 81.90278 
L 302.599425 81.524079 
L 314.754898 81.520177 
L 326.910371 82.510441 
L 339.065844 83.310949 
L 351.221317 84.400307 
L 363.37679 83.15257 
L 375.532263 84.545741 
L 387.687737 84.896835 
L 399.84321 85.985925 
L 411.998683 86.784051 
L 424.154156 84.489517 
L 436.309629 86.625439 
L 448.465102 86.653257 
L 460.620575 86.862262 
L 472.776048 86.972839 
L 484.931521 87.071588 
L 497.086994 86.874634 
L 509.242468 87.012441 
L 521.397941 86.55936 
L 533.553414 85.881658 
L 545.708887 85.756771 
L 557.86436 86.748187 
L 570.019833 87.752237 
L 582.175306 86.566714 
L 594.330779 86.706421 
L 606.486252 86.453643 
L 618.641725 87.013457 
L 630.797199 86.655491 
L 642.952672 86.618892 
L 655.108145 87.905779 
L 667.263618 88.583576 
L 679.419091 88.239199 
L 679.419091 72.766313 
L 679.419091 72.766313 
L 667.263618 73.10615 
L 655.108145 72.329565 
L 642.952672 70.947167 
L 630.797199 71.27714 
L 618.641725 71.663082 
L 606.486252 71.006491 
L 594.330779 71.427168 
L 582.175306 71.556515 
L 570.019833 72.309699 
L 557.86436 71.629749 
L 545.708887 70.521113 
L 533.553414 70.471383 
L 521.397941 71.300157 
L 509.242468 71.883801 
L 497.086994 71.665665 
L 484.931521 71.58847 
L 472.776048 71.578864 
L 460.620575 71.661132 
L 448.465102 71.348903 
L 436.309629 71.347027 
L 424.154156 69.401986 
L 411.998683 71.231535 
L 399.84321 70.486026 
L 387.687737 69.629357 
L 375.532263 69.183476 
L 363.37679 67.669586 
L 351.221317 69.513135 
L 339.065844 68.343478 
L 326.910371 67.06668 
L 314.754898 66.56615 
L 302.599425 66.810656 
L 290.443952 67.293101 
L 278.288479 66.108572 
L 266.133006 66.183872 
L 253.977532 66.398662 
L 241.822059 65.661952 
L 229.666586 64.361955 
L 217.511113 64.259512 
L 205.35564 64.794901 
L 193.200167 64.166262 
L 181.044694 64.849995 
L 168.889221 62.281231 
L 156.733748 63.215063 
L 144.578275 62.327479 
L 132.422801 64.233388 
L 120.267328 63.610303 
L 108.111855 63.853942 
L 95.956382 65.115627 
L 83.800909 373.532727 
z
" clip-path="url(#pd63457c152)" style="fill: #ff7f0e; fill-opacity: 0.2"/>
   </g>
   <g id="FillBetweenPolyCollection_3">
    <path d="M 83.800909 373.532727 
L 83.800909 373.532727 
L 95.956382 101.735305 
L 108.111855 102.509813 
L 120.267328 100.875265 
L 132.422801 101.123332 
L 144.578275 98.937863 
L 156.733748 100.312096 
L 168.889221 99.849363 
L 181.044694 101.230845 
L 193.200167 103.335886 
L 205.35564 101.523057 
L 217.511113 102.590447 
L 229.666586 104.221745 
L 241.822059 106.949154 
L 253.977532 108.360428 
L 266.133006 108.140078 
L 278.288479 109.913274 
L 290.443952 110.665031 
L 302.599425 111.997103 
L 314.754898 114.152993 
L 326.910371 115.344249 
L 339.065844 117.807274 
L 351.221317 119.393711 
L 363.37679 118.203309 
L 375.532263 118.105955 
L 387.687737 119.63997 
L 399.84321 120.205992 
L 411.998683 121.729894 
L 424.154156 121.089905 
L 436.309629 122.868968 
L 448.465102 122.720553 
L 460.620575 122.518547 
L 472.776048 123.475119 
L 484.931521 122.652496 
L 497.086994 122.159684 
L 509.242468 122.20016 
L 521.397941 122.345225 
L 533.553414 122.323175 
L 545.708887 122.15577 
L 557.86436 122.96617 
L 570.019833 122.941356 
L 582.175306 122.259172 
L 594.330779 121.93349 
L 606.486252 121.776208 
L 618.641725 123.283921 
L 630.797199 123.293364 
L 642.952672 124.868186 
L 655.108145 125.593554 
L 667.263618 126.425358 
L 679.419091 125.870468 
L 679.419091 105.772889 
L 679.419091 105.772889 
L 667.263618 106.336733 
L 655.108145 105.282167 
L 642.952672 104.863305 
L 630.797199 103.343141 
L 618.641725 103.685076 
L 606.486252 102.133382 
L 594.330779 102.493163 
L 582.175306 102.697557 
L 570.019833 103.143642 
L 557.86436 103.544812 
L 545.708887 102.578491 
L 533.553414 102.608607 
L 521.397941 102.872613 
L 509.242468 102.909076 
L 497.086994 102.678812 
L 484.931521 102.917648 
L 472.776048 103.760843 
L 460.620575 102.621308 
L 448.465102 102.800162 
L 436.309629 102.916206 
L 424.154156 101.218496 
L 411.998683 101.795193 
L 399.84321 100.326357 
L 387.687737 100.052343 
L 375.532263 98.059344 
L 363.37679 97.936185 
L 351.221317 99.665138 
L 339.065844 98.254645 
L 326.910371 95.647076 
L 314.754898 95.26203 
L 302.599425 93.546784 
L 290.443952 92.671777 
L 278.288479 92.443766 
L 266.133006 91.15684 
L 253.977532 91.815323 
L 241.822059 90.21695 
L 229.666586 87.817518 
L 217.511113 86.578055 
L 205.35564 85.680662 
L 193.200167 87.342159 
L 181.044694 85.736201 
L 168.889221 84.325167 
L 156.733748 84.791521 
L 144.578275 83.306788 
L 132.422801 85.577929 
L 120.267328 85.324346 
L 108.111855 86.460807 
L 95.956382 86.584438 
L 83.800909 373.532727 
z
" clip-path="url(#pd63457c152)" style="fill: #2ca02c; fill-opacity: 0.2"/>
   </g>
   <g id="FillBetweenPolyCollection_4">
    <path d="M 83.800909 373.532727 
L 83.800909 373.532727 
L 95.956382 123.034729 
L 108.111855 126.676029 
L 120.267328 124.438285 
L 132.422801 124.991656 
L 144.578275 122.572945 
L 156.733748 123.947504 
L 168.889221 122.989798 
L 181.044694 124.284813 
L 193.200167 126.129233 
L 205.35564 124.678032 
L 217.511113 125.158685 
L 229.666586 128.693978 
L 241.822059 130.380493 
L 253.977532 131.045969 
L 266.133006 130.135506 
L 278.288479 134.649763 
L 290.443952 133.216243 
L 302.599425 135.074776 
L 314.754898 136.515516 
L 326.910371 136.374129 
L 339.065844 138.730688 
L 351.221317 142.972648 
L 363.37679 139.872402 
L 375.532263 137.79743 
L 387.687737 140.010039 
L 399.84321 142.425438 
L 411.998683 139.979756 
L 424.154156 140.970648 
L 436.309629 141.884563 
L 448.465102 141.568333 
L 460.620575 141.217011 
L 472.776048 144.929852 
L 484.931521 143.041493 
L 497.086994 142.144629 
L 509.242468 142.427235 
L 521.397941 145.048691 
L 533.553414 143.50471 
L 545.708887 143.322078 
L 557.86436 143.539262 
L 570.019833 146.223249 
L 582.175306 143.455779 
L 594.330779 143.471835 
L 606.486252 142.878253 
L 618.641725 144.832629 
L 630.797199 142.346031 
L 642.952672 143.495865 
L 655.108145 144.005261 
L 667.263618 145.820769 
L 679.419091 144.17181 
L 679.419091 121.952582 
L 679.419091 121.952582 
L 667.263618 123.356924 
L 655.108145 121.796245 
L 642.952672 121.32422 
L 630.797199 120.109989 
L 618.641725 122.452593 
L 606.486252 120.790614 
L 594.330779 121.463288 
L 582.175306 121.276578 
L 570.019833 123.889261 
L 557.86436 121.428543 
L 545.708887 121.041407 
L 533.553414 121.327072 
L 521.397941 122.508362 
L 509.242468 120.461973 
L 497.086994 120.168037 
L 484.931521 120.93427 
L 472.776048 122.381471 
L 460.620575 118.777659 
L 448.465102 119.128214 
L 436.309629 119.40598 
L 424.154156 118.522726 
L 411.998683 117.57096 
L 399.84321 119.498737 
L 387.687737 117.573871 
L 375.532263 114.893974 
L 363.37679 116.777408 
L 351.221317 119.935915 
L 339.065844 116.107477 
L 326.910371 113.784024 
L 314.754898 114.25771 
L 302.599425 112.961902 
L 290.443952 111.549385 
L 278.288479 112.892897 
L 266.133006 109.010966 
L 253.977532 110.27753 
L 241.822059 109.262831 
L 229.666586 107.485147 
L 217.511113 104.292181 
L 205.35564 103.998748 
L 193.200167 105.514937 
L 181.044694 103.71053 
L 168.889221 102.403531 
L 156.733748 103.191162 
L 144.578275 101.899657 
L 132.422801 104.259723 
L 120.267328 104.036819 
L 108.111855 106.12084 
L 95.956382 103.628606 
L 83.800909 373.532727 
z
" clip-path="url(#pd63457c152)" style="fill: #d62728; fill-opacity: 0.2"/>
   </g>
   <g id="FillBetweenPolyCollection_5">
    <path d="M 83.800909 373.532727 
L 83.800909 373.532727 
L 95.956382 168.138046 
L 108.111855 172.665604 
L 120.267328 171.340732 
L 132.422801 172.259416 
L 144.578275 169.921767 
L 156.733748 170.738484 
L 168.889221 170.599862 
L 181.044694 170.551133 
L 193.200167 171.282249 
L 205.35564 170.040388 
L 217.511113 167.899458 
L 229.666586 171.122664 
L 241.822059 173.369206 
L 253.977532 174.554802 
L 266.133006 173.915585 
L 278.288479 175.358296 
L 290.443952 173.749184 
L 302.599425 172.768574 
L 314.754898 172.321361 
L 326.910371 171.861023 
L 339.065844 173.159811 
L 351.221317 176.186709 
L 363.37679 174.669387 
L 375.532263 172.837953 
L 387.687737 174.497666 
L 399.84321 177.056794 
L 411.998683 175.381697 
L 424.154156 176.218375 
L 436.309629 176.171165 
L 448.465102 175.966195 
L 460.620575 175.616703 
L 472.776048 179.765117 
L 484.931521 178.951039 
L 497.086994 176.991637 
L 509.242468 177.704621 
L 521.397941 179.4046 
L 533.553414 178.119189 
L 545.708887 178.205376 
L 557.86436 177.58781 
L 570.019833 179.684269 
L 582.175306 176.898776 
L 594.330779 176.989023 
L 606.486252 176.060946 
L 618.641725 178.236036 
L 630.797199 176.306142 
L 642.952672 176.99038 
L 655.108145 176.938057 
L 667.263618 177.846678 
L 679.419091 177.906001 
L 679.419091 153.546219 
L 679.419091 153.546219 
L 667.263618 153.717935 
L 655.108145 152.92844 
L 642.952672 152.900522 
L 630.797199 152.156003 
L 618.641725 154.265489 
L 606.486252 152.032547 
L 594.330779 153.078991 
L 582.175306 152.8363 
L 570.019833 155.425098 
L 557.86436 153.571194 
L 545.708887 154.066283 
L 533.553414 154.054295 
L 521.397941 155.049507 
L 509.242468 153.748862 
L 497.086994 152.793784 
L 484.931521 154.82384 
L 472.776048 155.50142 
L 460.620575 151.224149 
L 448.465102 151.717416 
L 436.309629 151.955527 
L 424.154156 151.643807 
L 411.998683 150.845714 
L 399.84321 152.26127 
L 387.687737 150.144194 
L 375.532263 147.963038 
L 363.37679 149.889803 
L 351.221317 151.539182 
L 339.065844 148.425798 
L 326.910371 146.811809 
L 314.754898 147.645894 
L 302.599425 147.924533 
L 290.443952 148.686553 
L 278.288479 149.682043 
L 266.133006 148.594953 
L 253.977532 149.163187 
L 241.822059 148.372478 
L 229.666586 145.987804 
L 217.511113 142.689262 
L 205.35564 144.896367 
L 193.200167 146.356999 
L 181.044694 145.275706 
L 168.889221 145.584401 
L 156.733748 145.31596 
L 144.578275 144.200506 
L 132.422801 146.569591 
L 120.267328 146.033971 
L 108.111855 147.151392 
L 95.956382 143.502967 
L 83.800909 373.532727 
z
" clip-path="url(#pd63457c152)" style="fill: #9467bd; fill-opacity: 0.2"/>
   </g>
   <g id="FillBetweenPolyCollection_6">
    <path d="M 83.800909 373.532727 
L 83.800909 373.532727 
L 95.956382 190.362781 
L 108.111855 196.33097 
L 120.267328 194.470914 
L 132.422801 197.72496 
L 144.578275 194.400528 
L 156.733748 194.608995 
L 168.889221 193.631031 
L 181.044694 196.181938 
L 193.200167 195.546975 
L 205.35564 192.618959 
L 217.511113 193.539437 
L 229.666586 197.582359 
L 241.822059 198.623225 
L 253.977532 198.19877 
L 266.133006 199.510258 
L 278.288479 201.537238 
L 290.443952 200.57353 
L 302.599425 201.027641 
L 314.754898 197.93005 
L 326.910371 198.032423 
L 339.065844 198.355229 
L 351.221317 201.175762 
L 363.37679 201.655646 
L 375.532263 200.142295 
L 387.687737 200.168063 
L 399.84321 203.909955 
L 411.998683 200.782923 
L 424.154156 203.012584 
L 436.309629 202.083087 
L 448.465102 201.661451 
L 460.620575 201.151135 
L 472.776048 204.996379 
L 484.931521 203.889502 
L 497.086994 203.820495 
L 509.242468 203.782364 
L 521.397941 205.524076 
L 533.553414 204.728241 
L 545.708887 204.642015 
L 557.86436 204.943895 
L 570.019833 206.320598 
L 582.175306 203.992245 
L 594.330779 205.634574 
L 606.486252 203.881622 
L 618.641725 205.56843 
L 630.797199 205.044671 
L 642.952672 205.380821 
L 655.108145 205.895388 
L 667.263618 205.51138 
L 679.419091 206.028303 
L 679.419091 184.05562 
L 679.419091 184.05562 
L 667.263618 183.651405 
L 655.108145 184.191832 
L 642.952672 183.548841 
L 630.797199 183.051533 
L 618.641725 183.937795 
L 606.486252 181.964424 
L 594.330779 183.805649 
L 582.175306 182.006215 
L 570.019833 184.537857 
L 557.86436 182.947964 
L 545.708887 182.599144 
L 533.553414 182.828038 
L 521.397941 183.457215 
L 509.242468 181.818979 
L 497.086994 181.584938 
L 484.931521 181.90325 
L 472.776048 183.090357 
L 460.620575 178.573574 
L 448.465102 179.695049 
L 436.309629 179.97147 
L 424.154156 180.805377 
L 411.998683 178.556915 
L 399.84321 181.513331 
L 387.687737 178.061083 
L 375.532263 177.476691 
L 363.37679 178.984687 
L 351.221317 179.132533 
L 339.065844 175.600817 
L 326.910371 175.429456 
L 314.754898 175.635564 
L 302.599425 178.532669 
L 290.443952 177.915428 
L 278.288479 178.408855 
L 266.133006 176.428187 
L 253.977532 175.308483 
L 241.822059 176.18276 
L 229.666586 174.951396 
L 217.511113 170.702241 
L 205.35564 169.870302 
L 193.200167 173.252375 
L 181.044694 173.278624 
L 168.889221 170.830715 
L 156.733748 171.788816 
L 144.578275 171.112114 
L 132.422801 173.806496 
L 120.267328 171.943624 
L 108.111855 172.985198 
L 95.956382 168.524757 
L 83.800909 373.532727 
z
" clip-path="url(#pd63457c152)" style="fill: #8c564b; fill-opacity: 0.2"/>
   </g>
   <g id="FillBetweenPolyCollection_7">
    <path d="M 83.800909 373.532727 
L 83.800909 373.532727 
L 95.956382 202.440553 
L 108.111855 214.39628 
L 120.267328 213.112762 
L 132.422801 218.056508 
L 144.578275 211.20239 
L 156.733748 213.519884 
L 168.889221 211.678193 
L 181.044694 213.889981 
L 193.200167 211.883938 
L 205.35564 212.889427 
L 217.511113 212.162819 
L 229.666586 214.357266 
L 241.822059 215.029194 
L 253.977532 215.633968 
L 266.133006 215.352283 
L 278.288479 217.694246 
L 290.443952 216.066972 
L 302.599425 216.794263 
L 314.754898 213.393414 
L 326.910371 217.237858 
L 339.065844 215.449102 
L 351.221317 219.216144 
L 363.37679 216.943231 
L 375.532263 217.563596 
L 387.687737 216.769594 
L 399.84321 221.053003 
L 411.998683 217.55645 
L 424.154156 220.616183 
L 436.309629 218.831119 
L 448.465102 219.426468 
L 460.620575 217.2558 
L 472.776048 220.852805 
L 484.931521 219.733696 
L 497.086994 220.194728 
L 509.242468 219.4509 
L 521.397941 221.925474 
L 533.553414 219.579284 
L 545.708887 221.25435 
L 557.86436 220.797179 
L 570.019833 223.101997 
L 582.175306 219.50761 
L 594.330779 221.263779 
L 606.486252 219.191683 
L 618.641725 222.048897 
L 630.797199 219.556736 
L 642.952672 220.759278 
L 655.108145 219.050385 
L 667.263618 221.500038 
L 679.419091 220.896848 
L 679.419091 204.082822 
L 679.419091 204.082822 
L 667.263618 205.070524 
L 655.108145 202.528014 
L 642.952672 204.109702 
L 630.797199 202.956719 
L 618.641725 205.457155 
L 606.486252 202.530803 
L 594.330779 204.538987 
L 582.175306 202.986834 
L 570.019833 206.539917 
L 557.86436 204.106037 
L 545.708887 204.346009 
L 533.553414 202.844502 
L 521.397941 205.31855 
L 509.242468 202.408601 
L 497.086994 202.812058 
L 484.931521 202.868819 
L 472.776048 203.985375 
L 460.620575 199.585619 
L 448.465102 202.072919 
L 436.309629 201.66663 
L 424.154156 203.25757 
L 411.998683 200.019384 
L 399.84321 203.433704 
L 387.687737 198.960556 
L 375.532263 199.290814 
L 363.37679 199.008169 
L 351.221317 201.520649 
L 339.065844 197.016877 
L 326.910371 198.976885 
L 314.754898 195.35961 
L 302.599425 198.856557 
L 290.443952 198.30429 
L 278.288479 199.29859 
L 266.133006 196.998345 
L 253.977532 196.533565 
L 241.822059 196.638777 
L 229.666586 195.865434 
L 217.511113 193.27407 
L 205.35564 193.343044 
L 193.200167 193.412895 
L 181.044694 194.511594 
L 168.889221 192.352573 
L 156.733748 193.864347 
L 144.578275 191.806107 
L 132.422801 196.703432 
L 120.267328 193.748389 
L 108.111855 195.230306 
L 95.956382 184.355156 
L 83.800909 373.532727 
z
" clip-path="url(#pd63457c152)" style="fill: #e377c2; fill-opacity: 0.2"/>
   </g>
   <g id="FillBetweenPolyCollection_8">
    <path d="M 83.800909 373.532727 
L 83.800909 373.532727 
L 95.956382 223.130576 
L 108.111855 228.944878 
L 120.267328 227.460588 
L 132.422801 233.739063 
L 144.578275 230.670504 
L 156.733748 228.461707 
L 168.889221 232.23382 
L 181.044694 227.448495 
L 193.200167 232.704069 
L 205.35564 226.657618 
L 217.511113 231.646861 
L 229.666586 230.736047 
L 241.822059 233.827173 
L 253.977532 229.949259 
L 266.133006 236.303598 
L 278.288479 231.755045 
L 290.443952 235.695583 
L 302.599425 231.746207 
L 314.754898 232.771963 
L 326.910371 230.22448 
L 339.065844 235.90358 
L 351.221317 231.281129 
L 363.37679 237.448423 
L 375.532263 232.605022 
L 387.687737 235.094324 
L 399.84321 234.654952 
L 411.998683 238.268672 
L 424.154156 233.399522 
L 436.309629 238.3759 
L 448.465102 234.020034 
L 460.620575 235.25792 
L 472.776048 234.438881 
L 484.931521 239.14446 
L 497.086994 232.424761 
L 509.242468 238.523708 
L 521.397941 235.607529 
L 533.553414 236.277716 
L 545.708887 235.045745 
L 557.86436 239.462169 
L 570.019833 235.532906 
L 582.175306 238.757091 
L 594.330779 235.140935 
L 606.486252 236.840791 
L 618.641725 235.37076 
L 630.797199 238.541371 
L 642.952672 233.49779 
L 655.108145 238.656345 
L 667.263618 235.543024 
L 679.419091 237.777656 
L 679.419091 221.741081 
L 679.419091 221.741081 
L 667.263618 219.913562 
L 655.108145 222.740604 
L 642.952672 217.812211 
L 630.797199 222.58512 
L 618.641725 220.057174 
L 606.486252 221.170227 
L 594.330779 219.561194 
L 582.175306 223.166559 
L 570.019833 220.398382 
L 557.86436 223.755785 
L 545.708887 219.488095 
L 533.553414 220.887489 
L 521.397941 220.239065 
L 509.242468 222.509719 
L 497.086994 216.410468 
L 484.931521 223.725114 
L 472.776048 219.02555 
L 460.620575 218.738307 
L 448.465102 217.811868 
L 436.309629 222.443948 
L 424.154156 217.331974 
L 411.998683 222.103923 
L 399.84321 218.559993 
L 387.687737 218.755854 
L 375.532263 215.590426 
L 363.37679 221.279047 
L 351.221317 215.304142 
L 339.065844 218.984075 
L 326.910371 213.589918 
L 314.754898 216.17179 
L 302.599425 215.7765 
L 290.443952 219.645557 
L 278.288479 215.72044 
L 266.133006 219.619045 
L 253.977532 213.046562 
L 241.822059 217.317433 
L 229.666586 214.619389 
L 217.511113 214.620271 
L 205.35564 210.119005 
L 193.200167 215.896252 
L 181.044694 210.760683 
L 168.889221 215.035495 
L 156.733748 211.357389 
L 144.578275 212.771828 
L 132.422801 215.418419 
L 120.267328 210.330433 
L 108.111855 210.981847 
L 95.956382 205.293951 
L 83.800909 373.532727 
z
" clip-path="url(#pd63457c152)" style="fill: #7f7f7f; fill-opacity: 0.2"/>
   </g>
   <g id="FillBetweenPolyCollection_9">
    <path d="M 83.800909 373.532727 
L 83.800909 373.532727 
L 95.956382 255.822003 
L 108.111855 258.673811 
L 120.267328 259.75887 
L 132.422801 265.166268 
L 144.578275 259.991732 
L 156.733748 260.785125 
L 168.889221 260.548777 
L 181.044694 258.81898 
L 193.200167 259.659924 
L 205.35564 257.923794 
L 217.511113 257.708123 
L 229.666586 259.396821 
L 241.822059 261.644064 
L 253.977532 259.807391 
L 266.133006 262.771763 
L 278.288479 263.505821 
L 290.443952 261.805056 
L 302.599425 261.290106 
L 314.754898 261.46155 
L 326.910371 261.46419 
L 339.065844 262.732438 
L 351.221317 262.543808 
L 363.37679 263.868015 
L 375.532263 263.087454 
L 387.687737 263.812408 
L 399.84321 266.160136 
L 411.998683 264.901088 
L 424.154156 264.946062 
L 436.309629 263.853551 
L 448.465102 263.378732 
L 460.620575 262.604194 
L 472.776048 263.95366 
L 484.931521 265.339449 
L 497.086994 263.825744 
L 509.242468 265.559006 
L 521.397941 266.218749 
L 533.553414 264.206526 
L 545.708887 264.898906 
L 557.86436 264.175049 
L 570.019833 265.122152 
L 582.175306 264.105268 
L 594.330779 264.276303 
L 606.486252 265.110094 
L 618.641725 265.912949 
L 630.797199 266.023658 
L 642.952672 265.343546 
L 655.108145 265.063762 
L 667.263618 264.526057 
L 679.419091 264.304231 
L 679.419091 247.605814 
L 679.419091 247.605814 
L 667.263618 248.662858 
L 655.108145 248.104535 
L 642.952672 248.668259 
L 630.797199 249.091481 
L 618.641725 249.858236 
L 606.486252 248.580778 
L 594.330779 248.102648 
L 582.175306 247.532753 
L 570.019833 249.553225 
L 557.86436 247.619088 
L 545.708887 248.935145 
L 533.553414 247.519542 
L 521.397941 250.242939 
L 509.242468 248.723652 
L 497.086994 247.123161 
L 484.931521 249.416561 
L 472.776048 248.25077 
L 460.620575 245.413466 
L 448.465102 247.126656 
L 436.309629 247.285447 
L 424.154156 248.95598 
L 411.998683 248.28723 
L 399.84321 250.674688 
L 387.687737 247.192994 
L 375.532263 246.480575 
L 363.37679 247.846855 
L 351.221317 246.797341 
L 339.065844 245.819982 
L 326.910371 245.258918 
L 314.754898 244.774098 
L 302.599425 245.107372 
L 290.443952 245.359771 
L 278.288479 248.212482 
L 266.133006 246.763356 
L 253.977532 243.279286 
L 241.822059 245.860658 
L 229.666586 243.573408 
L 217.511113 240.815283 
L 205.35564 241.386815 
L 193.200167 243.535897 
L 181.044694 242.643175 
L 168.889221 243.653332 
L 156.733748 244.595681 
L 144.578275 243.088987 
L 132.422801 247.862508 
L 120.267328 243.151624 
L 108.111855 242.187026 
L 95.956382 240.0831 
L 83.800909 373.532727 
z
" clip-path="url(#pd63457c152)" style="fill: #bcbd22; fill-opacity: 0.2"/>
   </g>
   <g id="FillBetweenPolyCollection_10">
    <path d="M 83.800909 373.532727 
L 83.800909 373.532727 
L 95.956382 282.35703 
L 108.111855 282.536275 
L 120.267328 284.609511 
L 132.422801 285.921858 
L 144.578275 286.938165 
L 156.733748 285.946917 
L 168.889221 286.188546 
L 181.044694 287.586782 
L 193.200167 288.280382 
L 205.35564 286.307553 
L 217.511113 285.090836 
L 229.666586 286.092426 
L 241.822059 286.91577 
L 253.977532 285.555119 
L 266.133006 288.031271 
L 278.288479 287.763471 
L 290.443952 288.3463 
L 302.599425 286.694432 
L 314.754898 288.057024 
L 326.910371 286.959329 
L 339.065844 287.764327 
L 351.221317 286.240071 
L 363.37679 287.479358 
L 375.532263 287.509178 
L 387.687737 287.344068 
L 399.84321 287.666199 
L 411.998683 287.820728 
L 424.154156 287.158234 
L 436.309629 287.831105 
L 448.465102 286.536671 
L 460.620575 286.706875 
L 472.776048 286.201649 
L 484.931521 287.637125 
L 497.086994 286.912826 
L 509.242468 288.712051 
L 521.397941 287.773395 
L 533.553414 287.588962 
L 545.708887 287.097981 
L 557.86436 286.849673 
L 570.019833 286.52874 
L 582.175306 287.630745 
L 594.330779 286.591037 
L 606.486252 287.486774 
L 618.641725 288.188759 
L 630.797199 289.001757 
L 642.952672 287.587274 
L 655.108145 288.554183 
L 667.263618 287.081908 
L 679.419091 286.816193 
L 679.419091 267.159287 
L 679.419091 267.159287 
L 667.263618 267.635726 
L 655.108145 269.005648 
L 642.952672 267.929175 
L 630.797199 269.273704 
L 618.641725 268.708144 
L 606.486252 267.950547 
L 594.330779 267.14496 
L 582.175306 268.198576 
L 570.019833 267.205744 
L 557.86436 267.472082 
L 545.708887 267.780554 
L 533.553414 268.064979 
L 521.397941 268.449192 
L 509.242468 269.282572 
L 497.086994 267.511473 
L 484.931521 268.386393 
L 472.776048 267.142536 
L 460.620575 267.338676 
L 448.465102 267.291864 
L 436.309629 268.661606 
L 424.154156 268.007248 
L 411.998683 268.460698 
L 399.84321 268.50232 
L 387.687737 268.043201 
L 375.532263 268.545956 
L 363.37679 268.342176 
L 351.221317 267.277211 
L 339.065844 268.832664 
L 326.910371 268.237923 
L 314.754898 269.116039 
L 302.599425 267.806727 
L 290.443952 269.557967 
L 278.288479 269.369169 
L 266.133006 269.374343 
L 253.977532 266.800292 
L 241.822059 268.211908 
L 229.666586 267.287437 
L 217.511113 265.786365 
L 205.35564 267.234904 
L 193.200167 269.659457 
L 181.044694 268.490922 
L 168.889221 266.85526 
L 156.733748 266.500116 
L 144.578275 267.651273 
L 132.422801 266.003311 
L 120.267328 264.876285 
L 108.111855 263.741631 
L 95.956382 262.838482 
L 83.800909 373.532727 
z
" clip-path="url(#pd63457c152)" style="fill: #17becf; fill-opacity: 0.2"/>
   </g>
   <g id="FillBetweenPolyCollection_11">
    <path d="M 83.800909 373.532727 
L 83.800909 373.532727 
L 95.956382 299.050011 
L 108.111855 303.372785 
L 120.267328 306.021526 
L 132.422801 302.873299 
L 144.578275 306.121302 
L 156.733748 301.826159 
L 168.889221 303.330457 
L 181.044694 300.633311 
L 193.200167 303.456668 
L 205.35564 299.507689 
L 217.511113 302.037671 
L 229.666586 300.08588 
L 241.822059 302.289051 
L 253.977532 299.567352 
L 266.133006 303.70474 
L 278.288479 300.083012 
L 290.443952 304.268308 
L 302.599425 299.536945 
L 314.754898 304.078058 
L 326.910371 298.642904 
L 339.065844 303.5538 
L 351.221317 298.921366 
L 363.37679 303.198309 
L 375.532263 301.086084 
L 387.687737 303.086351 
L 399.84321 300.888062 
L 411.998683 303.345323 
L 424.154156 300.052327 
L 436.309629 304.596274 
L 448.465102 299.706085 
L 460.620575 303.294772 
L 472.776048 298.548763 
L 484.931521 304.587396 
L 497.086994 300.05422 
L 509.242468 304.456089 
L 521.397941 301.989492 
L 533.553414 303.862508 
L 545.708887 300.864988 
L 557.86436 302.158858 
L 570.019833 300.426865 
L 582.175306 304.305729 
L 594.330779 299.885217 
L 606.486252 304.366452 
L 618.641725 301.701698 
L 630.797199 306.224229 
L 642.952672 300.810049 
L 655.108145 304.872288 
L 667.263618 303.334333 
L 679.419091 302.613494 
L 679.419091 284.892457 
L 679.419091 284.892457 
L 667.263618 286.128802 
L 655.108145 287.413701 
L 642.952672 283.736815 
L 630.797199 288.659305 
L 618.641725 284.777607 
L 606.486252 286.823808 
L 594.330779 282.949087 
L 582.175306 286.899485 
L 570.019833 283.663698 
L 557.86436 284.778779 
L 545.708887 283.932047 
L 533.553414 286.444597 
L 521.397941 285.116389 
L 509.242468 287.020273 
L 497.086994 283.24878 
L 484.931521 287.47666 
L 472.776048 282.028916 
L 460.620575 285.906608 
L 448.465102 282.995873 
L 436.309629 287.529343 
L 424.154156 283.580195 
L 411.998683 286.058248 
L 399.84321 284.167784 
L 387.687737 285.942632 
L 375.532263 284.511261 
L 363.37679 285.800777 
L 351.221317 282.308898 
L 339.065844 286.579937 
L 326.910371 282.289685 
L 314.754898 286.891837 
L 302.599425 283.059945 
L 290.443952 287.51292 
L 278.288479 284.009903 
L 266.133006 287.032531 
L 253.977532 283.48709 
L 241.822059 285.699208 
L 229.666586 283.903345 
L 217.511113 284.809068 
L 205.35564 282.998283 
L 193.200167 286.533603 
L 181.044694 284.144381 
L 168.889221 285.94755 
L 156.733748 285.632739 
L 144.578275 289.425544 
L 132.422801 285.821639 
L 120.267328 288.881798 
L 108.111855 287.349999 
L 95.956382 281.715296 
L 83.800909 373.532727 
z
" clip-path="url(#pd63457c152)" style="fill: #1f77b4; fill-opacity: 0.2"/>
   </g>
   <g id="matplotlib.axis_1">
    <g id="xtick_1">
     <g id="line2d_1">
      <path d="M 83.800909 390.04 
L 83.800909 26.88 
" clip-path="url(#pd63457c152)" style="fill: none; stroke: #b0b0b0; stroke-width: 0.8; stroke-linecap: square"/>
     </g>
     <g id="line2d_2">
      <defs>
       <path id="m72fad9d762" d="M 0 0 
L 0 3.5 
" style="stroke: #000000; stroke-width: 0.8"/>
      </defs>
      <g>
       <use xlink:href="#m72fad9d762" x="83.800909" y="390.04" style="stroke: #000000; stroke-width: 0.8"/>
      </g>
     </g>
     <g id="text_1">
      <!-- 0 -->
      <g transform="translate(80.619659 404.638438) scale(0.1 -0.1)">
       <defs>
        <path id="DejaVuSans-30" d="M 2034 4250 
Q 1547 4250 1301 3770 
Q 1056 3291 1056 2328 
Q 1056 1369 1301 889 
Q 1547 409 2034 409 
Q 2525 409 2770 889 
Q 3016 1369 3016 2328 
Q 3016 3291 2770 3770 
Q 2525 4250 2034 4250 
z
M 2034 4750 
Q 2819 4750 3233 4129 
Q 3647 3509 3647 2328 
Q 3647 1150 3233 529 
Q 2819 -91 2034 -91 
Q 1250 -91 836 529 
Q 422 1150 422 2328 
Q 422 3509 836 4129 
Q 1250 4750 2034 4750 
z
" transform="scale(0.015625)"/>
       </defs>
       <use xlink:href="#DejaVuSans-30"/>
      </g>
     </g>
    </g>
    <g id="xtick_2">
     <g id="line2d_3">
      <path d="M 205.35564 390.04 
L 205.35564 26.88 
" clip-path="url(#pd63457c152)" style="fill: none; stroke: #b0b0b0; stroke-width: 0.8; stroke-linecap: square"/>
     </g>
     <g id="line2d_4">
      <g>
       <use xlink:href="#m72fad9d762" x="205.35564" y="390.04" style="stroke: #000000; stroke-width: 0.8"/>
      </g>
     </g>
     <g id="text_2">
      <!-- 10 -->
      <g transform="translate(198.99314 404.638438) scale(0.1 -0.1)">
       <defs>
        <path id="DejaVuSans-31" d="M 794 531 
L 1825 531 
L 1825 4091 
L 703 3866 
L 703 4441 
L 1819 4666 
L 2450 4666 
L 2450 531 
L 3481 531 
L 3481 0 
L 794 0 
L 794 531 
z
" transform="scale(0.015625)"/>
       </defs>
       <use xlink:href="#DejaVuSans-31"/>
       <use xlink:href="#DejaVuSans-30" transform="translate(63.623047 0)"/>
      </g>
     </g>
    </g>
    <g id="xtick_3">
     <g id="line2d_5">
      <path d="M 326.910371 390.04 
L 326.910371 26.88 
" clip-path="url(#pd63457c152)" style="fill: none; stroke: #b0b0b0; stroke-width: 0.8; stroke-linecap: square"/>
     </g>
     <g id="line2d_6">
      <g>
       <use xlink:href="#m72fad9d762" x="326.910371" y="390.04" style="stroke: #000000; stroke-width: 0.8"/>
      </g>
     </g>
     <g id="text_3">
      <!-- 20 -->
      <g transform="translate(320.547871 404.638438) scale(0.1 -0.1)">
       <defs>
        <path id="DejaVuSans-32" d="M 1228 531 
L 3431 531 
L 3431 0 
L 469 0 
L 469 531 
Q 828 903 1448 1529 
Q 2069 2156 2228 2338 
Q 2531 2678 2651 2914 
Q 2772 3150 2772 3378 
Q 2772 3750 2511 3984 
Q 2250 4219 1831 4219 
Q 1534 4219 1204 4116 
Q 875 4013 500 3803 
L 500 4441 
Q 881 4594 1212 4672 
Q 1544 4750 1819 4750 
Q 2544 4750 2975 4387 
Q 3406 4025 3406 3419 
Q 3406 3131 3298 2873 
Q 3191 2616 2906 2266 
Q 2828 2175 2409 1742 
Q 1991 1309 1228 531 
z
" transform="scale(0.015625)"/>
       </defs>
       <use xlink:href="#DejaVuSans-32"/>
       <use xlink:href="#DejaVuSans-30" transform="translate(63.623047 0)"/>
      </g>
     </g>
    </g>
    <g id="xtick_4">
     <g id="line2d_7">
      <path d="M 448.465102 390.04 
L 448.465102 26.88 
" clip-path="url(#pd63457c152)" style="fill: none; stroke: #b0b0b0; stroke-width: 0.8; stroke-linecap: square"/>
     </g>
     <g id="line2d_8">
      <g>
       <use xlink:href="#m72fad9d762" x="448.465102" y="390.04" style="stroke: #000000; stroke-width: 0.8"/>
      </g>
     </g>
     <g id="text_4">
      <!-- 30 -->
      <g transform="translate(442.102602 404.638438) scale(0.1 -0.1)">
       <defs>
        <path id="DejaVuSans-33" d="M 2597 2516 
Q 3050 2419 3304 2112 
Q 3559 1806 3559 1356 
Q 3559 666 3084 287 
Q 2609 -91 1734 -91 
Q 1441 -91 1130 -33 
Q 819 25 488 141 
L 488 750 
Q 750 597 1062 519 
Q 1375 441 1716 441 
Q 2309 441 2620 675 
Q 2931 909 2931 1356 
Q 2931 1769 2642 2001 
Q 2353 2234 1838 2234 
L 1294 2234 
L 1294 2753 
L 1863 2753 
Q 2328 2753 2575 2939 
Q 2822 3125 2822 3475 
Q 2822 3834 2567 4026 
Q 2313 4219 1838 4219 
Q 1578 4219 1281 4162 
Q 984 4106 628 3988 
L 628 4550 
Q 988 4650 1302 4700 
Q 1616 4750 1894 4750 
Q 2613 4750 3031 4423 
Q 3450 4097 3450 3541 
Q 3450 3153 3228 2886 
Q 3006 2619 2597 2516 
z
" transform="scale(0.015625)"/>
       </defs>
       <use xlink:href="#DejaVuSans-33"/>
       <use xlink:href="#DejaVuSans-30" transform="translate(63.623047 0)"/>
      </g>
     </g>
    </g>
    <g id="xtick_5">
     <g id="line2d_9">
      <path d="M 570.019833 390.04 
L 570.019833 26.88 
" clip-path="url(#pd63457c152)" style="fill: none; stroke: #b0b0b0; stroke-width: 0.8; stroke-linecap: square"/>
     </g>
     <g id="line2d_10">
      <g>
       <use xlink:href="#m72fad9d762" x="570.019833" y="390.04" style="stroke: #000000; stroke-width: 0.8"/>
      </g>
     </g>
     <g id="text_5">
      <!-- 40 -->
      <g transform="translate(563.657333 404.638438) scale(0.1 -0.1)">
       <defs>
        <path id="DejaVuSans-34" d="M 2419 4116 
L 825 1625 
L 2419 1625 
L 2419 4116 
z
M 2253 4666 
L 3047 4666 
L 3047 1625 
L 3713 1625 
L 3713 1100 
L 3047 1100 
L 3047 0 
L 2419 0 
L 2419 1100 
L 313 1100 
L 313 1709 
L 2253 4666 
z
" transform="scale(0.015625)"/>
       </defs>
       <use xlink:href="#DejaVuSans-34"/>
       <use xlink:href="#DejaVuSans-30" transform="translate(63.623047 0)"/>
      </g>
     </g>
    </g>
    <g id="xtick_6">
     <g id="line2d_11">
      <path d="M 691.574564 390.04 
L 691.574564 26.88 
" clip-path="url(#pd63457c152)" style="fill: none; stroke: #b0b0b0; stroke-width: 0.8; stroke-linecap: square"/>
     </g>
     <g id="line2d_12">
      <g>
       <use xlink:href="#m72fad9d762" x="691.574564" y="390.04" style="stroke: #000000; stroke-width: 0.8"/>
      </g>
     </g>
     <g id="text_6">
      <!-- 50 -->
      <g transform="translate(685.212064 404.638438) scale(0.1 -0.1)">
       <defs>
        <path id="DejaVuSans-35" d="M 691 4666 
L 3169 4666 
L 3169 4134 
L 1269 4134 
L 1269 2991 
Q 1406 3038 1543 3061 
Q 1681 3084 1819 3084 
Q 2600 3084 3056 2656 
Q 3513 2228 3513 1497 
Q 3513 744 3044 326 
Q 2575 -91 1722 -91 
Q 1428 -91 1123 -41 
Q 819 9 494 109 
L 494 744 
Q 775 591 1075 516 
Q 1375 441 1709 441 
Q 2250 441 2565 725 
Q 2881 1009 2881 1497 
Q 2881 1984 2565 2268 
Q 2250 2553 1709 2553 
Q 1456 2553 1204 2497 
Q 953 2441 691 2322 
L 691 4666 
z
" transform="scale(0.015625)"/>
       </defs>
       <use xlink:href="#DejaVuSans-35"/>
       <use xlink:href="#DejaVuSans-30" transform="translate(63.623047 0)"/>
      </g>
     </g>
    </g>
    <g id="text_7">
     <!-- Time -->
     <g transform="translate(369.376406 418.316562) scale(0.1 -0.1)">
      <defs>
       <path id="DejaVuSans-54" d="M -19 4666 
L 3928 4666 
L 3928 4134 
L 2272 4134 
L 2272 0 
L 1638 0 
L 1638 4134 
L -19 4134 
L -19 4666 
z
" transform="scale(0.015625)"/>
       <path id="DejaVuSans-69" d="M 603 3500 
L 1178 3500 
L 1178 0 
L 603 0 
L 603 3500 
z
M 603 4863 
L 1178 4863 
L 1178 4134 
L 603 4134 
L 603 4863 
z
" transform="scale(0.015625)"/>
       <path id="DejaVuSans-6d" d="M 3328 2828 
Q 3544 3216 3844 3400 
Q 4144 3584 4550 3584 
Q 5097 3584 5394 3201 
Q 5691 2819 5691 2113 
L 5691 0 
L 5113 0 
L 5113 2094 
Q 5113 2597 4934 2840 
Q 4756 3084 4391 3084 
Q 3944 3084 3684 2787 
Q 3425 2491 3425 1978 
L 3425 0 
L 2847 0 
L 2847 2094 
Q 2847 2600 2669 2842 
Q 2491 3084 2119 3084 
Q 1678 3084 1418 2786 
Q 1159 2488 1159 1978 
L 1159 0 
L 581 0 
L 581 3500 
L 1159 3500 
L 1159 2956 
Q 1356 3278 1631 3431 
Q 1906 3584 2284 3584 
Q 2666 3584 2933 3390 
Q 3200 3197 3328 2828 
z
" transform="scale(0.015625)"/>
       <path id="DejaVuSans-65" d="M 3597 1894 
L 3597 1613 
L 953 1613 
Q 991 1019 1311 708 
Q 1631 397 2203 397 
Q 2534 397 2845 478 
Q 3156 559 3463 722 
L 3463 178 
Q 3153 47 2828 -22 
Q 2503 -91 2169 -91 
Q 1331 -91 842 396 
Q 353 884 353 1716 
Q 353 2575 817 3079 
Q 1281 3584 2069 3584 
Q 2775 3584 3186 3129 
Q 3597 2675 3597 1894 
z
M 3022 2063 
Q 3016 2534 2758 2815 
Q 2500 3097 2075 3097 
Q 1594 3097 1305 2825 
Q 1016 2553 972 2059 
L 3022 2063 
z
" transform="scale(0.015625)"/>
      </defs>
      <use xlink:href="#DejaVuSans-54"/>
      <use xlink:href="#DejaVuSans-69" transform="translate(57.958984 0)"/>
      <use xlink:href="#DejaVuSans-6d" transform="translate(85.742188 0)"/>
      <use xlink:href="#DejaVuSans-65" transform="translate(183.154297 0)"/>
     </g>
    </g>
   </g>
   <g id="matplotlib.axis_2">
    <g id="ytick_1">
     <g id="line2d_13">
      <path d="M 54.02 373.532727 
L 709.2 373.532727 
" clip-path="url(#pd63457c152)" style="fill: none; stroke: #b0b0b0; stroke-width: 0.8; stroke-linecap: square"/>
     </g>
     <g id="line2d_14">
      <defs>
       <path id="m1abc6b7f57" d="M 0 0 
L -3.5 0 
" style="stroke: #000000; stroke-width: 0.8"/>
      </defs>
      <g>
       <use xlink:href="#m1abc6b7f57" x="54.02" y="373.532727" style="stroke: #000000; stroke-width: 0.8"/>
      </g>
     </g>
     <g id="text_8">
      <!-- 0.00 -->
      <g transform="translate(24.754375 377.331946) scale(0.1 -0.1)">
       <defs>
        <path id="DejaVuSans-2e" d="M 684 794 
L 1344 794 
L 1344 0 
L 684 0 
L 684 794 
z
" transform="scale(0.015625)"/>
       </defs>
       <use xlink:href="#DejaVuSans-30"/>
       <use xlink:href="#DejaVuSans-2e" transform="translate(63.623047 0)"/>
       <use xlink:href="#DejaVuSans-30" transform="translate(95.410156 0)"/>
       <use xlink:href="#DejaVuSans-30" transform="translate(159.033203 0)"/>
      </g>
     </g>
    </g>
    <g id="ytick_2">
     <g id="line2d_15">
      <path d="M 54.02 332.632117 
L 709.2 332.632117 
" clip-path="url(#pd63457c152)" style="fill: none; stroke: #b0b0b0; stroke-width: 0.8; stroke-linecap: square"/>
     </g>
     <g id="line2d_16">
      <g>
       <use xlink:href="#m1abc6b7f57" x="54.02" y="332.632117" style="stroke: #000000; stroke-width: 0.8"/>
      </g>
     </g>
     <g id="text_9">
      <!-- 0.25 -->
      <g transform="translate(24.754375 336.431335) scale(0.1 -0.1)">
       <use xlink:href="#DejaVuSans-30"/>
       <use xlink:href="#DejaVuSans-2e" transform="translate(63.623047 0)"/>
       <use xlink:href="#DejaVuSans-32" transform="translate(95.410156 0)"/>
       <use xlink:href="#DejaVuSans-35" transform="translate(159.033203 0)"/>
      </g>
     </g>
    </g>
    <g id="ytick_3">
     <g id="line2d_17">
      <path d="M 54.02 291.731506 
L 709.2 291.731506 
" clip-path="url(#pd63457c152)" style="fill: none; stroke: #b0b0b0; stroke-width: 0.8; stroke-linecap: square"/>
     </g>
     <g id="line2d_18">
      <g>
       <use xlink:href="#m1abc6b7f57" x="54.02" y="291.731506" style="stroke: #000000; stroke-width: 0.8"/>
      </g>
     </g>
     <g id="text_10">
      <!-- 0.50 -->
      <g transform="translate(24.754375 295.530725) scale(0.1 -0.1)">
       <use xlink:href="#DejaVuSans-30"/>
       <use xlink:href="#DejaVuSans-2e" transform="translate(63.623047 0)"/>
       <use xlink:href="#DejaVuSans-35" transform="translate(95.410156 0)"/>
       <use xlink:href="#DejaVuSans-30" transform="translate(159.033203 0)"/>
      </g>
     </g>
    </g>
    <g id="ytick_4">
     <g id="line2d_19">
      <path d="M 54.02 250.830895 
L 709.2 250.830895 
" clip-path="url(#pd63457c152)" style="fill: none; stroke: #b0b0b0; stroke-width: 0.8; stroke-linecap: square"/>
     </g>
     <g id="line2d_20">
      <g>
       <use xlink:href="#m1abc6b7f57" x="54.02" y="250.830895" style="stroke: #000000; stroke-width: 0.8"/>
      </g>
     </g>
     <g id="text_11">
      <!-- 0.75 -->
      <g transform="translate(24.754375 254.630114) scale(0.1 -0.1)">
       <defs>
        <path id="DejaVuSans-37" d="M 525 4666 
L 3525 4666 
L 3525 4397 
L 1831 0 
L 1172 0 
L 2766 4134 
L 525 4134 
L 525 4666 
z
" transform="scale(0.015625)"/>
       </defs>
       <use xlink:href="#DejaVuSans-30"/>
       <use xlink:href="#DejaVuSans-2e" transform="translate(63.623047 0)"/>
       <use xlink:href="#DejaVuSans-37" transform="translate(95.410156 0)"/>
       <use xlink:href="#DejaVuSans-35" transform="translate(159.033203 0)"/>
      </g>
     </g>
    </g>
    <g id="ytick_5">
     <g id="line2d_21">
      <path d="M 54.02 209.930285 
L 709.2 209.930285 
" clip-path="url(#pd63457c152)" style="fill: none; stroke: #b0b0b0; stroke-width: 0.8; stroke-linecap: square"/>
     </g>
     <g id="line2d_22">
      <g>
       <use xlink:href="#m1abc6b7f57" x="54.02" y="209.930285" style="stroke: #000000; stroke-width: 0.8"/>
      </g>
     </g>
     <g id="text_12">
      <!-- 1.00 -->
      <g transform="translate(24.754375 213.729503) scale(0.1 -0.1)">
       <use xlink:href="#DejaVuSans-31"/>
       <use xlink:href="#DejaVuSans-2e" transform="translate(63.623047 0)"/>
       <use xlink:href="#DejaVuSans-30" transform="translate(95.410156 0)"/>
       <use xlink:href="#DejaVuSans-30" transform="translate(159.033203 0)"/>
      </g>
     </g>
    </g>
    <g id="ytick_6">
     <g id="line2d_23">
      <path d="M 54.02 169.029674 
L 709.2 169.029674 
" clip-path="url(#pd63457c152)" style="fill: none; stroke: #b0b0b0; stroke-width: 0.8; stroke-linecap: square"/>
     </g>
     <g id="line2d_24">
      <g>
       <use xlink:href="#m1abc6b7f57" x="54.02" y="169.029674" style="stroke: #000000; stroke-width: 0.8"/>
      </g>
     </g>
     <g id="text_13">
      <!-- 1.25 -->
      <g transform="translate(24.754375 172.828893) scale(0.1 -0.1)">
       <use xlink:href="#DejaVuSans-31"/>
       <use xlink:href="#DejaVuSans-2e" transform="translate(63.623047 0)"/>
       <use xlink:href="#DejaVuSans-32" transform="translate(95.410156 0)"/>
       <use xlink:href="#DejaVuSans-35" transform="translate(159.033203 0)"/>
      </g>
     </g>
    </g>
    <g id="ytick_7">
     <g id="line2d_25">
      <path d="M 54.02 128.129063 
L 709.2 128.129063 
" clip-path="url(#pd63457c152)" style="fill: none; stroke: #b0b0b0; stroke-width: 0.8; stroke-linecap: square"/>
     </g>
     <g id="line2d_26">
      <g>
       <use xlink:href="#m1abc6b7f57" x="54.02" y="128.129063" style="stroke: #000000; stroke-width: 0.8"/>
      </g>
     </g>
     <g id="text_14">
      <!-- 1.50 -->
      <g transform="translate(24.754375 131.928282) scale(0.1 -0.1)">
       <use xlink:href="#DejaVuSans-31"/>
       <use xlink:href="#DejaVuSans-2e" transform="translate(63.623047 0)"/>
       <use xlink:href="#DejaVuSans-35" transform="translate(95.410156 0)"/>
       <use xlink:href="#DejaVuSans-30" transform="translate(159.033203 0)"/>
      </g>
     </g>
    </g>
    <g id="ytick_8">
     <g id="line2d_27">
      <path d="M 54.02 87.228453 
L 709.2 87.228453 
" clip-path="url(#pd63457c152)" style="fill: none; stroke: #b0b0b0; stroke-width: 0.8; stroke-linecap: square"/>
     </g>
     <g id="line2d_28">
      <g>
       <use xlink:href="#m1abc6b7f57" x="54.02" y="87.228453" style="stroke: #000000; stroke-width: 0.8"/>
      </g>
     </g>
     <g id="text_15">
      <!-- 1.75 -->
      <g transform="translate(24.754375 91.027672) scale(0.1 -0.1)">
       <use xlink:href="#DejaVuSans-31"/>
       <use xlink:href="#DejaVuSans-2e" transform="translate(63.623047 0)"/>
       <use xlink:href="#DejaVuSans-37" transform="translate(95.410156 0)"/>
       <use xlink:href="#DejaVuSans-35" transform="translate(159.033203 0)"/>
      </g>
     </g>
    </g>
    <g id="ytick_9">
     <g id="line2d_29">
      <path d="M 54.02 46.327842 
L 709.2 46.327842 
" clip-path="url(#pd63457c152)" style="fill: none; stroke: #b0b0b0; stroke-width: 0.8; stroke-linecap: square"/>
     </g>
     <g id="line2d_30">
      <g>
       <use xlink:href="#m1abc6b7f57" x="54.02" y="46.327842" style="stroke: #000000; stroke-width: 0.8"/>
      </g>
     </g>
     <g id="text_16">
      <!-- 2.00 -->
      <g transform="translate(24.754375 50.127061) scale(0.1 -0.1)">
       <use xlink:href="#DejaVuSans-32"/>
       <use xlink:href="#DejaVuSans-2e" transform="translate(63.623047 0)"/>
       <use xlink:href="#DejaVuSans-30" transform="translate(95.410156 0)"/>
       <use xlink:href="#DejaVuSans-30" transform="translate(159.033203 0)"/>
      </g>
     </g>
    </g>
    <g id="text_17">
     <!-- Half-chain entropy -->
     <g transform="translate(18.674688 254.432656) rotate(-90) scale(0.1 -0.1)">
      <defs>
       <path id="DejaVuSans-48" d="M 628 4666 
L 1259 4666 
L 1259 2753 
L 3553 2753 
L 3553 4666 
L 4184 4666 
L 4184 0 
L 3553 0 
L 3553 2222 
L 1259 2222 
L 1259 0 
L 628 0 
L 628 4666 
z
" transform="scale(0.015625)"/>
       <path id="DejaVuSans-61" d="M 2194 1759 
Q 1497 1759 1228 1600 
Q 959 1441 959 1056 
Q 959 750 1161 570 
Q 1363 391 1709 391 
Q 2188 391 2477 730 
Q 2766 1069 2766 1631 
L 2766 1759 
L 2194 1759 
z
M 3341 1997 
L 3341 0 
L 2766 0 
L 2766 531 
Q 2569 213 2275 61 
Q 1981 -91 1556 -91 
Q 1019 -91 701 211 
Q 384 513 384 1019 
Q 384 1609 779 1909 
Q 1175 2209 1959 2209 
L 2766 2209 
L 2766 2266 
Q 2766 2663 2505 2880 
Q 2244 3097 1772 3097 
Q 1472 3097 1187 3025 
Q 903 2953 641 2809 
L 641 3341 
Q 956 3463 1253 3523 
Q 1550 3584 1831 3584 
Q 2591 3584 2966 3190 
Q 3341 2797 3341 1997 
z
" transform="scale(0.015625)"/>
       <path id="DejaVuSans-6c" d="M 603 4863 
L 1178 4863 
L 1178 0 
L 603 0 
L 603 4863 
z
" transform="scale(0.015625)"/>
       <path id="DejaVuSans-66" d="M 2375 4863 
L 2375 4384 
L 1825 4384 
Q 1516 4384 1395 4259 
Q 1275 4134 1275 3809 
L 1275 3500 
L 2222 3500 
L 2222 3053 
L 1275 3053 
L 1275 0 
L 697 0 
L 697 3053 
L 147 3053 
L 147 3500 
L 697 3500 
L 697 3744 
Q 697 4328 969 4595 
Q 1241 4863 1831 4863 
L 2375 4863 
z
" transform="scale(0.015625)"/>
       <path id="DejaVuSans-2d" d="M 313 2009 
L 1997 2009 
L 1997 1497 
L 313 1497 
L 313 2009 
z
" transform="scale(0.015625)"/>
       <path id="DejaVuSans-63" d="M 3122 3366 
L 3122 2828 
Q 2878 2963 2633 3030 
Q 2388 3097 2138 3097 
Q 1578 3097 1268 2742 
Q 959 2388 959 1747 
Q 959 1106 1268 751 
Q 1578 397 2138 397 
Q 2388 397 2633 464 
Q 2878 531 3122 666 
L 3122 134 
Q 2881 22 2623 -34 
Q 2366 -91 2075 -91 
Q 1284 -91 818 406 
Q 353 903 353 1747 
Q 353 2603 823 3093 
Q 1294 3584 2113 3584 
Q 2378 3584 2631 3529 
Q 2884 3475 3122 3366 
z
" transform="scale(0.015625)"/>
       <path id="DejaVuSans-68" d="M 3513 2113 
L 3513 0 
L 2938 0 
L 2938 2094 
Q 2938 2591 2744 2837 
Q 2550 3084 2163 3084 
Q 1697 3084 1428 2787 
Q 1159 2491 1159 1978 
L 1159 0 
L 581 0 
L 581 4863 
L 1159 4863 
L 1159 2956 
Q 1366 3272 1645 3428 
Q 1925 3584 2291 3584 
Q 2894 3584 3203 3211 
Q 3513 2838 3513 2113 
z
" transform="scale(0.015625)"/>
       <path id="DejaVuSans-6e" d="M 3513 2113 
L 3513 0 
L 2938 0 
L 2938 2094 
Q 2938 2591 2744 2837 
Q 2550 3084 2163 3084 
Q 1697 3084 1428 2787 
Q 1159 2491 1159 1978 
L 1159 0 
L 581 0 
L 581 3500 
L 1159 3500 
L 1159 2956 
Q 1366 3272 1645 3428 
Q 1925 3584 2291 3584 
Q 2894 3584 3203 3211 
Q 3513 2838 3513 2113 
z
" transform="scale(0.015625)"/>
       <path id="DejaVuSans-20" transform="scale(0.015625)"/>
       <path id="DejaVuSans-74" d="M 1172 4494 
L 1172 3500 
L 2356 3500 
L 2356 3053 
L 1172 3053 
L 1172 1153 
Q 1172 725 1289 603 
Q 1406 481 1766 481 
L 2356 481 
L 2356 0 
L 1766 0 
Q 1100 0 847 248 
Q 594 497 594 1153 
L 594 3053 
L 172 3053 
L 172 3500 
L 594 3500 
L 594 4494 
L 1172 4494 
z
" transform="scale(0.015625)"/>
       <path id="DejaVuSans-72" d="M 2631 2963 
Q 2534 3019 2420 3045 
Q 2306 3072 2169 3072 
Q 1681 3072 1420 2755 
Q 1159 2438 1159 1844 
L 1159 0 
L 581 0 
L 581 3500 
L 1159 3500 
L 1159 2956 
Q 1341 3275 1631 3429 
Q 1922 3584 2338 3584 
Q 2397 3584 2469 3576 
Q 2541 3569 2628 3553 
L 2631 2963 
z
" transform="scale(0.015625)"/>
       <path id="DejaVuSans-6f" d="M 1959 3097 
Q 1497 3097 1228 2736 
Q 959 2375 959 1747 
Q 959 1119 1226 758 
Q 1494 397 1959 397 
Q 2419 397 2687 759 
Q 2956 1122 2956 1747 
Q 2956 2369 2687 2733 
Q 2419 3097 1959 3097 
z
M 1959 3584 
Q 2709 3584 3137 3096 
Q 3566 2609 3566 1747 
Q 3566 888 3137 398 
Q 2709 -91 1959 -91 
Q 1206 -91 779 398 
Q 353 888 353 1747 
Q 353 2609 779 3096 
Q 1206 3584 1959 3584 
z
" transform="scale(0.015625)"/>
       <path id="DejaVuSans-70" d="M 1159 525 
L 1159 -1331 
L 581 -1331 
L 581 3500 
L 1159 3500 
L 1159 2969 
Q 1341 3281 1617 3432 
Q 1894 3584 2278 3584 
Q 2916 3584 3314 3078 
Q 3713 2572 3713 1747 
Q 3713 922 3314 415 
Q 2916 -91 2278 -91 
Q 1894 -91 1617 61 
Q 1341 213 1159 525 
z
M 3116 1747 
Q 3116 2381 2855 2742 
Q 2594 3103 2138 3103 
Q 1681 3103 1420 2742 
Q 1159 2381 1159 1747 
Q 1159 1113 1420 752 
Q 1681 391 2138 391 
Q 2594 391 2855 752 
Q 3116 1113 3116 1747 
z
" transform="scale(0.015625)"/>
       <path id="DejaVuSans-79" d="M 2059 -325 
Q 1816 -950 1584 -1140 
Q 1353 -1331 966 -1331 
L 506 -1331 
L 506 -850 
L 844 -850 
Q 1081 -850 1212 -737 
Q 1344 -625 1503 -206 
L 1606 56 
L 191 3500 
L 800 3500 
L 1894 763 
L 2988 3500 
L 3597 3500 
L 2059 -325 
z
" transform="scale(0.015625)"/>
      </defs>
      <use xlink:href="#DejaVuSans-48"/>
      <use xlink:href="#DejaVuSans-61" transform="translate(75.195312 0)"/>
      <use xlink:href="#DejaVuSans-6c" transform="translate(136.474609 0)"/>
      <use xlink:href="#DejaVuSans-66" transform="translate(164.257812 0)"/>
      <use xlink:href="#DejaVuSans-2d" transform="translate(193.962891 0)"/>
      <use xlink:href="#DejaVuSans-63" transform="translate(230.046875 0)"/>
      <use xlink:href="#DejaVuSans-68" transform="translate(285.027344 0)"/>
      <use xlink:href="#DejaVuSans-61" transform="translate(348.40625 0)"/>
      <use xlink:href="#DejaVuSans-69" transform="translate(409.685547 0)"/>
      <use xlink:href="#DejaVuSans-6e" transform="translate(437.46875 0)"/>
      <use xlink:href="#DejaVuSans-20" transform="translate(500.847656 0)"/>
      <use xlink:href="#DejaVuSans-65" transform="translate(532.634766 0)"/>
      <use xlink:href="#DejaVuSans-6e" transform="translate(594.158203 0)"/>
      <use xlink:href="#DejaVuSans-74" transform="translate(657.537109 0)"/>
      <use xlink:href="#DejaVuSans-72" transform="translate(696.746094 0)"/>
      <use xlink:href="#DejaVuSans-6f" transform="translate(735.609375 0)"/>
      <use xlink:href="#DejaVuSans-70" transform="translate(796.791016 0)"/>
      <use xlink:href="#DejaVuSans-79" transform="translate(860.267578 0)"/>
     </g>
    </g>
   </g>
   <g id="line2d_31">
    <path d="M 83.800909 373.532727 
L 95.956382 52.327895 
L 108.111855 50.356426 
L 120.267328 50.243066 
L 132.422801 49.77712 
L 144.578275 46.590808 
L 156.733748 48.665757 
L 168.889221 48.098389 
L 181.044694 48.94975 
L 193.200167 47.377799 
L 205.35564 48.206169 
L 217.511113 47.701714 
L 229.666586 47.000671 
L 241.822059 47.941353 
L 253.977532 47.684307 
L 266.133006 47.643804 
L 278.288479 47.170724 
L 290.443952 48.069234 
L 302.599425 48.376012 
L 314.754898 47.204519 
L 326.910371 47.094092 
L 339.065844 46.707706 
L 351.221317 49.043553 
L 363.37679 46.227117 
L 375.532263 47.453952 
L 387.687737 46.748995 
L 399.84321 48.072053 
L 411.998683 46.556375 
L 424.154156 47.478373 
L 436.309629 47.594944 
L 448.465102 47.388285 
L 460.620575 47.648069 
L 472.776048 47.298648 
L 484.931521 47.228606 
L 497.086994 46.234658 
L 509.242468 46.888426 
L 521.397941 46.826004 
L 533.553414 45.813112 
L 545.708887 47.477418 
L 557.86436 46.67705 
L 570.019833 47.625615 
L 582.175306 48.231516 
L 594.330779 46.336996 
L 606.486252 46.732895 
L 618.641725 47.456317 
L 630.797199 46.126274 
L 642.952672 45.593917 
L 655.108145 47.102004 
L 667.263618 47.01568 
L 679.419091 47.581658 
" clip-path="url(#pd63457c152)" style="fill: none; stroke: #1f77b4; stroke-width: 1.5; stroke-linecap: square"/>
   </g>
   <g id="line2d_32">
    <path d="M 83.800909 373.532727 
L 95.956382 71.576727 
L 108.111855 70.801888 
L 120.267328 70.220325 
L 132.422801 70.897668 
L 144.578275 69.141853 
L 156.733748 69.91199 
L 168.889221 69.01026 
L 181.044694 71.698053 
L 193.200167 71.12628 
L 205.35564 71.65733 
L 217.511113 71.252289 
L 229.666586 71.380684 
L 241.822059 73.034408 
L 253.977532 73.505429 
L 266.133006 73.402569 
L 278.288479 73.483429 
L 290.443952 74.59794 
L 302.599425 74.167368 
L 314.754898 74.043164 
L 326.910371 74.78856 
L 339.065844 75.827214 
L 351.221317 76.956721 
L 363.37679 75.411078 
L 375.532263 76.864608 
L 387.687737 77.263096 
L 399.84321 78.235976 
L 411.998683 79.007793 
L 424.154156 76.945751 
L 436.309629 78.986233 
L 448.465102 79.00108 
L 460.620575 79.261697 
L 472.776048 79.275851 
L 484.931521 79.330029 
L 497.086994 79.270149 
L 509.242468 79.448121 
L 521.397941 78.929758 
L 533.553414 78.17652 
L 545.708887 78.138942 
L 557.86436 79.188968 
L 570.019833 80.030968 
L 582.175306 79.061614 
L 594.330779 79.066794 
L 606.486252 78.730067 
L 618.641725 79.33827 
L 630.797199 78.966316 
L 642.952672 78.783029 
L 655.108145 80.117672 
L 667.263618 80.844863 
L 679.419091 80.502756 
" clip-path="url(#pd63457c152)" style="fill: none; stroke: #ff7f0e; stroke-width: 1.5; stroke-linecap: square"/>
   </g>
   <g id="line2d_33">
    <path d="M 83.800909 373.532727 
L 95.956382 94.159871 
L 108.111855 94.48531 
L 120.267328 93.099806 
L 132.422801 93.35063 
L 144.578275 91.122325 
L 156.733748 92.551808 
L 168.889221 92.087265 
L 181.044694 93.483523 
L 193.200167 95.339022 
L 205.35564 93.601859 
L 217.511113 94.584251 
L 229.666586 96.019631 
L 241.822059 98.583052 
L 253.977532 100.087876 
L 266.133006 99.648459 
L 278.288479 101.17852 
L 290.443952 101.668404 
L 302.599425 102.771944 
L 314.754898 104.707511 
L 326.910371 105.495662 
L 339.065844 108.03096 
L 351.221317 109.529424 
L 363.37679 108.069747 
L 375.532263 108.08265 
L 387.687737 109.846156 
L 399.84321 110.266175 
L 411.998683 111.762544 
L 424.154156 111.154201 
L 436.309629 112.892587 
L 448.465102 112.760358 
L 460.620575 112.569927 
L 472.776048 113.617981 
L 484.931521 112.785072 
L 497.086994 112.419248 
L 509.242468 112.554618 
L 521.397941 112.608919 
L 533.553414 112.465891 
L 545.708887 112.367131 
L 557.86436 113.255491 
L 570.019833 113.042499 
L 582.175306 112.478365 
L 594.330779 112.213327 
L 606.486252 111.954795 
L 618.641725 113.484499 
L 630.797199 113.318253 
L 642.952672 114.865745 
L 655.108145 115.43786 
L 667.263618 116.381045 
L 679.419091 115.821679 
" clip-path="url(#pd63457c152)" style="fill: none; stroke: #2ca02c; stroke-width: 1.5; stroke-linecap: square"/>
   </g>
   <g id="line2d_34">
    <path d="M 83.800909 373.532727 
L 95.956382 113.331667 
L 108.111855 116.398434 
L 120.267328 114.237552 
L 132.422801 114.625689 
L 144.578275 112.236301 
L 156.733748 113.569333 
L 168.889221 112.696664 
L 181.044694 113.997672 
L 193.200167 115.822085 
L 205.35564 114.33839 
L 217.511113 114.725433 
L 229.666586 118.089562 
L 241.822059 119.821662 
L 253.977532 120.66175 
L 266.133006 119.573236 
L 278.288479 123.77133 
L 290.443952 122.382814 
L 302.599425 124.018339 
L 314.754898 125.386613 
L 326.910371 125.079076 
L 339.065844 127.419083 
L 351.221317 131.454282 
L 363.37679 128.324905 
L 375.532263 126.345702 
L 387.687737 128.791955 
L 399.84321 130.962088 
L 411.998683 128.775358 
L 424.154156 129.746687 
L 436.309629 130.645271 
L 448.465102 130.348273 
L 460.620575 129.997335 
L 472.776048 133.655661 
L 484.931521 131.987881 
L 497.086994 131.156333 
L 509.242468 131.444604 
L 521.397941 133.778527 
L 533.553414 132.415891 
L 545.708887 132.181742 
L 557.86436 132.483902 
L 570.019833 135.056255 
L 582.175306 132.366179 
L 594.330779 132.467561 
L 606.486252 131.834434 
L 618.641725 133.642611 
L 630.797199 131.22801 
L 642.952672 132.410043 
L 655.108145 132.900753 
L 667.263618 134.588846 
L 679.419091 133.062196 
" clip-path="url(#pd63457c152)" style="fill: none; stroke: #d62728; stroke-width: 1.5; stroke-linecap: square"/>
   </g>
   <g id="line2d_35">
    <path d="M 83.800909 373.532727 
L 95.956382 155.820507 
L 108.111855 159.908498 
L 120.267328 158.687351 
L 132.422801 159.414504 
L 144.578275 157.061137 
L 156.733748 158.027222 
L 168.889221 158.092132 
L 181.044694 157.913419 
L 193.200167 158.819624 
L 205.35564 157.468378 
L 217.511113 155.29436 
L 229.666586 158.555234 
L 241.822059 160.870842 
L 253.977532 161.858995 
L 266.133006 161.255269 
L 278.288479 162.520169 
L 290.443952 161.217868 
L 302.599425 160.346553 
L 314.754898 159.983627 
L 326.910371 159.336416 
L 339.065844 160.792805 
L 351.221317 163.862945 
L 363.37679 162.279595 
L 375.532263 160.400495 
L 387.687737 162.32093 
L 399.84321 164.659032 
L 411.998683 163.113706 
L 424.154156 163.931091 
L 436.309629 164.063346 
L 448.465102 163.841805 
L 460.620575 163.420426 
L 472.776048 167.633269 
L 484.931521 166.887439 
L 497.086994 164.89271 
L 509.242468 165.726741 
L 521.397941 167.227054 
L 533.553414 166.086742 
L 545.708887 166.135829 
L 557.86436 165.579502 
L 570.019833 167.554683 
L 582.175306 164.867538 
L 594.330779 165.034007 
L 606.486252 164.046746 
L 618.641725 166.250762 
L 630.797199 164.231072 
L 642.952672 164.945451 
L 655.108145 164.933249 
L 667.263618 165.782307 
L 679.419091 165.72611 
" clip-path="url(#pd63457c152)" style="fill: none; stroke: #9467bd; stroke-width: 1.5; stroke-linecap: square"/>
   </g>
   <g id="line2d_36">
    <path d="M 83.800909 373.532727 
L 95.956382 179.443769 
L 108.111855 184.658084 
L 120.267328 183.207269 
L 132.422801 185.765728 
L 144.578275 182.756321 
L 156.733748 183.198905 
L 168.889221 182.230873 
L 181.044694 184.730281 
L 193.200167 184.399675 
L 205.35564 181.244631 
L 217.511113 182.120839 
L 229.666586 186.266877 
L 241.822059 187.402992 
L 253.977532 186.753627 
L 266.133006 187.969223 
L 278.288479 189.973047 
L 290.443952 189.244479 
L 302.599425 189.780155 
L 314.754898 186.782807 
L 326.910371 186.73094 
L 339.065844 186.978023 
L 351.221317 190.154148 
L 363.37679 190.320166 
L 375.532263 188.809493 
L 387.687737 189.114573 
L 399.84321 192.711643 
L 411.998683 189.669919 
L 424.154156 191.908981 
L 436.309629 191.027279 
L 448.465102 190.67825 
L 460.620575 189.862354 
L 472.776048 194.043368 
L 484.931521 192.896376 
L 497.086994 192.702717 
L 509.242468 192.800672 
L 521.397941 194.490645 
L 533.553414 193.77814 
L 545.708887 193.62058 
L 557.86436 193.945929 
L 570.019833 195.429228 
L 582.175306 192.99923 
L 594.330779 194.720111 
L 606.486252 192.923023 
L 618.641725 194.753113 
L 630.797199 194.048102 
L 642.952672 194.464831 
L 655.108145 195.04361 
L 667.263618 194.581392 
L 679.419091 195.041961 
" clip-path="url(#pd63457c152)" style="fill: none; stroke: #8c564b; stroke-width: 1.5; stroke-linecap: square"/>
   </g>
   <g id="line2d_37">
    <path d="M 83.800909 373.532727 
L 95.956382 193.397855 
L 108.111855 204.813293 
L 120.267328 203.430576 
L 132.422801 207.37997 
L 144.578275 201.504249 
L 156.733748 203.692115 
L 168.889221 202.015383 
L 181.044694 204.200787 
L 193.200167 202.648416 
L 205.35564 203.116235 
L 217.511113 202.718445 
L 229.666586 205.11135 
L 241.822059 205.833985 
L 253.977532 206.083766 
L 266.133006 206.175314 
L 278.288479 208.496418 
L 290.443952 207.185631 
L 302.599425 207.82541 
L 314.754898 204.376512 
L 326.910371 208.107372 
L 339.065844 206.232989 
L 351.221317 210.368397 
L 363.37679 207.9757 
L 375.532263 208.427205 
L 387.687737 207.865075 
L 399.84321 212.243353 
L 411.998683 208.787917 
L 424.154156 211.936876 
L 436.309629 210.248875 
L 448.465102 210.749693 
L 460.620575 208.420709 
L 472.776048 212.41909 
L 484.931521 211.301258 
L 497.086994 211.503393 
L 509.242468 210.92975 
L 521.397941 213.622012 
L 533.553414 211.211893 
L 545.708887 212.80018 
L 557.86436 212.451608 
L 570.019833 214.820957 
L 582.175306 211.247222 
L 594.330779 212.901383 
L 606.486252 210.861243 
L 618.641725 213.753026 
L 630.797199 211.256727 
L 642.952672 212.43449 
L 655.108145 210.7892 
L 667.263618 213.285281 
L 679.419091 212.489835 
" clip-path="url(#pd63457c152)" style="fill: none; stroke: #e377c2; stroke-width: 1.5; stroke-linecap: square"/>
   </g>
   <g id="line2d_38">
    <path d="M 83.800909 373.532727 
L 95.956382 214.212263 
L 108.111855 219.963362 
L 120.267328 218.895511 
L 132.422801 224.578741 
L 144.578275 221.721166 
L 156.733748 219.909548 
L 168.889221 223.634658 
L 181.044694 219.104589 
L 193.200167 224.30016 
L 205.35564 218.388311 
L 217.511113 223.133566 
L 229.666586 222.677718 
L 241.822059 225.572303 
L 253.977532 221.497911 
L 266.133006 227.961321 
L 278.288479 223.737743 
L 290.443952 227.67057 
L 302.599425 223.761353 
L 314.754898 224.471877 
L 326.910371 221.907199 
L 339.065844 227.443827 
L 351.221317 223.292635 
L 363.37679 229.363735 
L 375.532263 224.097724 
L 387.687737 226.925089 
L 399.84321 226.607473 
L 411.998683 230.186297 
L 424.154156 225.365748 
L 436.309629 230.409924 
L 448.465102 225.915951 
L 460.620575 226.998113 
L 472.776048 226.732216 
L 484.931521 231.434787 
L 497.086994 224.417614 
L 509.242468 230.516713 
L 521.397941 227.923297 
L 533.553414 228.582602 
L 545.708887 227.26692 
L 557.86436 231.608977 
L 570.019833 227.965644 
L 582.175306 230.961825 
L 594.330779 227.351065 
L 606.486252 229.005509 
L 618.641725 227.713967 
L 630.797199 230.563246 
L 642.952672 225.655 
L 655.108145 230.698474 
L 667.263618 227.728293 
L 679.419091 229.759368 
" clip-path="url(#pd63457c152)" style="fill: none; stroke: #7f7f7f; stroke-width: 1.5; stroke-linecap: square"/>
   </g>
   <g id="line2d_39">
    <path d="M 83.800909 373.532727 
L 95.956382 247.952551 
L 108.111855 250.430419 
L 120.267328 251.455247 
L 132.422801 256.514388 
L 144.578275 251.540359 
L 156.733748 252.690403 
L 168.889221 252.101054 
L 181.044694 250.731077 
L 193.200167 251.597911 
L 205.35564 249.655305 
L 217.511113 249.261703 
L 229.666586 251.485114 
L 241.822059 253.752361 
L 253.977532 251.543339 
L 266.133006 254.767559 
L 278.288479 255.859151 
L 290.443952 253.582413 
L 302.599425 253.198739 
L 314.754898 253.117824 
L 326.910371 253.361554 
L 339.065844 254.27621 
L 351.221317 254.670575 
L 363.37679 255.857435 
L 375.532263 254.784015 
L 387.687737 255.502701 
L 399.84321 258.417412 
L 411.998683 256.594159 
L 424.154156 256.951021 
L 436.309629 255.569499 
L 448.465102 255.252694 
L 460.620575 254.00883 
L 472.776048 256.102215 
L 484.931521 257.378005 
L 497.086994 255.474452 
L 509.242468 257.141329 
L 521.397941 258.230844 
L 533.553414 255.863034 
L 545.708887 256.917026 
L 557.86436 255.897069 
L 570.019833 257.337689 
L 582.175306 255.819011 
L 594.330779 256.189475 
L 606.486252 256.845436 
L 618.641725 257.885592 
L 630.797199 257.557569 
L 642.952672 257.005903 
L 655.108145 256.584148 
L 667.263618 256.594457 
L 679.419091 255.955022 
" clip-path="url(#pd63457c152)" style="fill: none; stroke: #bcbd22; stroke-width: 1.5; stroke-linecap: square"/>
   </g>
   <g id="line2d_40">
    <path d="M 83.800909 373.532727 
L 95.956382 272.597756 
L 108.111855 273.138953 
L 120.267328 274.742898 
L 132.422801 275.962585 
L 144.578275 277.294719 
L 156.733748 276.223517 
L 168.889221 276.521903 
L 181.044694 278.038852 
L 193.200167 278.96992 
L 205.35564 276.771229 
L 217.511113 275.438601 
L 229.666586 276.689932 
L 241.822059 277.563839 
L 253.977532 276.177705 
L 266.133006 278.702807 
L 278.288479 278.56632 
L 290.443952 278.952134 
L 302.599425 277.25058 
L 314.754898 278.586532 
L 326.910371 277.598626 
L 339.065844 278.298496 
L 351.221317 276.758641 
L 363.37679 277.910767 
L 375.532263 278.027567 
L 387.687737 277.693635 
L 399.84321 278.084259 
L 411.998683 278.140713 
L 424.154156 277.582741 
L 436.309629 278.246355 
L 448.465102 276.914267 
L 460.620575 277.022775 
L 472.776048 276.672092 
L 484.931521 278.011759 
L 497.086994 277.212149 
L 509.242468 278.997311 
L 521.397941 278.111294 
L 533.553414 277.826971 
L 545.708887 277.439268 
L 557.86436 277.160878 
L 570.019833 276.867242 
L 582.175306 277.91466 
L 594.330779 276.867998 
L 606.486252 277.718661 
L 618.641725 278.448452 
L 630.797199 279.137731 
L 642.952672 277.758225 
L 655.108145 278.779916 
L 667.263618 277.358817 
L 679.419091 276.98774 
" clip-path="url(#pd63457c152)" style="fill: none; stroke: #17becf; stroke-width: 1.5; stroke-linecap: square"/>
   </g>
   <g id="line2d_41">
    <path d="M 83.800909 373.532727 
L 95.956382 290.382654 
L 108.111855 295.361392 
L 120.267328 297.451662 
L 132.422801 294.347469 
L 144.578275 297.773423 
L 156.733748 293.729449 
L 168.889221 294.639003 
L 181.044694 292.388846 
L 193.200167 294.995136 
L 205.35564 291.252986 
L 217.511113 293.42337 
L 229.666586 291.994613 
L 241.822059 293.994129 
L 253.977532 291.527221 
L 266.133006 295.368635 
L 278.288479 292.046457 
L 290.443952 295.890614 
L 302.599425 291.298445 
L 314.754898 295.484947 
L 326.910371 290.466294 
L 339.065844 295.066868 
L 351.221317 290.615132 
L 363.37679 294.499543 
L 375.532263 292.798673 
L 387.687737 294.514492 
L 399.84321 292.527923 
L 411.998683 294.701786 
L 424.154156 291.816261 
L 436.309629 296.062808 
L 448.465102 291.350979 
L 460.620575 294.60069 
L 472.776048 290.28884 
L 484.931521 296.032028 
L 497.086994 291.6515 
L 509.242468 295.738181 
L 521.397941 293.552941 
L 533.553414 295.153553 
L 545.708887 292.398518 
L 557.86436 293.468819 
L 570.019833 292.045281 
L 582.175306 295.602607 
L 594.330779 291.417152 
L 606.486252 295.59513 
L 618.641725 293.239652 
L 630.797199 297.441767 
L 642.952672 292.273432 
L 655.108145 296.142995 
L 667.263618 294.731567 
L 679.419091 293.752975 
" clip-path="url(#pd63457c152)" style="fill: none; stroke: #1f77b4; stroke-width: 1.5; stroke-linecap: square"/>
   </g>
   <g id="patch_3">
    <path d="M 54.02 390.04 
L 54.02 26.88 
" style="fill: none; stroke: #000000; stroke-width: 0.8; stroke-linejoin: miter; stroke-linecap: square"/>
   </g>
   <g id="patch_4">
    <path d="M 709.2 390.04 
L 709.2 26.88 
" style="fill: none; stroke: #000000; stroke-width: 0.8; stroke-linejoin: miter; stroke-linecap: square"/>
   </g>
   <g id="patch_5">
    <path d="M 54.02 390.04 
L 709.2 390.04 
" style="fill: none; stroke: #000000; stroke-width: 0.8; stroke-linejoin: miter; stroke-linecap: square"/>
   </g>
   <g id="patch_6">
    <path d="M 54.02 26.88 
L 709.2 26.88 
" style="fill: none; stroke: #000000; stroke-width: 0.8; stroke-linejoin: miter; stroke-linecap: square"/>
   </g>
   <g id="text_18">
    <!-- S(L/2) evolution with variance (L=5, dt=1.0, Measurement direction: Z) -->
    <g transform="translate(167.219688 20.88) scale(0.12 -0.12)">
     <defs>
      <path id="DejaVuSans-53" d="M 3425 4513 
L 3425 3897 
Q 3066 4069 2747 4153 
Q 2428 4238 2131 4238 
Q 1616 4238 1336 4038 
Q 1056 3838 1056 3469 
Q 1056 3159 1242 3001 
Q 1428 2844 1947 2747 
L 2328 2669 
Q 3034 2534 3370 2195 
Q 3706 1856 3706 1288 
Q 3706 609 3251 259 
Q 2797 -91 1919 -91 
Q 1588 -91 1214 -16 
Q 841 59 441 206 
L 441 856 
Q 825 641 1194 531 
Q 1563 422 1919 422 
Q 2459 422 2753 634 
Q 3047 847 3047 1241 
Q 3047 1584 2836 1778 
Q 2625 1972 2144 2069 
L 1759 2144 
Q 1053 2284 737 2584 
Q 422 2884 422 3419 
Q 422 4038 858 4394 
Q 1294 4750 2059 4750 
Q 2388 4750 2728 4690 
Q 3069 4631 3425 4513 
z
" transform="scale(0.015625)"/>
      <path id="DejaVuSans-28" d="M 1984 4856 
Q 1566 4138 1362 3434 
Q 1159 2731 1159 2009 
Q 1159 1288 1364 580 
Q 1569 -128 1984 -844 
L 1484 -844 
Q 1016 -109 783 600 
Q 550 1309 550 2009 
Q 550 2706 781 3412 
Q 1013 4119 1484 4856 
L 1984 4856 
z
" transform="scale(0.015625)"/>
      <path id="DejaVuSans-4c" d="M 628 4666 
L 1259 4666 
L 1259 531 
L 3531 531 
L 3531 0 
L 628 0 
L 628 4666 
z
" transform="scale(0.015625)"/>
      <path id="DejaVuSans-2f" d="M 1625 4666 
L 2156 4666 
L 531 -594 
L 0 -594 
L 1625 4666 
z
" transform="scale(0.015625)"/>
      <path id="DejaVuSans-29" d="M 513 4856 
L 1013 4856 
Q 1481 4119 1714 3412 
Q 1947 2706 1947 2009 
Q 1947 1309 1714 600 
Q 1481 -109 1013 -844 
L 513 -844 
Q 928 -128 1133 580 
Q 1338 1288 1338 2009 
Q 1338 2731 1133 3434 
Q 928 4138 513 4856 
z
" transform="scale(0.015625)"/>
      <path id="DejaVuSans-76" d="M 191 3500 
L 800 3500 
L 1894 563 
L 2988 3500 
L 3597 3500 
L 2284 0 
L 1503 0 
L 191 3500 
z
" transform="scale(0.015625)"/>
      <path id="DejaVuSans-75" d="M 544 1381 
L 544 3500 
L 1119 3500 
L 1119 1403 
Q 1119 906 1312 657 
Q 1506 409 1894 409 
Q 2359 409 2629 706 
Q 2900 1003 2900 1516 
L 2900 3500 
L 3475 3500 
L 3475 0 
L 2900 0 
L 2900 538 
Q 2691 219 2414 64 
Q 2138 -91 1772 -91 
Q 1169 -91 856 284 
Q 544 659 544 1381 
z
M 1991 3584 
L 1991 3584 
z
" transform="scale(0.015625)"/>
      <path id="DejaVuSans-77" d="M 269 3500 
L 844 3500 
L 1563 769 
L 2278 3500 
L 2956 3500 
L 3675 769 
L 4391 3500 
L 4966 3500 
L 4050 0 
L 3372 0 
L 2619 2869 
L 1863 0 
L 1184 0 
L 269 3500 
z
" transform="scale(0.015625)"/>
      <path id="DejaVuSans-3d" d="M 678 2906 
L 4684 2906 
L 4684 2381 
L 678 2381 
L 678 2906 
z
M 678 1631 
L 4684 1631 
L 4684 1100 
L 678 1100 
L 678 1631 
z
" transform="scale(0.015625)"/>
      <path id="DejaVuSans-2c" d="M 750 794 
L 1409 794 
L 1409 256 
L 897 -744 
L 494 -744 
L 750 256 
L 750 794 
z
" transform="scale(0.015625)"/>
      <path id="DejaVuSans-64" d="M 2906 2969 
L 2906 4863 
L 3481 4863 
L 3481 0 
L 2906 0 
L 2906 525 
Q 2725 213 2448 61 
Q 2172 -91 1784 -91 
Q 1150 -91 751 415 
Q 353 922 353 1747 
Q 353 2572 751 3078 
Q 1150 3584 1784 3584 
Q 2172 3584 2448 3432 
Q 2725 3281 2906 2969 
z
M 947 1747 
Q 947 1113 1208 752 
Q 1469 391 1925 391 
Q 2381 391 2643 752 
Q 2906 1113 2906 1747 
Q 2906 2381 2643 2742 
Q 2381 3103 1925 3103 
Q 1469 3103 1208 2742 
Q 947 2381 947 1747 
z
" transform="scale(0.015625)"/>
      <path id="DejaVuSans-4d" d="M 628 4666 
L 1569 4666 
L 2759 1491 
L 3956 4666 
L 4897 4666 
L 4897 0 
L 4281 0 
L 4281 4097 
L 3078 897 
L 2444 897 
L 1241 4097 
L 1241 0 
L 628 0 
L 628 4666 
z
" transform="scale(0.015625)"/>
      <path id="DejaVuSans-73" d="M 2834 3397 
L 2834 2853 
Q 2591 2978 2328 3040 
Q 2066 3103 1784 3103 
Q 1356 3103 1142 2972 
Q 928 2841 928 2578 
Q 928 2378 1081 2264 
Q 1234 2150 1697 2047 
L 1894 2003 
Q 2506 1872 2764 1633 
Q 3022 1394 3022 966 
Q 3022 478 2636 193 
Q 2250 -91 1575 -91 
Q 1294 -91 989 -36 
Q 684 19 347 128 
L 347 722 
Q 666 556 975 473 
Q 1284 391 1588 391 
Q 1994 391 2212 530 
Q 2431 669 2431 922 
Q 2431 1156 2273 1281 
Q 2116 1406 1581 1522 
L 1381 1569 
Q 847 1681 609 1914 
Q 372 2147 372 2553 
Q 372 3047 722 3315 
Q 1072 3584 1716 3584 
Q 2034 3584 2315 3537 
Q 2597 3491 2834 3397 
z
" transform="scale(0.015625)"/>
      <path id="DejaVuSans-3a" d="M 750 794 
L 1409 794 
L 1409 0 
L 750 0 
L 750 794 
z
M 750 3309 
L 1409 3309 
L 1409 2516 
L 750 2516 
L 750 3309 
z
" transform="scale(0.015625)"/>
      <path id="DejaVuSans-5a" d="M 359 4666 
L 4025 4666 
L 4025 4184 
L 1075 531 
L 4097 531 
L 4097 0 
L 288 0 
L 288 481 
L 3238 4134 
L 359 4134 
L 359 4666 
z
" transform="scale(0.015625)"/>
     </defs>
     <use xlink:href="#DejaVuSans-53"/>
     <use xlink:href="#DejaVuSans-28" transform="translate(63.476562 0)"/>
     <use xlink:href="#DejaVuSans-4c" transform="translate(102.490234 0)"/>
     <use xlink:href="#DejaVuSans-2f" transform="translate(158.203125 0)"/>
     <use xlink:href="#DejaVuSans-32" transform="translate(191.894531 0)"/>
     <use xlink:href="#DejaVuSans-29" transform="translate(255.517578 0)"/>
     <use xlink:href="#DejaVuSans-20" transform="translate(294.53125 0)"/>
     <use xlink:href="#DejaVuSans-65" transform="translate(326.318359 0)"/>
     <use xlink:href="#DejaVuSans-76" transform="translate(387.841797 0)"/>
     <use xlink:href="#DejaVuSans-6f" transform="translate(447.021484 0)"/>
     <use xlink:href="#DejaVuSans-6c" transform="translate(508.203125 0)"/>
     <use xlink:href="#DejaVuSans-75" transform="translate(535.986328 0)"/>
     <use xlink:href="#DejaVuSans-74" transform="translate(599.365234 0)"/>
     <use xlink:href="#DejaVuSans-69" transform="translate(638.574219 0)"/>
     <use xlink:href="#DejaVuSans-6f" transform="translate(666.357422 0)"/>
     <use xlink:href="#DejaVuSans-6e" transform="translate(727.539062 0)"/>
     <use xlink:href="#DejaVuSans-20" transform="translate(790.917969 0)"/>
     <use xlink:href="#DejaVuSans-77" transform="translate(822.705078 0)"/>
     <use xlink:href="#DejaVuSans-69" transform="translate(904.492188 0)"/>
     <use xlink:href="#DejaVuSans-74" transform="translate(932.275391 0)"/>
     <use xlink:href="#DejaVuSans-68" transform="translate(971.484375 0)"/>
     <use xlink:href="#DejaVuSans-20" transform="translate(1034.863281 0)"/>
     <use xlink:href="#DejaVuSans-76" transform="translate(1066.650391 0)"/>
     <use xlink:href="#DejaVuSans-61" transform="translate(1125.830078 0)"/>
     <use xlink:href="#DejaVuSans-72" transform="translate(1187.109375 0)"/>
     <use xlink:href="#DejaVuSans-69" transform="translate(1228.222656 0)"/>
     <use xlink:href="#DejaVuSans-61" transform="translate(1256.005859 0)"/>
     <use xlink:href="#DejaVuSans-6e" transform="translate(1317.285156 0)"/>
     <use xlink:href="#DejaVuSans-63" transform="translate(1380.664062 0)"/>
     <use xlink:href="#DejaVuSans-65" transform="translate(1435.644531 0)"/>
     <use xlink:href="#DejaVuSans-20" transform="translate(1497.167969 0)"/>
     <use xlink:href="#DejaVuSans-28" transform="translate(1528.955078 0)"/>
     <use xlink:href="#DejaVuSans-4c" transform="translate(1567.96875 0)"/>
     <use xlink:href="#DejaVuSans-3d" transform="translate(1623.681641 0)"/>
     <use xlink:href="#DejaVuSans-35" transform="translate(1707.470703 0)"/>
     <use xlink:href="#DejaVuSans-2c" transform="translate(1771.09375 0)"/>
     <use xlink:href="#DejaVuSans-20" transform="translate(1802.880859 0)"/>
     <use xlink:href="#DejaVuSans-64" transform="translate(1834.667969 0)"/>
     <use xlink:href="#DejaVuSans-74" transform="translate(1898.144531 0)"/>
     <use xlink:href="#DejaVuSans-3d" transform="translate(1937.353516 0)"/>
     <use xlink:href="#DejaVuSans-31" transform="translate(2021.142578 0)"/>
     <use xlink:href="#DejaVuSans-2e" transform="translate(2084.765625 0)"/>
     <use xlink:href="#DejaVuSans-30" transform="translate(2116.552734 0)"/>
     <use xlink:href="#DejaVuSans-2c" transform="translate(2180.175781 0)"/>
     <use xlink:href="#DejaVuSans-20" transform="translate(2211.962891 0)"/>
     <use xlink:href="#DejaVuSans-4d" transform="translate(2243.75 0)"/>
     <use xlink:href="#DejaVuSans-65" transform="translate(2330.029297 0)"/>
     <use xlink:href="#DejaVuSans-61" transform="translate(2391.552734 0)"/>
     <use xlink:href="#DejaVuSans-73" transform="translate(2452.832031 0)"/>
     <use xlink:href="#DejaVuSans-75" transform="translate(2504.931641 0)"/>
     <use xlink:href="#DejaVuSans-72" transform="translate(2568.310547 0)"/>
     <use xlink:href="#DejaVuSans-65" transform="translate(2607.173828 0)"/>
     <use xlink:href="#DejaVuSans-6d" transform="translate(2668.697266 0)"/>
     <use xlink:href="#DejaVuSans-65" transform="translate(2766.109375 0)"/>
     <use xlink:href="#DejaVuSans-6e" transform="translate(2827.632812 0)"/>
     <use xlink:href="#DejaVuSans-74" transform="translate(2891.011719 0)"/>
     <use xlink:href="#DejaVuSans-20" transform="translate(2930.220703 0)"/>
     <use xlink:href="#DejaVuSans-64" transform="translate(2962.007812 0)"/>
     <use xlink:href="#DejaVuSans-69" transform="translate(3025.484375 0)"/>
     <use xlink:href="#DejaVuSans-72" transform="translate(3053.267578 0)"/>
     <use xlink:href="#DejaVuSans-65" transform="translate(3092.130859 0)"/>
     <use xlink:href="#DejaVuSans-63" transform="translate(3153.654297 0)"/>
     <use xlink:href="#DejaVuSans-74" transform="translate(3208.634766 0)"/>
     <use xlink:href="#DejaVuSans-69" transform="translate(3247.84375 0)"/>
     <use xlink:href="#DejaVuSans-6f" transform="translate(3275.626953 0)"/>
     <use xlink:href="#DejaVuSans-6e" transform="translate(3336.808594 0)"/>
     <use xlink:href="#DejaVuSans-3a" transform="translate(3400.1875 0)"/>
     <use xlink:href="#DejaVuSans-20" transform="translate(3433.878906 0)"/>
     <use xlink:href="#DejaVuSans-5a" transform="translate(3465.666016 0)"/>
     <use xlink:href="#DejaVuSans-29" transform="translate(3534.171875 0)"/>
    </g>
   </g>
   <g id="legend_1">
    <g id="patch_7">
     <path d="M 61.02 385.04 
L 123.65125 385.04 
Q 125.65125 385.04 125.65125 383.04 
L 125.65125 222.580625 
Q 125.65125 220.580625 123.65125 220.580625 
L 61.02 220.580625 
Q 59.02 220.580625 59.02 222.580625 
L 59.02 383.04 
Q 59.02 385.04 61.02 385.04 
z
" style="fill: #ffffff; opacity: 0.8; stroke: #cccccc; stroke-linejoin: miter"/>
    </g>
    <g id="line2d_42">
     <path d="M 63.02 228.679062 
L 73.02 228.679062 
L 83.02 228.679062 
" style="fill: none; stroke: #1f77b4; stroke-width: 1.5; stroke-linecap: square"/>
    </g>
    <g id="text_19">
     <!-- p=0.0 -->
     <g transform="translate(91.02 232.179062) scale(0.1 -0.1)">
      <use xlink:href="#DejaVuSans-70"/>
      <use xlink:href="#DejaVuSans-3d" transform="translate(63.476562 0)"/>
      <use xlink:href="#DejaVuSans-30" transform="translate(147.265625 0)"/>
      <use xlink:href="#DejaVuSans-2e" transform="translate(210.888672 0)"/>
      <use xlink:href="#DejaVuSans-30" transform="translate(242.675781 0)"/>
     </g>
    </g>
    <g id="line2d_43">
     <path d="M 63.02 243.357188 
L 73.02 243.357188 
L 83.02 243.357188 
" style="fill: none; stroke: #ff7f0e; stroke-width: 1.5; stroke-linecap: square"/>
    </g>
    <g id="text_20">
     <!-- p=0.1 -->
     <g transform="translate(91.02 246.857188) scale(0.1 -0.1)">
      <use xlink:href="#DejaVuSans-70"/>
      <use xlink:href="#DejaVuSans-3d" transform="translate(63.476562 0)"/>
      <use xlink:href="#DejaVuSans-30" transform="translate(147.265625 0)"/>
      <use xlink:href="#DejaVuSans-2e" transform="translate(210.888672 0)"/>
      <use xlink:href="#DejaVuSans-31" transform="translate(242.675781 0)"/>
     </g>
    </g>
    <g id="line2d_44">
     <path d="M 63.02 258.035313 
L 73.02 258.035313 
L 83.02 258.035313 
" style="fill: none; stroke: #2ca02c; stroke-width: 1.5; stroke-linecap: square"/>
    </g>
    <g id="text_21">
     <!-- p=0.2 -->
     <g transform="translate(91.02 261.535313) scale(0.1 -0.1)">
      <use xlink:href="#DejaVuSans-70"/>
      <use xlink:href="#DejaVuSans-3d" transform="translate(63.476562 0)"/>
      <use xlink:href="#DejaVuSans-30" transform="translate(147.265625 0)"/>
      <use xlink:href="#DejaVuSans-2e" transform="translate(210.888672 0)"/>
      <use xlink:href="#DejaVuSans-32" transform="translate(242.675781 0)"/>
     </g>
    </g>
    <g id="line2d_45">
     <path d="M 63.02 272.713437 
L 73.02 272.713437 
L 83.02 272.713437 
" style="fill: none; stroke: #d62728; stroke-width: 1.5; stroke-linecap: square"/>
    </g>
    <g id="text_22">
     <!-- p=0.3 -->
     <g transform="translate(91.02 276.213437) scale(0.1 -0.1)">
      <use xlink:href="#DejaVuSans-70"/>
      <use xlink:href="#DejaVuSans-3d" transform="translate(63.476562 0)"/>
      <use xlink:href="#DejaVuSans-30" transform="translate(147.265625 0)"/>
      <use xlink:href="#DejaVuSans-2e" transform="translate(210.888672 0)"/>
      <use xlink:href="#DejaVuSans-33" transform="translate(242.675781 0)"/>
     </g>
    </g>
    <g id="line2d_46">
     <path d="M 63.02 287.391563 
L 73.02 287.391563 
L 83.02 287.391563 
" style="fill: none; stroke: #9467bd; stroke-width: 1.5; stroke-linecap: square"/>
    </g>
    <g id="text_23">
     <!-- p=0.4 -->
     <g transform="translate(91.02 290.891563) scale(0.1 -0.1)">
      <use xlink:href="#DejaVuSans-70"/>
      <use xlink:href="#DejaVuSans-3d" transform="translate(63.476562 0)"/>
      <use xlink:href="#DejaVuSans-30" transform="translate(147.265625 0)"/>
      <use xlink:href="#DejaVuSans-2e" transform="translate(210.888672 0)"/>
      <use xlink:href="#DejaVuSans-34" transform="translate(242.675781 0)"/>
     </g>
    </g>
    <g id="line2d_47">
     <path d="M 63.02 302.069687 
L 73.02 302.069687 
L 83.02 302.069687 
" style="fill: none; stroke: #8c564b; stroke-width: 1.5; stroke-linecap: square"/>
    </g>
    <g id="text_24">
     <!-- p=0.5 -->
     <g transform="translate(91.02 305.569687) scale(0.1 -0.1)">
      <use xlink:href="#DejaVuSans-70"/>
      <use xlink:href="#DejaVuSans-3d" transform="translate(63.476562 0)"/>
      <use xlink:href="#DejaVuSans-30" transform="translate(147.265625 0)"/>
      <use xlink:href="#DejaVuSans-2e" transform="translate(210.888672 0)"/>
      <use xlink:href="#DejaVuSans-35" transform="translate(242.675781 0)"/>
     </g>
    </g>
    <g id="line2d_48">
     <path d="M 63.02 316.747813 
L 73.02 316.747813 
L 83.02 316.747813 
" style="fill: none; stroke: #e377c2; stroke-width: 1.5; stroke-linecap: square"/>
    </g>
    <g id="text_25">
     <!-- p=0.6 -->
     <g transform="translate(91.02 320.247813) scale(0.1 -0.1)">
      <defs>
       <path id="DejaVuSans-36" d="M 2113 2584 
Q 1688 2584 1439 2293 
Q 1191 2003 1191 1497 
Q 1191 994 1439 701 
Q 1688 409 2113 409 
Q 2538 409 2786 701 
Q 3034 994 3034 1497 
Q 3034 2003 2786 2293 
Q 2538 2584 2113 2584 
z
M 3366 4563 
L 3366 3988 
Q 3128 4100 2886 4159 
Q 2644 4219 2406 4219 
Q 1781 4219 1451 3797 
Q 1122 3375 1075 2522 
Q 1259 2794 1537 2939 
Q 1816 3084 2150 3084 
Q 2853 3084 3261 2657 
Q 3669 2231 3669 1497 
Q 3669 778 3244 343 
Q 2819 -91 2113 -91 
Q 1303 -91 875 529 
Q 447 1150 447 2328 
Q 447 3434 972 4092 
Q 1497 4750 2381 4750 
Q 2619 4750 2861 4703 
Q 3103 4656 3366 4563 
z
" transform="scale(0.015625)"/>
      </defs>
      <use xlink:href="#DejaVuSans-70"/>
      <use xlink:href="#DejaVuSans-3d" transform="translate(63.476562 0)"/>
      <use xlink:href="#DejaVuSans-30" transform="translate(147.265625 0)"/>
      <use xlink:href="#DejaVuSans-2e" transform="translate(210.888672 0)"/>
      <use xlink:href="#DejaVuSans-36" transform="translate(242.675781 0)"/>
     </g>
    </g>
    <g id="line2d_49">
     <path d="M 63.02 331.425937 
L 73.02 331.425937 
L 83.02 331.425937 
" style="fill: none; stroke: #7f7f7f; stroke-width: 1.5; stroke-linecap: square"/>
    </g>
    <g id="text_26">
     <!-- p=0.7 -->
     <g transform="translate(91.02 334.925937) scale(0.1 -0.1)">
      <use xlink:href="#DejaVuSans-70"/>
      <use xlink:href="#DejaVuSans-3d" transform="translate(63.476562 0)"/>
      <use xlink:href="#DejaVuSans-30" transform="translate(147.265625 0)"/>
      <use xlink:href="#DejaVuSans-2e" transform="translate(210.888672 0)"/>
      <use xlink:href="#DejaVuSans-37" transform="translate(242.675781 0)"/>
     </g>
    </g>
    <g id="line2d_50">
     <path d="M 63.02 346.104062 
L 73.02 346.104062 
L 83.02 346.104062 
" style="fill: none; stroke: #bcbd22; stroke-width: 1.5; stroke-linecap: square"/>
    </g>
    <g id="text_27">
     <!-- p=0.8 -->
     <g transform="translate(91.02 349.604062) scale(0.1 -0.1)">
      <defs>
       <path id="DejaVuSans-38" d="M 2034 2216 
Q 1584 2216 1326 1975 
Q 1069 1734 1069 1313 
Q 1069 891 1326 650 
Q 1584 409 2034 409 
Q 2484 409 2743 651 
Q 3003 894 3003 1313 
Q 3003 1734 2745 1975 
Q 2488 2216 2034 2216 
z
M 1403 2484 
Q 997 2584 770 2862 
Q 544 3141 544 3541 
Q 544 4100 942 4425 
Q 1341 4750 2034 4750 
Q 2731 4750 3128 4425 
Q 3525 4100 3525 3541 
Q 3525 3141 3298 2862 
Q 3072 2584 2669 2484 
Q 3125 2378 3379 2068 
Q 3634 1759 3634 1313 
Q 3634 634 3220 271 
Q 2806 -91 2034 -91 
Q 1263 -91 848 271 
Q 434 634 434 1313 
Q 434 1759 690 2068 
Q 947 2378 1403 2484 
z
M 1172 3481 
Q 1172 3119 1398 2916 
Q 1625 2713 2034 2713 
Q 2441 2713 2670 2916 
Q 2900 3119 2900 3481 
Q 2900 3844 2670 4047 
Q 2441 4250 2034 4250 
Q 1625 4250 1398 4047 
Q 1172 3844 1172 3481 
z
" transform="scale(0.015625)"/>
      </defs>
      <use xlink:href="#DejaVuSans-70"/>
      <use xlink:href="#DejaVuSans-3d" transform="translate(63.476562 0)"/>
      <use xlink:href="#DejaVuSans-30" transform="translate(147.265625 0)"/>
      <use xlink:href="#DejaVuSans-2e" transform="translate(210.888672 0)"/>
      <use xlink:href="#DejaVuSans-38" transform="translate(242.675781 0)"/>
     </g>
    </g>
    <g id="line2d_51">
     <path d="M 63.02 360.782187 
L 73.02 360.782187 
L 83.02 360.782187 
" style="fill: none; stroke: #17becf; stroke-width: 1.5; stroke-linecap: square"/>
    </g>
    <g id="text_28">
     <!-- p=0.9 -->
     <g transform="translate(91.02 364.282187) scale(0.1 -0.1)">
      <defs>
       <path id="DejaVuSans-39" d="M 703 97 
L 703 672 
Q 941 559 1184 500 
Q 1428 441 1663 441 
Q 2288 441 2617 861 
Q 2947 1281 2994 2138 
Q 2813 1869 2534 1725 
Q 2256 1581 1919 1581 
Q 1219 1581 811 2004 
Q 403 2428 403 3163 
Q 403 3881 828 4315 
Q 1253 4750 1959 4750 
Q 2769 4750 3195 4129 
Q 3622 3509 3622 2328 
Q 3622 1225 3098 567 
Q 2575 -91 1691 -91 
Q 1453 -91 1209 -44 
Q 966 3 703 97 
z
M 1959 2075 
Q 2384 2075 2632 2365 
Q 2881 2656 2881 3163 
Q 2881 3666 2632 3958 
Q 2384 4250 1959 4250 
Q 1534 4250 1286 3958 
Q 1038 3666 1038 3163 
Q 1038 2656 1286 2365 
Q 1534 2075 1959 2075 
z
" transform="scale(0.015625)"/>
      </defs>
      <use xlink:href="#DejaVuSans-70"/>
      <use xlink:href="#DejaVuSans-3d" transform="translate(63.476562 0)"/>
      <use xlink:href="#DejaVuSans-30" transform="translate(147.265625 0)"/>
      <use xlink:href="#DejaVuSans-2e" transform="translate(210.888672 0)"/>
      <use xlink:href="#DejaVuSans-39" transform="translate(242.675781 0)"/>
     </g>
    </g>
    <g id="line2d_52">
     <path d="M 63.02 375.460312 
L 73.02 375.460312 
L 83.02 375.460312 
" style="fill: none; stroke: #1f77b4; stroke-width: 1.5; stroke-linecap: square"/>
    </g>
    <g id="text_29">
     <!-- p=1.0 -->
     <g transform="translate(91.02 378.960312) scale(0.1 -0.1)">
      <use xlink:href="#DejaVuSans-70"/>
      <use xlink:href="#DejaVuSans-3d" transform="translate(63.476562 0)"/>
      <use xlink:href="#DejaVuSans-31" transform="translate(147.265625 0)"/>
      <use xlink:href="#DejaVuSans-2e" transform="translate(210.888672 0)"/>
      <use xlink:href="#DejaVuSans-30" transform="translate(242.675781 0)"/>
     </g>
    </g>
   </g>
  </g>
 </g>
 <defs>
  <clipPath id="pd63457c152">
   <rect x="54.02" y="26.88" width="655.18" height="363.16"/>
  </clipPath>
 </defs>
</svg>
