<?xml version="1.0" encoding="utf-8" standalone="no"?>
<!DOCTYPE svg PUBLIC "-//W3C//DTD SVG 1.1//EN"
  "http://www.w3.org/Graphics/SVG/1.1/DTD/svg11.dtd">
<svg xmlns:xlink="http://www.w3.org/1999/xlink" width="720pt" height="432pt" viewBox="0 0 720 432" xmlns="http://www.w3.org/2000/svg" version="1.1">
 <metadata>
  <rdf:RDF xmlns:dc="http://purl.org/dc/elements/1.1/" xmlns:cc="http://creativecommons.org/ns#" xmlns:rdf="http://www.w3.org/1999/02/22-rdf-syntax-ns#">
   <cc:Work>
    <dc:type rdf:resource="http://purl.org/dc/dcmitype/StillImage"/>
    <dc:date>2025-08-25T13:17:52.365214</dc:date>
    <dc:format>image/svg+xml</dc:format>
    <dc:creator>
     <cc:Agent>
      <dc:title>Matplotlib v3.10.3, https://matplotlib.org/</dc:title>
     </cc:Agent>
    </dc:creator>
   </cc:Work>
  </rdf:RDF>
 </metadata>
 <defs>
  <style type="text/css">*{stroke-linejoin: round; stroke-linecap: butt}</style>
 </defs>
 <g id="figure_1">
  <g id="patch_1">
   <path d="M 0 432 
L 720 432 
L 720 0 
L 0 0 
z
" style="fill: #ffffff"/>
  </g>
  <g id="axes_1">
   <g id="patch_2">
    <path d="M 47.72 390.04 
L 709.2 390.04 
L 709.2 26.88 
L 47.72 26.88 
z
" style="fill: #ffffff"/>
   </g>
   <g id="matplotlib.axis_1">
    <g id="xtick_1">
     <g id="line2d_1">
      <path d="M 77.787273 390.04 
L 77.787273 26.88 
" clip-path="url(#pbd02c06c9b)" style="fill: none; stroke: #b0b0b0; stroke-width: 0.8; stroke-linecap: square"/>
     </g>
     <g id="line2d_2">
      <defs>
       <path id="mb193171898" d="M 0 0 
L 0 3.5 
" style="stroke: #000000; stroke-width: 0.8"/>
      </defs>
      <g>
       <use xlink:href="#mb193171898" x="77.787273" y="390.04" style="stroke: #000000; stroke-width: 0.8"/>
      </g>
     </g>
     <g id="text_1">
      <!-- 0 -->
      <g transform="translate(74.606023 404.638438) scale(0.1 -0.1)">
       <defs>
        <path id="DejaVuSans-30" d="M 2034 4250 
Q 1547 4250 1301 3770 
Q 1056 3291 1056 2328 
Q 1056 1369 1301 889 
Q 1547 409 2034 409 
Q 2525 409 2770 889 
Q 3016 1369 3016 2328 
Q 3016 3291 2770 3770 
Q 2525 4250 2034 4250 
z
M 2034 4750 
Q 2819 4750 3233 4129 
Q 3647 3509 3647 2328 
Q 3647 1150 3233 529 
Q 2819 -91 2034 -91 
Q 1250 -91 836 529 
Q 422 1150 422 2328 
Q 422 3509 836 4129 
Q 1250 4750 2034 4750 
z
" transform="scale(0.015625)"/>
       </defs>
       <use xlink:href="#DejaVuSans-30"/>
      </g>
     </g>
    </g>
    <g id="xtick_2">
     <g id="line2d_3">
      <path d="M 222.689792 390.04 
L 222.689792 26.88 
" clip-path="url(#pbd02c06c9b)" style="fill: none; stroke: #b0b0b0; stroke-width: 0.8; stroke-linecap: square"/>
     </g>
     <g id="line2d_4">
      <g>
       <use xlink:href="#mb193171898" x="222.689792" y="390.04" style="stroke: #000000; stroke-width: 0.8"/>
      </g>
     </g>
     <g id="text_2">
      <!-- 20 -->
      <g transform="translate(216.327292 404.638438) scale(0.1 -0.1)">
       <defs>
        <path id="DejaVuSans-32" d="M 1228 531 
L 3431 531 
L 3431 0 
L 469 0 
L 469 531 
Q 828 903 1448 1529 
Q 2069 2156 2228 2338 
Q 2531 2678 2651 2914 
Q 2772 3150 2772 3378 
Q 2772 3750 2511 3984 
Q 2250 4219 1831 4219 
Q 1534 4219 1204 4116 
Q 875 4013 500 3803 
L 500 4441 
Q 881 4594 1212 4672 
Q 1544 4750 1819 4750 
Q 2544 4750 2975 4387 
Q 3406 4025 3406 3419 
Q 3406 3131 3298 2873 
Q 3191 2616 2906 2266 
Q 2828 2175 2409 1742 
Q 1991 1309 1228 531 
z
" transform="scale(0.015625)"/>
       </defs>
       <use xlink:href="#DejaVuSans-32"/>
       <use xlink:href="#DejaVuSans-30" transform="translate(63.623047 0)"/>
      </g>
     </g>
    </g>
    <g id="xtick_3">
     <g id="line2d_5">
      <path d="M 367.592311 390.04 
L 367.592311 26.88 
" clip-path="url(#pbd02c06c9b)" style="fill: none; stroke: #b0b0b0; stroke-width: 0.8; stroke-linecap: square"/>
     </g>
     <g id="line2d_6">
      <g>
       <use xlink:href="#mb193171898" x="367.592311" y="390.04" style="stroke: #000000; stroke-width: 0.8"/>
      </g>
     </g>
     <g id="text_3">
      <!-- 40 -->
      <g transform="translate(361.229811 404.638438) scale(0.1 -0.1)">
       <defs>
        <path id="DejaVuSans-34" d="M 2419 4116 
L 825 1625 
L 2419 1625 
L 2419 4116 
z
M 2253 4666 
L 3047 4666 
L 3047 1625 
L 3713 1625 
L 3713 1100 
L 3047 1100 
L 3047 0 
L 2419 0 
L 2419 1100 
L 313 1100 
L 313 1709 
L 2253 4666 
z
" transform="scale(0.015625)"/>
       </defs>
       <use xlink:href="#DejaVuSans-34"/>
       <use xlink:href="#DejaVuSans-30" transform="translate(63.623047 0)"/>
      </g>
     </g>
    </g>
    <g id="xtick_4">
     <g id="line2d_7">
      <path d="M 512.49483 390.04 
L 512.49483 26.88 
" clip-path="url(#pbd02c06c9b)" style="fill: none; stroke: #b0b0b0; stroke-width: 0.8; stroke-linecap: square"/>
     </g>
     <g id="line2d_8">
      <g>
       <use xlink:href="#mb193171898" x="512.49483" y="390.04" style="stroke: #000000; stroke-width: 0.8"/>
      </g>
     </g>
     <g id="text_4">
      <!-- 60 -->
      <g transform="translate(506.13233 404.638438) scale(0.1 -0.1)">
       <defs>
        <path id="DejaVuSans-36" d="M 2113 2584 
Q 1688 2584 1439 2293 
Q 1191 2003 1191 1497 
Q 1191 994 1439 701 
Q 1688 409 2113 409 
Q 2538 409 2786 701 
Q 3034 994 3034 1497 
Q 3034 2003 2786 2293 
Q 2538 2584 2113 2584 
z
M 3366 4563 
L 3366 3988 
Q 3128 4100 2886 4159 
Q 2644 4219 2406 4219 
Q 1781 4219 1451 3797 
Q 1122 3375 1075 2522 
Q 1259 2794 1537 2939 
Q 1816 3084 2150 3084 
Q 2853 3084 3261 2657 
Q 3669 2231 3669 1497 
Q 3669 778 3244 343 
Q 2819 -91 2113 -91 
Q 1303 -91 875 529 
Q 447 1150 447 2328 
Q 447 3434 972 4092 
Q 1497 4750 2381 4750 
Q 2619 4750 2861 4703 
Q 3103 4656 3366 4563 
z
" transform="scale(0.015625)"/>
       </defs>
       <use xlink:href="#DejaVuSans-36"/>
       <use xlink:href="#DejaVuSans-30" transform="translate(63.623047 0)"/>
      </g>
     </g>
    </g>
    <g id="xtick_5">
     <g id="line2d_9">
      <path d="M 657.397349 390.04 
L 657.397349 26.88 
" clip-path="url(#pbd02c06c9b)" style="fill: none; stroke: #b0b0b0; stroke-width: 0.8; stroke-linecap: square"/>
     </g>
     <g id="line2d_10">
      <g>
       <use xlink:href="#mb193171898" x="657.397349" y="390.04" style="stroke: #000000; stroke-width: 0.8"/>
      </g>
     </g>
     <g id="text_5">
      <!-- 80 -->
      <g transform="translate(651.034849 404.638438) scale(0.1 -0.1)">
       <defs>
        <path id="DejaVuSans-38" d="M 2034 2216 
Q 1584 2216 1326 1975 
Q 1069 1734 1069 1313 
Q 1069 891 1326 650 
Q 1584 409 2034 409 
Q 2484 409 2743 651 
Q 3003 894 3003 1313 
Q 3003 1734 2745 1975 
Q 2488 2216 2034 2216 
z
M 1403 2484 
Q 997 2584 770 2862 
Q 544 3141 544 3541 
Q 544 4100 942 4425 
Q 1341 4750 2034 4750 
Q 2731 4750 3128 4425 
Q 3525 4100 3525 3541 
Q 3525 3141 3298 2862 
Q 3072 2584 2669 2484 
Q 3125 2378 3379 2068 
Q 3634 1759 3634 1313 
Q 3634 634 3220 271 
Q 2806 -91 2034 -91 
Q 1263 -91 848 271 
Q 434 634 434 1313 
Q 434 1759 690 2068 
Q 947 2378 1403 2484 
z
M 1172 3481 
Q 1172 3119 1398 2916 
Q 1625 2713 2034 2713 
Q 2441 2713 2670 2916 
Q 2900 3119 2900 3481 
Q 2900 3844 2670 4047 
Q 2441 4250 2034 4250 
Q 1625 4250 1398 4047 
Q 1172 3844 1172 3481 
z
" transform="scale(0.015625)"/>
       </defs>
       <use xlink:href="#DejaVuSans-38"/>
       <use xlink:href="#DejaVuSans-30" transform="translate(63.623047 0)"/>
      </g>
     </g>
    </g>
    <g id="text_6">
     <!-- Time -->
     <g transform="translate(366.226406 418.316562) scale(0.1 -0.1)">
      <defs>
       <path id="DejaVuSans-54" d="M -19 4666 
L 3928 4666 
L 3928 4134 
L 2272 4134 
L 2272 0 
L 1638 0 
L 1638 4134 
L -19 4134 
L -19 4666 
z
" transform="scale(0.015625)"/>
       <path id="DejaVuSans-69" d="M 603 3500 
L 1178 3500 
L 1178 0 
L 603 0 
L 603 3500 
z
M 603 4863 
L 1178 4863 
L 1178 4134 
L 603 4134 
L 603 4863 
z
" transform="scale(0.015625)"/>
       <path id="DejaVuSans-6d" d="M 3328 2828 
Q 3544 3216 3844 3400 
Q 4144 3584 4550 3584 
Q 5097 3584 5394 3201 
Q 5691 2819 5691 2113 
L 5691 0 
L 5113 0 
L 5113 2094 
Q 5113 2597 4934 2840 
Q 4756 3084 4391 3084 
Q 3944 3084 3684 2787 
Q 3425 2491 3425 1978 
L 3425 0 
L 2847 0 
L 2847 2094 
Q 2847 2600 2669 2842 
Q 2491 3084 2119 3084 
Q 1678 3084 1418 2786 
Q 1159 2488 1159 1978 
L 1159 0 
L 581 0 
L 581 3500 
L 1159 3500 
L 1159 2956 
Q 1356 3278 1631 3431 
Q 1906 3584 2284 3584 
Q 2666 3584 2933 3390 
Q 3200 3197 3328 2828 
z
" transform="scale(0.015625)"/>
       <path id="DejaVuSans-65" d="M 3597 1894 
L 3597 1613 
L 953 1613 
Q 991 1019 1311 708 
Q 1631 397 2203 397 
Q 2534 397 2845 478 
Q 3156 559 3463 722 
L 3463 178 
Q 3153 47 2828 -22 
Q 2503 -91 2169 -91 
Q 1331 -91 842 396 
Q 353 884 353 1716 
Q 353 2575 817 3079 
Q 1281 3584 2069 3584 
Q 2775 3584 3186 3129 
Q 3597 2675 3597 1894 
z
M 3022 2063 
Q 3016 2534 2758 2815 
Q 2500 3097 2075 3097 
Q 1594 3097 1305 2825 
Q 1016 2553 972 2059 
L 3022 2063 
z
" transform="scale(0.015625)"/>
      </defs>
      <use xlink:href="#DejaVuSans-54"/>
      <use xlink:href="#DejaVuSans-69" transform="translate(57.958984 0)"/>
      <use xlink:href="#DejaVuSans-6d" transform="translate(85.742188 0)"/>
      <use xlink:href="#DejaVuSans-65" transform="translate(183.154297 0)"/>
     </g>
    </g>
   </g>
   <g id="matplotlib.axis_2">
    <g id="ytick_1">
     <g id="line2d_11">
      <path d="M 47.72 373.532727 
L 709.2 373.532727 
" clip-path="url(#pbd02c06c9b)" style="fill: none; stroke: #b0b0b0; stroke-width: 0.8; stroke-linecap: square"/>
     </g>
     <g id="line2d_12">
      <defs>
       <path id="mdb3895353a" d="M 0 0 
L -3.5 0 
" style="stroke: #000000; stroke-width: 0.8"/>
      </defs>
      <g>
       <use xlink:href="#mdb3895353a" x="47.72" y="373.532727" style="stroke: #000000; stroke-width: 0.8"/>
      </g>
     </g>
     <g id="text_7">
      <!-- 0.0 -->
      <g transform="translate(24.816875 377.331946) scale(0.1 -0.1)">
       <defs>
        <path id="DejaVuSans-2e" d="M 684 794 
L 1344 794 
L 1344 0 
L 684 0 
L 684 794 
z
" transform="scale(0.015625)"/>
       </defs>
       <use xlink:href="#DejaVuSans-30"/>
       <use xlink:href="#DejaVuSans-2e" transform="translate(63.623047 0)"/>
       <use xlink:href="#DejaVuSans-30" transform="translate(95.410156 0)"/>
      </g>
     </g>
    </g>
    <g id="ytick_2">
     <g id="line2d_13">
      <path d="M 47.72 312.175044 
L 709.2 312.175044 
" clip-path="url(#pbd02c06c9b)" style="fill: none; stroke: #b0b0b0; stroke-width: 0.8; stroke-linecap: square"/>
     </g>
     <g id="line2d_14">
      <g>
       <use xlink:href="#mdb3895353a" x="47.72" y="312.175044" style="stroke: #000000; stroke-width: 0.8"/>
      </g>
     </g>
     <g id="text_8">
      <!-- 0.5 -->
      <g transform="translate(24.816875 315.974262) scale(0.1 -0.1)">
       <defs>
        <path id="DejaVuSans-35" d="M 691 4666 
L 3169 4666 
L 3169 4134 
L 1269 4134 
L 1269 2991 
Q 1406 3038 1543 3061 
Q 1681 3084 1819 3084 
Q 2600 3084 3056 2656 
Q 3513 2228 3513 1497 
Q 3513 744 3044 326 
Q 2575 -91 1722 -91 
Q 1428 -91 1123 -41 
Q 819 9 494 109 
L 494 744 
Q 775 591 1075 516 
Q 1375 441 1709 441 
Q 2250 441 2565 725 
Q 2881 1009 2881 1497 
Q 2881 1984 2565 2268 
Q 2250 2553 1709 2553 
Q 1456 2553 1204 2497 
Q 953 2441 691 2322 
L 691 4666 
z
" transform="scale(0.015625)"/>
       </defs>
       <use xlink:href="#DejaVuSans-30"/>
       <use xlink:href="#DejaVuSans-2e" transform="translate(63.623047 0)"/>
       <use xlink:href="#DejaVuSans-35" transform="translate(95.410156 0)"/>
      </g>
     </g>
    </g>
    <g id="ytick_3">
     <g id="line2d_15">
      <path d="M 47.72 250.81736 
L 709.2 250.81736 
" clip-path="url(#pbd02c06c9b)" style="fill: none; stroke: #b0b0b0; stroke-width: 0.8; stroke-linecap: square"/>
     </g>
     <g id="line2d_16">
      <g>
       <use xlink:href="#mdb3895353a" x="47.72" y="250.81736" style="stroke: #000000; stroke-width: 0.8"/>
      </g>
     </g>
     <g id="text_9">
      <!-- 1.0 -->
      <g transform="translate(24.816875 254.616579) scale(0.1 -0.1)">
       <defs>
        <path id="DejaVuSans-31" d="M 794 531 
L 1825 531 
L 1825 4091 
L 703 3866 
L 703 4441 
L 1819 4666 
L 2450 4666 
L 2450 531 
L 3481 531 
L 3481 0 
L 794 0 
L 794 531 
z
" transform="scale(0.015625)"/>
       </defs>
       <use xlink:href="#DejaVuSans-31"/>
       <use xlink:href="#DejaVuSans-2e" transform="translate(63.623047 0)"/>
       <use xlink:href="#DejaVuSans-30" transform="translate(95.410156 0)"/>
      </g>
     </g>
    </g>
    <g id="ytick_4">
     <g id="line2d_17">
      <path d="M 47.72 189.459676 
L 709.2 189.459676 
" clip-path="url(#pbd02c06c9b)" style="fill: none; stroke: #b0b0b0; stroke-width: 0.8; stroke-linecap: square"/>
     </g>
     <g id="line2d_18">
      <g>
       <use xlink:href="#mdb3895353a" x="47.72" y="189.459676" style="stroke: #000000; stroke-width: 0.8"/>
      </g>
     </g>
     <g id="text_10">
      <!-- 1.5 -->
      <g transform="translate(24.816875 193.258895) scale(0.1 -0.1)">
       <use xlink:href="#DejaVuSans-31"/>
       <use xlink:href="#DejaVuSans-2e" transform="translate(63.623047 0)"/>
       <use xlink:href="#DejaVuSans-35" transform="translate(95.410156 0)"/>
      </g>
     </g>
    </g>
    <g id="ytick_5">
     <g id="line2d_19">
      <path d="M 47.72 128.101992 
L 709.2 128.101992 
" clip-path="url(#pbd02c06c9b)" style="fill: none; stroke: #b0b0b0; stroke-width: 0.8; stroke-linecap: square"/>
     </g>
     <g id="line2d_20">
      <g>
       <use xlink:href="#mdb3895353a" x="47.72" y="128.101992" style="stroke: #000000; stroke-width: 0.8"/>
      </g>
     </g>
     <g id="text_11">
      <!-- 2.0 -->
      <g transform="translate(24.816875 131.901211) scale(0.1 -0.1)">
       <use xlink:href="#DejaVuSans-32"/>
       <use xlink:href="#DejaVuSans-2e" transform="translate(63.623047 0)"/>
       <use xlink:href="#DejaVuSans-30" transform="translate(95.410156 0)"/>
      </g>
     </g>
    </g>
    <g id="ytick_6">
     <g id="line2d_21">
      <path d="M 47.72 66.744309 
L 709.2 66.744309 
" clip-path="url(#pbd02c06c9b)" style="fill: none; stroke: #b0b0b0; stroke-width: 0.8; stroke-linecap: square"/>
     </g>
     <g id="line2d_22">
      <g>
       <use xlink:href="#mdb3895353a" x="47.72" y="66.744309" style="stroke: #000000; stroke-width: 0.8"/>
      </g>
     </g>
     <g id="text_12">
      <!-- 2.5 -->
      <g transform="translate(24.816875 70.543527) scale(0.1 -0.1)">
       <use xlink:href="#DejaVuSans-32"/>
       <use xlink:href="#DejaVuSans-2e" transform="translate(63.623047 0)"/>
       <use xlink:href="#DejaVuSans-35" transform="translate(95.410156 0)"/>
      </g>
     </g>
    </g>
    <g id="text_13">
     <!-- Half-chain entropy -->
     <g transform="translate(18.737187 254.432656) rotate(-90) scale(0.1 -0.1)">
      <defs>
       <path id="DejaVuSans-48" d="M 628 4666 
L 1259 4666 
L 1259 2753 
L 3553 2753 
L 3553 4666 
L 4184 4666 
L 4184 0 
L 3553 0 
L 3553 2222 
L 1259 2222 
L 1259 0 
L 628 0 
L 628 4666 
z
" transform="scale(0.015625)"/>
       <path id="DejaVuSans-61" d="M 2194 1759 
Q 1497 1759 1228 1600 
Q 959 1441 959 1056 
Q 959 750 1161 570 
Q 1363 391 1709 391 
Q 2188 391 2477 730 
Q 2766 1069 2766 1631 
L 2766 1759 
L 2194 1759 
z
M 3341 1997 
L 3341 0 
L 2766 0 
L 2766 531 
Q 2569 213 2275 61 
Q 1981 -91 1556 -91 
Q 1019 -91 701 211 
Q 384 513 384 1019 
Q 384 1609 779 1909 
Q 1175 2209 1959 2209 
L 2766 2209 
L 2766 2266 
Q 2766 2663 2505 2880 
Q 2244 3097 1772 3097 
Q 1472 3097 1187 3025 
Q 903 2953 641 2809 
L 641 3341 
Q 956 3463 1253 3523 
Q 1550 3584 1831 3584 
Q 2591 3584 2966 3190 
Q 3341 2797 3341 1997 
z
" transform="scale(0.015625)"/>
       <path id="DejaVuSans-6c" d="M 603 4863 
L 1178 4863 
L 1178 0 
L 603 0 
L 603 4863 
z
" transform="scale(0.015625)"/>
       <path id="DejaVuSans-66" d="M 2375 4863 
L 2375 4384 
L 1825 4384 
Q 1516 4384 1395 4259 
Q 1275 4134 1275 3809 
L 1275 3500 
L 2222 3500 
L 2222 3053 
L 1275 3053 
L 1275 0 
L 697 0 
L 697 3053 
L 147 3053 
L 147 3500 
L 697 3500 
L 697 3744 
Q 697 4328 969 4595 
Q 1241 4863 1831 4863 
L 2375 4863 
z
" transform="scale(0.015625)"/>
       <path id="DejaVuSans-2d" d="M 313 2009 
L 1997 2009 
L 1997 1497 
L 313 1497 
L 313 2009 
z
" transform="scale(0.015625)"/>
       <path id="DejaVuSans-63" d="M 3122 3366 
L 3122 2828 
Q 2878 2963 2633 3030 
Q 2388 3097 2138 3097 
Q 1578 3097 1268 2742 
Q 959 2388 959 1747 
Q 959 1106 1268 751 
Q 1578 397 2138 397 
Q 2388 397 2633 464 
Q 2878 531 3122 666 
L 3122 134 
Q 2881 22 2623 -34 
Q 2366 -91 2075 -91 
Q 1284 -91 818 406 
Q 353 903 353 1747 
Q 353 2603 823 3093 
Q 1294 3584 2113 3584 
Q 2378 3584 2631 3529 
Q 2884 3475 3122 3366 
z
" transform="scale(0.015625)"/>
       <path id="DejaVuSans-68" d="M 3513 2113 
L 3513 0 
L 2938 0 
L 2938 2094 
Q 2938 2591 2744 2837 
Q 2550 3084 2163 3084 
Q 1697 3084 1428 2787 
Q 1159 2491 1159 1978 
L 1159 0 
L 581 0 
L 581 4863 
L 1159 4863 
L 1159 2956 
Q 1366 3272 1645 3428 
Q 1925 3584 2291 3584 
Q 2894 3584 3203 3211 
Q 3513 2838 3513 2113 
z
" transform="scale(0.015625)"/>
       <path id="DejaVuSans-6e" d="M 3513 2113 
L 3513 0 
L 2938 0 
L 2938 2094 
Q 2938 2591 2744 2837 
Q 2550 3084 2163 3084 
Q 1697 3084 1428 2787 
Q 1159 2491 1159 1978 
L 1159 0 
L 581 0 
L 581 3500 
L 1159 3500 
L 1159 2956 
Q 1366 3272 1645 3428 
Q 1925 3584 2291 3584 
Q 2894 3584 3203 3211 
Q 3513 2838 3513 2113 
z
" transform="scale(0.015625)"/>
       <path id="DejaVuSans-20" transform="scale(0.015625)"/>
       <path id="DejaVuSans-74" d="M 1172 4494 
L 1172 3500 
L 2356 3500 
L 2356 3053 
L 1172 3053 
L 1172 1153 
Q 1172 725 1289 603 
Q 1406 481 1766 481 
L 2356 481 
L 2356 0 
L 1766 0 
Q 1100 0 847 248 
Q 594 497 594 1153 
L 594 3053 
L 172 3053 
L 172 3500 
L 594 3500 
L 594 4494 
L 1172 4494 
z
" transform="scale(0.015625)"/>
       <path id="DejaVuSans-72" d="M 2631 2963 
Q 2534 3019 2420 3045 
Q 2306 3072 2169 3072 
Q 1681 3072 1420 2755 
Q 1159 2438 1159 1844 
L 1159 0 
L 581 0 
L 581 3500 
L 1159 3500 
L 1159 2956 
Q 1341 3275 1631 3429 
Q 1922 3584 2338 3584 
Q 2397 3584 2469 3576 
Q 2541 3569 2628 3553 
L 2631 2963 
z
" transform="scale(0.015625)"/>
       <path id="DejaVuSans-6f" d="M 1959 3097 
Q 1497 3097 1228 2736 
Q 959 2375 959 1747 
Q 959 1119 1226 758 
Q 1494 397 1959 397 
Q 2419 397 2687 759 
Q 2956 1122 2956 1747 
Q 2956 2369 2687 2733 
Q 2419 3097 1959 3097 
z
M 1959 3584 
Q 2709 3584 3137 3096 
Q 3566 2609 3566 1747 
Q 3566 888 3137 398 
Q 2709 -91 1959 -91 
Q 1206 -91 779 398 
Q 353 888 353 1747 
Q 353 2609 779 3096 
Q 1206 3584 1959 3584 
z
" transform="scale(0.015625)"/>
       <path id="DejaVuSans-70" d="M 1159 525 
L 1159 -1331 
L 581 -1331 
L 581 3500 
L 1159 3500 
L 1159 2969 
Q 1341 3281 1617 3432 
Q 1894 3584 2278 3584 
Q 2916 3584 3314 3078 
Q 3713 2572 3713 1747 
Q 3713 922 3314 415 
Q 2916 -91 2278 -91 
Q 1894 -91 1617 61 
Q 1341 213 1159 525 
z
M 3116 1747 
Q 3116 2381 2855 2742 
Q 2594 3103 2138 3103 
Q 1681 3103 1420 2742 
Q 1159 2381 1159 1747 
Q 1159 1113 1420 752 
Q 1681 391 2138 391 
Q 2594 391 2855 752 
Q 3116 1113 3116 1747 
z
" transform="scale(0.015625)"/>
       <path id="DejaVuSans-79" d="M 2059 -325 
Q 1816 -950 1584 -1140 
Q 1353 -1331 966 -1331 
L 506 -1331 
L 506 -850 
L 844 -850 
Q 1081 -850 1212 -737 
Q 1344 -625 1503 -206 
L 1606 56 
L 191 3500 
L 800 3500 
L 1894 763 
L 2988 3500 
L 3597 3500 
L 2059 -325 
z
" transform="scale(0.015625)"/>
      </defs>
      <use xlink:href="#DejaVuSans-48"/>
      <use xlink:href="#DejaVuSans-61" transform="translate(75.195312 0)"/>
      <use xlink:href="#DejaVuSans-6c" transform="translate(136.474609 0)"/>
      <use xlink:href="#DejaVuSans-66" transform="translate(164.257812 0)"/>
      <use xlink:href="#DejaVuSans-2d" transform="translate(193.962891 0)"/>
      <use xlink:href="#DejaVuSans-63" transform="translate(230.046875 0)"/>
      <use xlink:href="#DejaVuSans-68" transform="translate(285.027344 0)"/>
      <use xlink:href="#DejaVuSans-61" transform="translate(348.40625 0)"/>
      <use xlink:href="#DejaVuSans-69" transform="translate(409.685547 0)"/>
      <use xlink:href="#DejaVuSans-6e" transform="translate(437.46875 0)"/>
      <use xlink:href="#DejaVuSans-20" transform="translate(500.847656 0)"/>
      <use xlink:href="#DejaVuSans-65" transform="translate(532.634766 0)"/>
      <use xlink:href="#DejaVuSans-6e" transform="translate(594.158203 0)"/>
      <use xlink:href="#DejaVuSans-74" transform="translate(657.537109 0)"/>
      <use xlink:href="#DejaVuSans-72" transform="translate(696.746094 0)"/>
      <use xlink:href="#DejaVuSans-6f" transform="translate(735.609375 0)"/>
      <use xlink:href="#DejaVuSans-70" transform="translate(796.791016 0)"/>
      <use xlink:href="#DejaVuSans-79" transform="translate(860.267578 0)"/>
     </g>
    </g>
   </g>
   <g id="line2d_23">
    <path d="M 77.787273 373.532727 
L 85.032399 52.362557 
L 92.277525 44.579572 
L 99.522651 43.565509 
L 106.767777 43.387273 
L 114.012903 43.847263 
L 121.258028 44.434737 
L 128.503154 44.911874 
L 135.74828 45.565598 
L 142.993406 46.299075 
L 150.238532 46.826695 
L 157.483658 47.511504 
L 164.728784 48.336365 
L 171.97391 48.849559 
L 179.219036 49.640186 
L 186.464162 50.211519 
L 193.709288 51.096531 
L 200.954414 51.338281 
L 208.19954 51.911658 
L 215.444666 52.617274 
L 222.689792 53.374661 
L 229.934918 53.716539 
L 237.180044 54.338237 
L 244.42517 54.629837 
L 251.670296 55.02562 
L 258.915422 55.548428 
L 266.160548 55.808689 
L 273.405674 56.444121 
L 280.6508 56.777975 
L 287.895926 57.187505 
L 295.141051 57.355267 
L 302.386177 57.601397 
L 309.631303 57.885678 
L 316.876429 58.123372 
L 324.121555 58.319242 
L 331.366681 58.580447 
L 338.611807 58.650609 
L 345.856933 58.948457 
L 353.102059 59.081228 
L 360.347185 59.242833 
L 367.592311 59.48282 
L 374.837437 59.514201 
L 382.082563 59.74945 
L 389.327689 60.057708 
L 396.572815 60.167462 
L 403.817941 60.360209 
L 411.063067 60.454971 
L 418.308193 60.730965 
L 425.553319 60.853412 
L 432.798445 60.948964 
L 440.043571 60.885895 
L 447.288697 61.147501 
L 454.533823 61.318902 
L 461.778949 61.320784 
L 469.024074 61.320818 
L 476.2692 61.600722 
L 483.514326 61.635159 
L 490.759452 61.706818 
L 498.004578 61.776147 
L 505.249704 61.691905 
L 512.49483 62.070991 
L 519.739956 62.200212 
L 526.985082 62.260055 
L 534.230208 62.482778 
L 541.475334 62.597312 
L 548.72046 62.75072 
L 555.965586 62.742855 
L 563.210712 62.701634 
L 570.455838 62.688866 
L 577.700964 62.866375 
L 584.94609 63.026182 
L 592.191216 62.904259 
L 599.436342 62.82677 
L 606.681468 63.006642 
L 613.926594 63.02555 
L 621.17172 63.031804 
L 628.416846 63.214623 
L 635.661972 63.223958 
L 642.907097 63.376858 
L 650.152223 63.338034 
L 657.397349 63.400988 
L 664.642475 63.624548 
L 671.887601 63.622475 
L 679.132727 63.719095 
" clip-path="url(#pbd02c06c9b)" style="fill: none; stroke: #1f77b4; stroke-width: 1.5; stroke-linecap: square"/>
   </g>
   <g id="line2d_24">
    <path d="M 77.787273 373.532727 
L 85.032399 105.155647 
L 92.277525 99.93507 
L 99.522651 100.070058 
L 106.767777 101.018557 
L 114.012903 102.052592 
L 121.258028 104.205761 
L 128.503154 105.137162 
L 135.74828 106.822144 
L 142.993406 108.124613 
L 150.238532 109.27347 
L 157.483658 110.660893 
L 164.728784 111.931252 
L 171.97391 112.993405 
L 179.219036 114.448873 
L 186.464162 115.431602 
L 193.709288 116.707542 
L 200.954414 117.735333 
L 208.19954 118.656507 
L 215.444666 119.239038 
L 222.689792 120.554607 
L 229.934918 121.046987 
L 237.180044 121.777826 
L 244.42517 122.281864 
L 251.670296 122.950151 
L 258.915422 123.773764 
L 266.160548 124.318332 
L 273.405674 124.896977 
L 280.6508 125.584541 
L 287.895926 125.962172 
L 295.141051 126.214729 
L 302.386177 126.559226 
L 309.631303 126.988912 
L 316.876429 127.41371 
L 324.121555 127.756723 
L 331.366681 128.236572 
L 338.611807 128.329093 
L 345.856933 128.642867 
L 353.102059 128.889216 
L 360.347185 129.198062 
L 367.592311 129.572381 
L 374.837437 129.523301 
L 382.082563 129.969012 
L 389.327689 130.217341 
L 396.572815 130.272916 
L 403.817941 130.655426 
L 411.063067 130.731549 
L 418.308193 130.943105 
L 425.553319 131.094903 
L 432.798445 131.140075 
L 440.043571 131.071774 
L 447.288697 131.401005 
L 454.533823 131.512002 
L 461.778949 131.67663 
L 469.024074 131.419604 
L 476.2692 131.768247 
L 483.514326 131.920929 
L 490.759452 131.943561 
L 498.004578 131.956201 
L 505.249704 131.916762 
L 512.49483 132.337644 
L 519.739956 132.066015 
L 526.985082 132.566912 
L 534.230208 132.572977 
L 541.475334 132.919977 
L 548.72046 132.977525 
L 555.965586 133.062014 
L 563.210712 133.039798 
L 570.455838 133.045078 
L 577.700964 133.026383 
L 584.94609 133.25863 
L 592.191216 132.94981 
L 599.436342 132.95625 
L 606.681468 133.254905 
L 613.926594 132.989132 
L 621.17172 133.146183 
L 628.416846 133.283953 
L 635.661972 133.36634 
L 642.907097 133.446368 
L 650.152223 133.458376 
L 657.397349 133.430768 
L 664.642475 133.559332 
L 671.887601 133.640752 
L 679.132727 133.618048 
" clip-path="url(#pbd02c06c9b)" style="fill: none; stroke: #ff7f0e; stroke-width: 1.5; stroke-linecap: square"/>
   </g>
   <g id="line2d_25">
    <path d="M 77.787273 373.532727 
L 85.032399 154.518603 
L 92.277525 150.577686 
L 99.522651 151.023151 
L 106.767777 153.489467 
L 114.012903 155.876504 
L 121.258028 158.779442 
L 128.503154 160.812055 
L 135.74828 162.910095 
L 142.993406 164.199897 
L 150.238532 165.40608 
L 157.483658 166.747508 
L 164.728784 167.888539 
L 171.97391 168.766747 
L 179.219036 169.707147 
L 186.464162 170.726747 
L 193.709288 171.303532 
L 200.954414 172.198689 
L 208.19954 172.610331 
L 215.444666 173.427342 
L 222.689792 174.166136 
L 229.934918 174.824487 
L 237.180044 175.412509 
L 244.42517 175.575058 
L 251.670296 176.440717 
L 258.915422 177.051745 
L 266.160548 177.379109 
L 273.405674 178.068144 
L 280.6508 178.212666 
L 287.895926 178.963084 
L 295.141051 179.006589 
L 302.386177 179.464688 
L 309.631303 179.896871 
L 316.876429 180.257456 
L 324.121555 180.517277 
L 331.366681 180.87037 
L 338.611807 180.957115 
L 345.856933 181.352048 
L 353.102059 181.337411 
L 360.347185 181.700743 
L 367.592311 181.748788 
L 374.837437 182.032982 
L 382.082563 182.442864 
L 389.327689 182.589936 
L 396.572815 182.659269 
L 403.817941 182.998637 
L 411.063067 183.028153 
L 418.308193 183.285936 
L 425.553319 183.402186 
L 432.798445 183.310964 
L 440.043571 183.382993 
L 447.288697 183.723088 
L 454.533823 183.584952 
L 461.778949 183.950416 
L 469.024074 183.928768 
L 476.2692 184.141512 
L 483.514326 184.306625 
L 490.759452 184.25928 
L 498.004578 184.120323 
L 505.249704 184.289694 
L 512.49483 184.486735 
L 519.739956 184.209347 
L 526.985082 184.719097 
L 534.230208 184.503238 
L 541.475334 184.849899 
L 548.72046 184.798823 
L 555.965586 185.019514 
L 563.210712 185.114796 
L 570.455838 185.344258 
L 577.700964 185.161878 
L 584.94609 185.098077 
L 592.191216 185.159117 
L 599.436342 185.144516 
L 606.681468 185.266486 
L 613.926594 185.110189 
L 621.17172 185.141931 
L 628.416846 185.23497 
L 635.661972 185.3256 
L 642.907097 185.554441 
L 650.152223 185.512931 
L 657.397349 185.789233 
L 664.642475 185.582666 
L 671.887601 185.394756 
L 679.132727 185.553856 
" clip-path="url(#pbd02c06c9b)" style="fill: none; stroke: #2ca02c; stroke-width: 1.5; stroke-linecap: square"/>
   </g>
   <g id="line2d_26">
    <path d="M 77.787273 373.532727 
L 85.032399 202.351469 
L 92.277525 200.329167 
L 99.522651 201.339181 
L 106.767777 204.102377 
L 114.012903 207.222619 
L 121.258028 210.122274 
L 128.503154 212.585909 
L 135.74828 214.238965 
L 142.993406 215.741001 
L 150.238532 216.367435 
L 157.483658 217.790242 
L 164.728784 219.070536 
L 171.97391 220.170479 
L 179.219036 220.666621 
L 186.464162 221.600504 
L 193.709288 222.223417 
L 200.954414 222.725993 
L 208.19954 223.461805 
L 215.444666 223.912865 
L 222.689792 224.190938 
L 229.934918 224.82268 
L 237.180044 225.154775 
L 244.42517 225.343537 
L 251.670296 226.188995 
L 258.915422 226.243651 
L 266.160548 226.656127 
L 273.405674 227.132859 
L 280.6508 227.408572 
L 287.895926 227.97225 
L 295.141051 227.881992 
L 302.386177 228.512625 
L 309.631303 228.803694 
L 316.876429 228.840038 
L 324.121555 228.872916 
L 331.366681 229.231611 
L 338.611807 229.255395 
L 345.856933 229.747411 
L 353.102059 229.732223 
L 360.347185 230.159984 
L 367.592311 230.066405 
L 374.837437 230.238145 
L 382.082563 230.461579 
L 389.327689 230.638053 
L 396.572815 230.468784 
L 403.817941 230.867017 
L 411.063067 230.628365 
L 418.308193 231.112463 
L 425.553319 230.968248 
L 432.798445 231.172782 
L 440.043571 230.802858 
L 447.288697 231.621017 
L 454.533823 231.339286 
L 461.778949 231.722759 
L 469.024074 231.568407 
L 476.2692 231.428097 
L 483.514326 231.520812 
L 490.759452 231.829434 
L 498.004578 231.593872 
L 505.249704 231.835273 
L 512.49483 231.558643 
L 519.739956 231.855168 
L 526.985082 232.056148 
L 534.230208 232.167208 
L 541.475334 231.851278 
L 548.72046 231.883373 
L 555.965586 232.165455 
L 563.210712 232.242289 
L 570.455838 232.275141 
L 577.700964 232.133764 
L 584.94609 232.16128 
L 592.191216 232.547245 
L 599.436342 232.204726 
L 606.681468 232.731191 
L 613.926594 232.105046 
L 621.17172 232.485733 
L 628.416846 232.294146 
L 635.661972 232.61705 
L 642.907097 232.696457 
L 650.152223 232.730693 
L 657.397349 232.499157 
L 664.642475 232.745193 
L 671.887601 232.802112 
L 679.132727 232.767716 
" clip-path="url(#pbd02c06c9b)" style="fill: none; stroke: #d62728; stroke-width: 1.5; stroke-linecap: square"/>
   </g>
   <g id="line2d_27">
    <path d="M 77.787273 373.532727 
L 85.032399 249.232281 
L 92.277525 248.537668 
L 99.522651 249.707306 
L 106.767777 252.19376 
L 114.012903 254.645756 
L 121.258028 256.896472 
L 128.503154 259.018954 
L 135.74828 261.099125 
L 142.993406 261.995942 
L 150.238532 263.602181 
L 157.483658 264.484502 
L 164.728784 265.515452 
L 171.97391 265.654755 
L 179.219036 266.454988 
L 186.464162 266.893473 
L 193.709288 267.791604 
L 200.954414 267.694477 
L 208.19954 268.227759 
L 215.444666 268.589306 
L 222.689792 269.103278 
L 229.934918 268.792598 
L 237.180044 269.563561 
L 244.42517 269.411927 
L 251.670296 270.038829 
L 258.915422 270.20992 
L 266.160548 270.423564 
L 273.405674 270.299244 
L 280.6508 270.86872 
L 287.895926 270.936673 
L 295.141051 271.31328 
L 302.386177 271.357186 
L 309.631303 271.497297 
L 316.876429 271.047093 
L 324.121555 271.646941 
L 331.366681 271.584419 
L 338.611807 271.690006 
L 345.856933 271.470267 
L 353.102059 271.937112 
L 360.347185 271.571389 
L 367.592311 272.071377 
L 374.837437 271.745807 
L 382.082563 272.242956 
L 389.327689 272.124079 
L 396.572815 272.35508 
L 403.817941 272.158679 
L 411.063067 272.382872 
L 418.308193 272.597826 
L 425.553319 272.514415 
L 432.798445 272.675668 
L 440.043571 272.373802 
L 447.288697 272.449829 
L 454.533823 272.518867 
L 461.778949 272.817187 
L 469.024074 272.751523 
L 476.2692 272.586354 
L 483.514326 273.073628 
L 490.759452 272.657364 
L 498.004578 273.229627 
L 505.249704 273.199754 
L 512.49483 272.932481 
L 519.739956 272.896918 
L 526.985082 273.266875 
L 534.230208 272.956898 
L 541.475334 273.289845 
L 548.72046 273.212264 
L 555.965586 273.552965 
L 563.210712 273.395397 
L 570.455838 273.64976 
L 577.700964 273.069038 
L 584.94609 273.724765 
L 592.191216 273.681638 
L 599.436342 273.605792 
L 606.681468 273.870787 
L 613.926594 273.644279 
L 621.17172 273.582388 
L 628.416846 273.981364 
L 635.661972 273.658359 
L 642.907097 273.747044 
L 650.152223 274.053145 
L 657.397349 273.879256 
L 664.642475 273.740898 
L 671.887601 274.136745 
L 679.132727 273.633708 
" clip-path="url(#pbd02c06c9b)" style="fill: none; stroke: #9467bd; stroke-width: 1.5; stroke-linecap: square"/>
   </g>
   <g id="line2d_28">
    <path d="M 77.787273 373.532727 
L 85.032399 284.78273 
L 92.277525 284.499935 
L 99.522651 285.413521 
L 106.767777 287.754094 
L 114.012903 290.04891 
L 121.258028 291.891393 
L 128.503154 293.566777 
L 135.74828 294.721197 
L 142.993406 295.367731 
L 150.238532 296.418669 
L 157.483658 297.050701 
L 164.728784 297.20157 
L 171.97391 297.545283 
L 179.219036 298.027849 
L 186.464162 298.209118 
L 193.709288 298.676958 
L 200.954414 298.42964 
L 208.19954 298.593644 
L 215.444666 298.988263 
L 222.689792 299.334301 
L 229.934918 299.098637 
L 237.180044 299.678502 
L 244.42517 299.886432 
L 251.670296 299.868033 
L 258.915422 300.493868 
L 266.160548 300.242197 
L 273.405674 300.1976 
L 280.6508 300.419068 
L 287.895926 300.675601 
L 295.141051 300.624056 
L 302.386177 301.361418 
L 309.631303 300.993151 
L 316.876429 300.840316 
L 324.121555 301.170279 
L 331.366681 301.398498 
L 338.611807 300.839486 
L 345.856933 301.313314 
L 353.102059 301.2434 
L 360.347185 301.314052 
L 367.592311 301.393282 
L 374.837437 301.280997 
L 382.082563 301.134558 
L 389.327689 301.70194 
L 396.572815 301.511684 
L 403.817941 301.513369 
L 411.063067 301.597269 
L 418.308193 301.765023 
L 425.553319 301.369553 
L 432.798445 301.944236 
L 440.043571 301.590166 
L 447.288697 301.533271 
L 454.533823 301.592958 
L 461.778949 301.784541 
L 469.024074 301.619929 
L 476.2692 302.064176 
L 483.514326 302.065786 
L 490.759452 301.70759 
L 498.004578 302.051082 
L 505.249704 302.185646 
L 512.49483 301.576611 
L 519.739956 302.123173 
L 526.985082 302.168406 
L 534.230208 302.020197 
L 541.475334 302.184484 
L 548.72046 302.357253 
L 555.965586 302.040917 
L 563.210712 302.662969 
L 570.455838 302.485327 
L 577.700964 301.993028 
L 584.94609 302.496203 
L 592.191216 302.334145 
L 599.436342 302.078554 
L 606.681468 302.706717 
L 613.926594 302.475126 
L 621.17172 302.359852 
L 628.416846 302.520586 
L 635.661972 302.397641 
L 642.907097 302.071279 
L 650.152223 303.054962 
L 657.397349 302.672207 
L 664.642475 302.462028 
L 671.887601 302.646872 
L 679.132727 302.390303 
" clip-path="url(#pbd02c06c9b)" style="fill: none; stroke: #8c564b; stroke-width: 1.5; stroke-linecap: square"/>
   </g>
   <g id="line2d_29">
    <path d="M 77.787273 373.532727 
L 85.032399 313.84087 
L 92.277525 314.32543 
L 99.522651 315.031613 
L 106.767777 317.203666 
L 114.012903 318.513961 
L 121.258028 320.159242 
L 128.503154 321.221756 
L 135.74828 322.139155 
L 142.993406 322.264946 
L 150.238532 323.224515 
L 157.483658 323.455546 
L 164.728784 323.452597 
L 171.97391 324.005184 
L 179.219036 323.559065 
L 186.464162 324.154585 
L 193.709288 324.374283 
L 200.954414 324.449703 
L 208.19954 324.159574 
L 215.444666 324.53869 
L 222.689792 324.793499 
L 229.934918 324.572428 
L 237.180044 324.628427 
L 244.42517 325.109988 
L 251.670296 324.842324 
L 258.915422 325.314829 
L 266.160548 325.033703 
L 273.405674 324.851251 
L 280.6508 325.241638 
L 287.895926 325.667269 
L 295.141051 325.237859 
L 302.386177 325.889447 
L 309.631303 325.596004 
L 316.876429 325.328892 
L 324.121555 325.392879 
L 331.366681 326.056184 
L 338.611807 325.281382 
L 345.856933 326.003089 
L 353.102059 325.539751 
L 360.347185 325.734202 
L 367.592311 326.192582 
L 374.837437 325.834148 
L 382.082563 325.47653 
L 389.327689 326.133262 
L 396.572815 325.803023 
L 403.817941 325.818086 
L 411.063067 325.878694 
L 418.308193 326.003826 
L 425.553319 325.766011 
L 432.798445 326.565551 
L 440.043571 325.92641 
L 447.288697 325.896049 
L 454.533823 326.137616 
L 461.778949 326.284931 
L 469.024074 325.854355 
L 476.2692 326.322483 
L 483.514326 326.203088 
L 490.759452 326.045865 
L 498.004578 326.10357 
L 505.249704 326.308614 
L 512.49483 326.09264 
L 519.739956 326.494025 
L 526.985082 326.103733 
L 534.230208 326.27928 
L 541.475334 326.184787 
L 548.72046 326.672576 
L 555.965586 326.072328 
L 563.210712 326.607311 
L 570.455838 326.764489 
L 577.700964 326.230025 
L 584.94609 326.549435 
L 592.191216 326.531989 
L 599.436342 326.412822 
L 606.681468 326.755129 
L 613.926594 326.478693 
L 621.17172 326.390312 
L 628.416846 326.414089 
L 635.661972 326.672331 
L 642.907097 325.910283 
L 650.152223 326.841426 
L 657.397349 326.68034 
L 664.642475 326.42126 
L 671.887601 326.365738 
L 679.132727 326.390621 
" clip-path="url(#pbd02c06c9b)" style="fill: none; stroke: #e377c2; stroke-width: 1.5; stroke-linecap: square"/>
   </g>
   <g id="line2d_30">
    <path d="M 77.787273 373.532727 
L 85.032399 341.645642 
L 92.277525 341.794141 
L 99.522651 343.217733 
L 106.767777 344.72525 
L 114.012903 345.763662 
L 121.258028 346.408764 
L 128.503154 347.450775 
L 135.74828 347.21401 
L 142.993406 347.669051 
L 150.238532 347.992939 
L 157.483658 347.736892 
L 164.728784 348.064313 
L 171.97391 348.680031 
L 179.219036 348.216061 
L 186.464162 348.355418 
L 193.709288 348.0189 
L 200.954414 348.251381 
L 208.19954 348.148827 
L 215.444666 348.530015 
L 222.689792 348.212768 
L 229.934918 347.941127 
L 237.180044 348.473331 
L 244.42517 348.28633 
L 251.670296 347.980318 
L 258.915422 348.574605 
L 266.160548 347.839974 
L 273.405674 348.232934 
L 280.6508 348.522852 
L 287.895926 348.238035 
L 295.141051 348.106467 
L 302.386177 348.320658 
L 309.631303 347.968253 
L 316.876429 348.207053 
L 324.121555 348.445306 
L 331.366681 348.264184 
L 338.611807 347.824083 
L 345.856933 348.644506 
L 353.102059 348.112802 
L 360.347185 348.181639 
L 367.592311 348.500733 
L 374.837437 347.811532 
L 382.082563 348.02978 
L 389.327689 348.591804 
L 396.572815 347.915741 
L 403.817941 348.156433 
L 411.063067 348.116467 
L 418.308193 348.118224 
L 425.553319 348.0744 
L 432.798445 348.532572 
L 440.043571 348.166242 
L 447.288697 347.809569 
L 454.533823 348.477318 
L 461.778949 348.189734 
L 469.024074 347.988258 
L 476.2692 348.487657 
L 483.514326 347.809828 
L 490.759452 348.122837 
L 498.004578 348.466038 
L 505.249704 348.10833 
L 512.49483 348.132026 
L 519.739956 348.060926 
L 526.985082 348.023553 
L 534.230208 348.276944 
L 541.475334 348.53906 
L 548.72046 348.222442 
L 555.965586 347.632858 
L 563.210712 348.423182 
L 570.455838 348.277048 
L 577.700964 348.157034 
L 584.94609 348.506111 
L 592.191216 347.772899 
L 599.436342 348.110022 
L 606.681468 348.616878 
L 613.926594 348.125478 
L 621.17172 348.235093 
L 628.416846 348.234412 
L 635.661972 348.274549 
L 642.907097 348.167297 
L 650.152223 348.544548 
L 657.397349 348.345918 
L 664.642475 347.926087 
L 671.887601 348.427623 
L 679.132727 348.229682 
" clip-path="url(#pbd02c06c9b)" style="fill: none; stroke: #7f7f7f; stroke-width: 1.5; stroke-linecap: square"/>
   </g>
   <g id="line2d_31">
    <path d="M 77.787273 373.532727 
L 85.032399 364.880402 
L 92.277525 365.023406 
L 99.522651 365.473433 
L 106.767777 365.966555 
L 114.012903 365.815813 
L 121.258028 365.795982 
L 128.503154 366.047678 
L 135.74828 365.760676 
L 142.993406 366.027471 
L 150.238532 366.296195 
L 157.483658 365.877711 
L 164.728784 366.02623 
L 171.97391 366.363979 
L 179.219036 365.943967 
L 186.464162 366.104134 
L 193.709288 366.262037 
L 200.954414 366.070317 
L 208.19954 365.938335 
L 215.444666 366.20944 
L 222.689792 365.825448 
L 229.934918 366.11226 
L 237.180044 366.265795 
L 244.42517 365.932765 
L 251.670296 365.974971 
L 258.915422 366.267231 
L 266.160548 365.9311 
L 273.405674 366.158189 
L 280.6508 366.226638 
L 287.895926 365.897539 
L 295.141051 365.988489 
L 302.386177 366.422702 
L 309.631303 365.884685 
L 316.876429 366.045744 
L 324.121555 366.174408 
L 331.366681 366.023788 
L 338.611807 366.089051 
L 345.856933 366.357827 
L 353.102059 365.868996 
L 360.347185 366.146203 
L 367.592311 366.199687 
L 374.837437 365.964087 
L 382.082563 365.975703 
L 389.327689 366.30313 
L 396.572815 365.806666 
L 403.817941 366.054788 
L 411.063067 366.288093 
L 418.308193 365.997524 
L 425.553319 365.98483 
L 432.798445 366.32494 
L 440.043571 365.994649 
L 447.288697 366.148152 
L 454.533823 366.242401 
L 461.778949 365.977004 
L 469.024074 366.034613 
L 476.2692 366.299228 
L 483.514326 365.953071 
L 490.759452 366.087088 
L 498.004578 366.266927 
L 505.249704 365.999077 
L 512.49483 365.941688 
L 519.739956 366.265969 
L 526.985082 365.950577 
L 534.230208 366.186258 
L 541.475334 366.273424 
L 548.72046 365.950113 
L 555.965586 365.996315 
L 563.210712 366.288297 
L 570.455838 365.89768 
L 577.700964 366.072857 
L 584.94609 366.306477 
L 592.191216 365.95186 
L 599.436342 365.987486 
L 606.681468 366.301471 
L 613.926594 365.939515 
L 621.17172 366.105219 
L 628.416846 366.281091 
L 635.661972 366.059144 
L 642.907097 366.080192 
L 650.152223 366.337116 
L 657.397349 365.956728 
L 664.642475 366.152331 
L 671.887601 366.303049 
L 679.132727 365.973986 
" clip-path="url(#pbd02c06c9b)" style="fill: none; stroke: #bcbd22; stroke-width: 1.5; stroke-linecap: square"/>
   </g>
   <g id="line2d_32">
    <path d="M 77.787273 373.532727 
L 85.032399 373.532727 
L 92.277525 373.532727 
L 99.522651 373.532727 
L 106.767777 373.532727 
L 114.012903 373.532727 
L 121.258028 373.532727 
L 128.503154 373.532727 
L 135.74828 373.532727 
L 142.993406 373.532727 
L 150.238532 373.532727 
L 157.483658 373.532727 
L 164.728784 373.532727 
L 171.97391 373.532727 
L 179.219036 373.532727 
L 186.464162 373.532727 
L 193.709288 373.532727 
L 200.954414 373.532727 
L 208.19954 373.532727 
L 215.444666 373.532727 
L 222.689792 373.532727 
L 229.934918 373.532727 
L 237.180044 373.532727 
L 244.42517 373.532727 
L 251.670296 373.532727 
L 258.915422 373.532727 
L 266.160548 373.532727 
L 273.405674 373.532727 
L 280.6508 373.532727 
L 287.895926 373.532727 
L 295.141051 373.532727 
L 302.386177 373.532727 
L 309.631303 373.532727 
L 316.876429 373.532727 
L 324.121555 373.532727 
L 331.366681 373.532727 
L 338.611807 373.532727 
L 345.856933 373.532727 
L 353.102059 373.532727 
L 360.347185 373.532727 
L 367.592311 373.532727 
L 374.837437 373.532727 
L 382.082563 373.532727 
L 389.327689 373.532727 
L 396.572815 373.532727 
L 403.817941 373.532727 
L 411.063067 373.532727 
L 418.308193 373.532727 
L 425.553319 373.532727 
L 432.798445 373.532727 
L 440.043571 373.532727 
L 447.288697 373.532727 
L 454.533823 373.532727 
L 461.778949 373.532727 
L 469.024074 373.532727 
L 476.2692 373.532727 
L 483.514326 373.532727 
L 490.759452 373.532727 
L 498.004578 373.532727 
L 505.249704 373.532727 
L 512.49483 373.532727 
L 519.739956 373.532727 
L 526.985082 373.532727 
L 534.230208 373.532727 
L 541.475334 373.532727 
L 548.72046 373.532727 
L 555.965586 373.532727 
L 563.210712 373.532727 
L 570.455838 373.532727 
L 577.700964 373.532727 
L 584.94609 373.532727 
L 592.191216 373.532727 
L 599.436342 373.532727 
L 606.681468 373.532727 
L 613.926594 373.532727 
L 621.17172 373.532727 
L 628.416846 373.532727 
L 635.661972 373.532727 
L 642.907097 373.532727 
L 650.152223 373.532727 
L 657.397349 373.532727 
L 664.642475 373.532727 
L 671.887601 373.532727 
L 679.132727 373.532727 
" clip-path="url(#pbd02c06c9b)" style="fill: none; stroke: #17becf; stroke-width: 1.5; stroke-linecap: square"/>
   </g>
   <g id="patch_3">
    <path d="M 47.72 390.04 
L 47.72 26.88 
" style="fill: none; stroke: #000000; stroke-width: 0.8; stroke-linejoin: miter; stroke-linecap: square"/>
   </g>
   <g id="patch_4">
    <path d="M 709.2 390.04 
L 709.2 26.88 
" style="fill: none; stroke: #000000; stroke-width: 0.8; stroke-linejoin: miter; stroke-linecap: square"/>
   </g>
   <g id="patch_5">
    <path d="M 47.72 390.04 
L 709.2 390.04 
" style="fill: none; stroke: #000000; stroke-width: 0.8; stroke-linejoin: miter; stroke-linecap: square"/>
   </g>
   <g id="patch_6">
    <path d="M 47.72 26.88 
L 709.2 26.88 
" style="fill: none; stroke: #000000; stroke-width: 0.8; stroke-linejoin: miter; stroke-linecap: square"/>
   </g>
   <g id="text_14">
    <!-- S(L/2) evolution for different p values (L=7, dt=1.0, Measurement direction: Z) -->
    <g transform="translate(141.671875 20.88) scale(0.12 -0.12)">
     <defs>
      <path id="DejaVuSans-53" d="M 3425 4513 
L 3425 3897 
Q 3066 4069 2747 4153 
Q 2428 4238 2131 4238 
Q 1616 4238 1336 4038 
Q 1056 3838 1056 3469 
Q 1056 3159 1242 3001 
Q 1428 2844 1947 2747 
L 2328 2669 
Q 3034 2534 3370 2195 
Q 3706 1856 3706 1288 
Q 3706 609 3251 259 
Q 2797 -91 1919 -91 
Q 1588 -91 1214 -16 
Q 841 59 441 206 
L 441 856 
Q 825 641 1194 531 
Q 1563 422 1919 422 
Q 2459 422 2753 634 
Q 3047 847 3047 1241 
Q 3047 1584 2836 1778 
Q 2625 1972 2144 2069 
L 1759 2144 
Q 1053 2284 737 2584 
Q 422 2884 422 3419 
Q 422 4038 858 4394 
Q 1294 4750 2059 4750 
Q 2388 4750 2728 4690 
Q 3069 4631 3425 4513 
z
" transform="scale(0.015625)"/>
      <path id="DejaVuSans-28" d="M 1984 4856 
Q 1566 4138 1362 3434 
Q 1159 2731 1159 2009 
Q 1159 1288 1364 580 
Q 1569 -128 1984 -844 
L 1484 -844 
Q 1016 -109 783 600 
Q 550 1309 550 2009 
Q 550 2706 781 3412 
Q 1013 4119 1484 4856 
L 1984 4856 
z
" transform="scale(0.015625)"/>
      <path id="DejaVuSans-4c" d="M 628 4666 
L 1259 4666 
L 1259 531 
L 3531 531 
L 3531 0 
L 628 0 
L 628 4666 
z
" transform="scale(0.015625)"/>
      <path id="DejaVuSans-2f" d="M 1625 4666 
L 2156 4666 
L 531 -594 
L 0 -594 
L 1625 4666 
z
" transform="scale(0.015625)"/>
      <path id="DejaVuSans-29" d="M 513 4856 
L 1013 4856 
Q 1481 4119 1714 3412 
Q 1947 2706 1947 2009 
Q 1947 1309 1714 600 
Q 1481 -109 1013 -844 
L 513 -844 
Q 928 -128 1133 580 
Q 1338 1288 1338 2009 
Q 1338 2731 1133 3434 
Q 928 4138 513 4856 
z
" transform="scale(0.015625)"/>
      <path id="DejaVuSans-76" d="M 191 3500 
L 800 3500 
L 1894 563 
L 2988 3500 
L 3597 3500 
L 2284 0 
L 1503 0 
L 191 3500 
z
" transform="scale(0.015625)"/>
      <path id="DejaVuSans-75" d="M 544 1381 
L 544 3500 
L 1119 3500 
L 1119 1403 
Q 1119 906 1312 657 
Q 1506 409 1894 409 
Q 2359 409 2629 706 
Q 2900 1003 2900 1516 
L 2900 3500 
L 3475 3500 
L 3475 0 
L 2900 0 
L 2900 538 
Q 2691 219 2414 64 
Q 2138 -91 1772 -91 
Q 1169 -91 856 284 
Q 544 659 544 1381 
z
M 1991 3584 
L 1991 3584 
z
" transform="scale(0.015625)"/>
      <path id="DejaVuSans-64" d="M 2906 2969 
L 2906 4863 
L 3481 4863 
L 3481 0 
L 2906 0 
L 2906 525 
Q 2725 213 2448 61 
Q 2172 -91 1784 -91 
Q 1150 -91 751 415 
Q 353 922 353 1747 
Q 353 2572 751 3078 
Q 1150 3584 1784 3584 
Q 2172 3584 2448 3432 
Q 2725 3281 2906 2969 
z
M 947 1747 
Q 947 1113 1208 752 
Q 1469 391 1925 391 
Q 2381 391 2643 752 
Q 2906 1113 2906 1747 
Q 2906 2381 2643 2742 
Q 2381 3103 1925 3103 
Q 1469 3103 1208 2742 
Q 947 2381 947 1747 
z
" transform="scale(0.015625)"/>
      <path id="DejaVuSans-73" d="M 2834 3397 
L 2834 2853 
Q 2591 2978 2328 3040 
Q 2066 3103 1784 3103 
Q 1356 3103 1142 2972 
Q 928 2841 928 2578 
Q 928 2378 1081 2264 
Q 1234 2150 1697 2047 
L 1894 2003 
Q 2506 1872 2764 1633 
Q 3022 1394 3022 966 
Q 3022 478 2636 193 
Q 2250 -91 1575 -91 
Q 1294 -91 989 -36 
Q 684 19 347 128 
L 347 722 
Q 666 556 975 473 
Q 1284 391 1588 391 
Q 1994 391 2212 530 
Q 2431 669 2431 922 
Q 2431 1156 2273 1281 
Q 2116 1406 1581 1522 
L 1381 1569 
Q 847 1681 609 1914 
Q 372 2147 372 2553 
Q 372 3047 722 3315 
Q 1072 3584 1716 3584 
Q 2034 3584 2315 3537 
Q 2597 3491 2834 3397 
z
" transform="scale(0.015625)"/>
      <path id="DejaVuSans-3d" d="M 678 2906 
L 4684 2906 
L 4684 2381 
L 678 2381 
L 678 2906 
z
M 678 1631 
L 4684 1631 
L 4684 1100 
L 678 1100 
L 678 1631 
z
" transform="scale(0.015625)"/>
      <path id="DejaVuSans-37" d="M 525 4666 
L 3525 4666 
L 3525 4397 
L 1831 0 
L 1172 0 
L 2766 4134 
L 525 4134 
L 525 4666 
z
" transform="scale(0.015625)"/>
      <path id="DejaVuSans-2c" d="M 750 794 
L 1409 794 
L 1409 256 
L 897 -744 
L 494 -744 
L 750 256 
L 750 794 
z
" transform="scale(0.015625)"/>
      <path id="DejaVuSans-4d" d="M 628 4666 
L 1569 4666 
L 2759 1491 
L 3956 4666 
L 4897 4666 
L 4897 0 
L 4281 0 
L 4281 4097 
L 3078 897 
L 2444 897 
L 1241 4097 
L 1241 0 
L 628 0 
L 628 4666 
z
" transform="scale(0.015625)"/>
      <path id="DejaVuSans-3a" d="M 750 794 
L 1409 794 
L 1409 0 
L 750 0 
L 750 794 
z
M 750 3309 
L 1409 3309 
L 1409 2516 
L 750 2516 
L 750 3309 
z
" transform="scale(0.015625)"/>
      <path id="DejaVuSans-5a" d="M 359 4666 
L 4025 4666 
L 4025 4184 
L 1075 531 
L 4097 531 
L 4097 0 
L 288 0 
L 288 481 
L 3238 4134 
L 359 4134 
L 359 4666 
z
" transform="scale(0.015625)"/>
     </defs>
     <use xlink:href="#DejaVuSans-53"/>
     <use xlink:href="#DejaVuSans-28" transform="translate(63.476562 0)"/>
     <use xlink:href="#DejaVuSans-4c" transform="translate(102.490234 0)"/>
     <use xlink:href="#DejaVuSans-2f" transform="translate(158.203125 0)"/>
     <use xlink:href="#DejaVuSans-32" transform="translate(191.894531 0)"/>
     <use xlink:href="#DejaVuSans-29" transform="translate(255.517578 0)"/>
     <use xlink:href="#DejaVuSans-20" transform="translate(294.53125 0)"/>
     <use xlink:href="#DejaVuSans-65" transform="translate(326.318359 0)"/>
     <use xlink:href="#DejaVuSans-76" transform="translate(387.841797 0)"/>
     <use xlink:href="#DejaVuSans-6f" transform="translate(447.021484 0)"/>
     <use xlink:href="#DejaVuSans-6c" transform="translate(508.203125 0)"/>
     <use xlink:href="#DejaVuSans-75" transform="translate(535.986328 0)"/>
     <use xlink:href="#DejaVuSans-74" transform="translate(599.365234 0)"/>
     <use xlink:href="#DejaVuSans-69" transform="translate(638.574219 0)"/>
     <use xlink:href="#DejaVuSans-6f" transform="translate(666.357422 0)"/>
     <use xlink:href="#DejaVuSans-6e" transform="translate(727.539062 0)"/>
     <use xlink:href="#DejaVuSans-20" transform="translate(790.917969 0)"/>
     <use xlink:href="#DejaVuSans-66" transform="translate(822.705078 0)"/>
     <use xlink:href="#DejaVuSans-6f" transform="translate(857.910156 0)"/>
     <use xlink:href="#DejaVuSans-72" transform="translate(919.091797 0)"/>
     <use xlink:href="#DejaVuSans-20" transform="translate(960.205078 0)"/>
     <use xlink:href="#DejaVuSans-64" transform="translate(991.992188 0)"/>
     <use xlink:href="#DejaVuSans-69" transform="translate(1055.46875 0)"/>
     <use xlink:href="#DejaVuSans-66" transform="translate(1083.251953 0)"/>
     <use xlink:href="#DejaVuSans-66" transform="translate(1118.457031 0)"/>
     <use xlink:href="#DejaVuSans-65" transform="translate(1153.662109 0)"/>
     <use xlink:href="#DejaVuSans-72" transform="translate(1215.185547 0)"/>
     <use xlink:href="#DejaVuSans-65" transform="translate(1254.048828 0)"/>
     <use xlink:href="#DejaVuSans-6e" transform="translate(1315.572266 0)"/>
     <use xlink:href="#DejaVuSans-74" transform="translate(1378.951172 0)"/>
     <use xlink:href="#DejaVuSans-20" transform="translate(1418.160156 0)"/>
     <use xlink:href="#DejaVuSans-70" transform="translate(1449.947266 0)"/>
     <use xlink:href="#DejaVuSans-20" transform="translate(1513.423828 0)"/>
     <use xlink:href="#DejaVuSans-76" transform="translate(1545.210938 0)"/>
     <use xlink:href="#DejaVuSans-61" transform="translate(1604.390625 0)"/>
     <use xlink:href="#DejaVuSans-6c" transform="translate(1665.669922 0)"/>
     <use xlink:href="#DejaVuSans-75" transform="translate(1693.453125 0)"/>
     <use xlink:href="#DejaVuSans-65" transform="translate(1756.832031 0)"/>
     <use xlink:href="#DejaVuSans-73" transform="translate(1818.355469 0)"/>
     <use xlink:href="#DejaVuSans-20" transform="translate(1870.455078 0)"/>
     <use xlink:href="#DejaVuSans-28" transform="translate(1902.242188 0)"/>
     <use xlink:href="#DejaVuSans-4c" transform="translate(1941.255859 0)"/>
     <use xlink:href="#DejaVuSans-3d" transform="translate(1996.96875 0)"/>
     <use xlink:href="#DejaVuSans-37" transform="translate(2080.757812 0)"/>
     <use xlink:href="#DejaVuSans-2c" transform="translate(2144.380859 0)"/>
     <use xlink:href="#DejaVuSans-20" transform="translate(2176.167969 0)"/>
     <use xlink:href="#DejaVuSans-64" transform="translate(2207.955078 0)"/>
     <use xlink:href="#DejaVuSans-74" transform="translate(2271.431641 0)"/>
     <use xlink:href="#DejaVuSans-3d" transform="translate(2310.640625 0)"/>
     <use xlink:href="#DejaVuSans-31" transform="translate(2394.429688 0)"/>
     <use xlink:href="#DejaVuSans-2e" transform="translate(2458.052734 0)"/>
     <use xlink:href="#DejaVuSans-30" transform="translate(2489.839844 0)"/>
     <use xlink:href="#DejaVuSans-2c" transform="translate(2553.462891 0)"/>
     <use xlink:href="#DejaVuSans-20" transform="translate(2585.25 0)"/>
     <use xlink:href="#DejaVuSans-4d" transform="translate(2617.037109 0)"/>
     <use xlink:href="#DejaVuSans-65" transform="translate(2703.316406 0)"/>
     <use xlink:href="#DejaVuSans-61" transform="translate(2764.839844 0)"/>
     <use xlink:href="#DejaVuSans-73" transform="translate(2826.119141 0)"/>
     <use xlink:href="#DejaVuSans-75" transform="translate(2878.21875 0)"/>
     <use xlink:href="#DejaVuSans-72" transform="translate(2941.597656 0)"/>
     <use xlink:href="#DejaVuSans-65" transform="translate(2980.460938 0)"/>
     <use xlink:href="#DejaVuSans-6d" transform="translate(3041.984375 0)"/>
     <use xlink:href="#DejaVuSans-65" transform="translate(3139.396484 0)"/>
     <use xlink:href="#DejaVuSans-6e" transform="translate(3200.919922 0)"/>
     <use xlink:href="#DejaVuSans-74" transform="translate(3264.298828 0)"/>
     <use xlink:href="#DejaVuSans-20" transform="translate(3303.507812 0)"/>
     <use xlink:href="#DejaVuSans-64" transform="translate(3335.294922 0)"/>
     <use xlink:href="#DejaVuSans-69" transform="translate(3398.771484 0)"/>
     <use xlink:href="#DejaVuSans-72" transform="translate(3426.554688 0)"/>
     <use xlink:href="#DejaVuSans-65" transform="translate(3465.417969 0)"/>
     <use xlink:href="#DejaVuSans-63" transform="translate(3526.941406 0)"/>
     <use xlink:href="#DejaVuSans-74" transform="translate(3581.921875 0)"/>
     <use xlink:href="#DejaVuSans-69" transform="translate(3621.130859 0)"/>
     <use xlink:href="#DejaVuSans-6f" transform="translate(3648.914062 0)"/>
     <use xlink:href="#DejaVuSans-6e" transform="translate(3710.095703 0)"/>
     <use xlink:href="#DejaVuSans-3a" transform="translate(3773.474609 0)"/>
     <use xlink:href="#DejaVuSans-20" transform="translate(3807.166016 0)"/>
     <use xlink:href="#DejaVuSans-5a" transform="translate(3838.953125 0)"/>
     <use xlink:href="#DejaVuSans-29" transform="translate(3907.458984 0)"/>
    </g>
   </g>
   <g id="legend_1">
    <g id="patch_7">
     <path d="M 54.72 385.04 
L 117.35125 385.04 
Q 119.35125 385.04 119.35125 383.04 
L 119.35125 237.25875 
Q 119.35125 235.25875 117.35125 235.25875 
L 54.72 235.25875 
Q 52.72 235.25875 52.72 237.25875 
L 52.72 383.04 
Q 52.72 385.04 54.72 385.04 
z
" style="fill: #ffffff; opacity: 0.8; stroke: #cccccc; stroke-linejoin: miter"/>
    </g>
    <g id="line2d_33">
     <path d="M 56.72 243.357188 
L 66.72 243.357188 
L 76.72 243.357188 
" style="fill: none; stroke: #1f77b4; stroke-width: 1.5; stroke-linecap: square"/>
    </g>
    <g id="text_15">
     <!-- p=0.1 -->
     <g transform="translate(84.72 246.857188) scale(0.1 -0.1)">
      <use xlink:href="#DejaVuSans-70"/>
      <use xlink:href="#DejaVuSans-3d" transform="translate(63.476562 0)"/>
      <use xlink:href="#DejaVuSans-30" transform="translate(147.265625 0)"/>
      <use xlink:href="#DejaVuSans-2e" transform="translate(210.888672 0)"/>
      <use xlink:href="#DejaVuSans-31" transform="translate(242.675781 0)"/>
     </g>
    </g>
    <g id="line2d_34">
     <path d="M 56.72 258.035313 
L 66.72 258.035313 
L 76.72 258.035313 
" style="fill: none; stroke: #ff7f0e; stroke-width: 1.5; stroke-linecap: square"/>
    </g>
    <g id="text_16">
     <!-- p=0.2 -->
     <g transform="translate(84.72 261.535313) scale(0.1 -0.1)">
      <use xlink:href="#DejaVuSans-70"/>
      <use xlink:href="#DejaVuSans-3d" transform="translate(63.476562 0)"/>
      <use xlink:href="#DejaVuSans-30" transform="translate(147.265625 0)"/>
      <use xlink:href="#DejaVuSans-2e" transform="translate(210.888672 0)"/>
      <use xlink:href="#DejaVuSans-32" transform="translate(242.675781 0)"/>
     </g>
    </g>
    <g id="line2d_35">
     <path d="M 56.72 272.713438 
L 66.72 272.713438 
L 76.72 272.713438 
" style="fill: none; stroke: #2ca02c; stroke-width: 1.5; stroke-linecap: square"/>
    </g>
    <g id="text_17">
     <!-- p=0.3 -->
     <g transform="translate(84.72 276.213438) scale(0.1 -0.1)">
      <defs>
       <path id="DejaVuSans-33" d="M 2597 2516 
Q 3050 2419 3304 2112 
Q 3559 1806 3559 1356 
Q 3559 666 3084 287 
Q 2609 -91 1734 -91 
Q 1441 -91 1130 -33 
Q 819 25 488 141 
L 488 750 
Q 750 597 1062 519 
Q 1375 441 1716 441 
Q 2309 441 2620 675 
Q 2931 909 2931 1356 
Q 2931 1769 2642 2001 
Q 2353 2234 1838 2234 
L 1294 2234 
L 1294 2753 
L 1863 2753 
Q 2328 2753 2575 2939 
Q 2822 3125 2822 3475 
Q 2822 3834 2567 4026 
Q 2313 4219 1838 4219 
Q 1578 4219 1281 4162 
Q 984 4106 628 3988 
L 628 4550 
Q 988 4650 1302 4700 
Q 1616 4750 1894 4750 
Q 2613 4750 3031 4423 
Q 3450 4097 3450 3541 
Q 3450 3153 3228 2886 
Q 3006 2619 2597 2516 
z
" transform="scale(0.015625)"/>
      </defs>
      <use xlink:href="#DejaVuSans-70"/>
      <use xlink:href="#DejaVuSans-3d" transform="translate(63.476562 0)"/>
      <use xlink:href="#DejaVuSans-30" transform="translate(147.265625 0)"/>
      <use xlink:href="#DejaVuSans-2e" transform="translate(210.888672 0)"/>
      <use xlink:href="#DejaVuSans-33" transform="translate(242.675781 0)"/>
     </g>
    </g>
    <g id="line2d_36">
     <path d="M 56.72 287.391563 
L 66.72 287.391563 
L 76.72 287.391563 
" style="fill: none; stroke: #d62728; stroke-width: 1.5; stroke-linecap: square"/>
    </g>
    <g id="text_18">
     <!-- p=0.4 -->
     <g transform="translate(84.72 290.891563) scale(0.1 -0.1)">
      <use xlink:href="#DejaVuSans-70"/>
      <use xlink:href="#DejaVuSans-3d" transform="translate(63.476562 0)"/>
      <use xlink:href="#DejaVuSans-30" transform="translate(147.265625 0)"/>
      <use xlink:href="#DejaVuSans-2e" transform="translate(210.888672 0)"/>
      <use xlink:href="#DejaVuSans-34" transform="translate(242.675781 0)"/>
     </g>
    </g>
    <g id="line2d_37">
     <path d="M 56.72 302.069688 
L 66.72 302.069688 
L 76.72 302.069688 
" style="fill: none; stroke: #9467bd; stroke-width: 1.5; stroke-linecap: square"/>
    </g>
    <g id="text_19">
     <!-- p=0.5 -->
     <g transform="translate(84.72 305.569688) scale(0.1 -0.1)">
      <use xlink:href="#DejaVuSans-70"/>
      <use xlink:href="#DejaVuSans-3d" transform="translate(63.476562 0)"/>
      <use xlink:href="#DejaVuSans-30" transform="translate(147.265625 0)"/>
      <use xlink:href="#DejaVuSans-2e" transform="translate(210.888672 0)"/>
      <use xlink:href="#DejaVuSans-35" transform="translate(242.675781 0)"/>
     </g>
    </g>
    <g id="line2d_38">
     <path d="M 56.72 316.747813 
L 66.72 316.747813 
L 76.72 316.747813 
" style="fill: none; stroke: #8c564b; stroke-width: 1.5; stroke-linecap: square"/>
    </g>
    <g id="text_20">
     <!-- p=0.6 -->
     <g transform="translate(84.72 320.247813) scale(0.1 -0.1)">
      <use xlink:href="#DejaVuSans-70"/>
      <use xlink:href="#DejaVuSans-3d" transform="translate(63.476562 0)"/>
      <use xlink:href="#DejaVuSans-30" transform="translate(147.265625 0)"/>
      <use xlink:href="#DejaVuSans-2e" transform="translate(210.888672 0)"/>
      <use xlink:href="#DejaVuSans-36" transform="translate(242.675781 0)"/>
     </g>
    </g>
    <g id="line2d_39">
     <path d="M 56.72 331.425938 
L 66.72 331.425938 
L 76.72 331.425938 
" style="fill: none; stroke: #e377c2; stroke-width: 1.5; stroke-linecap: square"/>
    </g>
    <g id="text_21">
     <!-- p=0.7 -->
     <g transform="translate(84.72 334.925938) scale(0.1 -0.1)">
      <use xlink:href="#DejaVuSans-70"/>
      <use xlink:href="#DejaVuSans-3d" transform="translate(63.476562 0)"/>
      <use xlink:href="#DejaVuSans-30" transform="translate(147.265625 0)"/>
      <use xlink:href="#DejaVuSans-2e" transform="translate(210.888672 0)"/>
      <use xlink:href="#DejaVuSans-37" transform="translate(242.675781 0)"/>
     </g>
    </g>
    <g id="line2d_40">
     <path d="M 56.72 346.104062 
L 66.72 346.104062 
L 76.72 346.104062 
" style="fill: none; stroke: #7f7f7f; stroke-width: 1.5; stroke-linecap: square"/>
    </g>
    <g id="text_22">
     <!-- p=0.8 -->
     <g transform="translate(84.72 349.604062) scale(0.1 -0.1)">
      <use xlink:href="#DejaVuSans-70"/>
      <use xlink:href="#DejaVuSans-3d" transform="translate(63.476562 0)"/>
      <use xlink:href="#DejaVuSans-30" transform="translate(147.265625 0)"/>
      <use xlink:href="#DejaVuSans-2e" transform="translate(210.888672 0)"/>
      <use xlink:href="#DejaVuSans-38" transform="translate(242.675781 0)"/>
     </g>
    </g>
    <g id="line2d_41">
     <path d="M 56.72 360.782188 
L 66.72 360.782188 
L 76.72 360.782188 
" style="fill: none; stroke: #bcbd22; stroke-width: 1.5; stroke-linecap: square"/>
    </g>
    <g id="text_23">
     <!-- p=0.9 -->
     <g transform="translate(84.72 364.282188) scale(0.1 -0.1)">
      <defs>
       <path id="DejaVuSans-39" d="M 703 97 
L 703 672 
Q 941 559 1184 500 
Q 1428 441 1663 441 
Q 2288 441 2617 861 
Q 2947 1281 2994 2138 
Q 2813 1869 2534 1725 
Q 2256 1581 1919 1581 
Q 1219 1581 811 2004 
Q 403 2428 403 3163 
Q 403 3881 828 4315 
Q 1253 4750 1959 4750 
Q 2769 4750 3195 4129 
Q 3622 3509 3622 2328 
Q 3622 1225 3098 567 
Q 2575 -91 1691 -91 
Q 1453 -91 1209 -44 
Q 966 3 703 97 
z
M 1959 2075 
Q 2384 2075 2632 2365 
Q 2881 2656 2881 3163 
Q 2881 3666 2632 3958 
Q 2384 4250 1959 4250 
Q 1534 4250 1286 3958 
Q 1038 3666 1038 3163 
Q 1038 2656 1286 2365 
Q 1534 2075 1959 2075 
z
" transform="scale(0.015625)"/>
      </defs>
      <use xlink:href="#DejaVuSans-70"/>
      <use xlink:href="#DejaVuSans-3d" transform="translate(63.476562 0)"/>
      <use xlink:href="#DejaVuSans-30" transform="translate(147.265625 0)"/>
      <use xlink:href="#DejaVuSans-2e" transform="translate(210.888672 0)"/>
      <use xlink:href="#DejaVuSans-39" transform="translate(242.675781 0)"/>
     </g>
    </g>
    <g id="line2d_42">
     <path d="M 56.72 375.460312 
L 66.72 375.460312 
L 76.72 375.460312 
" style="fill: none; stroke: #17becf; stroke-width: 1.5; stroke-linecap: square"/>
    </g>
    <g id="text_24">
     <!-- p=1.0 -->
     <g transform="translate(84.72 378.960312) scale(0.1 -0.1)">
      <use xlink:href="#DejaVuSans-70"/>
      <use xlink:href="#DejaVuSans-3d" transform="translate(63.476562 0)"/>
      <use xlink:href="#DejaVuSans-31" transform="translate(147.265625 0)"/>
      <use xlink:href="#DejaVuSans-2e" transform="translate(210.888672 0)"/>
      <use xlink:href="#DejaVuSans-30" transform="translate(242.675781 0)"/>
     </g>
    </g>
   </g>
  </g>
 </g>
 <defs>
  <clipPath id="pbd02c06c9b">
   <rect x="47.72" y="26.88" width="661.48" height="363.16"/>
  </clipPath>
 </defs>
</svg>
