<?xml version="1.0" encoding="utf-8" standalone="no"?>
<!DOCTYPE svg PUBLIC "-//W3C//DTD SVG 1.1//EN"
  "http://www.w3.org/Graphics/SVG/1.1/DTD/svg11.dtd">
<svg xmlns:xlink="http://www.w3.org/1999/xlink" width="720pt" height="432pt" viewBox="0 0 720 432" xmlns="http://www.w3.org/2000/svg" version="1.1">
 <metadata>
  <rdf:RDF xmlns:dc="http://purl.org/dc/elements/1.1/" xmlns:cc="http://creativecommons.org/ns#" xmlns:rdf="http://www.w3.org/1999/02/22-rdf-syntax-ns#">
   <cc:Work>
    <dc:type rdf:resource="http://purl.org/dc/dcmitype/StillImage"/>
    <dc:date>2025-08-23T17:31:37.245460</dc:date>
    <dc:format>image/svg+xml</dc:format>
    <dc:creator>
     <cc:Agent>
      <dc:title>Matplotlib v3.10.3, https://matplotlib.org/</dc:title>
     </cc:Agent>
    </dc:creator>
   </cc:Work>
  </rdf:RDF>
 </metadata>
 <defs>
  <style type="text/css">*{stroke-linejoin: round; stroke-linecap: butt}</style>
 </defs>
 <g id="figure_1">
  <g id="patch_1">
   <path d="M 0 432 
L 720 432 
L 720 0 
L 0 0 
z
" style="fill: #ffffff"/>
  </g>
  <g id="axes_1">
   <g id="patch_2">
    <path d="M 47.72 390.04 
L 709.2 390.04 
L 709.2 26.88 
L 47.72 26.88 
z
" style="fill: #ffffff"/>
   </g>
   <g id="matplotlib.axis_1">
    <g id="xtick_1">
     <g id="line2d_1">
      <path d="M 77.787273 390.04 
L 77.787273 26.88 
" clip-path="url(#p93a8a38864)" style="fill: none; stroke: #b0b0b0; stroke-width: 0.8; stroke-linecap: square"/>
     </g>
     <g id="line2d_2">
      <defs>
       <path id="m7fe5405c6d" d="M 0 0 
L 0 3.5 
" style="stroke: #000000; stroke-width: 0.8"/>
      </defs>
      <g>
       <use xlink:href="#m7fe5405c6d" x="77.787273" y="390.04" style="stroke: #000000; stroke-width: 0.8"/>
      </g>
     </g>
     <g id="text_1">
      <!-- 0 -->
      <g transform="translate(74.606023 404.638438) scale(0.1 -0.1)">
       <defs>
        <path id="DejaVuSans-30" d="M 2034 4250 
Q 1547 4250 1301 3770 
Q 1056 3291 1056 2328 
Q 1056 1369 1301 889 
Q 1547 409 2034 409 
Q 2525 409 2770 889 
Q 3016 1369 3016 2328 
Q 3016 3291 2770 3770 
Q 2525 4250 2034 4250 
z
M 2034 4750 
Q 2819 4750 3233 4129 
Q 3647 3509 3647 2328 
Q 3647 1150 3233 529 
Q 2819 -91 2034 -91 
Q 1250 -91 836 529 
Q 422 1150 422 2328 
Q 422 3509 836 4129 
Q 1250 4750 2034 4750 
z
" transform="scale(0.015625)"/>
       </defs>
       <use xlink:href="#DejaVuSans-30"/>
      </g>
     </g>
    </g>
    <g id="xtick_2">
     <g id="line2d_3">
      <path d="M 179.710231 390.04 
L 179.710231 26.88 
" clip-path="url(#p93a8a38864)" style="fill: none; stroke: #b0b0b0; stroke-width: 0.8; stroke-linecap: square"/>
     </g>
     <g id="line2d_4">
      <g>
       <use xlink:href="#m7fe5405c6d" x="179.710231" y="390.04" style="stroke: #000000; stroke-width: 0.8"/>
      </g>
     </g>
     <g id="text_2">
      <!-- 10 -->
      <g transform="translate(173.347731 404.638438) scale(0.1 -0.1)">
       <defs>
        <path id="DejaVuSans-31" d="M 794 531 
L 1825 531 
L 1825 4091 
L 703 3866 
L 703 4441 
L 1819 4666 
L 2450 4666 
L 2450 531 
L 3481 531 
L 3481 0 
L 794 0 
L 794 531 
z
" transform="scale(0.015625)"/>
       </defs>
       <use xlink:href="#DejaVuSans-31"/>
       <use xlink:href="#DejaVuSans-30" transform="translate(63.623047 0)"/>
      </g>
     </g>
    </g>
    <g id="xtick_3">
     <g id="line2d_5">
      <path d="M 281.63319 390.04 
L 281.63319 26.88 
" clip-path="url(#p93a8a38864)" style="fill: none; stroke: #b0b0b0; stroke-width: 0.8; stroke-linecap: square"/>
     </g>
     <g id="line2d_6">
      <g>
       <use xlink:href="#m7fe5405c6d" x="281.63319" y="390.04" style="stroke: #000000; stroke-width: 0.8"/>
      </g>
     </g>
     <g id="text_3">
      <!-- 20 -->
      <g transform="translate(275.27069 404.638438) scale(0.1 -0.1)">
       <defs>
        <path id="DejaVuSans-32" d="M 1228 531 
L 3431 531 
L 3431 0 
L 469 0 
L 469 531 
Q 828 903 1448 1529 
Q 2069 2156 2228 2338 
Q 2531 2678 2651 2914 
Q 2772 3150 2772 3378 
Q 2772 3750 2511 3984 
Q 2250 4219 1831 4219 
Q 1534 4219 1204 4116 
Q 875 4013 500 3803 
L 500 4441 
Q 881 4594 1212 4672 
Q 1544 4750 1819 4750 
Q 2544 4750 2975 4387 
Q 3406 4025 3406 3419 
Q 3406 3131 3298 2873 
Q 3191 2616 2906 2266 
Q 2828 2175 2409 1742 
Q 1991 1309 1228 531 
z
" transform="scale(0.015625)"/>
       </defs>
       <use xlink:href="#DejaVuSans-32"/>
       <use xlink:href="#DejaVuSans-30" transform="translate(63.623047 0)"/>
      </g>
     </g>
    </g>
    <g id="xtick_4">
     <g id="line2d_7">
      <path d="M 383.556148 390.04 
L 383.556148 26.88 
" clip-path="url(#p93a8a38864)" style="fill: none; stroke: #b0b0b0; stroke-width: 0.8; stroke-linecap: square"/>
     </g>
     <g id="line2d_8">
      <g>
       <use xlink:href="#m7fe5405c6d" x="383.556148" y="390.04" style="stroke: #000000; stroke-width: 0.8"/>
      </g>
     </g>
     <g id="text_4">
      <!-- 30 -->
      <g transform="translate(377.193648 404.638438) scale(0.1 -0.1)">
       <defs>
        <path id="DejaVuSans-33" d="M 2597 2516 
Q 3050 2419 3304 2112 
Q 3559 1806 3559 1356 
Q 3559 666 3084 287 
Q 2609 -91 1734 -91 
Q 1441 -91 1130 -33 
Q 819 25 488 141 
L 488 750 
Q 750 597 1062 519 
Q 1375 441 1716 441 
Q 2309 441 2620 675 
Q 2931 909 2931 1356 
Q 2931 1769 2642 2001 
Q 2353 2234 1838 2234 
L 1294 2234 
L 1294 2753 
L 1863 2753 
Q 2328 2753 2575 2939 
Q 2822 3125 2822 3475 
Q 2822 3834 2567 4026 
Q 2313 4219 1838 4219 
Q 1578 4219 1281 4162 
Q 984 4106 628 3988 
L 628 4550 
Q 988 4650 1302 4700 
Q 1616 4750 1894 4750 
Q 2613 4750 3031 4423 
Q 3450 4097 3450 3541 
Q 3450 3153 3228 2886 
Q 3006 2619 2597 2516 
z
" transform="scale(0.015625)"/>
       </defs>
       <use xlink:href="#DejaVuSans-33"/>
       <use xlink:href="#DejaVuSans-30" transform="translate(63.623047 0)"/>
      </g>
     </g>
    </g>
    <g id="xtick_5">
     <g id="line2d_9">
      <path d="M 485.479106 390.04 
L 485.479106 26.88 
" clip-path="url(#p93a8a38864)" style="fill: none; stroke: #b0b0b0; stroke-width: 0.8; stroke-linecap: square"/>
     </g>
     <g id="line2d_10">
      <g>
       <use xlink:href="#m7fe5405c6d" x="485.479106" y="390.04" style="stroke: #000000; stroke-width: 0.8"/>
      </g>
     </g>
     <g id="text_5">
      <!-- 40 -->
      <g transform="translate(479.116606 404.638438) scale(0.1 -0.1)">
       <defs>
        <path id="DejaVuSans-34" d="M 2419 4116 
L 825 1625 
L 2419 1625 
L 2419 4116 
z
M 2253 4666 
L 3047 4666 
L 3047 1625 
L 3713 1625 
L 3713 1100 
L 3047 1100 
L 3047 0 
L 2419 0 
L 2419 1100 
L 313 1100 
L 313 1709 
L 2253 4666 
z
" transform="scale(0.015625)"/>
       </defs>
       <use xlink:href="#DejaVuSans-34"/>
       <use xlink:href="#DejaVuSans-30" transform="translate(63.623047 0)"/>
      </g>
     </g>
    </g>
    <g id="xtick_6">
     <g id="line2d_11">
      <path d="M 587.402065 390.04 
L 587.402065 26.88 
" clip-path="url(#p93a8a38864)" style="fill: none; stroke: #b0b0b0; stroke-width: 0.8; stroke-linecap: square"/>
     </g>
     <g id="line2d_12">
      <g>
       <use xlink:href="#m7fe5405c6d" x="587.402065" y="390.04" style="stroke: #000000; stroke-width: 0.8"/>
      </g>
     </g>
     <g id="text_6">
      <!-- 50 -->
      <g transform="translate(581.039565 404.638438) scale(0.1 -0.1)">
       <defs>
        <path id="DejaVuSans-35" d="M 691 4666 
L 3169 4666 
L 3169 4134 
L 1269 4134 
L 1269 2991 
Q 1406 3038 1543 3061 
Q 1681 3084 1819 3084 
Q 2600 3084 3056 2656 
Q 3513 2228 3513 1497 
Q 3513 744 3044 326 
Q 2575 -91 1722 -91 
Q 1428 -91 1123 -41 
Q 819 9 494 109 
L 494 744 
Q 775 591 1075 516 
Q 1375 441 1709 441 
Q 2250 441 2565 725 
Q 2881 1009 2881 1497 
Q 2881 1984 2565 2268 
Q 2250 2553 1709 2553 
Q 1456 2553 1204 2497 
Q 953 2441 691 2322 
L 691 4666 
z
" transform="scale(0.015625)"/>
       </defs>
       <use xlink:href="#DejaVuSans-35"/>
       <use xlink:href="#DejaVuSans-30" transform="translate(63.623047 0)"/>
      </g>
     </g>
    </g>
    <g id="xtick_7">
     <g id="line2d_13">
      <path d="M 689.325023 390.04 
L 689.325023 26.88 
" clip-path="url(#p93a8a38864)" style="fill: none; stroke: #b0b0b0; stroke-width: 0.8; stroke-linecap: square"/>
     </g>
     <g id="line2d_14">
      <g>
       <use xlink:href="#m7fe5405c6d" x="689.325023" y="390.04" style="stroke: #000000; stroke-width: 0.8"/>
      </g>
     </g>
     <g id="text_7">
      <!-- 60 -->
      <g transform="translate(682.962523 404.638438) scale(0.1 -0.1)">
       <defs>
        <path id="DejaVuSans-36" d="M 2113 2584 
Q 1688 2584 1439 2293 
Q 1191 2003 1191 1497 
Q 1191 994 1439 701 
Q 1688 409 2113 409 
Q 2538 409 2786 701 
Q 3034 994 3034 1497 
Q 3034 2003 2786 2293 
Q 2538 2584 2113 2584 
z
M 3366 4563 
L 3366 3988 
Q 3128 4100 2886 4159 
Q 2644 4219 2406 4219 
Q 1781 4219 1451 3797 
Q 1122 3375 1075 2522 
Q 1259 2794 1537 2939 
Q 1816 3084 2150 3084 
Q 2853 3084 3261 2657 
Q 3669 2231 3669 1497 
Q 3669 778 3244 343 
Q 2819 -91 2113 -91 
Q 1303 -91 875 529 
Q 447 1150 447 2328 
Q 447 3434 972 4092 
Q 1497 4750 2381 4750 
Q 2619 4750 2861 4703 
Q 3103 4656 3366 4563 
z
" transform="scale(0.015625)"/>
       </defs>
       <use xlink:href="#DejaVuSans-36"/>
       <use xlink:href="#DejaVuSans-30" transform="translate(63.623047 0)"/>
      </g>
     </g>
    </g>
    <g id="text_8">
     <!-- Time -->
     <g transform="translate(366.226406 418.316562) scale(0.1 -0.1)">
      <defs>
       <path id="DejaVuSans-54" d="M -19 4666 
L 3928 4666 
L 3928 4134 
L 2272 4134 
L 2272 0 
L 1638 0 
L 1638 4134 
L -19 4134 
L -19 4666 
z
" transform="scale(0.015625)"/>
       <path id="DejaVuSans-69" d="M 603 3500 
L 1178 3500 
L 1178 0 
L 603 0 
L 603 3500 
z
M 603 4863 
L 1178 4863 
L 1178 4134 
L 603 4134 
L 603 4863 
z
" transform="scale(0.015625)"/>
       <path id="DejaVuSans-6d" d="M 3328 2828 
Q 3544 3216 3844 3400 
Q 4144 3584 4550 3584 
Q 5097 3584 5394 3201 
Q 5691 2819 5691 2113 
L 5691 0 
L 5113 0 
L 5113 2094 
Q 5113 2597 4934 2840 
Q 4756 3084 4391 3084 
Q 3944 3084 3684 2787 
Q 3425 2491 3425 1978 
L 3425 0 
L 2847 0 
L 2847 2094 
Q 2847 2600 2669 2842 
Q 2491 3084 2119 3084 
Q 1678 3084 1418 2786 
Q 1159 2488 1159 1978 
L 1159 0 
L 581 0 
L 581 3500 
L 1159 3500 
L 1159 2956 
Q 1356 3278 1631 3431 
Q 1906 3584 2284 3584 
Q 2666 3584 2933 3390 
Q 3200 3197 3328 2828 
z
" transform="scale(0.015625)"/>
       <path id="DejaVuSans-65" d="M 3597 1894 
L 3597 1613 
L 953 1613 
Q 991 1019 1311 708 
Q 1631 397 2203 397 
Q 2534 397 2845 478 
Q 3156 559 3463 722 
L 3463 178 
Q 3153 47 2828 -22 
Q 2503 -91 2169 -91 
Q 1331 -91 842 396 
Q 353 884 353 1716 
Q 353 2575 817 3079 
Q 1281 3584 2069 3584 
Q 2775 3584 3186 3129 
Q 3597 2675 3597 1894 
z
M 3022 2063 
Q 3016 2534 2758 2815 
Q 2500 3097 2075 3097 
Q 1594 3097 1305 2825 
Q 1016 2553 972 2059 
L 3022 2063 
z
" transform="scale(0.015625)"/>
      </defs>
      <use xlink:href="#DejaVuSans-54"/>
      <use xlink:href="#DejaVuSans-69" transform="translate(57.958984 0)"/>
      <use xlink:href="#DejaVuSans-6d" transform="translate(85.742188 0)"/>
      <use xlink:href="#DejaVuSans-65" transform="translate(183.154297 0)"/>
     </g>
    </g>
   </g>
   <g id="matplotlib.axis_2">
    <g id="ytick_1">
     <g id="line2d_15">
      <path d="M 47.72 373.532727 
L 709.2 373.532727 
" clip-path="url(#p93a8a38864)" style="fill: none; stroke: #b0b0b0; stroke-width: 0.8; stroke-linecap: square"/>
     </g>
     <g id="line2d_16">
      <defs>
       <path id="med202ddc0a" d="M 0 0 
L -3.5 0 
" style="stroke: #000000; stroke-width: 0.8"/>
      </defs>
      <g>
       <use xlink:href="#med202ddc0a" x="47.72" y="373.532727" style="stroke: #000000; stroke-width: 0.8"/>
      </g>
     </g>
     <g id="text_9">
      <!-- 0.0 -->
      <g transform="translate(24.816875 377.331946) scale(0.1 -0.1)">
       <defs>
        <path id="DejaVuSans-2e" d="M 684 794 
L 1344 794 
L 1344 0 
L 684 0 
L 684 794 
z
" transform="scale(0.015625)"/>
       </defs>
       <use xlink:href="#DejaVuSans-30"/>
       <use xlink:href="#DejaVuSans-2e" transform="translate(63.623047 0)"/>
       <use xlink:href="#DejaVuSans-30" transform="translate(95.410156 0)"/>
      </g>
     </g>
    </g>
    <g id="ytick_2">
     <g id="line2d_17">
      <path d="M 47.72 303.95762 
L 709.2 303.95762 
" clip-path="url(#p93a8a38864)" style="fill: none; stroke: #b0b0b0; stroke-width: 0.8; stroke-linecap: square"/>
     </g>
     <g id="line2d_18">
      <g>
       <use xlink:href="#med202ddc0a" x="47.72" y="303.95762" style="stroke: #000000; stroke-width: 0.8"/>
      </g>
     </g>
     <g id="text_10">
      <!-- 0.5 -->
      <g transform="translate(24.816875 307.756839) scale(0.1 -0.1)">
       <use xlink:href="#DejaVuSans-30"/>
       <use xlink:href="#DejaVuSans-2e" transform="translate(63.623047 0)"/>
       <use xlink:href="#DejaVuSans-35" transform="translate(95.410156 0)"/>
      </g>
     </g>
    </g>
    <g id="ytick_3">
     <g id="line2d_19">
      <path d="M 47.72 234.382513 
L 709.2 234.382513 
" clip-path="url(#p93a8a38864)" style="fill: none; stroke: #b0b0b0; stroke-width: 0.8; stroke-linecap: square"/>
     </g>
     <g id="line2d_20">
      <g>
       <use xlink:href="#med202ddc0a" x="47.72" y="234.382513" style="stroke: #000000; stroke-width: 0.8"/>
      </g>
     </g>
     <g id="text_11">
      <!-- 1.0 -->
      <g transform="translate(24.816875 238.181731) scale(0.1 -0.1)">
       <use xlink:href="#DejaVuSans-31"/>
       <use xlink:href="#DejaVuSans-2e" transform="translate(63.623047 0)"/>
       <use xlink:href="#DejaVuSans-30" transform="translate(95.410156 0)"/>
      </g>
     </g>
    </g>
    <g id="ytick_4">
     <g id="line2d_21">
      <path d="M 47.72 164.807405 
L 709.2 164.807405 
" clip-path="url(#p93a8a38864)" style="fill: none; stroke: #b0b0b0; stroke-width: 0.8; stroke-linecap: square"/>
     </g>
     <g id="line2d_22">
      <g>
       <use xlink:href="#med202ddc0a" x="47.72" y="164.807405" style="stroke: #000000; stroke-width: 0.8"/>
      </g>
     </g>
     <g id="text_12">
      <!-- 1.5 -->
      <g transform="translate(24.816875 168.606624) scale(0.1 -0.1)">
       <use xlink:href="#DejaVuSans-31"/>
       <use xlink:href="#DejaVuSans-2e" transform="translate(63.623047 0)"/>
       <use xlink:href="#DejaVuSans-35" transform="translate(95.410156 0)"/>
      </g>
     </g>
    </g>
    <g id="ytick_5">
     <g id="line2d_23">
      <path d="M 47.72 95.232298 
L 709.2 95.232298 
" clip-path="url(#p93a8a38864)" style="fill: none; stroke: #b0b0b0; stroke-width: 0.8; stroke-linecap: square"/>
     </g>
     <g id="line2d_24">
      <g>
       <use xlink:href="#med202ddc0a" x="47.72" y="95.232298" style="stroke: #000000; stroke-width: 0.8"/>
      </g>
     </g>
     <g id="text_13">
      <!-- 2.0 -->
      <g transform="translate(24.816875 99.031517) scale(0.1 -0.1)">
       <use xlink:href="#DejaVuSans-32"/>
       <use xlink:href="#DejaVuSans-2e" transform="translate(63.623047 0)"/>
       <use xlink:href="#DejaVuSans-30" transform="translate(95.410156 0)"/>
      </g>
     </g>
    </g>
    <g id="text_14">
     <!-- Half-chain entropy -->
     <g transform="translate(18.737187 254.432656) rotate(-90) scale(0.1 -0.1)">
      <defs>
       <path id="DejaVuSans-48" d="M 628 4666 
L 1259 4666 
L 1259 2753 
L 3553 2753 
L 3553 4666 
L 4184 4666 
L 4184 0 
L 3553 0 
L 3553 2222 
L 1259 2222 
L 1259 0 
L 628 0 
L 628 4666 
z
" transform="scale(0.015625)"/>
       <path id="DejaVuSans-61" d="M 2194 1759 
Q 1497 1759 1228 1600 
Q 959 1441 959 1056 
Q 959 750 1161 570 
Q 1363 391 1709 391 
Q 2188 391 2477 730 
Q 2766 1069 2766 1631 
L 2766 1759 
L 2194 1759 
z
M 3341 1997 
L 3341 0 
L 2766 0 
L 2766 531 
Q 2569 213 2275 61 
Q 1981 -91 1556 -91 
Q 1019 -91 701 211 
Q 384 513 384 1019 
Q 384 1609 779 1909 
Q 1175 2209 1959 2209 
L 2766 2209 
L 2766 2266 
Q 2766 2663 2505 2880 
Q 2244 3097 1772 3097 
Q 1472 3097 1187 3025 
Q 903 2953 641 2809 
L 641 3341 
Q 956 3463 1253 3523 
Q 1550 3584 1831 3584 
Q 2591 3584 2966 3190 
Q 3341 2797 3341 1997 
z
" transform="scale(0.015625)"/>
       <path id="DejaVuSans-6c" d="M 603 4863 
L 1178 4863 
L 1178 0 
L 603 0 
L 603 4863 
z
" transform="scale(0.015625)"/>
       <path id="DejaVuSans-66" d="M 2375 4863 
L 2375 4384 
L 1825 4384 
Q 1516 4384 1395 4259 
Q 1275 4134 1275 3809 
L 1275 3500 
L 2222 3500 
L 2222 3053 
L 1275 3053 
L 1275 0 
L 697 0 
L 697 3053 
L 147 3053 
L 147 3500 
L 697 3500 
L 697 3744 
Q 697 4328 969 4595 
Q 1241 4863 1831 4863 
L 2375 4863 
z
" transform="scale(0.015625)"/>
       <path id="DejaVuSans-2d" d="M 313 2009 
L 1997 2009 
L 1997 1497 
L 313 1497 
L 313 2009 
z
" transform="scale(0.015625)"/>
       <path id="DejaVuSans-63" d="M 3122 3366 
L 3122 2828 
Q 2878 2963 2633 3030 
Q 2388 3097 2138 3097 
Q 1578 3097 1268 2742 
Q 959 2388 959 1747 
Q 959 1106 1268 751 
Q 1578 397 2138 397 
Q 2388 397 2633 464 
Q 2878 531 3122 666 
L 3122 134 
Q 2881 22 2623 -34 
Q 2366 -91 2075 -91 
Q 1284 -91 818 406 
Q 353 903 353 1747 
Q 353 2603 823 3093 
Q 1294 3584 2113 3584 
Q 2378 3584 2631 3529 
Q 2884 3475 3122 3366 
z
" transform="scale(0.015625)"/>
       <path id="DejaVuSans-68" d="M 3513 2113 
L 3513 0 
L 2938 0 
L 2938 2094 
Q 2938 2591 2744 2837 
Q 2550 3084 2163 3084 
Q 1697 3084 1428 2787 
Q 1159 2491 1159 1978 
L 1159 0 
L 581 0 
L 581 4863 
L 1159 4863 
L 1159 2956 
Q 1366 3272 1645 3428 
Q 1925 3584 2291 3584 
Q 2894 3584 3203 3211 
Q 3513 2838 3513 2113 
z
" transform="scale(0.015625)"/>
       <path id="DejaVuSans-6e" d="M 3513 2113 
L 3513 0 
L 2938 0 
L 2938 2094 
Q 2938 2591 2744 2837 
Q 2550 3084 2163 3084 
Q 1697 3084 1428 2787 
Q 1159 2491 1159 1978 
L 1159 0 
L 581 0 
L 581 3500 
L 1159 3500 
L 1159 2956 
Q 1366 3272 1645 3428 
Q 1925 3584 2291 3584 
Q 2894 3584 3203 3211 
Q 3513 2838 3513 2113 
z
" transform="scale(0.015625)"/>
       <path id="DejaVuSans-20" transform="scale(0.015625)"/>
       <path id="DejaVuSans-74" d="M 1172 4494 
L 1172 3500 
L 2356 3500 
L 2356 3053 
L 1172 3053 
L 1172 1153 
Q 1172 725 1289 603 
Q 1406 481 1766 481 
L 2356 481 
L 2356 0 
L 1766 0 
Q 1100 0 847 248 
Q 594 497 594 1153 
L 594 3053 
L 172 3053 
L 172 3500 
L 594 3500 
L 594 4494 
L 1172 4494 
z
" transform="scale(0.015625)"/>
       <path id="DejaVuSans-72" d="M 2631 2963 
Q 2534 3019 2420 3045 
Q 2306 3072 2169 3072 
Q 1681 3072 1420 2755 
Q 1159 2438 1159 1844 
L 1159 0 
L 581 0 
L 581 3500 
L 1159 3500 
L 1159 2956 
Q 1341 3275 1631 3429 
Q 1922 3584 2338 3584 
Q 2397 3584 2469 3576 
Q 2541 3569 2628 3553 
L 2631 2963 
z
" transform="scale(0.015625)"/>
       <path id="DejaVuSans-6f" d="M 1959 3097 
Q 1497 3097 1228 2736 
Q 959 2375 959 1747 
Q 959 1119 1226 758 
Q 1494 397 1959 397 
Q 2419 397 2687 759 
Q 2956 1122 2956 1747 
Q 2956 2369 2687 2733 
Q 2419 3097 1959 3097 
z
M 1959 3584 
Q 2709 3584 3137 3096 
Q 3566 2609 3566 1747 
Q 3566 888 3137 398 
Q 2709 -91 1959 -91 
Q 1206 -91 779 398 
Q 353 888 353 1747 
Q 353 2609 779 3096 
Q 1206 3584 1959 3584 
z
" transform="scale(0.015625)"/>
       <path id="DejaVuSans-70" d="M 1159 525 
L 1159 -1331 
L 581 -1331 
L 581 3500 
L 1159 3500 
L 1159 2969 
Q 1341 3281 1617 3432 
Q 1894 3584 2278 3584 
Q 2916 3584 3314 3078 
Q 3713 2572 3713 1747 
Q 3713 922 3314 415 
Q 2916 -91 2278 -91 
Q 1894 -91 1617 61 
Q 1341 213 1159 525 
z
M 3116 1747 
Q 3116 2381 2855 2742 
Q 2594 3103 2138 3103 
Q 1681 3103 1420 2742 
Q 1159 2381 1159 1747 
Q 1159 1113 1420 752 
Q 1681 391 2138 391 
Q 2594 391 2855 752 
Q 3116 1113 3116 1747 
z
" transform="scale(0.015625)"/>
       <path id="DejaVuSans-79" d="M 2059 -325 
Q 1816 -950 1584 -1140 
Q 1353 -1331 966 -1331 
L 506 -1331 
L 506 -850 
L 844 -850 
Q 1081 -850 1212 -737 
Q 1344 -625 1503 -206 
L 1606 56 
L 191 3500 
L 800 3500 
L 1894 763 
L 2988 3500 
L 3597 3500 
L 2059 -325 
z
" transform="scale(0.015625)"/>
      </defs>
      <use xlink:href="#DejaVuSans-48"/>
      <use xlink:href="#DejaVuSans-61" transform="translate(75.195312 0)"/>
      <use xlink:href="#DejaVuSans-6c" transform="translate(136.474609 0)"/>
      <use xlink:href="#DejaVuSans-66" transform="translate(164.257812 0)"/>
      <use xlink:href="#DejaVuSans-2d" transform="translate(193.962891 0)"/>
      <use xlink:href="#DejaVuSans-63" transform="translate(230.046875 0)"/>
      <use xlink:href="#DejaVuSans-68" transform="translate(285.027344 0)"/>
      <use xlink:href="#DejaVuSans-61" transform="translate(348.40625 0)"/>
      <use xlink:href="#DejaVuSans-69" transform="translate(409.685547 0)"/>
      <use xlink:href="#DejaVuSans-6e" transform="translate(437.46875 0)"/>
      <use xlink:href="#DejaVuSans-20" transform="translate(500.847656 0)"/>
      <use xlink:href="#DejaVuSans-65" transform="translate(532.634766 0)"/>
      <use xlink:href="#DejaVuSans-6e" transform="translate(594.158203 0)"/>
      <use xlink:href="#DejaVuSans-74" transform="translate(657.537109 0)"/>
      <use xlink:href="#DejaVuSans-72" transform="translate(696.746094 0)"/>
      <use xlink:href="#DejaVuSans-6f" transform="translate(735.609375 0)"/>
      <use xlink:href="#DejaVuSans-70" transform="translate(796.791016 0)"/>
      <use xlink:href="#DejaVuSans-79" transform="translate(860.267578 0)"/>
     </g>
    </g>
   </g>
   <g id="line2d_25">
    <path d="M 77.787273 373.532727 
L 87.979569 51.922973 
L 98.171864 43.964505 
L 108.36416 43.443561 
L 118.556456 43.775664 
L 128.748752 44.479962 
L 138.941048 44.771796 
L 149.133344 43.387273 
L 159.325639 45.247124 
L 169.517935 45.465018 
L 179.710231 46.359585 
L 189.902527 46.740075 
L 200.094823 48.010447 
L 210.287119 47.341821 
L 220.479414 48.194213 
L 230.67171 49.485003 
L 240.864006 48.990584 
L 251.056302 49.682412 
L 261.248598 48.890209 
L 271.440894 49.893009 
L 281.63319 50.505076 
L 291.825485 51.080276 
L 302.017781 50.53916 
L 312.210077 50.228592 
L 322.402373 50.42272 
L 332.594669 51.002271 
L 342.786965 51.0345 
L 352.97926 51.458905 
L 363.171556 52.586802 
L 373.363852 51.817632 
L 383.556148 52.293852 
L 393.748444 52.284166 
L 403.94074 52.480088 
L 414.133035 52.855271 
L 424.325331 52.825609 
L 434.517627 53.022408 
L 444.709923 52.634448 
L 454.902219 52.756184 
L 465.094515 53.050534 
L 475.28681 54.194069 
L 485.479106 53.965847 
L 495.671402 53.737798 
L 505.863698 53.027519 
L 516.055994 53.136771 
L 526.24829 53.930712 
L 536.440586 53.735897 
L 546.632881 53.595173 
L 556.825177 53.379671 
L 567.017473 54.308965 
L 577.209769 53.89516 
L 587.402065 54.05251 
L 597.594361 54.740864 
L 607.786656 54.626163 
L 617.978952 54.089159 
L 628.171248 53.909729 
L 638.363544 53.858788 
L 648.55584 54.422969 
L 658.748136 53.957237 
L 668.940431 54.331881 
L 679.132727 53.59668 
" clip-path="url(#p93a8a38864)" style="fill: none; stroke: #1f77b4; stroke-width: 1.5; stroke-linecap: square"/>
   </g>
   <g id="line2d_26">
    <path d="M 77.787273 373.532727 
L 87.979569 98.551863 
L 98.171864 91.822376 
L 108.36416 93.043619 
L 118.556456 93.754228 
L 128.748752 94.794911 
L 138.941048 96.028842 
L 149.133344 95.820616 
L 159.325639 97.777452 
L 169.517935 98.783058 
L 179.710231 101.260482 
L 189.902527 101.083329 
L 200.094823 102.462817 
L 210.287119 103.352626 
L 220.479414 104.19484 
L 230.67171 106.522813 
L 240.864006 105.853723 
L 251.056302 107.170722 
L 261.248598 108.39865 
L 271.440894 108.697949 
L 281.63319 109.124081 
L 291.825485 110.346393 
L 302.017781 110.73707 
L 312.210077 110.469759 
L 322.402373 111.452231 
L 332.594669 112.766395 
L 342.786965 115.68595 
L 352.97926 115.786719 
L 363.171556 117.428629 
L 373.363852 117.164582 
L 383.556148 117.393791 
L 393.748444 117.655294 
L 403.94074 117.134139 
L 414.133035 117.187195 
L 424.325331 117.155298 
L 434.517627 117.207501 
L 444.709923 117.678039 
L 454.902219 118.206421 
L 465.094515 118.015252 
L 475.28681 118.59552 
L 485.479106 118.159513 
L 495.671402 117.973664 
L 505.863698 117.850875 
L 516.055994 117.667817 
L 526.24829 117.782742 
L 536.440586 117.477865 
L 546.632881 118.110012 
L 556.825177 117.955577 
L 567.017473 118.036087 
L 577.209769 118.393309 
L 587.402065 118.723828 
L 597.594361 118.745867 
L 607.786656 118.22346 
L 617.978952 117.801297 
L 628.171248 117.979932 
L 638.363544 118.101763 
L 648.55584 118.240965 
L 658.748136 118.497853 
L 668.940431 117.887357 
L 679.132727 117.802417 
" clip-path="url(#p93a8a38864)" style="fill: none; stroke: #ff7f0e; stroke-width: 1.5; stroke-linecap: square"/>
   </g>
   <g id="line2d_27">
    <path d="M 77.787273 373.532727 
L 87.979569 141.691556 
L 98.171864 138.558466 
L 108.36416 141.571234 
L 118.556456 142.667653 
L 128.748752 145.751914 
L 138.941048 148.118171 
L 149.133344 148.397667 
L 159.325639 151.237728 
L 169.517935 154.135233 
L 179.710231 157.816605 
L 189.902527 157.452609 
L 200.094823 158.827062 
L 210.287119 159.246064 
L 220.479414 160.068227 
L 230.67171 160.988855 
L 240.864006 160.606796 
L 251.056302 160.656781 
L 261.248598 161.79568 
L 271.440894 163.021167 
L 281.63319 164.011234 
L 291.825485 165.573972 
L 302.017781 165.385329 
L 312.210077 165.025981 
L 322.402373 164.309985 
L 332.594669 165.017815 
L 342.786965 166.082042 
L 352.97926 165.782697 
L 363.171556 166.34147 
L 373.363852 165.462669 
L 383.556148 165.788911 
L 393.748444 165.68593 
L 403.94074 165.291962 
L 414.133035 165.445964 
L 424.325331 165.219161 
L 434.517627 164.725124 
L 444.709923 165.045223 
L 454.902219 165.409135 
L 465.094515 165.385058 
L 475.28681 165.88735 
L 485.479106 166.144326 
L 495.671402 165.996063 
L 505.863698 165.960512 
L 516.055994 165.949896 
L 526.24829 165.924468 
L 536.440586 165.304437 
L 546.632881 165.614181 
L 556.825177 165.526776 
L 567.017473 165.385 
L 577.209769 165.757162 
L 587.402065 166.110231 
L 597.594361 165.73742 
L 607.786656 165.903631 
L 617.978952 165.155721 
L 628.171248 165.469383 
L 638.363544 165.512665 
L 648.55584 165.327679 
L 658.748136 165.587159 
L 668.940431 164.908636 
L 679.132727 164.868774 
" clip-path="url(#p93a8a38864)" style="fill: none; stroke: #2ca02c; stroke-width: 1.5; stroke-linecap: square"/>
   </g>
   <g id="line2d_28">
    <path d="M 77.787273 373.532727 
L 87.979569 196.128434 
L 98.171864 193.679281 
L 108.36416 195.041951 
L 118.556456 195.119084 
L 128.748752 198.927861 
L 138.941048 199.299324 
L 149.133344 201.449192 
L 159.325639 203.219564 
L 169.517935 204.926433 
L 179.710231 206.569844 
L 189.902527 205.953887 
L 200.094823 208.107643 
L 210.287119 208.376897 
L 220.479414 208.268851 
L 230.67171 209.361821 
L 240.864006 209.208906 
L 251.056302 209.753278 
L 261.248598 210.750234 
L 271.440894 211.983405 
L 281.63319 212.036011 
L 291.825485 212.826177 
L 302.017781 212.621037 
L 312.210077 212.001297 
L 322.402373 212.597686 
L 332.594669 213.828676 
L 342.786965 216.010156 
L 352.97926 215.602038 
L 363.171556 215.928115 
L 373.363852 215.144471 
L 383.556148 215.753963 
L 393.748444 215.623235 
L 403.94074 215.558373 
L 414.133035 215.457383 
L 424.325331 214.910628 
L 434.517627 214.895463 
L 444.709923 215.774446 
L 454.902219 216.445197 
L 465.094515 216.55707 
L 475.28681 216.609582 
L 485.479106 216.026495 
L 495.671402 215.979344 
L 505.863698 216.159131 
L 516.055994 216.236825 
L 526.24829 216.229828 
L 536.440586 216.117093 
L 546.632881 215.876065 
L 556.825177 216.003072 
L 567.017473 216.013746 
L 577.209769 216.356897 
L 587.402065 216.517022 
L 597.594361 216.171925 
L 607.786656 216.227518 
L 617.978952 215.889899 
L 628.171248 216.046023 
L 638.363544 216.712936 
L 648.55584 216.244182 
L 658.748136 216.869338 
L 668.940431 216.191765 
L 679.132727 215.98633 
" clip-path="url(#p93a8a38864)" style="fill: none; stroke: #d62728; stroke-width: 1.5; stroke-linecap: square"/>
   </g>
   <g id="line2d_29">
    <path d="M 77.787273 373.532727 
L 87.979569 236.202516 
L 98.171864 232.624873 
L 108.36416 235.057278 
L 118.556456 235.375497 
L 128.748752 238.202935 
L 138.941048 239.034729 
L 149.133344 242.321114 
L 159.325639 242.207253 
L 169.517935 242.625764 
L 179.710231 243.842465 
L 189.902527 243.882035 
L 200.094823 244.987558 
L 210.287119 245.242933 
L 220.479414 246.136522 
L 230.67171 247.042397 
L 240.864006 246.926171 
L 251.056302 247.24119 
L 261.248598 247.223811 
L 271.440894 247.890802 
L 281.63319 248.676178 
L 291.825485 250.23325 
L 302.017781 251.143441 
L 312.210077 250.770977 
L 322.402373 251.263896 
L 332.594669 252.158078 
L 342.786965 253.342732 
L 352.97926 252.71403 
L 363.171556 251.816838 
L 373.363852 252.131663 
L 383.556148 252.064493 
L 393.748444 252.588665 
L 403.94074 253.687084 
L 414.133035 253.50945 
L 424.325331 252.868089 
L 434.517627 252.936624 
L 444.709923 252.679492 
L 454.902219 252.501169 
L 465.094515 254.237759 
L 475.28681 253.796124 
L 485.479106 253.77233 
L 495.671402 253.73692 
L 505.863698 253.48716 
L 516.055994 253.539288 
L 526.24829 253.842679 
L 536.440586 253.746235 
L 546.632881 253.72128 
L 556.825177 254.037169 
L 567.017473 254.14313 
L 577.209769 254.42202 
L 587.402065 254.848602 
L 597.594361 254.55723 
L 607.786656 254.086804 
L 617.978952 253.958636 
L 628.171248 254.376993 
L 638.363544 254.669451 
L 648.55584 254.858877 
L 658.748136 254.858237 
L 668.940431 254.639033 
L 679.132727 254.494807 
" clip-path="url(#p93a8a38864)" style="fill: none; stroke: #9467bd; stroke-width: 1.5; stroke-linecap: square"/>
   </g>
   <g id="line2d_30">
    <path d="M 77.787273 373.532727 
L 87.979569 277.990564 
L 98.171864 275.696408 
L 108.36416 276.052319 
L 118.556456 278.612225 
L 128.748752 278.795963 
L 138.941048 279.760728 
L 149.133344 284.117349 
L 159.325639 281.927176 
L 169.517935 281.748979 
L 179.710231 282.157086 
L 189.902527 282.910063 
L 200.094823 283.003348 
L 210.287119 283.619853 
L 220.479414 283.726923 
L 230.67171 283.878576 
L 240.864006 284.429196 
L 251.056302 284.392956 
L 261.248598 284.731886 
L 271.440894 286.193017 
L 281.63319 285.488353 
L 291.825485 287.605281 
L 302.017781 287.079089 
L 312.210077 287.595211 
L 322.402373 287.510074 
L 332.594669 288.388126 
L 342.786965 289.75611 
L 352.97926 289.165393 
L 363.171556 288.976215 
L 373.363852 288.794447 
L 383.556148 288.517408 
L 393.748444 289.659326 
L 403.94074 289.791578 
L 414.133035 290.600123 
L 424.325331 288.643659 
L 434.517627 288.036433 
L 444.709923 288.386037 
L 454.902219 289.255963 
L 465.094515 289.987532 
L 475.28681 289.873033 
L 485.479106 289.987507 
L 495.671402 289.705722 
L 505.863698 289.564507 
L 516.055994 289.300832 
L 526.24829 289.54616 
L 536.440586 289.955676 
L 546.632881 289.402617 
L 556.825177 289.259051 
L 567.017473 289.003342 
L 577.209769 289.93076 
L 587.402065 290.742315 
L 597.594361 289.546598 
L 607.786656 289.198872 
L 617.978952 289.086533 
L 628.171248 290.297516 
L 638.363544 289.735941 
L 648.55584 289.723524 
L 658.748136 290.318421 
L 668.940431 290.496224 
L 679.132727 289.788837 
" clip-path="url(#p93a8a38864)" style="fill: none; stroke: #8c564b; stroke-width: 1.5; stroke-linecap: square"/>
   </g>
   <g id="line2d_31">
    <path d="M 77.787273 373.532727 
L 87.979569 310.444376 
L 98.171864 309.317471 
L 108.36416 311.902436 
L 118.556456 311.774414 
L 128.748752 312.388138 
L 138.941048 312.772044 
L 149.133344 315.206868 
L 159.325639 314.178716 
L 169.517935 314.096577 
L 179.710231 314.640604 
L 189.902527 316.376492 
L 200.094823 319.093816 
L 210.287119 317.720796 
L 220.479414 319.63503 
L 230.67171 318.382416 
L 240.864006 317.942225 
L 251.056302 318.470696 
L 261.248598 317.280665 
L 271.440894 319.614279 
L 281.63319 318.073069 
L 291.825485 318.858095 
L 302.017781 321.507036 
L 312.210077 320.43567 
L 322.402373 321.446462 
L 332.594669 320.521024 
L 342.786965 320.655339 
L 352.97926 321.484296 
L 363.171556 320.637393 
L 373.363852 321.509176 
L 383.556148 321.348063 
L 393.748444 320.808075 
L 403.94074 323.515404 
L 414.133035 322.975634 
L 424.325331 323.115264 
L 434.517627 322.628912 
L 444.709923 320.934018 
L 454.902219 322.370784 
L 465.094515 321.13896 
L 475.28681 322.266211 
L 485.479106 322.308795 
L 495.671402 321.024304 
L 505.863698 324.053179 
L 516.055994 322.982987 
L 526.24829 323.863363 
L 536.440586 323.22954 
L 546.632881 321.566961 
L 556.825177 322.580617 
L 567.017473 320.361978 
L 577.209769 322.329778 
L 587.402065 322.79705 
L 597.594361 320.867995 
L 607.786656 323.339933 
L 617.978952 322.461979 
L 628.171248 324.566178 
L 638.363544 322.668991 
L 648.55584 320.886979 
L 658.748136 322.771531 
L 668.940431 321.726917 
L 679.132727 322.480701 
" clip-path="url(#p93a8a38864)" style="fill: none; stroke: #e377c2; stroke-width: 1.5; stroke-linecap: square"/>
   </g>
   <g id="line2d_32">
    <path d="M 77.787273 373.532727 
L 87.979569 339.452492 
L 98.171864 338.409286 
L 108.36416 338.596297 
L 118.556456 338.248224 
L 128.748752 338.101441 
L 138.941048 337.696517 
L 149.133344 337.623527 
L 159.325639 336.854001 
L 169.517935 337.071163 
L 179.710231 337.48801 
L 189.902527 338.524195 
L 200.094823 340.950512 
L 210.287119 338.980322 
L 220.479414 339.645079 
L 230.67171 338.646668 
L 240.864006 337.39268 
L 251.056302 338.785971 
L 261.248598 337.216774 
L 271.440894 338.600783 
L 281.63319 338.11641 
L 291.825485 337.792954 
L 302.017781 341.174252 
L 312.210077 340.017669 
L 322.402373 340.533183 
L 332.594669 339.276392 
L 342.786965 337.844545 
L 352.97926 339.35919 
L 363.171556 337.821547 
L 373.363852 339.12084 
L 383.556148 338.748248 
L 393.748444 338.192336 
L 403.94074 341.168044 
L 414.133035 340.472671 
L 424.325331 341.328082 
L 434.517627 340.132493 
L 444.709923 338.596963 
L 454.902219 339.843531 
L 465.094515 338.234484 
L 475.28681 339.431415 
L 485.479106 338.998666 
L 495.671402 338.346309 
L 505.863698 341.249234 
L 516.055994 340.217052 
L 526.24829 340.988918 
L 536.440586 340.084805 
L 546.632881 338.504404 
L 556.825177 339.738192 
L 567.017473 338.143825 
L 577.209769 339.582117 
L 587.402065 339.594453 
L 597.594361 338.662325 
L 607.786656 341.293959 
L 617.978952 339.918494 
L 628.171248 340.97291 
L 638.363544 340.05882 
L 648.55584 338.635545 
L 658.748136 339.993074 
L 668.940431 338.649241 
L 679.132727 339.908531 
" clip-path="url(#p93a8a38864)" style="fill: none; stroke: #7f7f7f; stroke-width: 1.5; stroke-linecap: square"/>
   </g>
   <g id="line2d_33">
    <path d="M 77.787273 373.532727 
L 87.979569 363.641171 
L 98.171864 363.585537 
L 108.36416 362.533212 
L 118.556456 363.295681 
L 128.748752 363.985276 
L 138.941048 364.957829 
L 149.133344 365.39938 
L 159.325639 365.0669 
L 169.517935 365.445282 
L 179.710231 365.427297 
L 189.902527 365.540785 
L 200.094823 365.874449 
L 210.287119 366.074696 
L 220.479414 365.969278 
L 230.67171 365.798921 
L 240.864006 365.884028 
L 251.056302 365.923254 
L 261.248598 366.063347 
L 271.440894 366.133309 
L 281.63319 366.136522 
L 291.825485 366.140484 
L 302.017781 366.177609 
L 312.210077 366.223285 
L 322.402373 366.308741 
L 332.594669 366.355595 
L 342.786965 366.383296 
L 352.97926 366.424595 
L 363.171556 366.456269 
L 373.363852 366.506114 
L 383.556148 366.555483 
L 393.748444 366.592247 
L 403.94074 366.629684 
L 414.133035 366.663132 
L 424.325331 366.695101 
L 434.517627 366.733379 
L 444.709923 366.766041 
L 454.902219 366.79686 
L 465.094515 366.826757 
L 475.28681 366.852367 
L 485.479106 366.8794 
L 495.671402 366.905377 
L 505.863698 366.928906 
L 516.055994 366.952121 
L 526.24829 366.97293 
L 536.440586 366.992377 
L 546.632881 367.01166 
L 556.825177 367.029159 
L 567.017473 367.045927 
L 577.209769 367.061684 
L 587.402065 367.075914 
L 597.594361 367.089611 
L 607.786656 367.102341 
L 617.978952 367.114128 
L 628.171248 367.125355 
L 638.363544 367.135598 
L 648.55584 367.145134 
L 658.748136 367.154105 
L 668.940431 367.162319 
L 679.132727 367.170041 
" clip-path="url(#p93a8a38864)" style="fill: none; stroke: #bcbd22; stroke-width: 1.5; stroke-linecap: square"/>
   </g>
   <g id="line2d_34">
    <path d="M 77.787273 373.532727 
L 87.979569 373.532727 
L 98.171864 373.532727 
L 108.36416 373.532727 
L 118.556456 373.532727 
L 128.748752 373.532727 
L 138.941048 373.532727 
L 149.133344 373.532727 
L 159.325639 373.532727 
L 169.517935 373.532727 
L 179.710231 373.532727 
L 189.902527 373.532727 
L 200.094823 373.532727 
L 210.287119 373.532727 
L 220.479414 373.532727 
L 230.67171 373.532727 
L 240.864006 373.532727 
L 251.056302 373.532727 
L 261.248598 373.532727 
L 271.440894 373.532727 
L 281.63319 373.532727 
L 291.825485 373.532727 
L 302.017781 373.532727 
L 312.210077 373.532727 
L 322.402373 373.532727 
L 332.594669 373.532727 
L 342.786965 373.532727 
L 352.97926 373.532727 
L 363.171556 373.532727 
L 373.363852 373.532727 
L 383.556148 373.532727 
L 393.748444 373.532727 
L 403.94074 373.532727 
L 414.133035 373.532727 
L 424.325331 373.532727 
L 434.517627 373.532727 
L 444.709923 373.532727 
L 454.902219 373.532727 
L 465.094515 373.532727 
L 475.28681 373.532727 
L 485.479106 373.532727 
L 495.671402 373.532727 
L 505.863698 373.532727 
L 516.055994 373.532727 
L 526.24829 373.532727 
L 536.440586 373.532727 
L 546.632881 373.532727 
L 556.825177 373.532727 
L 567.017473 373.532727 
L 577.209769 373.532727 
L 587.402065 373.532727 
L 597.594361 373.532727 
L 607.786656 373.532727 
L 617.978952 373.532727 
L 628.171248 373.532727 
L 638.363544 373.532727 
L 648.55584 373.532727 
L 658.748136 373.532727 
L 668.940431 373.532727 
L 679.132727 373.532727 
" clip-path="url(#p93a8a38864)" style="fill: none; stroke: #17becf; stroke-width: 1.5; stroke-linecap: square"/>
   </g>
   <g id="patch_3">
    <path d="M 47.72 390.04 
L 47.72 26.88 
" style="fill: none; stroke: #000000; stroke-width: 0.8; stroke-linejoin: miter; stroke-linecap: square"/>
   </g>
   <g id="patch_4">
    <path d="M 709.2 390.04 
L 709.2 26.88 
" style="fill: none; stroke: #000000; stroke-width: 0.8; stroke-linejoin: miter; stroke-linecap: square"/>
   </g>
   <g id="patch_5">
    <path d="M 47.72 390.04 
L 709.2 390.04 
" style="fill: none; stroke: #000000; stroke-width: 0.8; stroke-linejoin: miter; stroke-linecap: square"/>
   </g>
   <g id="patch_6">
    <path d="M 47.72 26.88 
L 709.2 26.88 
" style="fill: none; stroke: #000000; stroke-width: 0.8; stroke-linejoin: miter; stroke-linecap: square"/>
   </g>
   <g id="text_15">
    <!-- S(L/2) evolution for different p values (L=6, dt=1.0, Measurement direction: Z) -->
    <g transform="translate(141.671875 20.88) scale(0.12 -0.12)">
     <defs>
      <path id="DejaVuSans-53" d="M 3425 4513 
L 3425 3897 
Q 3066 4069 2747 4153 
Q 2428 4238 2131 4238 
Q 1616 4238 1336 4038 
Q 1056 3838 1056 3469 
Q 1056 3159 1242 3001 
Q 1428 2844 1947 2747 
L 2328 2669 
Q 3034 2534 3370 2195 
Q 3706 1856 3706 1288 
Q 3706 609 3251 259 
Q 2797 -91 1919 -91 
Q 1588 -91 1214 -16 
Q 841 59 441 206 
L 441 856 
Q 825 641 1194 531 
Q 1563 422 1919 422 
Q 2459 422 2753 634 
Q 3047 847 3047 1241 
Q 3047 1584 2836 1778 
Q 2625 1972 2144 2069 
L 1759 2144 
Q 1053 2284 737 2584 
Q 422 2884 422 3419 
Q 422 4038 858 4394 
Q 1294 4750 2059 4750 
Q 2388 4750 2728 4690 
Q 3069 4631 3425 4513 
z
" transform="scale(0.015625)"/>
      <path id="DejaVuSans-28" d="M 1984 4856 
Q 1566 4138 1362 3434 
Q 1159 2731 1159 2009 
Q 1159 1288 1364 580 
Q 1569 -128 1984 -844 
L 1484 -844 
Q 1016 -109 783 600 
Q 550 1309 550 2009 
Q 550 2706 781 3412 
Q 1013 4119 1484 4856 
L 1984 4856 
z
" transform="scale(0.015625)"/>
      <path id="DejaVuSans-4c" d="M 628 4666 
L 1259 4666 
L 1259 531 
L 3531 531 
L 3531 0 
L 628 0 
L 628 4666 
z
" transform="scale(0.015625)"/>
      <path id="DejaVuSans-2f" d="M 1625 4666 
L 2156 4666 
L 531 -594 
L 0 -594 
L 1625 4666 
z
" transform="scale(0.015625)"/>
      <path id="DejaVuSans-29" d="M 513 4856 
L 1013 4856 
Q 1481 4119 1714 3412 
Q 1947 2706 1947 2009 
Q 1947 1309 1714 600 
Q 1481 -109 1013 -844 
L 513 -844 
Q 928 -128 1133 580 
Q 1338 1288 1338 2009 
Q 1338 2731 1133 3434 
Q 928 4138 513 4856 
z
" transform="scale(0.015625)"/>
      <path id="DejaVuSans-76" d="M 191 3500 
L 800 3500 
L 1894 563 
L 2988 3500 
L 3597 3500 
L 2284 0 
L 1503 0 
L 191 3500 
z
" transform="scale(0.015625)"/>
      <path id="DejaVuSans-75" d="M 544 1381 
L 544 3500 
L 1119 3500 
L 1119 1403 
Q 1119 906 1312 657 
Q 1506 409 1894 409 
Q 2359 409 2629 706 
Q 2900 1003 2900 1516 
L 2900 3500 
L 3475 3500 
L 3475 0 
L 2900 0 
L 2900 538 
Q 2691 219 2414 64 
Q 2138 -91 1772 -91 
Q 1169 -91 856 284 
Q 544 659 544 1381 
z
M 1991 3584 
L 1991 3584 
z
" transform="scale(0.015625)"/>
      <path id="DejaVuSans-64" d="M 2906 2969 
L 2906 4863 
L 3481 4863 
L 3481 0 
L 2906 0 
L 2906 525 
Q 2725 213 2448 61 
Q 2172 -91 1784 -91 
Q 1150 -91 751 415 
Q 353 922 353 1747 
Q 353 2572 751 3078 
Q 1150 3584 1784 3584 
Q 2172 3584 2448 3432 
Q 2725 3281 2906 2969 
z
M 947 1747 
Q 947 1113 1208 752 
Q 1469 391 1925 391 
Q 2381 391 2643 752 
Q 2906 1113 2906 1747 
Q 2906 2381 2643 2742 
Q 2381 3103 1925 3103 
Q 1469 3103 1208 2742 
Q 947 2381 947 1747 
z
" transform="scale(0.015625)"/>
      <path id="DejaVuSans-73" d="M 2834 3397 
L 2834 2853 
Q 2591 2978 2328 3040 
Q 2066 3103 1784 3103 
Q 1356 3103 1142 2972 
Q 928 2841 928 2578 
Q 928 2378 1081 2264 
Q 1234 2150 1697 2047 
L 1894 2003 
Q 2506 1872 2764 1633 
Q 3022 1394 3022 966 
Q 3022 478 2636 193 
Q 2250 -91 1575 -91 
Q 1294 -91 989 -36 
Q 684 19 347 128 
L 347 722 
Q 666 556 975 473 
Q 1284 391 1588 391 
Q 1994 391 2212 530 
Q 2431 669 2431 922 
Q 2431 1156 2273 1281 
Q 2116 1406 1581 1522 
L 1381 1569 
Q 847 1681 609 1914 
Q 372 2147 372 2553 
Q 372 3047 722 3315 
Q 1072 3584 1716 3584 
Q 2034 3584 2315 3537 
Q 2597 3491 2834 3397 
z
" transform="scale(0.015625)"/>
      <path id="DejaVuSans-3d" d="M 678 2906 
L 4684 2906 
L 4684 2381 
L 678 2381 
L 678 2906 
z
M 678 1631 
L 4684 1631 
L 4684 1100 
L 678 1100 
L 678 1631 
z
" transform="scale(0.015625)"/>
      <path id="DejaVuSans-2c" d="M 750 794 
L 1409 794 
L 1409 256 
L 897 -744 
L 494 -744 
L 750 256 
L 750 794 
z
" transform="scale(0.015625)"/>
      <path id="DejaVuSans-4d" d="M 628 4666 
L 1569 4666 
L 2759 1491 
L 3956 4666 
L 4897 4666 
L 4897 0 
L 4281 0 
L 4281 4097 
L 3078 897 
L 2444 897 
L 1241 4097 
L 1241 0 
L 628 0 
L 628 4666 
z
" transform="scale(0.015625)"/>
      <path id="DejaVuSans-3a" d="M 750 794 
L 1409 794 
L 1409 0 
L 750 0 
L 750 794 
z
M 750 3309 
L 1409 3309 
L 1409 2516 
L 750 2516 
L 750 3309 
z
" transform="scale(0.015625)"/>
      <path id="DejaVuSans-5a" d="M 359 4666 
L 4025 4666 
L 4025 4184 
L 1075 531 
L 4097 531 
L 4097 0 
L 288 0 
L 288 481 
L 3238 4134 
L 359 4134 
L 359 4666 
z
" transform="scale(0.015625)"/>
     </defs>
     <use xlink:href="#DejaVuSans-53"/>
     <use xlink:href="#DejaVuSans-28" transform="translate(63.476562 0)"/>
     <use xlink:href="#DejaVuSans-4c" transform="translate(102.490234 0)"/>
     <use xlink:href="#DejaVuSans-2f" transform="translate(158.203125 0)"/>
     <use xlink:href="#DejaVuSans-32" transform="translate(191.894531 0)"/>
     <use xlink:href="#DejaVuSans-29" transform="translate(255.517578 0)"/>
     <use xlink:href="#DejaVuSans-20" transform="translate(294.53125 0)"/>
     <use xlink:href="#DejaVuSans-65" transform="translate(326.318359 0)"/>
     <use xlink:href="#DejaVuSans-76" transform="translate(387.841797 0)"/>
     <use xlink:href="#DejaVuSans-6f" transform="translate(447.021484 0)"/>
     <use xlink:href="#DejaVuSans-6c" transform="translate(508.203125 0)"/>
     <use xlink:href="#DejaVuSans-75" transform="translate(535.986328 0)"/>
     <use xlink:href="#DejaVuSans-74" transform="translate(599.365234 0)"/>
     <use xlink:href="#DejaVuSans-69" transform="translate(638.574219 0)"/>
     <use xlink:href="#DejaVuSans-6f" transform="translate(666.357422 0)"/>
     <use xlink:href="#DejaVuSans-6e" transform="translate(727.539062 0)"/>
     <use xlink:href="#DejaVuSans-20" transform="translate(790.917969 0)"/>
     <use xlink:href="#DejaVuSans-66" transform="translate(822.705078 0)"/>
     <use xlink:href="#DejaVuSans-6f" transform="translate(857.910156 0)"/>
     <use xlink:href="#DejaVuSans-72" transform="translate(919.091797 0)"/>
     <use xlink:href="#DejaVuSans-20" transform="translate(960.205078 0)"/>
     <use xlink:href="#DejaVuSans-64" transform="translate(991.992188 0)"/>
     <use xlink:href="#DejaVuSans-69" transform="translate(1055.46875 0)"/>
     <use xlink:href="#DejaVuSans-66" transform="translate(1083.251953 0)"/>
     <use xlink:href="#DejaVuSans-66" transform="translate(1118.457031 0)"/>
     <use xlink:href="#DejaVuSans-65" transform="translate(1153.662109 0)"/>
     <use xlink:href="#DejaVuSans-72" transform="translate(1215.185547 0)"/>
     <use xlink:href="#DejaVuSans-65" transform="translate(1254.048828 0)"/>
     <use xlink:href="#DejaVuSans-6e" transform="translate(1315.572266 0)"/>
     <use xlink:href="#DejaVuSans-74" transform="translate(1378.951172 0)"/>
     <use xlink:href="#DejaVuSans-20" transform="translate(1418.160156 0)"/>
     <use xlink:href="#DejaVuSans-70" transform="translate(1449.947266 0)"/>
     <use xlink:href="#DejaVuSans-20" transform="translate(1513.423828 0)"/>
     <use xlink:href="#DejaVuSans-76" transform="translate(1545.210938 0)"/>
     <use xlink:href="#DejaVuSans-61" transform="translate(1604.390625 0)"/>
     <use xlink:href="#DejaVuSans-6c" transform="translate(1665.669922 0)"/>
     <use xlink:href="#DejaVuSans-75" transform="translate(1693.453125 0)"/>
     <use xlink:href="#DejaVuSans-65" transform="translate(1756.832031 0)"/>
     <use xlink:href="#DejaVuSans-73" transform="translate(1818.355469 0)"/>
     <use xlink:href="#DejaVuSans-20" transform="translate(1870.455078 0)"/>
     <use xlink:href="#DejaVuSans-28" transform="translate(1902.242188 0)"/>
     <use xlink:href="#DejaVuSans-4c" transform="translate(1941.255859 0)"/>
     <use xlink:href="#DejaVuSans-3d" transform="translate(1996.96875 0)"/>
     <use xlink:href="#DejaVuSans-36" transform="translate(2080.757812 0)"/>
     <use xlink:href="#DejaVuSans-2c" transform="translate(2144.380859 0)"/>
     <use xlink:href="#DejaVuSans-20" transform="translate(2176.167969 0)"/>
     <use xlink:href="#DejaVuSans-64" transform="translate(2207.955078 0)"/>
     <use xlink:href="#DejaVuSans-74" transform="translate(2271.431641 0)"/>
     <use xlink:href="#DejaVuSans-3d" transform="translate(2310.640625 0)"/>
     <use xlink:href="#DejaVuSans-31" transform="translate(2394.429688 0)"/>
     <use xlink:href="#DejaVuSans-2e" transform="translate(2458.052734 0)"/>
     <use xlink:href="#DejaVuSans-30" transform="translate(2489.839844 0)"/>
     <use xlink:href="#DejaVuSans-2c" transform="translate(2553.462891 0)"/>
     <use xlink:href="#DejaVuSans-20" transform="translate(2585.25 0)"/>
     <use xlink:href="#DejaVuSans-4d" transform="translate(2617.037109 0)"/>
     <use xlink:href="#DejaVuSans-65" transform="translate(2703.316406 0)"/>
     <use xlink:href="#DejaVuSans-61" transform="translate(2764.839844 0)"/>
     <use xlink:href="#DejaVuSans-73" transform="translate(2826.119141 0)"/>
     <use xlink:href="#DejaVuSans-75" transform="translate(2878.21875 0)"/>
     <use xlink:href="#DejaVuSans-72" transform="translate(2941.597656 0)"/>
     <use xlink:href="#DejaVuSans-65" transform="translate(2980.460938 0)"/>
     <use xlink:href="#DejaVuSans-6d" transform="translate(3041.984375 0)"/>
     <use xlink:href="#DejaVuSans-65" transform="translate(3139.396484 0)"/>
     <use xlink:href="#DejaVuSans-6e" transform="translate(3200.919922 0)"/>
     <use xlink:href="#DejaVuSans-74" transform="translate(3264.298828 0)"/>
     <use xlink:href="#DejaVuSans-20" transform="translate(3303.507812 0)"/>
     <use xlink:href="#DejaVuSans-64" transform="translate(3335.294922 0)"/>
     <use xlink:href="#DejaVuSans-69" transform="translate(3398.771484 0)"/>
     <use xlink:href="#DejaVuSans-72" transform="translate(3426.554688 0)"/>
     <use xlink:href="#DejaVuSans-65" transform="translate(3465.417969 0)"/>
     <use xlink:href="#DejaVuSans-63" transform="translate(3526.941406 0)"/>
     <use xlink:href="#DejaVuSans-74" transform="translate(3581.921875 0)"/>
     <use xlink:href="#DejaVuSans-69" transform="translate(3621.130859 0)"/>
     <use xlink:href="#DejaVuSans-6f" transform="translate(3648.914062 0)"/>
     <use xlink:href="#DejaVuSans-6e" transform="translate(3710.095703 0)"/>
     <use xlink:href="#DejaVuSans-3a" transform="translate(3773.474609 0)"/>
     <use xlink:href="#DejaVuSans-20" transform="translate(3807.166016 0)"/>
     <use xlink:href="#DejaVuSans-5a" transform="translate(3838.953125 0)"/>
     <use xlink:href="#DejaVuSans-29" transform="translate(3907.458984 0)"/>
    </g>
   </g>
   <g id="legend_1">
    <g id="patch_7">
     <path d="M 54.72 385.04 
L 117.35125 385.04 
Q 119.35125 385.04 119.35125 383.04 
L 119.35125 237.25875 
Q 119.35125 235.25875 117.35125 235.25875 
L 54.72 235.25875 
Q 52.72 235.25875 52.72 237.25875 
L 52.72 383.04 
Q 52.72 385.04 54.72 385.04 
z
" style="fill: #ffffff; opacity: 0.8; stroke: #cccccc; stroke-linejoin: miter"/>
    </g>
    <g id="line2d_35">
     <path d="M 56.72 243.357188 
L 66.72 243.357188 
L 76.72 243.357188 
" style="fill: none; stroke: #1f77b4; stroke-width: 1.5; stroke-linecap: square"/>
    </g>
    <g id="text_16">
     <!-- p=0.1 -->
     <g transform="translate(84.72 246.857188) scale(0.1 -0.1)">
      <use xlink:href="#DejaVuSans-70"/>
      <use xlink:href="#DejaVuSans-3d" transform="translate(63.476562 0)"/>
      <use xlink:href="#DejaVuSans-30" transform="translate(147.265625 0)"/>
      <use xlink:href="#DejaVuSans-2e" transform="translate(210.888672 0)"/>
      <use xlink:href="#DejaVuSans-31" transform="translate(242.675781 0)"/>
     </g>
    </g>
    <g id="line2d_36">
     <path d="M 56.72 258.035313 
L 66.72 258.035313 
L 76.72 258.035313 
" style="fill: none; stroke: #ff7f0e; stroke-width: 1.5; stroke-linecap: square"/>
    </g>
    <g id="text_17">
     <!-- p=0.2 -->
     <g transform="translate(84.72 261.535313) scale(0.1 -0.1)">
      <use xlink:href="#DejaVuSans-70"/>
      <use xlink:href="#DejaVuSans-3d" transform="translate(63.476562 0)"/>
      <use xlink:href="#DejaVuSans-30" transform="translate(147.265625 0)"/>
      <use xlink:href="#DejaVuSans-2e" transform="translate(210.888672 0)"/>
      <use xlink:href="#DejaVuSans-32" transform="translate(242.675781 0)"/>
     </g>
    </g>
    <g id="line2d_37">
     <path d="M 56.72 272.713438 
L 66.72 272.713438 
L 76.72 272.713438 
" style="fill: none; stroke: #2ca02c; stroke-width: 1.5; stroke-linecap: square"/>
    </g>
    <g id="text_18">
     <!-- p=0.3 -->
     <g transform="translate(84.72 276.213438) scale(0.1 -0.1)">
      <use xlink:href="#DejaVuSans-70"/>
      <use xlink:href="#DejaVuSans-3d" transform="translate(63.476562 0)"/>
      <use xlink:href="#DejaVuSans-30" transform="translate(147.265625 0)"/>
      <use xlink:href="#DejaVuSans-2e" transform="translate(210.888672 0)"/>
      <use xlink:href="#DejaVuSans-33" transform="translate(242.675781 0)"/>
     </g>
    </g>
    <g id="line2d_38">
     <path d="M 56.72 287.391563 
L 66.72 287.391563 
L 76.72 287.391563 
" style="fill: none; stroke: #d62728; stroke-width: 1.5; stroke-linecap: square"/>
    </g>
    <g id="text_19">
     <!-- p=0.4 -->
     <g transform="translate(84.72 290.891563) scale(0.1 -0.1)">
      <use xlink:href="#DejaVuSans-70"/>
      <use xlink:href="#DejaVuSans-3d" transform="translate(63.476562 0)"/>
      <use xlink:href="#DejaVuSans-30" transform="translate(147.265625 0)"/>
      <use xlink:href="#DejaVuSans-2e" transform="translate(210.888672 0)"/>
      <use xlink:href="#DejaVuSans-34" transform="translate(242.675781 0)"/>
     </g>
    </g>
    <g id="line2d_39">
     <path d="M 56.72 302.069688 
L 66.72 302.069688 
L 76.72 302.069688 
" style="fill: none; stroke: #9467bd; stroke-width: 1.5; stroke-linecap: square"/>
    </g>
    <g id="text_20">
     <!-- p=0.5 -->
     <g transform="translate(84.72 305.569688) scale(0.1 -0.1)">
      <use xlink:href="#DejaVuSans-70"/>
      <use xlink:href="#DejaVuSans-3d" transform="translate(63.476562 0)"/>
      <use xlink:href="#DejaVuSans-30" transform="translate(147.265625 0)"/>
      <use xlink:href="#DejaVuSans-2e" transform="translate(210.888672 0)"/>
      <use xlink:href="#DejaVuSans-35" transform="translate(242.675781 0)"/>
     </g>
    </g>
    <g id="line2d_40">
     <path d="M 56.72 316.747813 
L 66.72 316.747813 
L 76.72 316.747813 
" style="fill: none; stroke: #8c564b; stroke-width: 1.5; stroke-linecap: square"/>
    </g>
    <g id="text_21">
     <!-- p=0.6 -->
     <g transform="translate(84.72 320.247813) scale(0.1 -0.1)">
      <use xlink:href="#DejaVuSans-70"/>
      <use xlink:href="#DejaVuSans-3d" transform="translate(63.476562 0)"/>
      <use xlink:href="#DejaVuSans-30" transform="translate(147.265625 0)"/>
      <use xlink:href="#DejaVuSans-2e" transform="translate(210.888672 0)"/>
      <use xlink:href="#DejaVuSans-36" transform="translate(242.675781 0)"/>
     </g>
    </g>
    <g id="line2d_41">
     <path d="M 56.72 331.425938 
L 66.72 331.425938 
L 76.72 331.425938 
" style="fill: none; stroke: #e377c2; stroke-width: 1.5; stroke-linecap: square"/>
    </g>
    <g id="text_22">
     <!-- p=0.7 -->
     <g transform="translate(84.72 334.925938) scale(0.1 -0.1)">
      <defs>
       <path id="DejaVuSans-37" d="M 525 4666 
L 3525 4666 
L 3525 4397 
L 1831 0 
L 1172 0 
L 2766 4134 
L 525 4134 
L 525 4666 
z
" transform="scale(0.015625)"/>
      </defs>
      <use xlink:href="#DejaVuSans-70"/>
      <use xlink:href="#DejaVuSans-3d" transform="translate(63.476562 0)"/>
      <use xlink:href="#DejaVuSans-30" transform="translate(147.265625 0)"/>
      <use xlink:href="#DejaVuSans-2e" transform="translate(210.888672 0)"/>
      <use xlink:href="#DejaVuSans-37" transform="translate(242.675781 0)"/>
     </g>
    </g>
    <g id="line2d_42">
     <path d="M 56.72 346.104062 
L 66.72 346.104062 
L 76.72 346.104062 
" style="fill: none; stroke: #7f7f7f; stroke-width: 1.5; stroke-linecap: square"/>
    </g>
    <g id="text_23">
     <!-- p=0.8 -->
     <g transform="translate(84.72 349.604062) scale(0.1 -0.1)">
      <defs>
       <path id="DejaVuSans-38" d="M 2034 2216 
Q 1584 2216 1326 1975 
Q 1069 1734 1069 1313 
Q 1069 891 1326 650 
Q 1584 409 2034 409 
Q 2484 409 2743 651 
Q 3003 894 3003 1313 
Q 3003 1734 2745 1975 
Q 2488 2216 2034 2216 
z
M 1403 2484 
Q 997 2584 770 2862 
Q 544 3141 544 3541 
Q 544 4100 942 4425 
Q 1341 4750 2034 4750 
Q 2731 4750 3128 4425 
Q 3525 4100 3525 3541 
Q 3525 3141 3298 2862 
Q 3072 2584 2669 2484 
Q 3125 2378 3379 2068 
Q 3634 1759 3634 1313 
Q 3634 634 3220 271 
Q 2806 -91 2034 -91 
Q 1263 -91 848 271 
Q 434 634 434 1313 
Q 434 1759 690 2068 
Q 947 2378 1403 2484 
z
M 1172 3481 
Q 1172 3119 1398 2916 
Q 1625 2713 2034 2713 
Q 2441 2713 2670 2916 
Q 2900 3119 2900 3481 
Q 2900 3844 2670 4047 
Q 2441 4250 2034 4250 
Q 1625 4250 1398 4047 
Q 1172 3844 1172 3481 
z
" transform="scale(0.015625)"/>
      </defs>
      <use xlink:href="#DejaVuSans-70"/>
      <use xlink:href="#DejaVuSans-3d" transform="translate(63.476562 0)"/>
      <use xlink:href="#DejaVuSans-30" transform="translate(147.265625 0)"/>
      <use xlink:href="#DejaVuSans-2e" transform="translate(210.888672 0)"/>
      <use xlink:href="#DejaVuSans-38" transform="translate(242.675781 0)"/>
     </g>
    </g>
    <g id="line2d_43">
     <path d="M 56.72 360.782188 
L 66.72 360.782188 
L 76.72 360.782188 
" style="fill: none; stroke: #bcbd22; stroke-width: 1.5; stroke-linecap: square"/>
    </g>
    <g id="text_24">
     <!-- p=0.9 -->
     <g transform="translate(84.72 364.282188) scale(0.1 -0.1)">
      <defs>
       <path id="DejaVuSans-39" d="M 703 97 
L 703 672 
Q 941 559 1184 500 
Q 1428 441 1663 441 
Q 2288 441 2617 861 
Q 2947 1281 2994 2138 
Q 2813 1869 2534 1725 
Q 2256 1581 1919 1581 
Q 1219 1581 811 2004 
Q 403 2428 403 3163 
Q 403 3881 828 4315 
Q 1253 4750 1959 4750 
Q 2769 4750 3195 4129 
Q 3622 3509 3622 2328 
Q 3622 1225 3098 567 
Q 2575 -91 1691 -91 
Q 1453 -91 1209 -44 
Q 966 3 703 97 
z
M 1959 2075 
Q 2384 2075 2632 2365 
Q 2881 2656 2881 3163 
Q 2881 3666 2632 3958 
Q 2384 4250 1959 4250 
Q 1534 4250 1286 3958 
Q 1038 3666 1038 3163 
Q 1038 2656 1286 2365 
Q 1534 2075 1959 2075 
z
" transform="scale(0.015625)"/>
      </defs>
      <use xlink:href="#DejaVuSans-70"/>
      <use xlink:href="#DejaVuSans-3d" transform="translate(63.476562 0)"/>
      <use xlink:href="#DejaVuSans-30" transform="translate(147.265625 0)"/>
      <use xlink:href="#DejaVuSans-2e" transform="translate(210.888672 0)"/>
      <use xlink:href="#DejaVuSans-39" transform="translate(242.675781 0)"/>
     </g>
    </g>
    <g id="line2d_44">
     <path d="M 56.72 375.460312 
L 66.72 375.460312 
L 76.72 375.460312 
" style="fill: none; stroke: #17becf; stroke-width: 1.5; stroke-linecap: square"/>
    </g>
    <g id="text_25">
     <!-- p=1.0 -->
     <g transform="translate(84.72 378.960312) scale(0.1 -0.1)">
      <use xlink:href="#DejaVuSans-70"/>
      <use xlink:href="#DejaVuSans-3d" transform="translate(63.476562 0)"/>
      <use xlink:href="#DejaVuSans-31" transform="translate(147.265625 0)"/>
      <use xlink:href="#DejaVuSans-2e" transform="translate(210.888672 0)"/>
      <use xlink:href="#DejaVuSans-30" transform="translate(242.675781 0)"/>
     </g>
    </g>
   </g>
  </g>
 </g>
 <defs>
  <clipPath id="p93a8a38864">
   <rect x="47.72" y="26.88" width="661.48" height="363.16"/>
  </clipPath>
 </defs>
</svg>
